<?xml version="1.0" encoding="UTF-8"?>
<!-- Generator: visioncortex VTracer 0.6.3 -->
<svg version="1.1" xmlns="http://www.w3.org/2000/svg" width="1280" height="1280">
<path d="M0 0 C1.14 1.36 1.14 1.36 1.14 3.36 C1.8 3.36 2.46 3.36 3.14 3.36 C4.65 5.04 4.65 5.04 6.27 7.24 C6.81 7.96 7.35 8.68 7.9 9.42 C9.14 11.36 9.14 11.36 9.14 13.36 C9.8 13.36 10.46 13.36 11.14 13.36 C13.17 17.35 15.17 21.35 17.14 25.36 C17.52 26.13 17.9 26.89 18.29 27.67 C20.93 33.25 22.51 39 24.14 44.95 C25.25 48.71 26.63 52.26 28.14 55.88 C30.92 62.78 33.02 69.93 35.14 77.05 C36.51 81.56 38.14 85.73 40.14 89.99 C41.81 93.94 42.92 98.06 44.14 102.16 C45.04 105.02 46.05 107.73 47.21 110.49 C48.64 113.93 49.72 117.32 50.64 120.93 C51.54 124.38 52.57 127.51 54.08 130.74 C56.22 135.31 57.64 140 59.08 144.83 C61.74 153.66 64.67 162.38 68.18 170.92 C70.9 177.82 73.02 184.94 75.14 192.05 C76.28 195.78 77.49 199.33 79.14 202.86 C81.26 207.39 82.65 212.05 84.08 216.83 C86.45 224.7 88.94 232.58 92.08 240.18 C95.48 248.43 98.07 257 100.84 265.48 C103.15 272.56 105.5 279.57 108.45 286.41 C109.14 288.36 109.14 288.36 109.14 291.36 C110.35 291.67 110.35 291.67 111.58 291.99 C115.41 293.47 118.3 295.4 121.66 297.72 C125.12 300.01 128.75 301.92 132.4 303.87 C137.81 306.81 143.04 310.06 148.27 313.31 C155.75 317.95 163.27 322.43 171.14 326.36 C171.14 327.02 171.14 327.68 171.14 328.36 C171.91 328.49 171.91 328.49 172.7 328.62 C176.18 329.68 179.19 331.49 182.33 333.3 C183.03 333.7 183.74 334.1 184.46 334.51 C191.68 338.64 198.84 342.86 205.99 347.09 C208.15 348.37 210.31 349.64 212.47 350.9 C213.9 351.74 215.34 352.58 216.77 353.43 C217.47 353.83 218.16 354.24 218.88 354.66 C222.41 356.74 225.93 358.83 229.44 360.96 C230.13 361.37 230.81 361.79 231.52 362.21 C232.82 363 234.12 363.79 235.41 364.58 C237.98 366.14 240.29 367.41 243.14 368.36 C243.14 369.02 243.14 369.68 243.14 370.36 C243.7 370.47 244.25 370.57 244.81 370.68 C247.65 371.51 249.88 372.81 252.43 374.31 C253.46 374.91 254.48 375.52 255.54 376.13 C256.61 376.77 257.67 377.4 258.77 378.05 C259.81 378.66 260.86 379.28 261.93 379.91 C267.55 383.21 273.14 386.56 278.73 389.92 C281.19 391.39 283.67 392.84 286.14 394.29 C302.15 403.69 302.15 403.69 309.16 409.68 C311.12 411.34 313.14 412.79 315.27 414.24 C316.22 414.94 317.17 415.64 318.14 416.36 C318.14 417.02 318.14 417.68 318.14 418.36 C318.71 418.6 319.27 418.84 319.85 419.08 C322.66 420.65 324.62 422.58 326.89 424.86 C327.69 425.66 328.49 426.45 329.32 427.27 C331.14 429.36 331.14 429.36 331.14 431.36 C331.8 431.36 332.46 431.36 333.14 431.36 C335.09 433.48 335.09 433.48 337.27 436.24 C337.99 437.14 338.72 438.05 339.46 438.98 C341.14 441.36 341.14 441.36 341.14 443.36 C341.8 443.36 342.46 443.36 343.14 443.36 C344.66 445.45 344.66 445.45 346.39 448.3 C348.62 451.91 350.88 455.48 353.27 458.99 C357.73 465.66 361.31 472.4 364.18 479.9 C365.09 482.24 366.13 484.47 367.21 486.74 C369.25 491.24 370.36 495.85 371.43 500.66 C372.02 503.29 372.02 503.29 373.11 505.22 C380.47 520.42 379.58 541.01 379.49 557.47 C379.48 559.49 379.48 561.5 379.49 563.51 C379.49 568.9 379.47 574.29 379.45 579.69 C379.43 585.35 379.43 591.01 379.42 596.67 C379.42 607.36 379.39 618.05 379.36 628.73 C379.33 640.92 379.31 653.1 379.3 665.28 C379.26 690.31 379.21 715.34 379.14 740.36 C380.23 740.49 381.32 740.62 382.45 740.75 C388.2 741.7 392.45 744.91 396.14 749.36 C398.63 754.34 399.52 757.96 399.53 763.61 C399.54 764.3 399.54 764.99 399.55 765.71 C399.56 768.02 399.56 770.33 399.55 772.64 C399.55 774.3 399.56 775.96 399.57 777.63 C399.59 782.13 399.59 786.63 399.58 791.14 C399.58 794.9 399.58 798.67 399.59 802.43 C399.6 811.32 399.6 820.2 399.59 829.08 C399.58 838.24 399.59 847.39 399.62 856.55 C399.64 864.42 399.65 872.29 399.64 880.16 C399.64 884.86 399.64 889.55 399.66 894.25 C399.67 898.66 399.67 903.08 399.65 907.5 C399.65 909.12 399.65 910.73 399.66 912.35 C399.72 922.3 399.36 929.24 392.83 937.18 C386.03 942.71 379.81 942.8 371.35 942.75 C369.57 942.76 369.57 942.76 367.76 942.77 C364.48 942.78 361.21 942.78 357.93 942.77 C354.39 942.77 350.86 942.78 347.32 942.79 C340.4 942.81 333.47 942.81 326.55 942.8 C320.92 942.8 315.29 942.8 309.66 942.8 C308.86 942.8 308.06 942.81 307.23 942.81 C305.6 942.81 303.97 942.81 302.34 942.81 C287.08 942.82 271.81 942.82 256.54 942.81 C242.58 942.8 228.62 942.81 214.66 942.83 C200.32 942.86 185.97 942.87 171.63 942.86 C163.58 942.86 155.53 942.86 147.48 942.88 C140.63 942.89 133.78 942.89 126.93 942.88 C123.43 942.87 119.94 942.87 116.44 942.88 C112.65 942.89 108.86 942.88 105.07 942.86 C103.97 942.87 102.87 942.88 101.73 942.89 C94.27 942.82 88.93 941.63 83.12 936.62 C82.68 936.06 82.23 935.5 81.77 934.93 C81.31 934.37 80.85 933.81 80.37 933.24 C77.39 928.68 76.89 924.76 76.88 919.36 C76.87 918.67 76.87 917.98 76.86 917.26 C76.85 914.95 76.85 912.63 76.85 910.32 C76.85 908.65 76.84 906.99 76.83 905.33 C76.82 900.82 76.81 896.3 76.81 891.79 C76.81 888.97 76.8 886.15 76.8 883.33 C76.78 873.48 76.77 863.64 76.77 853.79 C76.78 844.62 76.75 835.45 76.72 826.28 C76.7 818.41 76.69 810.53 76.69 802.65 C76.69 797.95 76.68 793.24 76.66 788.54 C76.64 784.11 76.64 779.69 76.66 775.26 C76.66 773.64 76.65 772.02 76.64 770.4 C76.58 761.11 76.54 753.7 82.89 746.34 C87.6 742.58 90.93 740.36 97.14 740.36 C97.05 733.44 96.94 726.52 96.83 719.61 C96.79 717.26 96.75 714.91 96.72 712.56 C96.68 709.16 96.62 705.77 96.56 702.38 C96.54 700.82 96.54 700.82 96.52 699.23 C96.32 689.17 95.25 680.15 90.14 671.36 C89.65 670.44 89.65 670.44 89.14 669.49 C87.58 666.64 85.93 664.09 83.89 661.55 C82.14 659.36 82.14 659.36 82.14 657.36 C81.48 657.36 80.82 657.36 80.14 657.36 C78.52 655.99 78.52 655.99 77.14 654.36 C77.14 653.7 77.14 653.04 77.14 652.36 C76.59 652.12 76.03 651.87 75.46 651.61 C72.72 650.13 70.47 648.43 68.14 646.36 C68.14 645.7 68.14 645.04 68.14 644.36 C67.57 644.1 66.99 643.83 66.39 643.55 C64.09 642.33 62.12 641.06 60.14 639.36 C60.14 638.7 60.14 638.04 60.14 637.36 C59.15 637.03 58.16 636.7 57.14 636.36 C57.14 635.7 57.14 635.04 57.14 634.36 C56.6 634.14 56.06 633.91 55.5 633.68 C52.41 631.95 50.1 629.72 47.52 627.3 C44.1 623.95 44.1 623.95 40.14 621.36 C40.14 620.7 40.14 620.04 40.14 619.36 C39.61 619.15 39.08 618.94 38.54 618.72 C35.22 616.84 32.64 614.28 29.89 611.68 C28.74 610.59 27.58 609.51 26.42 608.42 C25.86 607.9 25.3 607.37 24.72 606.83 C20.7 603.09 16.71 599.41 12.14 596.36 C12.14 595.7 12.14 595.04 12.14 594.36 C11.48 594.36 10.82 594.36 10.14 594.36 C10.14 593.7 10.14 593.04 10.14 592.36 C9.33 592.01 9.33 592.01 8.5 591.64 C5.51 590.02 3.03 588.01 0.39 585.86 C-0.59 585.07 -1.58 584.28 -2.59 583.46 C-3.71 582.42 -3.71 582.42 -4.86 581.36 C-4.86 580.7 -4.86 580.04 -4.86 579.36 C-5.39 579.15 -5.92 578.94 -6.46 578.72 C-9.78 576.84 -12.36 574.28 -15.11 571.68 C-16.26 570.59 -17.42 569.51 -18.58 568.42 C-19.14 567.9 -19.7 567.37 -20.28 566.83 C-24.3 563.09 -28.29 559.41 -32.86 556.36 C-32.86 555.7 -32.86 555.04 -32.86 554.36 C-33.52 554.36 -34.18 554.36 -34.86 554.36 C-34.86 553.7 -34.86 553.04 -34.86 552.36 C-35.67 552.01 -35.67 552.01 -36.5 551.64 C-39.49 550.02 -41.97 548.01 -44.61 545.86 C-45.59 545.07 -46.58 544.28 -47.59 543.46 C-48.71 542.42 -48.71 542.42 -49.86 541.36 C-49.86 540.7 -49.86 540.04 -49.86 539.36 C-50.39 539.14 -50.93 538.91 -51.48 538.68 C-55.71 536.34 -59.7 533.04 -62.86 529.36 C-62.86 528.7 -62.86 528.04 -62.86 527.36 C-63.52 527.36 -64.18 527.36 -64.86 527.36 C-69.86 521.89 -69.86 521.89 -69.86 519.36 C-70.52 519.36 -71.18 519.36 -71.86 519.36 C-83.1 506.2 -88.82 487.52 -92.38 470.92 C-92.56 470.1 -92.73 469.27 -92.92 468.43 C-93.07 467.67 -93.23 466.92 -93.39 466.15 C-93.7 464.35 -93.7 464.35 -94.86 463.36 C-95.34 461.24 -95.81 459.12 -96.27 456.99 C-97.27 452.53 -98.51 448.14 -99.73 443.74 C-100.26 441.79 -100.8 439.85 -101.33 437.91 C-101.59 436.96 -101.85 436.02 -102.12 435.05 C-106.59 418.76 -106.59 418.76 -108.04 411.99 C-108.47 408.57 -108.47 408.57 -109.86 407.36 C-110.07 405.75 -110.07 405.75 -110.29 404.11 C-110.8 400.76 -111.61 398.46 -112.86 395.36 C-113.38 393.47 -113.87 391.57 -114.33 389.66 C-114.59 388.6 -114.85 387.54 -115.12 386.44 C-115.51 384.79 -115.51 384.79 -115.92 383.11 C-116.45 380.92 -116.98 378.73 -117.52 376.54 C-117.75 375.57 -117.98 374.6 -118.22 373.6 C-118.65 371.41 -118.65 371.41 -119.86 370.36 C-120.18 369.06 -120.47 367.74 -120.73 366.43 C-121.46 362.96 -122.36 359.62 -123.42 356.24 C-124.64 352.29 -125.29 348.46 -125.86 344.36 C-126.3 343.25 -126.3 343.25 -126.76 342.12 C-128.07 338.83 -128.96 335.53 -129.86 332.11 C-130.03 331.45 -130.2 330.79 -130.38 330.11 C-131.35 326.42 -132.24 322.72 -133.04 318.99 C-133.47 315.57 -133.47 315.57 -134.86 314.36 C-135.34 312.24 -135.81 310.12 -136.27 307.99 C-137.27 303.53 -138.51 299.14 -139.73 294.74 C-140.26 292.79 -140.8 290.85 -141.33 288.91 C-141.59 287.96 -141.85 287.02 -142.12 286.05 C-146.59 269.76 -146.59 269.76 -148.04 262.99 C-148.47 259.57 -148.47 259.57 -149.86 258.36 C-150.18 257.06 -150.47 255.74 -150.73 254.43 C-151.46 250.96 -152.36 247.62 -153.42 244.24 C-154.64 240.29 -155.29 236.46 -155.86 232.36 C-156.15 231.62 -156.45 230.88 -156.76 230.12 C-158.07 226.83 -158.96 223.53 -159.86 220.11 C-160.12 219.12 -160.12 219.12 -160.38 218.11 C-161.35 214.42 -162.24 210.72 -163.04 206.99 C-163.47 203.57 -163.47 203.57 -164.86 202.36 C-165.19 201.06 -165.48 199.75 -165.74 198.44 C-166.85 193.27 -168.24 188.2 -169.67 183.11 C-170.47 180.17 -171.27 177.22 -172.06 174.27 C-172.57 172.4 -173.09 170.54 -173.62 168.69 C-180.03 146.28 -181.03 122.32 -169.86 101.18 C-168.88 99.56 -167.88 97.95 -166.86 96.36 C-166.39 95.56 -165.92 94.75 -165.43 93.93 C-163.02 89.83 -163.02 89.83 -161.86 88.36 C-161.2 88.36 -160.54 88.36 -159.86 88.36 C-159.63 87.81 -159.4 87.25 -159.17 86.68 C-157.49 83.72 -155.32 81.64 -152.86 79.36 C-152.13 78.68 -151.41 78 -150.67 77.3 C-149.88 76.58 -149.1 75.86 -148.29 75.11 C-147.55 74.43 -146.81 73.74 -146.04 73.04 C-143.89 71.39 -142.5 70.77 -139.86 70.36 C-139.86 69.7 -139.86 69.04 -139.86 68.36 C-139.2 68.36 -138.54 68.36 -137.86 68.36 C-137.87 67.73 -137.89 67.11 -137.9 66.46 C-138.39 44.17 -134.9 26.78 -121.86 8.36 C-121.2 8.36 -120.54 8.36 -119.86 8.36 C-119.59 7.79 -119.32 7.21 -119.04 6.61 C-117.83 4.31 -116.55 2.34 -114.86 0.36 C-114.2 0.36 -113.54 0.36 -112.86 0.36 C-112.86 -0.3 -112.86 -0.96 -112.86 -1.64 C-110.77 -3.58 -110.77 -3.58 -108.04 -5.76 C-107.15 -6.49 -106.26 -7.21 -105.34 -7.96 C-102.86 -9.64 -102.86 -9.64 -99.86 -9.64 C-99.86 -10.3 -99.86 -10.96 -99.86 -11.64 C-65.53 -28.14 -29.42 -25.95 0 0 Z M-81.86 27.36 C-81.86 28.02 -81.86 28.68 -81.86 29.36 C-82.49 29.63 -83.13 29.9 -83.79 30.18 C-86.19 31.25 -86.19 31.25 -86.86 34.36 C-87.52 34.36 -88.18 34.36 -88.86 34.36 C-88.86 35.35 -88.86 36.34 -88.86 37.36 C-89.52 37.36 -90.18 37.36 -90.86 37.36 C-94.43 43.86 -96.23 49.92 -95.86 57.36 C-93.22 58.68 -91.11 58.51 -88.17 58.61 C-77.58 59.35 -67.88 62.83 -58.86 68.36 C-57.87 68.36 -56.88 68.36 -55.86 68.36 C-55.86 69.02 -55.86 69.68 -55.86 70.36 C-54.91 70.84 -53.96 71.31 -52.98 71.8 C-34.57 82.35 -23.33 101.81 -17.73 121.61 C-17.44 122.71 -17.15 123.81 -16.85 124.94 C-15.94 128.07 -14.84 131.06 -13.68 134.1 C-11.68 139.6 -10.13 145.26 -8.46 150.88 C-6.97 155.83 -5.41 160.7 -3.54 165.53 C-2.41 168.56 -1.49 171.65 -0.54 174.74 C1.3 180.75 3.25 186.72 5.27 192.68 C7.2 198.39 8.92 204.1 10.44 209.94 C11.17 212.44 12.08 214.77 13.08 217.18 C15.22 222.31 16.66 227.56 18.14 232.92 C19.3 236.88 20.69 240.71 22.14 244.57 C23.66 248.78 24.91 253.07 26.2 257.35 C26.99 259.85 27.83 262.29 28.77 264.74 C30.55 269.44 31.84 274.22 33.14 279.07 C33.47 280.28 33.8 281.49 34.14 282.74 C34.47 283.96 34.8 285.19 35.14 286.45 C35.81 289.49 35.81 289.49 38.14 290.36 C40.14 289.69 40.14 289.69 42.39 288.61 C48.78 285.92 55.36 284.65 62.14 283.36 C59.73 275.38 57.31 267.48 54.11 259.77 C51.36 252.9 49.26 245.77 47.14 238.68 C46.01 234.94 44.8 231.4 43.14 227.86 C41.03 223.34 39.64 218.68 38.21 213.9 C35.29 204.22 32.03 194.69 28.14 185.36 C26.82 182.13 25.71 178.94 24.77 175.57 C21.99 165.53 21.99 165.53 18.14 155.86 C16.03 151.34 14.64 146.68 13.21 141.9 C10.79 133.87 8.24 125.86 5.02 118.11 C3.61 114.72 2.56 111.36 1.64 107.8 C0.54 103.54 -0.95 99.78 -2.82 95.8 C-4.5 91.83 -5.63 87.7 -6.85 83.56 C-7.75 80.71 -8.77 77.99 -9.92 75.24 C-11.71 70.94 -12.9 66.61 -14.07 62.1 C-15.11 58.48 -16.5 55.05 -17.95 51.57 C-18.86 49.36 -18.86 49.36 -19.86 46.18 C-21.13 42.6 -22.9 39.61 -24.86 36.36 C-25.52 36.36 -26.18 36.36 -26.86 36.36 C-27.22 35.5 -27.22 35.5 -27.59 34.61 C-31.78 27.19 -40.67 22.89 -48.43 20.21 C-60.19 17.29 -72.53 19.2 -81.86 27.36 Z M-121.86 107.36 C-121.86 108.02 -121.86 108.68 -121.86 109.36 C-122.49 109.63 -123.13 109.9 -123.79 110.18 C-126.19 111.25 -126.19 111.25 -126.86 114.36 C-127.52 114.36 -128.18 114.36 -128.86 114.36 C-128.86 115.35 -128.86 116.34 -128.86 117.36 C-129.52 117.36 -130.18 117.36 -130.86 117.36 C-139.15 132.44 -135.96 147.37 -131.52 163.07 C-130.33 167.16 -129.06 171.21 -127.76 175.26 C-126.41 179.87 -125.49 184.56 -124.57 189.27 C-123.96 192.28 -123.96 192.28 -122.9 194.7 C-121.81 197.47 -121.08 200.18 -120.38 203.07 C-120.12 204.13 -119.86 205.19 -119.6 206.29 C-119.33 207.38 -119.07 208.48 -118.79 209.61 C-118.26 211.81 -117.73 214 -117.2 216.19 C-116.96 217.16 -116.73 218.13 -116.49 219.13 C-116.07 221.32 -116.07 221.32 -114.86 222.36 C-114.53 223.67 -114.24 224.98 -113.98 226.3 C-113.25 229.76 -112.35 233.11 -111.29 236.49 C-110.07 240.44 -109.42 244.26 -108.86 248.36 C-108.56 249.1 -108.26 249.85 -107.95 250.61 C-106.64 253.89 -105.76 257.2 -104.86 260.61 C-104.59 261.6 -104.59 261.6 -104.33 262.61 C-103.36 266.31 -102.47 270 -101.67 273.74 C-101.24 277.16 -101.24 277.16 -99.86 278.36 C-99.71 279.44 -99.57 280.51 -99.42 281.61 C-98.92 284.97 -98.11 287.26 -96.86 290.36 C-96.33 292.26 -95.84 294.16 -95.38 296.07 C-95.12 297.13 -94.86 298.19 -94.6 299.29 C-94.2 300.93 -94.2 300.93 -93.79 302.61 C-93.26 304.81 -92.73 307 -92.2 309.19 C-91.96 310.16 -91.73 311.13 -91.49 312.13 C-91.07 314.32 -91.07 314.32 -89.86 315.36 C-89.53 316.67 -89.24 317.98 -88.98 319.3 C-88.25 322.76 -87.35 326.11 -86.29 329.49 C-85.07 333.44 -84.42 337.26 -83.86 341.36 C-83.41 342.48 -83.41 342.48 -82.95 343.61 C-81.64 346.89 -80.76 350.2 -79.86 353.61 C-79.68 354.27 -79.51 354.93 -79.33 355.61 C-78.36 359.31 -77.47 363 -76.67 366.74 C-76.24 370.16 -76.24 370.16 -74.86 371.36 C-74.38 373.47 -73.9 375.58 -73.45 377.69 C-72.41 382.35 -71.12 386.95 -69.86 391.55 C-69.6 392.51 -69.33 393.47 -69.07 394.46 C-68.05 398.16 -67.03 401.84 -65.79 405.48 C-64.78 408.6 -64.1 411.71 -63.41 414.91 C-62.42 419.31 -61.19 423.64 -59.98 427.99 C-59.45 429.93 -58.91 431.88 -58.38 433.82 C-58.12 434.76 -57.86 435.71 -57.59 436.68 C-53.12 452.97 -53.12 452.97 -51.67 459.74 C-51.24 463.16 -51.24 463.16 -49.86 464.36 C-49.75 465.33 -49.65 466.3 -49.54 467.3 C-48.2 477.32 -42.4 488.74 -35.86 496.36 C-35.2 496.36 -34.54 496.36 -33.86 496.36 C-33.86 497.02 -33.86 497.68 -33.86 498.36 C-33.2 498.36 -32.54 498.36 -31.86 498.36 C-31.36 499.85 -31.36 499.85 -30.86 501.36 C-30.2 501.36 -29.54 501.36 -28.86 501.36 C-28.86 502.02 -28.86 502.68 -28.86 503.36 C-27.14 505.17 -27.14 505.17 -24.98 506.99 C-24.26 507.62 -23.54 508.25 -22.8 508.9 C-20.99 510.56 -20.99 510.56 -18.86 510.36 C-18.86 511.02 -18.86 511.68 -18.86 512.36 C-17.18 513.86 -15.44 515.29 -13.67 516.68 C-10.64 519.06 -7.82 521.4 -5.12 524.16 C-3.14 526.6 -3.14 526.6 -0.86 526.36 C-0.86 527.02 -0.86 527.68 -0.86 528.36 C-0.2 528.36 0.46 528.36 1.14 528.36 C1.14 529.02 1.14 529.68 1.14 530.36 C2.84 531.93 4.6 533.42 6.39 534.86 C7.37 535.66 8.34 536.45 9.35 537.27 C11.59 538.95 13.59 540.24 16.14 541.36 C16.14 542.02 16.14 542.68 16.14 543.36 C17.86 545.17 17.86 545.17 20.02 546.99 C20.74 547.62 21.46 548.25 22.2 548.9 C24.01 550.56 24.01 550.56 26.14 550.36 C26.47 551.35 26.8 552.34 27.14 553.36 C28.86 554.9 30.64 556.38 32.46 557.8 C35.24 560 37.9 562.11 40.38 564.65 C41.97 566.6 41.97 566.6 44.14 566.36 C44.14 567.02 44.14 567.68 44.14 568.36 C44.8 568.36 45.46 568.36 46.14 568.36 C46.14 569.02 46.14 569.68 46.14 570.36 C47.84 571.93 49.6 573.42 51.39 574.86 C52.37 575.66 53.34 576.45 54.35 577.27 C56.59 578.95 58.59 580.24 61.14 581.36 C61.14 582.02 61.14 582.68 61.14 583.36 C62.86 585.17 62.86 585.17 65.02 586.99 C65.74 587.62 66.46 588.25 67.2 588.9 C69.01 590.56 69.01 590.56 71.14 590.36 C71.14 591.02 71.14 591.68 71.14 592.36 C72.82 593.86 74.56 595.29 76.33 596.68 C79.36 599.06 82.18 601.4 84.88 604.16 C86.86 606.6 86.86 606.6 89.14 606.36 C89.14 607.02 89.14 607.68 89.14 608.36 C89.8 608.36 90.46 608.36 91.14 608.36 C91.14 609.02 91.14 609.68 91.14 610.36 C92.84 611.93 94.6 613.42 96.39 614.86 C97.37 615.66 98.34 616.45 99.35 617.27 C101.59 618.95 103.59 620.24 106.14 621.36 C106.14 622.02 106.14 622.68 106.14 623.36 C106.8 623.36 107.46 623.36 108.14 623.36 C108.47 624.35 108.8 625.34 109.14 626.36 C109.8 626.36 110.46 626.36 111.14 626.36 C111.14 627.02 111.14 627.68 111.14 628.36 C111.8 628.36 112.46 628.36 113.14 628.36 C113.39 628.9 113.64 629.44 113.89 629.99 C115.45 632.95 117.18 635.66 119.14 638.36 C119.8 638.36 120.46 638.36 121.14 638.36 C121.25 638.93 121.36 639.5 121.47 640.08 C122.24 642.7 123.41 644.57 124.89 646.86 C142.37 675.51 138.54 707.2 139.14 740.36 C204.48 740.36 269.82 740.36 337.14 740.36 C337.19 707.84 337.23 675.31 337.27 641.8 C337.29 631.55 337.31 621.3 337.32 610.73 C337.33 601.5 337.33 601.5 337.34 592.28 C337.34 588.18 337.34 584.09 337.36 579.99 C337.37 574.75 337.37 569.52 337.37 564.28 C337.37 562.36 337.38 560.45 337.38 558.54 C337.45 540.57 336.08 523.17 329.14 506.36 C328.8 505.48 328.45 504.61 328.09 503.7 C322.66 490.24 316.38 478.51 307.49 467.09 C306.25 465.5 305.04 463.9 303.82 462.29 C298.44 455.37 291.69 447.21 283.14 444.36 C283.14 443.7 283.14 443.04 283.14 442.36 C281.2 440.77 281.2 440.77 278.77 439.24 C277.96 438.7 277.15 438.16 276.31 437.61 C274.27 436.2 274.27 436.2 272.14 436.36 C272.14 435.7 272.14 435.04 272.14 434.36 C270.71 433.52 269.27 432.69 267.83 431.86 C267.03 431.4 266.23 430.94 265.41 430.46 C263.11 429.15 263.11 429.15 260.14 429.36 C260.14 428.7 260.14 428.04 260.14 427.36 C259.39 426.95 258.63 426.54 257.84 426.12 C256.85 425.58 255.86 425.04 254.83 424.49 C253.85 423.95 252.86 423.42 251.84 422.87 C249.14 421.36 249.14 421.36 246.14 419.36 C245.15 419.36 244.16 419.36 243.14 419.36 C243.14 418.7 243.14 418.04 243.14 417.36 C242.51 417.02 241.88 416.68 241.23 416.33 C228.6 409.49 216.22 402.26 203.87 394.93 C201.3 393.41 198.72 391.88 196.14 390.36 C195.44 389.94 194.73 389.52 194 389.08 C190.79 387.04 190.79 387.04 187.14 386.36 C187.14 385.7 187.14 385.04 187.14 384.36 C186.44 384.03 185.74 383.71 185.01 383.37 C178.44 380.2 172.37 376.68 166.28 372.68 C162.02 369.89 157.67 367.4 153.17 365.01 C149.36 362.94 145.63 360.75 141.89 358.55 C141.18 358.13 140.46 357.7 139.72 357.27 C136.07 355.11 132.43 352.94 128.82 350.72 C128.14 350.3 127.46 349.88 126.75 349.45 C125.46 348.66 124.17 347.86 122.88 347.06 C119.29 344.85 119.29 344.85 115.14 344.36 C115.14 343.7 115.14 343.04 115.14 342.36 C114.23 341.87 114.23 341.87 113.3 341.37 C108.89 338.97 104.49 336.57 100.13 334.07 C99.44 333.67 98.75 333.28 98.04 332.87 C96.68 332.09 95.33 331.31 93.98 330.52 C83.41 324.48 72.74 322.07 60.72 325.28 C57.72 326.46 54.96 327.78 52.14 329.36 C51.41 329.77 50.67 330.19 49.91 330.61 C42.29 335.59 36.27 344.56 34.14 353.36 C33.85 356.85 33.82 360.31 33.83 363.8 C33.81 365.17 33.81 365.17 33.78 366.58 C33.78 372.31 34.5 376.27 37.14 381.36 C37.54 382.17 37.93 382.97 38.33 383.8 C38.73 384.57 38.73 384.57 39.14 385.36 C39.8 385.36 40.46 385.36 41.14 385.36 C41.37 385.92 41.6 386.48 41.83 387.05 C45.77 393.99 52.74 397.41 59.39 401.36 C60.89 402.27 60.89 402.27 62.42 403.19 C65.32 404.93 68.23 406.65 71.14 408.36 C72.01 408.88 72.88 409.39 73.78 409.91 C74.58 410.37 75.37 410.83 76.19 411.3 C76.89 411.7 77.58 412.1 78.3 412.52 C80.26 413.57 80.26 413.57 83.14 413.36 C83.14 414.02 83.14 414.68 83.14 415.36 C83.78 415.7 84.41 416.04 85.06 416.39 C96.2 422.43 107.18 428.7 118 435.31 C124.18 439.52 124.18 439.52 131.14 441.36 C131.14 442.02 131.14 442.68 131.14 443.36 C131.84 443.69 132.53 444.02 133.24 444.36 C140.13 447.71 146.67 451.38 153.15 455.47 C156.86 457.81 156.86 457.81 161.14 458.36 C161.14 459.02 161.14 459.68 161.14 460.36 C162.24 461 163.33 461.64 164.46 462.3 C165.07 462.66 165.69 463.02 166.32 463.39 C168.28 464.5 168.28 464.5 171.14 465.36 C172.21 467.24 172.21 467.24 173.14 469.36 C173.8 470.35 174.46 471.34 175.14 472.36 C176.48 479.04 176.46 484.96 174.14 491.36 C171.05 495.91 171.05 495.91 168.14 497.36 C168.14 498.02 168.14 498.68 168.14 499.36 C167.38 499.51 166.62 499.65 165.83 499.8 C163.06 500.33 163.06 500.33 160.14 501.36 C148.04 502.41 138.51 494.82 128.54 488.79 C124.39 486.28 120.23 483.85 115.96 481.55 C110.68 478.71 105.56 475.65 100.45 472.52 C94.17 468.23 94.17 468.23 87.14 466.36 C87.14 465.7 87.14 465.04 87.14 464.36 C86.49 464.06 85.83 463.75 85.15 463.44 C77.72 459.86 70.75 455.76 63.74 451.41 C58.65 448.26 53.51 445.28 48.21 442.48 C46.14 441.36 46.14 441.36 43.14 439.36 C42.15 439.36 41.16 439.36 40.14 439.36 C40.14 438.7 40.14 438.04 40.14 437.36 C38.49 437.03 36.84 436.7 35.14 436.36 C35.14 435.7 35.14 435.04 35.14 434.36 C33.4 433.4 31.64 432.45 29.89 431.49 C28.92 430.95 27.95 430.42 26.94 429.87 C24.69 428.66 22.44 427.49 20.14 426.36 C20.14 425.7 20.14 425.04 20.14 424.36 C18.42 422.66 18.42 422.66 16.27 420.93 C13.68 418.78 12.03 417.2 10.14 414.36 C9.48 414.36 8.82 414.36 8.14 414.36 C7.87 413.64 7.6 412.91 7.32 412.16 C6.17 409.43 4.84 407.06 3.27 404.55 C-7.99 385.94 -10.79 364.67 -5.86 343.36 C-4.04 337.45 -2.04 331.68 0.78 326.16 C2.74 322.14 2.85 318.73 1.57 314.42 C0.81 312.38 -0.01 310.37 -0.86 308.36 C-1.38 307.01 -1.9 305.66 -2.42 304.3 C-2.65 303.71 -2.87 303.12 -3.11 302.52 C-4.15 299.5 -4.99 296.43 -5.86 293.36 C-8.65 284.15 -11.63 275 -14.69 265.87 C-16.48 260.53 -18.16 255.17 -19.79 249.78 C-21.35 244.79 -23.04 239.84 -24.71 234.89 C-26.1 230.74 -27.38 226.6 -28.48 222.36 C-29.36 218.96 -30.44 215.79 -31.79 212.55 C-33.93 207.44 -35.39 202.2 -36.83 196.86 C-37.75 193.71 -38.86 190.68 -40.04 187.62 C-42.03 182.12 -43.58 176.46 -45.25 170.85 C-46.73 165.9 -48.3 161.04 -50.16 156.22 C-51.34 153.08 -52.31 149.88 -53.29 146.68 C-53.51 145.99 -53.72 145.3 -53.95 144.59 C-54.96 141.33 -55.94 138.07 -56.86 134.79 C-59.55 125.31 -63.23 116.9 -70.86 110.36 C-71.39 109.88 -71.93 109.4 -72.49 108.91 C-81.14 101.74 -91.22 98.45 -102.41 98.87 C-109.46 99.88 -116.45 102.63 -121.86 107.36 Z M119.14 782.36 C119.14 821.3 119.14 860.24 119.14 900.36 C197.68 900.36 276.22 900.36 357.14 900.36 C357.14 861.42 357.14 822.48 357.14 782.36 C278.6 782.36 200.06 782.36 119.14 782.36 Z " fill="#000000" transform="translate(221.85546875,298.63671875)"/>
<path d="M0 0 C0.94 0.01 1.89 0.01 2.86 0.02 C14.63 0.46 25.75 5.45 36 11 C36 11.66 36 12.32 36 13 C36.56 13.09 37.12 13.19 37.7 13.29 C40.57 14.18 42.4 15.59 44.75 17.44 C45.55 18.05 46.35 18.67 47.17 19.31 C48.08 20.15 48.08 20.15 49 21 C49 21.66 49 22.32 49 23 C49.66 23 50.32 23 51 23 C56 28.48 56 28.48 56 31 C56.66 31 57.32 31 58 31 C72.65 48.79 74.55 68.95 74 91 C74.66 91 75.32 91 76 91 C76 91.66 76 92.32 76 93 C76.72 93.25 77.44 93.51 78.19 93.77 C85.27 96.88 91.53 102.74 96 109 C96 109.66 96 110.32 96 111 C96.66 111 97.32 111 98 111 C112.65 128.4 115.43 151.2 114 173 C113.44 177.78 112.35 182.38 111 187 C110.81 187.73 110.62 188.46 110.43 189.22 C109.79 191.62 109.04 193.91 108.06 196.19 C106.74 199.68 105.94 203.24 105.12 206.88 C103.79 212.69 102.4 218.48 100.88 224.25 C100.56 225.43 100.25 226.61 99.93 227.83 C99 231 99 231 97.91 233.71 C96.7 236.75 96.45 239.76 96 243 C95.15 246.28 94.26 249.39 92.94 252.5 C91.76 255.63 91.46 258.69 91 262 C90.33 264 89.67 266 89 268 C87.9 272.02 86.88 276.06 85.86 280.1 C85.01 283.36 84.19 286.52 82.94 289.65 C81.72 292.71 81.14 295.77 80.5 299 C79.66 303.23 78.64 307.02 77 311 C76.65 313.33 76.32 315.67 76 318 C75.18 321.17 74.34 324.21 73.05 327.23 C71.75 330.65 70.97 334.13 70.19 337.69 C68.58 344.75 66.75 351.71 64.75 358.67 C63.49 363.07 62.41 367.48 61.45 371.96 C60.6 375.81 59.6 379.59 58.05 383.22 C56.76 386.64 55.98 390.12 55.19 393.69 C53.58 400.75 51.75 407.71 49.75 414.67 C48.49 419.07 47.41 423.48 46.45 427.96 C45.6 431.81 44.6 435.59 43.05 439.21 C41.74 442.7 40.93 446.25 40.12 449.88 C38.79 455.69 37.4 461.48 35.88 467.25 C35.41 469.02 35.41 469.02 34.93 470.83 C34 474 34 474 32.98 476.48 C31.76 479.61 31.15 482.71 30.5 486 C29.66 490.23 28.64 494.01 27 498 C26.88 499.05 26.75 500.1 26.62 501.19 C25.81 506.16 23.95 510.38 22 515 C21.35 516.69 20.71 518.37 20.06 520.06 C16.13 529.8 10.39 537.74 4 546 C3.46 546.78 2.91 547.55 2.35 548.36 C1.91 548.9 1.46 549.44 1 550 C0.34 550 -0.32 550 -1 550 C-1 550.66 -1 551.32 -1 552 C-2.64 553.62 -2.64 553.62 -4.81 555.44 C-7.82 557.97 -7.82 557.97 -10.64 560.72 C-12 562 -12 562 -14 562 C-14 562.66 -14 563.32 -14 564 C-15.69 565.56 -17.46 567.05 -19.25 568.5 C-20.22 569.29 -21.2 570.09 -22.2 570.91 C-24.45 572.59 -26.45 573.88 -29 575 C-29 575.66 -29 576.32 -29 577 C-29.66 577 -30.32 577 -31 577 C-31 577.66 -31 578.32 -31 579 C-32.47 580.48 -32.47 580.48 -34.5 582.19 C-38.17 585.3 -41.77 588.48 -45.34 591.71 C-47 593 -47 593 -49 593 C-49 593.66 -49 594.32 -49 595 C-50.68 596.73 -50.68 596.73 -52.88 598.62 C-53.59 599.26 -54.31 599.89 -55.05 600.54 C-57 602 -57 602 -59 602 C-59 602.66 -59 603.32 -59 604 C-60.69 605.56 -62.46 607.05 -64.25 608.5 C-65.22 609.29 -66.2 610.09 -67.2 610.91 C-69.45 612.59 -71.45 613.88 -74 615 C-74 615.66 -74 616.32 -74 617 C-74.66 617 -75.32 617 -76 617 C-76 617.66 -76 618.32 -76 619 C-77.47 620.48 -77.47 620.48 -79.5 622.19 C-83.17 625.3 -86.77 628.48 -90.34 631.71 C-92 633 -92 633 -94 633 C-94 633.66 -94 634.32 -94 635 C-95.68 636.73 -95.68 636.73 -97.88 638.62 C-98.59 639.26 -99.31 639.89 -100.05 640.54 C-102 642 -102 642 -104 642 C-104 642.66 -104 643.32 -104 644 C-105.69 645.56 -107.46 647.05 -109.25 648.5 C-110.22 649.29 -111.2 650.09 -112.2 650.91 C-114.45 652.59 -116.45 653.88 -119 655 C-119 655.66 -119 656.32 -119 657 C-119.66 657 -120.32 657 -121 657 C-121 657.66 -121 658.32 -121 659 C-122.64 660.69 -122.64 660.69 -124.81 662.56 C-125.52 663.18 -126.23 663.8 -126.96 664.44 C-129 666 -129 666 -132 667 C-132 667.66 -132 668.32 -132 669 C-136.47 673 -136.47 673 -139 673 C-139 673.66 -139 674.32 -139 675 C-140.24 675.96 -140.24 675.96 -141.5 676.94 C-152.61 685.9 -158.06 699.27 -160 713 C-160.29 717 -160.37 721 -160.41 725.01 C-160.43 726.11 -160.45 727.2 -160.47 728.33 C-160.53 731.78 -160.58 735.23 -160.62 738.69 C-160.66 741.05 -160.7 743.4 -160.74 745.76 C-160.84 751.51 -160.92 757.25 -161 763 C-159.91 763.13 -158.82 763.26 -157.7 763.39 C-151.94 764.34 -147.69 767.55 -144 772 C-141.51 776.98 -140.62 780.59 -140.61 786.24 C-140.61 786.94 -140.6 787.63 -140.6 788.35 C-140.58 790.66 -140.59 792.96 -140.6 795.27 C-140.59 796.94 -140.58 798.6 -140.58 800.26 C-140.56 804.77 -140.56 809.27 -140.56 813.77 C-140.57 817.54 -140.56 821.3 -140.56 825.07 C-140.54 833.95 -140.54 842.84 -140.55 851.72 C-140.57 860.88 -140.55 870.03 -140.52 879.19 C-140.5 887.06 -140.5 894.93 -140.5 902.8 C-140.51 907.49 -140.5 912.19 -140.49 916.88 C-140.47 921.3 -140.47 925.72 -140.49 930.13 C-140.5 931.75 -140.49 933.37 -140.48 934.99 C-140.42 944.94 -140.78 951.87 -147.31 959.81 C-154.11 965.35 -160.33 965.43 -168.8 965.39 C-170.57 965.4 -170.57 965.4 -172.39 965.4 C-175.66 965.42 -178.94 965.41 -182.21 965.41 C-185.75 965.4 -189.29 965.41 -192.82 965.42 C-199.75 965.44 -206.67 965.44 -213.6 965.44 C-219.23 965.43 -224.86 965.44 -230.49 965.44 C-231.29 965.44 -232.09 965.44 -232.91 965.44 C-234.54 965.44 -236.17 965.45 -237.8 965.45 C-253.07 965.46 -268.33 965.46 -283.6 965.44 C-297.56 965.43 -311.52 965.45 -325.49 965.47 C-339.83 965.5 -354.17 965.51 -368.51 965.5 C-376.56 965.49 -384.61 965.5 -392.66 965.51 C-399.51 965.53 -406.37 965.53 -413.22 965.51 C-416.71 965.5 -420.21 965.5 -423.7 965.52 C-427.49 965.53 -431.28 965.52 -435.08 965.5 C-436.18 965.51 -437.28 965.52 -438.41 965.53 C-445.88 965.46 -451.21 964.27 -457.02 959.25 C-457.47 958.7 -457.92 958.14 -458.38 957.56 C-458.84 957.01 -459.3 956.45 -459.77 955.88 C-462.75 951.32 -463.25 947.4 -463.27 942 C-463.27 941.31 -463.28 940.61 -463.28 939.9 C-463.29 937.58 -463.29 935.27 -463.29 932.95 C-463.3 931.29 -463.3 929.63 -463.31 927.97 C-463.33 923.45 -463.33 918.94 -463.33 914.43 C-463.34 911.61 -463.34 908.79 -463.35 905.97 C-463.36 896.12 -463.37 886.28 -463.37 876.43 C-463.37 867.26 -463.39 858.09 -463.42 848.92 C-463.45 841.04 -463.46 833.16 -463.46 825.28 C-463.46 820.58 -463.46 815.88 -463.48 811.18 C-463.5 806.75 -463.5 802.33 -463.49 797.9 C-463.49 796.28 -463.49 794.66 -463.5 793.04 C-463.57 783.75 -463.61 776.34 -457.25 768.98 C-452.55 765.22 -449.21 763 -443 763 C-443 761.97 -443.01 760.94 -443.01 759.87 C-443.08 734.68 -443.12 709.49 -443.16 684.29 C-443.17 672.11 -443.19 659.93 -443.23 647.74 C-443.26 637.11 -443.28 626.49 -443.28 615.86 C-443.29 610.24 -443.3 604.62 -443.32 599 C-443.34 593.69 -443.34 588.39 -443.34 583.08 C-443.34 581.15 -443.35 579.22 -443.36 577.29 C-443.46 559.44 -441.8 541.97 -436.44 524.88 C-436.13 523.85 -435.83 522.83 -435.52 521.77 C-433.31 514.46 -433.31 514.46 -431 511 C-430.55 509.7 -430.13 508.38 -429.75 507.06 C-425.25 493.21 -416.34 477.3 -407 466 C-406.34 466 -405.68 466 -405 466 C-404.79 465.32 -404.59 464.64 -404.38 463.94 C-402.57 460.08 -400.1 456.92 -397 454 C-396.34 454 -395.68 454 -395 454 C-394.76 453.44 -394.53 452.88 -394.28 452.3 C-392.71 449.48 -390.79 447.52 -388.5 445.25 C-387.71 444.45 -386.91 443.65 -386.09 442.83 C-384 441 -384 441 -382 441 C-382 440.34 -382 439.68 -382 439 C-380.68 438.67 -379.36 438.34 -378 438 C-378 437.34 -378 436.68 -378 436 C-376.2 434.4 -374.41 432.95 -372.5 431.5 C-371.92 431.06 -371.35 430.62 -370.75 430.17 C-361.22 423.05 -350.99 416.94 -340.5 411.35 C-335.16 408.47 -330.02 405.26 -324.87 402.05 C-318.87 398.33 -312.83 394.76 -306.61 391.42 C-301.24 388.5 -296.06 385.28 -290.87 382.05 C-285.02 378.42 -279.14 374.94 -273.06 371.68 C-260.26 364.65 -247.56 357.13 -235.27 349.25 C-233 348 -233 348 -230 348 C-230 347.34 -230 346.68 -230 346 C-228.86 345.45 -228.86 345.45 -227.69 344.9 C-222.88 342.55 -218.16 340.24 -213.75 337.19 C-209.11 333.97 -204.24 331.28 -199.31 328.54 C-193.76 325.45 -188.3 322.23 -182.87 318.92 C-180.51 317.48 -178.19 316.09 -175.67 314.92 C-170.7 312.18 -169.47 302.06 -167.97 297.06 C-167 294 -167 294 -165.5 290.56 C-164.04 287.1 -163.05 283.74 -162.06 280.12 C-160.72 275.28 -159.16 270.87 -157 266.34 C-155.3 262.36 -154.17 258.21 -152.93 254.06 C-152.01 251.02 -150.93 248.1 -149.78 245.15 C-148.76 242.32 -147.92 239.45 -147.06 236.56 C-145.91 232.74 -144.7 229.11 -143 225.5 C-140.89 220.99 -139.54 216.35 -138.13 211.59 C-136.89 207.66 -135.48 203.84 -134 200 C-131.7 194 -129.7 187.97 -127.86 181.81 C-126.96 178.87 -125.9 176.02 -124.78 173.15 C-123.76 170.32 -122.92 167.45 -122.06 164.56 C-120.91 160.74 -119.7 157.11 -118 153.5 C-115.89 148.99 -114.54 144.35 -113.13 139.59 C-111.89 135.66 -110.48 131.84 -109 128 C-106.7 122 -104.7 115.97 -102.86 109.81 C-101.96 106.87 -100.9 104.02 -99.78 101.15 C-98.76 98.32 -97.92 95.45 -97.06 92.56 C-95.67 87.97 -94.04 83.72 -92 79.38 C-90.32 75.38 -89.17 71.22 -87.93 67.07 C-87 63.99 -85.94 61 -84.76 58.01 C-84.2 56.52 -83.69 55.01 -83.21 53.49 C-80.68 45.74 -76.72 39.6 -72 33 C-71.49 32.24 -70.97 31.47 -70.44 30.69 C-69.35 29.08 -68.19 27.53 -67 26 C-66.34 26 -65.68 26 -65 26 C-65 25.34 -65 24.68 -65 24 C-62.88 22.05 -62.88 22.05 -60.12 19.88 C-58.77 18.79 -58.77 18.79 -57.38 17.68 C-55 16 -55 16 -53 16 C-53 15.34 -53 14.68 -53 14 C-50.09 11.96 -48.6 11 -45 11 C-45 10.34 -45 9.68 -45 9 C-29.48 2.35 -16.99 -0.44 0 0 Z M-37 57 C-37 57.66 -37 58.32 -37 59 C-37.66 59 -38.32 59 -39 59 C-42.82 65.06 -45.12 71.07 -47.1 77.94 C-47.81 80.36 -48.58 82.66 -49.5 85 C-50.83 88.41 -51.89 91.87 -52.94 95.38 C-54.4 100.2 -56.08 104.83 -58 109.49 C-59.89 114.25 -61.42 119.13 -63 124 C-63.85 126.61 -64.7 129.21 -65.56 131.81 C-65.96 133.02 -66.35 134.22 -66.75 135.46 C-67.57 137.78 -68.47 140.08 -69.45 142.35 C-71.3 146.7 -72.78 151.13 -74.25 155.62 C-74.55 156.53 -74.85 157.44 -75.16 158.38 C-76.42 162.2 -77.68 166.03 -78.94 169.86 C-79.85 172.64 -80.77 175.41 -81.69 178.19 C-81.96 179.02 -82.23 179.86 -82.51 180.72 C-84.19 185.8 -86.08 190.75 -88.1 195.7 C-89.26 198.65 -90.18 201.64 -91.06 204.69 C-92.2 208.62 -93.54 212.3 -95.19 216.04 C-96.81 219.95 -98.06 223.98 -99.38 228 C-99.68 228.92 -99.98 229.84 -100.3 230.79 C-101.2 233.53 -102.1 236.26 -103 239 C-107.85 253.71 -107.85 253.71 -110.26 259.92 C-111.26 262.73 -112.09 265.58 -112.94 268.44 C-114.09 272.26 -115.3 275.89 -117 279.5 C-120.92 287.89 -123.16 296.96 -125 306 C-123.94 306.25 -122.88 306.51 -121.78 306.77 C-114.69 308.49 -107.76 310.19 -101 313 C-97.18 304.44 -94.54 295.64 -92.07 286.61 C-90.36 280.44 -88.49 274.53 -86 268.63 C-84.34 264.26 -83.18 259.75 -81.93 255.24 C-81.04 252.13 -79.97 249.18 -78.78 246.18 C-77.72 243.2 -76.9 240.17 -76.06 237.12 C-74.65 232.05 -73.02 227.21 -70.93 222.38 C-70 219.99 -69.28 217.58 -68.59 215.11 C-67.32 210.58 -65.93 206.07 -64.56 201.56 C-64.11 200.06 -64.11 200.06 -63.65 198.54 C-62.34 194.21 -61.02 189.93 -59.4 185.71 C-58.08 182.21 -57.03 178.74 -56.06 175.12 C-54.67 170.12 -53.02 165.41 -51 160.63 C-49.34 156.27 -48.18 151.76 -46.93 147.25 C-46.02 144.08 -44.99 141.03 -43.76 137.97 C-43.19 136.5 -42.68 135 -42.21 133.5 C-39.15 124.11 -33.98 116.28 -27.5 108.88 C-24.78 106.38 -24.78 106.38 -25 104 C-24.01 103.67 -23.02 103.34 -22 103 C-22 102.34 -22 101.68 -22 101 C-21.44 100.74 -20.87 100.48 -20.29 100.21 C-17.79 98.89 -15.6 97.35 -13.31 95.69 C-1.18 87.18 11.68 81.72 26.64 81.14 C29.15 81.09 29.15 81.09 32 80 C32.55 72.82 29.73 66.51 27 60 C26.34 60 25.68 60 25 60 C25 59.01 25 58.02 25 57 C24.34 57 23.68 57 23 57 C22.67 56.01 22.34 55.02 22 54 C21.34 54 20.68 54 20 54 C20 53.34 20 52.68 20 52 C19.34 52 18.68 52 18 52 C18 51.34 18 50.68 18 50 C0.47 35.88 -22.83 40.66 -37 57 Z M3 137 C3 137.66 3 138.32 3 139 C2.34 139 1.68 139 1 139 C-3.05 145.28 -5.18 151.53 -7.1 158.72 C-7.79 161.24 -8.53 163.59 -9.5 166 C-10.91 169.56 -11.92 173.19 -12.94 176.88 C-14.1 181.03 -15.33 185.03 -17 189 C-18.59 192.8 -19.78 196.59 -20.88 200.56 C-22.37 205.97 -24.09 211.23 -26 216.5 C-28.33 222.94 -30.31 229.4 -32.14 236 C-33.01 239.03 -34.06 241.9 -35.22 244.82 C-36.28 247.8 -37.1 250.83 -37.94 253.88 C-39.1 258.03 -40.33 262.03 -42 266 C-44.09 270.99 -45.5 276.09 -46.94 281.3 C-48.37 286.3 -50.04 291.2 -51.71 296.12 C-53.08 300.21 -54.36 304.32 -55.62 308.44 C-57.02 312.97 -58.5 317.44 -60.25 321.86 C-61.77 326.2 -62.92 330.68 -64.13 335.12 C-65 338 -65 338 -66 339 C-66.4 344.28 -65.6 347.57 -63.19 352.25 C-54.67 369.79 -53.2 391.12 -59.21 409.75 C-60.07 412.15 -60.96 414.53 -61.88 416.91 C-62.86 419.62 -63.53 422.16 -64 425 C-64.66 425 -65.32 425 -66 425 C-68.32 428.94 -70.43 432.69 -72 437 C-72.66 437 -73.32 437 -74 437 C-75.7 438.72 -75.7 438.72 -77.44 440.88 C-79.58 443.46 -81.17 445.11 -84 447 C-84 447.66 -84 448.32 -84 449 C-84.54 449.27 -85.08 449.53 -85.64 449.8 C-88.38 451.19 -91.06 452.65 -93.75 454.12 C-94.73 454.66 -95.72 455.2 -96.73 455.76 C-97.48 456.17 -98.23 456.58 -99 457 C-99 457.66 -99 458.32 -99 459 C-100.65 459.33 -102.3 459.66 -104 460 C-104 460.66 -104 461.32 -104 462 C-104.58 462.12 -105.16 462.24 -105.75 462.37 C-112.09 464.14 -117.8 468.48 -123.31 471.94 C-128.54 475.19 -133.86 478 -139.4 480.68 C-142.47 482.24 -145.18 484.05 -148 486 C-148.99 486.33 -149.98 486.66 -151 487 C-151 487.66 -151 488.32 -151 489 C-151.71 489.27 -152.41 489.55 -153.14 489.83 C-160.71 492.93 -167.8 496.71 -174.52 501.36 C-182.29 506.5 -190.61 510.97 -199 515 C-199 515.66 -199 516.32 -199 517 C-199.68 517.08 -200.36 517.16 -201.06 517.25 C-204.25 518.06 -206.51 519.35 -209.32 521.01 C-214.21 523.88 -218.41 524.59 -224 524 C-226.81 523 -226.81 523 -229 522 C-229.99 522 -230.98 522 -232 522 C-232 521.34 -232 520.68 -232 520 C-233.64 518.31 -235.31 516.65 -237 515 C-240.15 510.27 -240.46 504.47 -239.72 498.86 C-238.8 495.34 -237.28 492.8 -235 490 C-235 489.34 -235 488.68 -235 488 C-234.34 487.77 -233.68 487.55 -233 487.31 C-229.99 486 -227.32 484.38 -224.55 482.62 C-214.96 476.54 -205.27 470.88 -195 466 C-195 465.34 -195 464.68 -195 464 C-193.35 463.67 -191.7 463.34 -190 463 C-190 462.34 -190 461.68 -190 461 C-189.42 460.88 -188.84 460.76 -188.25 460.63 C-181.91 458.86 -176.2 454.52 -170.69 451.06 C-166.46 448.43 -162.23 446.05 -157.75 443.88 C-153.38 441.75 -149.45 439.39 -145.47 436.63 C-138.32 431.91 -130.66 427.88 -123.12 423.81 C-122.24 423.33 -121.36 422.84 -120.46 422.34 C-118.93 421.51 -117.38 420.69 -115.82 419.91 C-109.46 416.45 -105.75 411.08 -102 405 C-101.64 404.42 -101.27 403.83 -100.89 403.23 C-97.75 397.69 -97.39 392.86 -97.5 386.56 C-97.48 385.67 -97.47 384.78 -97.45 383.87 C-97.52 372.95 -102.49 364.94 -109.74 357.12 C-117.74 349.43 -127.06 346.21 -138.07 346.41 C-149.42 347.05 -158.48 353.26 -167.85 359.11 C-171 361 -171 361 -174 362 C-174 362.66 -174 363.32 -174 364 C-175.65 364.33 -177.3 364.66 -179 365 C-179 365.66 -179 366.32 -179 367 C-179.57 367.11 -180.13 367.23 -180.72 367.35 C-183.25 368.07 -185.23 369.12 -187.5 370.44 C-190.3 372.04 -193.1 373.58 -196 375 C-196 375.66 -196 376.32 -196 377 C-196.86 377.18 -196.86 377.18 -197.75 377.36 C-200.12 378.03 -201.94 378.94 -204.07 380.16 C-204.86 380.61 -205.65 381.06 -206.46 381.52 C-210.93 384.12 -215.37 386.74 -219.81 389.38 C-221.75 390.52 -223.7 391.67 -225.64 392.82 C-227.02 393.64 -227.02 393.64 -228.44 394.48 C-231.66 396.39 -234.89 398.29 -238.12 400.19 C-238.99 400.7 -239.86 401.21 -240.76 401.73 C-242.81 402.89 -244.88 403.97 -247 405 C-247 405.66 -247 406.32 -247 407 C-247.58 407.12 -248.16 407.24 -248.75 407.37 C-255.1 409.15 -260.84 413.5 -266.38 416.94 C-271.15 419.9 -275.98 422.66 -280.94 425.32 C-289.19 429.85 -297.26 434.73 -305.32 439.61 C-306 440.02 -306.69 440.43 -307.39 440.86 C-308.68 441.64 -309.98 442.43 -311.27 443.22 C-313.83 444.78 -316.14 446.05 -319 447 C-319 447.66 -319 448.32 -319 449 C-320.65 449.33 -322.3 449.66 -324 450 C-324 450.66 -324 451.32 -324 452 C-324.57 452.12 -325.14 452.24 -325.73 452.37 C-328.1 453.03 -330.07 453.94 -332.25 455.06 C-332.96 455.42 -333.66 455.79 -334.39 456.16 C-335.19 456.58 -335.19 456.58 -336 457 C-336 457.66 -336 458.32 -336 459 C-336.7 459.25 -337.4 459.5 -338.12 459.75 C-341.4 461.17 -344.14 462.87 -347 465 C-347 465.66 -347 466.32 -347 467 C-347.56 467.25 -348.12 467.51 -348.69 467.77 C-355.43 471.37 -361.57 476.79 -366 483 C-366 483.66 -366 484.32 -366 485 C-366.66 485 -367.32 485 -368 485 C-369.38 486.46 -369.38 486.46 -370.76 488.41 C-371.3 489.15 -371.84 489.88 -372.39 490.64 C-372.96 491.44 -373.54 492.24 -374.12 493.06 C-374.71 493.88 -375.29 494.69 -375.89 495.53 C-383.3 506.04 -388.95 516.77 -393 529 C-393.52 530.31 -394.04 531.63 -394.56 532.94 C-400.73 549.49 -401.3 566.56 -401.23 583.97 C-401.23 585.96 -401.23 587.96 -401.23 589.95 C-401.23 595.25 -401.22 600.55 -401.2 605.84 C-401.19 610.83 -401.19 615.82 -401.19 620.8 C-401.18 635.35 -401.15 649.89 -401.12 664.44 C-401.08 696.96 -401.04 729.49 -401 763 C-335.66 763 -270.32 763 -203 763 C-202.67 744.52 -202.34 726.04 -202 707 C-198.7 690.48 -198.7 690.48 -196.03 685.1 C-194.9 682.8 -194.02 680.46 -193.12 678.06 C-191.29 673.38 -188.87 669.26 -186.17 665.03 C-184.83 663.1 -184.83 663.1 -185 661 C-184.34 661 -183.68 661 -183 661 C-181.41 659.29 -181.41 659.29 -179.88 657.12 C-179.34 656.41 -178.8 655.69 -178.24 654.95 C-176.82 653.1 -176.82 653.1 -177 651 C-176.34 651 -175.68 651 -175 651 C-175 650.34 -175 649.68 -175 649 C-174.01 648.67 -173.02 648.34 -172 648 C-172 647.34 -172 646.68 -172 646 C-171.34 646 -170.68 646 -170 646 C-170 645.34 -170 644.68 -170 644 C-169.15 643.63 -169.15 643.63 -168.29 643.25 C-165.61 641.79 -163.62 640.01 -161.38 637.94 C-157.19 634.1 -157.19 634.1 -155 633 C-155 632.34 -155 631.68 -155 631 C-154.34 631 -153.68 631 -153 631 C-151.33 629.67 -151.33 629.67 -150 628 C-150 627.34 -150 626.68 -150 626 C-149.17 625.65 -149.17 625.65 -148.32 625.29 C-145.42 623.68 -143.29 621.65 -140.88 619.38 C-136.36 615.18 -131.71 611.32 -126.8 607.59 C-126.21 607.07 -125.61 606.54 -125 606 C-125 605.34 -125 604.68 -125 604 C-124.46 603.76 -123.92 603.53 -123.36 603.28 C-120.37 601.66 -117.89 599.65 -115.25 597.5 C-114.27 596.71 -113.28 595.91 -112.27 595.09 C-111.52 594.4 -110.77 593.71 -110 593 C-110 592.34 -110 591.68 -110 591 C-109.34 591 -108.68 591 -108 591 C-108 590.34 -108 589.68 -108 589 C-107.4 588.73 -106.81 588.45 -106.19 588.17 C-104.07 587.04 -102.63 585.91 -100.9 584.24 C-100.33 583.7 -99.76 583.16 -99.18 582.61 C-98.28 581.75 -98.28 581.75 -97.38 580.88 C-92.34 576.1 -87.25 571.66 -81.7 567.49 C-81.14 567 -80.58 566.51 -80 566 C-80 565.34 -80 564.68 -80 564 C-79.46 563.76 -78.92 563.53 -78.36 563.28 C-75.37 561.66 -72.89 559.65 -70.25 557.5 C-69.27 556.71 -68.28 555.91 -67.27 555.09 C-66.52 554.4 -65.77 553.71 -65 553 C-65 552.34 -65 551.68 -65 551 C-64.34 551 -63.68 551 -63 551 C-63 550.34 -63 549.68 -63 549 C-62.45 548.77 -61.91 548.55 -61.35 548.31 C-58.28 546.6 -56 544.4 -53.44 542 C-50.68 539.43 -48.14 537.09 -45 535 C-45 534.34 -45 533.68 -45 533 C-44.46 532.77 -43.93 532.55 -43.38 532.31 C-40.18 530.54 -37.71 528.46 -35 526 C-35 525.34 -35 524.68 -35 524 C-34.01 523.67 -33.02 523.34 -32 523 C-32 522.34 -32 521.68 -32 521 C-31.34 521 -30.68 521 -30 521 C-30 520.34 -30 519.68 -30 519 C-29.34 519 -28.68 519 -28 519 C-20.48 509.78 -15.21 498.9 -14 487 C-13.33 485 -12.67 483 -12 481 C-10.9 476.98 -9.88 472.94 -8.86 468.9 C-7.8 464.8 -6.62 460.92 -5 457 C-4.65 454.67 -4.32 452.33 -4 450 C-3.15 446.72 -2.26 443.61 -0.94 440.5 C0.24 437.37 0.54 434.31 1 431 C1.67 429 2.33 427 3 425 C4.1 420.98 5.12 416.94 6.14 412.9 C6.99 409.64 7.81 406.48 9.06 403.35 C10.28 400.29 10.86 397.23 11.5 394 C12.34 389.77 13.36 385.98 15 382 C15.34 379.67 15.67 377.33 16 375 C16.67 373 17.33 371 18 369 C19.1 364.98 20.12 360.94 21.14 356.9 C22.2 352.8 23.38 348.92 25 345 C25.35 342.67 25.68 340.33 26 338 C26.85 334.72 27.74 331.61 29.06 328.5 C30.24 325.37 30.54 322.31 31 319 C31.67 317 32.33 315 33 313 C34.1 308.98 35.12 304.94 36.14 300.9 C37.2 296.8 38.38 292.92 40 289 C40.35 286.67 40.68 284.33 41 282 C41.85 278.72 42.74 275.61 44.06 272.5 C45.24 269.37 45.54 266.31 46 263 C46.67 261 47.33 259 48 257 C49.1 252.98 50.12 248.94 51.14 244.9 C51.99 241.64 52.81 238.48 54.06 235.35 C55.28 232.29 55.86 229.23 56.5 226 C57.34 221.77 58.36 217.98 60 214 C60.34 211.67 60.67 209.33 61 207 C61.85 204.17 62.8 201.47 63.97 198.76 C65.17 195.54 65.83 192.37 66.5 189 C67.34 184.77 68.32 180.97 70 177 C73.37 166.54 73.39 155.1 69 145 C68.61 143.99 68.22 142.98 67.81 141.94 C67.54 141.3 67.28 140.66 67 140 C66.34 140 65.68 140 65 140 C65 139.01 65 138.02 65 137 C64.34 137 63.68 137 63 137 C62.67 136.01 62.34 135.02 62 134 C61.34 134 60.68 134 60 134 C60 133.34 60 132.68 60 132 C59.34 132 58.68 132 58 132 C58 131.34 58 130.68 58 130 C40.47 115.88 17.17 120.66 3 137 Z M-421 805 C-421 843.94 -421 882.88 -421 923 C-342.46 923 -263.92 923 -183 923 C-183 884.06 -183 845.12 -183 805 C-261.54 805 -340.08 805 -421 805 Z " fill="#000000" transform="translate(1122,276)"/>
<path d="M0 0 C1.81 0.16 3.61 0.32 5.42 0.48 C8.96 0.81 12.49 1.14 16.03 1.5 C16.75 1.57 17.47 1.64 18.21 1.72 C20 2 20 2 22 3 C23.35 3.17 24.71 3.31 26.06 3.42 C30.87 3.91 35.36 4.98 40 6.31 C40.79 6.53 41.58 6.76 42.39 6.99 C47.14 8.36 51.64 9.94 56.09 12.12 C58.06 13.03 59.99 13.64 62.06 14.25 C74.18 18.16 85.34 25.19 96 32 C96.96 32.57 97.91 33.15 98.9 33.74 C105.64 37.84 111.28 42.6 117 48 C118.43 49.34 119.87 50.68 121.31 52 C121.91 52.56 122.5 53.11 123.11 53.69 C125.48 55.33 127.12 55.86 130 56 C131.91 54.78 131.91 54.78 133.44 52.88 C136.46 49.59 139.45 46.72 143 44 C143.66 44 144.32 44 145 44 C145 43.34 145 42.68 145 42 C147.56 39.7 148.48 39 152 39 C152 38.34 152 37.68 152 37 C158.74 31.91 166.48 27.95 173.84 23.8 C175.78 22.69 177.71 21.56 179.62 20.39 C181.95 19.03 184.23 18.02 186.75 17.06 C190.03 15.8 193.21 14.45 196.38 12.94 C200.85 10.91 205.42 9.79 210.2 8.71 C212.93 8.02 215.4 7.09 218 6 C222.53 4.52 226.77 3.7 231.5 3.34 C234.2 3.03 234.2 3.03 237.57 2.04 C252.16 -1.71 268.1 -1.48 283 0 C284.81 0.16 286.61 0.32 288.42 0.48 C291.96 0.81 295.49 1.14 299.03 1.5 C299.75 1.57 300.47 1.64 301.21 1.72 C303 2 303 2 305 3 C306.3 3.12 307.6 3.25 308.94 3.38 C316.52 4.16 323.71 6.39 330.77 9.19 C333.66 10.24 336.61 11.07 339.56 11.94 C343.16 13.02 346.47 14.05 349.69 16 C352.47 17.68 354.86 18.76 357.88 19.88 C362.24 21.56 365.8 23.73 369.62 26.41 C373.89 29.26 378.46 31.61 383 34 C383 34.66 383 35.32 383 36 C383.72 36.25 384.44 36.49 385.18 36.75 C388.33 38.15 390.54 39.85 393.19 42.06 C394.14 42.86 395.09 43.65 396.07 44.47 C399.77 47.67 403.41 50.93 407 54.25 C408.88 56.05 408.88 56.05 411 57 C411 57.66 411 58.32 411 59 C411.66 59 412.32 59 413 59 C414.34 60.29 414.34 60.29 415.94 62.19 C416.87 63.29 416.87 63.29 417.82 64.41 C418.54 65.27 419.26 66.12 420 67 C420.84 67.96 421.69 68.91 422.55 69.9 C435.61 84.8 446.24 101.76 454 120 C454.41 120.92 454.82 121.84 455.24 122.79 C458.81 131 461.46 139.42 464 148 C464.35 149.16 464.69 150.33 465.05 151.52 C474.08 184.6 475.6 226.97 462 259 C461.54 260.63 461.07 262.25 460.61 263.88 C456.13 279.37 449.22 293.2 441 307 C440.49 307.88 439.98 308.75 439.45 309.65 C438.36 311.47 437.19 313.25 436 315 C435.34 315 434.68 315 434 315 C433.76 315.69 433.53 316.39 433.28 317.11 C431.77 320.52 429.75 323.36 427.5 326.31 C427.1 326.86 426.69 327.41 426.28 327.98 C425.24 329.36 424.12 330.69 423 332 C422.34 332 421.68 332 421 332 C420.77 332.56 420.55 333.11 420.31 333.69 C418.63 336.66 416.47 338.65 414 341 C413.17 341.82 412.35 342.65 411.5 343.5 C329 426 246.5 508.5 144 611 C143.38 611.7 142.76 612.4 142.12 613.12 C137.11 617.55 132.01 618.56 125.49 618.36 C116.51 617.07 110.33 610.54 104.7 603.95 C102.58 601.51 100.31 599.25 98 597 C15.5 514.5 -67 432 -157 342 C-157.6 341.43 -158.2 340.85 -158.81 340.26 C-163.99 335.22 -168.86 329.93 -173 324 C-173 323.34 -173 322.68 -173 322 C-173.66 322 -174.32 322 -175 322 C-178 317.62 -178 317.62 -178 315 C-178.66 315 -179.32 315 -180 315 C-181.65 312.72 -183.15 310.46 -184.62 308.06 C-185.07 307.34 -185.51 306.62 -185.97 305.88 C-193.61 293.27 -199.02 279.84 -204 266 C-204.52 264.62 -205.05 263.23 -205.57 261.85 C-219.16 225.68 -217.2 184.85 -208 148 C-207.61 146.4 -207.61 146.4 -207.22 144.76 C-205.92 139.67 -204.25 135.02 -202.01 130.27 C-200.97 127.92 -200.18 125.57 -199.38 123.12 C-191.8 101.92 -178 83.94 -163.55 67.02 C-161.92 65.09 -160.33 63.12 -158.79 61.11 C-158.2 60.41 -157.61 59.72 -157 59 C-156.34 59 -155.68 59 -155 59 C-155 58.34 -155 57.68 -155 57 C-153.71 55.66 -153.71 55.66 -151.81 54.06 C-151.09 53.45 -150.37 52.84 -149.62 52.21 C-148.76 51.48 -147.89 50.75 -147 50 C-145.92 49.07 -144.83 48.13 -143.75 47.2 C-142.6 46.22 -141.46 45.23 -140.31 44.25 C-139.49 43.54 -139.49 43.54 -138.66 42.82 C-130.64 36 -130.64 36 -127 36 C-127 35.34 -127 34.68 -127 34 C-125.58 33.2 -125.58 33.2 -124.12 32.38 C-121.1 30.65 -118.11 28.87 -115.12 27.06 C-107.25 22.34 -99.59 18.27 -91 15 C-89.23 14.29 -87.46 13.59 -85.69 12.88 C-84.12 12.25 -82.56 11.62 -81 11 C-80.15 10.65 -79.31 10.3 -78.44 9.94 C-75.75 8.9 -73.03 8.23 -70.23 7.57 C-67.81 6.95 -65.45 6.2 -63.06 5.44 C-59.15 4.24 -55.47 3.57 -51.4 3.31 C-48.78 3.03 -48.78 3.03 -45.44 2.05 C-30.85 -1.71 -14.9 -1.48 0 0 Z M-53 47 C-54.83 47.46 -56.66 47.9 -58.5 48.31 C-69.72 51.08 -79.72 55.68 -89.79 61.23 C-92.17 62.54 -94.55 63.81 -97 65 C-97 65.66 -97 66.32 -97 67 C-97.68 67.25 -98.36 67.5 -99.06 67.75 C-102.57 69.24 -105.72 71.07 -109 73 C-109 73.66 -109 74.32 -109 75 C-109.57 75.27 -110.14 75.54 -110.73 75.81 C-113.08 77.04 -115.12 78.43 -117.25 80 C-118.31 80.77 -118.31 80.77 -119.39 81.56 C-119.92 82.04 -120.45 82.51 -121 83 C-121 83.66 -121 84.32 -121 85 C-121.99 85.33 -122.98 85.66 -124 86 C-124 86.66 -124 87.32 -124 88 C-124.66 88 -125.32 88 -126 88 C-126 88.66 -126 89.32 -126 90 C-126.99 90.33 -127.98 90.66 -129 91 C-129 91.66 -129 92.32 -129 93 C-129.66 93 -130.32 93 -131 93 C-133.04 95.17 -133.04 95.17 -135.12 97.88 C-135.85 98.78 -136.57 99.68 -137.32 100.62 C-139.19 102.79 -139.19 102.79 -139 105 C-139.66 105 -140.32 105 -141 105 C-143.32 108.22 -143.32 108.22 -144 112 C-144.66 112 -145.32 112 -146 112 C-148.57 116.28 -150.59 120.17 -152 125 C-152.66 125 -153.32 125 -154 125 C-154.39 125.91 -154.77 126.81 -155.17 127.75 C-155.42 128.33 -155.67 128.92 -155.93 129.52 C-156.48 130.81 -157.03 132.1 -157.58 133.4 C-159.01 136.74 -160.49 140.04 -162.06 143.31 C-170.19 161.5 -172.2 181.3 -172.12 201 C-172.13 202.09 -172.13 203.17 -172.14 204.29 C-172.71 216.46 -172.71 216.46 -170 228 C-169.84 229.35 -169.71 230.7 -169.6 232.06 C-169.1 236.95 -167.9 241.4 -166.38 246.06 C-166.11 246.88 -165.85 247.7 -165.58 248.54 C-161.66 260.39 -156.7 271.44 -150 282 C-149.38 283.13 -148.76 284.27 -148.12 285.44 C-145.2 290.59 -141.55 295.27 -138 300 C-137.01 301.34 -137.01 301.34 -136 302.71 C-135.07 303.93 -135.07 303.93 -134.12 305.19 C-133.57 305.92 -133.02 306.66 -132.45 307.42 C-131.97 307.94 -131.49 308.46 -131 309 C-130.34 309 -129.68 309 -129 309 C-129 309.66 -129 310.32 -129 311 C-127.67 312.67 -127.67 312.67 -126 314 C-125.34 314 -124.68 314 -124 314 C-123.73 314.64 -123.46 315.28 -123.19 315.94 C-122.11 318.33 -122.11 318.33 -119 319 C-118.33 320.33 -117.67 321.67 -117 323 C-116.01 323.33 -115.02 323.66 -114 324 C-113.33 325.33 -112.67 326.67 -112 328 C-111.01 328.33 -110.02 328.66 -109 329 C-108.33 330.33 -107.67 331.67 -107 333 C-106.01 333.33 -105.02 333.66 -104 334 C-103.33 335.33 -102.67 336.67 -102 338 C-101.01 338.33 -100.02 338.66 -99 339 C-98.33 340.33 -97.67 341.67 -97 343 C-96.01 343.33 -95.02 343.66 -94 344 C-93.33 345.33 -92.67 346.67 -92 348 C-91.01 348.33 -90.02 348.66 -89 349 C-88.33 350.33 -87.67 351.67 -87 353 C-86.01 353.33 -85.02 353.66 -84 354 C-83.33 355.33 -82.67 356.67 -82 358 C-81.01 358.33 -80.02 358.66 -79 359 C-78.33 360.33 -77.67 361.67 -77 363 C-76.01 363.33 -75.02 363.66 -74 364 C-73.33 365.33 -72.67 366.67 -72 368 C-71.01 368.33 -70.02 368.66 -69 369 C-68.33 370.33 -67.67 371.67 -67 373 C-66.01 373.33 -65.02 373.66 -64 374 C-63.33 375.33 -62.67 376.67 -62 378 C-61.01 378.33 -60.02 378.66 -59 379 C-58.33 380.33 -57.67 381.67 -57 383 C-56.01 383.33 -55.02 383.66 -54 384 C-53.33 385.33 -52.67 386.67 -52 388 C-51.01 388.33 -50.02 388.66 -49 389 C-48.33 390.33 -47.67 391.67 -47 393 C-46.01 393.33 -45.02 393.66 -44 394 C-43.33 395.33 -42.67 396.67 -42 398 C-41.01 398.33 -40.02 398.66 -39 399 C-38.33 400.33 -37.67 401.67 -37 403 C-36.01 403.33 -35.02 403.66 -34 404 C-33.33 405.33 -32.67 406.67 -32 408 C-31.01 408.33 -30.02 408.66 -29 409 C-28.33 410.33 -27.67 411.67 -27 413 C-26.01 413.33 -25.02 413.66 -24 414 C-23.33 415.33 -22.67 416.67 -22 418 C-21.01 418.33 -20.02 418.66 -19 419 C-18.33 420.33 -17.67 421.67 -17 423 C-16.01 423.33 -15.02 423.66 -14 424 C-13.33 425.33 -12.67 426.67 -12 428 C-11.01 428.33 -10.02 428.66 -9 429 C-8.33 430.33 -7.67 431.67 -7 433 C-6.01 433.33 -5.02 433.66 -4 434 C-3.33 435.33 -2.67 436.67 -2 438 C-1.01 438.33 -0.02 438.66 1 439 C1.67 440.33 2.33 441.67 3 443 C3.99 443.33 4.98 443.66 6 444 C6.67 445.33 7.33 446.67 8 448 C8.99 448.33 9.98 448.66 11 449 C11.67 450.33 12.33 451.67 13 453 C13.99 453.33 14.98 453.66 16 454 C16.67 455.33 17.33 456.67 18 458 C18.99 458.33 19.98 458.66 21 459 C21.67 460.33 22.33 461.67 23 463 C23.99 463.33 24.98 463.66 26 464 C26.67 465.33 27.33 466.67 28 468 C28.99 468.33 29.98 468.66 31 469 C31.67 470.33 32.33 471.67 33 473 C33.99 473.33 34.98 473.66 36 474 C36.67 475.33 37.33 476.67 38 478 C38.99 478.33 39.98 478.66 41 479 C41.67 480.33 42.33 481.67 43 483 C43.99 483.33 44.98 483.66 46 484 C46.67 485.33 47.33 486.67 48 488 C48.99 488.33 49.98 488.66 51 489 C51.67 490.33 52.33 491.67 53 493 C53.99 493.33 54.98 493.66 56 494 C56.67 495.33 57.33 496.67 58 498 C58.99 498.33 59.98 498.66 61 499 C61.67 500.33 62.33 501.67 63 503 C63.99 503.33 64.98 503.66 66 504 C66.67 505.33 67.33 506.67 68 508 C68.99 508.33 69.98 508.66 71 509 C71.67 510.33 72.33 511.67 73 513 C73.99 513.33 74.98 513.66 76 514 C76.67 515.33 77.33 516.67 78 518 C78.99 518.33 79.98 518.66 81 519 C81.67 520.33 82.33 521.67 83 523 C83.99 523.33 84.98 523.66 86 524 C86.67 525.33 87.33 526.67 88 528 C88.99 528.33 89.98 528.66 91 529 C91.67 530.33 92.33 531.67 93 533 C93.99 533.33 94.98 533.66 96 534 C96.67 535.33 97.33 536.67 98 538 C98.99 538.33 99.98 538.66 101 539 C101.67 540.33 102.33 541.67 103 543 C103.99 543.33 104.98 543.66 106 544 C106.67 545.33 107.33 546.67 108 548 C108.99 548.33 109.98 548.66 111 549 C111.67 550.33 112.33 551.67 113 553 C113.99 553.33 114.98 553.66 116 554 C116.67 555.33 117.33 556.67 118 558 C118.99 558.33 119.98 558.66 121 559 C121.67 560.33 122.33 561.67 123 563 C123.99 563.33 124.98 563.66 126 564 C126 564.66 126 565.32 126 566 C127.32 566 128.64 566 130 566 C130 565.34 130 564.68 130 564 C130.64 563.73 131.28 563.46 131.94 563.19 C134.33 562.11 134.33 562.11 135 559 C136.33 558.33 137.67 557.67 139 557 C139.33 556.01 139.66 555.02 140 554 C141.33 553.33 142.67 552.67 144 552 C144.33 551.01 144.66 550.02 145 549 C146.33 548.33 147.67 547.67 149 547 C149.33 546.01 149.66 545.02 150 544 C151.33 543.33 152.67 542.67 154 542 C154.33 541.01 154.66 540.02 155 539 C156.33 538.33 157.67 537.67 159 537 C159.33 536.01 159.66 535.02 160 534 C161.33 533.33 162.67 532.67 164 532 C164.33 531.01 164.66 530.02 165 529 C166.33 528.33 167.67 527.67 169 527 C169.33 526.01 169.66 525.02 170 524 C171.33 523.33 172.67 522.67 174 522 C174.33 521.01 174.66 520.02 175 519 C176.33 518.33 177.67 517.67 179 517 C179.33 516.01 179.66 515.02 180 514 C181.33 513.33 182.67 512.67 184 512 C184.33 511.01 184.66 510.02 185 509 C186.33 508.33 187.67 507.67 189 507 C189.33 506.01 189.66 505.02 190 504 C191.33 503.33 192.67 502.67 194 502 C194.33 501.01 194.66 500.02 195 499 C196.33 498.33 197.67 497.67 199 497 C199.33 496.01 199.66 495.02 200 494 C201.33 493.33 202.67 492.67 204 492 C204.33 491.01 204.66 490.02 205 489 C206.33 488.33 207.67 487.67 209 487 C209.33 486.01 209.66 485.02 210 484 C211.33 483.33 212.67 482.67 214 482 C214.33 481.01 214.66 480.02 215 479 C216.33 478.33 217.67 477.67 219 477 C219.33 476.01 219.66 475.02 220 474 C221.33 473.33 222.67 472.67 224 472 C224.33 471.01 224.66 470.02 225 469 C226.33 468.33 227.67 467.67 229 467 C229.33 466.01 229.66 465.02 230 464 C231.33 463.33 232.67 462.67 234 462 C234.33 461.01 234.66 460.02 235 459 C236.33 458.33 237.67 457.67 239 457 C239.33 456.01 239.66 455.02 240 454 C241.33 453.33 242.67 452.67 244 452 C244.33 451.01 244.66 450.02 245 449 C246.33 448.33 247.67 447.67 249 447 C249.33 446.01 249.66 445.02 250 444 C251.33 443.33 252.67 442.67 254 442 C254.33 441.01 254.66 440.02 255 439 C256.33 438.33 257.67 437.67 259 437 C259.33 436.01 259.66 435.02 260 434 C261.33 433.33 262.67 432.67 264 432 C264.33 431.01 264.66 430.02 265 429 C266.33 428.33 267.67 427.67 269 427 C269.33 426.01 269.66 425.02 270 424 C271.33 423.33 272.67 422.67 274 422 C274.33 421.01 274.66 420.02 275 419 C276.33 418.33 277.67 417.67 279 417 C279.33 416.01 279.66 415.02 280 414 C281.33 413.33 282.67 412.67 284 412 C284.33 411.01 284.66 410.02 285 409 C286.33 408.33 287.67 407.67 289 407 C289.33 406.01 289.66 405.02 290 404 C291.33 403.33 292.67 402.67 294 402 C294.33 401.01 294.66 400.02 295 399 C296.33 398.33 297.67 397.67 299 397 C299.33 396.01 299.66 395.02 300 394 C301.33 393.33 302.67 392.67 304 392 C304.33 391.01 304.66 390.02 305 389 C306.33 388.33 307.67 387.67 309 387 C309.33 386.01 309.66 385.02 310 384 C311.33 383.33 312.67 382.67 314 382 C314.33 381.01 314.66 380.02 315 379 C316.33 378.33 317.67 377.67 319 377 C319.33 376.01 319.66 375.02 320 374 C321.33 373.33 322.67 372.67 324 372 C324.33 371.01 324.66 370.02 325 369 C326.33 368.33 327.67 367.67 329 367 C329.33 366.01 329.66 365.02 330 364 C331.33 363.33 332.67 362.67 334 362 C334.33 361.01 334.66 360.02 335 359 C336.33 358.33 337.67 357.67 339 357 C339.33 356.01 339.66 355.02 340 354 C341.33 353.33 342.67 352.67 344 352 C344.33 351.01 344.66 350.02 345 349 C346.33 348.33 347.67 347.67 349 347 C349.33 346.01 349.66 345.02 350 344 C351.33 343.33 352.67 342.67 354 342 C354.33 341.01 354.66 340.02 355 339 C356.33 338.33 357.67 337.67 359 337 C359.33 336.01 359.66 335.02 360 334 C361.33 333.33 362.67 332.67 364 332 C364.33 331.01 364.66 330.02 365 329 C366.33 328.33 367.67 327.67 369 327 C369.33 326.01 369.66 325.02 370 324 C371.33 323.33 372.67 322.67 374 322 C374.33 321.01 374.66 320.02 375 319 C376.33 318.33 377.67 317.67 379 317 C379.33 316.01 379.66 315.02 380 314 C380.66 314 381.32 314 382 314 C383.67 312.67 383.67 312.67 385 311 C385 310.34 385 309.68 385 309 C385.66 309 386.32 309 387 309 C388.81 306.91 390.51 304.82 392.19 302.62 C392.68 301.99 393.17 301.36 393.67 300.7 C401.37 292.13 401.37 292.13 405 282 C405.66 282 406.32 282 407 282 C408.42 279.02 409.83 276.04 411.25 273.06 C411.84 271.82 411.84 271.82 412.45 270.54 C413.64 268.03 414.82 265.52 416 263 C416.55 261.84 416.55 261.84 417.11 260.66 C419.42 255.69 420.99 250.84 422.19 245.5 C423.89 238.11 423.89 238.11 425 237 C430 213.98 432.01 182.2 423 160 C422.51 158.09 422.06 156.17 421.62 154.25 C420.3 148.81 418.42 144.03 416 139 C415.5 137.82 415.01 136.65 414.5 135.44 C410.97 127.35 406.95 119.31 402 112 C401.34 112 400.68 112 400 112 C399.69 111.22 399.38 110.43 399.06 109.62 C398.07 107.08 398.07 107.08 397 105 C396.34 105 395.68 105 395 105 C394.73 104.43 394.46 103.86 394.19 103.27 C392.96 100.92 391.57 98.88 390 96.75 C389.48 96.04 388.97 95.34 388.44 94.61 C387.96 94.08 387.49 93.55 387 93 C386.34 93 385.68 93 385 93 C384.67 92.01 384.34 91.02 384 90 C383.34 90 382.68 90 382 90 C382 89.34 382 88.68 382 88 C381.34 88 380.68 88 380 88 C379.67 87.01 379.34 86.02 379 85 C378.34 85 377.68 85 377 85 C377 84.34 377 83.68 377 83 C374.83 80.96 374.83 80.96 372.12 78.88 C371.22 78.15 370.32 77.43 369.38 76.68 C367.21 74.81 367.21 74.81 365 75 C365 74.34 365 73.68 365 73 C362.66 71.21 362.66 71.21 359.75 69.44 C358.78 68.82 357.8 68.2 356.8 67.56 C354.43 66.24 352.64 65.46 350 65 C350 64.34 350 63.68 350 63 C341.15 58.43 332.46 54.18 323 51 C321.66 50.48 320.33 49.96 319 49.44 C286.81 37.4 245.49 38.82 214 52 C212.44 52.6 210.88 53.21 209.31 53.81 C202.4 56.56 195.71 59.81 189 63 C189 63.66 189 64.32 189 65 C188.42 65.12 187.85 65.25 187.25 65.38 C184.98 66.01 183.07 66.89 181 68 C181 68.66 181 69.32 181 70 C180.22 70.31 179.43 70.62 178.62 70.94 C176.08 71.93 176.08 71.93 174 73 C174 73.66 174 74.32 174 75 C172 76 170 77 168 78 C168 78.66 168 79.32 168 80 C167.44 80.25 166.89 80.5 166.31 80.75 C163.58 82.23 161.32 83.93 159 86 C159 86.66 159 87.32 159 88 C158.11 88.4 158.11 88.4 157.2 88.8 C154.93 90.04 153.51 91.29 151.72 93.15 C151.13 93.76 150.53 94.38 149.92 95.01 C148.68 96.29 147.45 97.57 146.22 98.86 C140.64 104.58 136.28 107.72 128.19 108.25 C116.32 108.01 108.72 97.85 101.1 89.94 C99.23 87.77 99.23 87.77 97 88 C96.67 87.01 96.34 86.02 96 85 C94.27 83.39 92.47 81.86 90.62 80.38 C89.65 79.58 88.67 78.78 87.66 77.96 C85.1 75.86 85.1 75.86 82 75 C82 74.34 82 73.68 82 73 C80.68 72.67 79.36 72.34 78 72 C78 71.34 78 70.68 78 70 C77.01 70 76.02 70 75 70 C75 69.34 75 68.68 75 68 C64.3 60.64 52.23 55.22 40 51 C38.67 50.48 37.33 49.96 36 49.44 C23.19 44.65 9.99 42.75 -3.62 42.31 C-5.32 42.25 -5.32 42.25 -7.05 42.19 C-30.49 41.5 -30.49 41.5 -53 47 Z " fill="#000000" transform="translate(512,43)"/>
<path d="M0 0 C1.3 -0.01 1.3 -0.01 2.62 -0.02 C5.48 -0.04 8.34 -0.04 11.19 -0.05 C13.18 -0.05 15.18 -0.06 17.17 -0.07 C21.34 -0.08 25.51 -0.08 29.69 -0.08 C35.02 -0.08 40.36 -0.11 45.7 -0.14 C49.81 -0.16 53.92 -0.17 58.04 -0.17 C60 -0.17 61.97 -0.18 63.94 -0.19 C66.69 -0.21 69.45 -0.21 72.21 -0.2 C73.01 -0.21 73.82 -0.22 74.65 -0.23 C81.69 -0.15 86.7 2.16 92.11 6.6 C98.26 14.15 97.7 21.61 97.59 30.97 C97.58 32.4 97.58 33.82 97.58 35.25 C97.57 38.98 97.54 42.71 97.5 46.44 C97.47 50.25 97.46 54.07 97.44 57.88 C97.41 65.35 97.36 72.82 97.3 80.29 C98.08 80.28 98.87 80.27 99.67 80.26 C107.09 80.18 114.5 80.12 121.92 80.08 C125.73 80.06 129.54 80.03 133.35 79.99 C137.03 79.95 140.72 79.92 144.4 79.91 C145.8 79.9 147.2 79.89 148.6 79.87 C158.31 79.72 164.45 80.31 172.11 86.6 C176.93 92.52 177.74 97.84 177.7 105.22 C177.71 106.52 177.71 106.52 177.72 107.84 C177.74 110.69 177.74 113.53 177.73 116.38 C177.74 118.37 177.74 120.36 177.75 122.35 C177.76 126.51 177.75 130.67 177.74 134.83 C177.73 140.15 177.75 145.47 177.78 150.79 C177.8 154.9 177.8 159 177.79 163.11 C177.79 165.07 177.8 167.03 177.81 168.99 C177.83 171.74 177.82 174.48 177.8 177.23 C177.81 178.03 177.82 178.84 177.83 179.66 C177.74 186.68 175.42 191.71 170.99 197.1 C163.44 203.25 155.98 202.69 146.61 202.58 C145.19 202.58 143.76 202.57 142.34 202.57 C138.61 202.56 134.88 202.53 131.15 202.5 C127.33 202.47 123.52 202.45 119.71 202.44 C112.24 202.4 104.77 202.35 97.3 202.29 C97.31 203.07 97.32 203.86 97.32 204.67 C97.4 212.08 97.47 219.49 97.5 226.91 C97.53 230.72 97.55 234.53 97.6 238.34 C97.64 242.03 97.67 245.71 97.68 249.39 C97.68 250.79 97.7 252.19 97.72 253.59 C97.86 263.3 97.28 269.45 90.99 277.1 C85.07 281.92 79.75 282.74 72.37 282.69 C71.07 282.7 71.07 282.7 69.74 282.72 C66.9 282.73 64.05 282.73 61.21 282.72 C59.22 282.73 57.23 282.73 55.24 282.74 C51.08 282.75 46.92 282.75 42.76 282.74 C37.44 282.73 32.12 282.75 26.8 282.77 C22.69 282.79 18.59 282.79 14.48 282.79 C12.52 282.79 10.56 282.79 8.6 282.81 C5.85 282.82 3.1 282.81 0.36 282.79 C-0.45 282.8 -1.25 282.81 -2.07 282.82 C-8.59 282.74 -13.77 280.82 -18.73 276.54 C-19.17 275.99 -19.62 275.43 -20.08 274.85 C-20.54 274.3 -21 273.74 -21.48 273.17 C-24.33 268.79 -24.95 265.03 -24.93 259.85 C-24.93 258.57 -24.93 257.29 -24.93 255.97 C-24.92 254.58 -24.91 253.19 -24.9 251.8 C-24.89 250.37 -24.89 248.95 -24.89 247.52 C-24.88 243.77 -24.86 240.03 -24.84 236.28 C-24.82 232.45 -24.81 228.62 -24.8 224.8 C-24.78 217.29 -24.74 209.79 -24.7 202.29 C-25.49 202.3 -26.27 202.31 -27.08 202.32 C-34.49 202.4 -41.91 202.46 -49.32 202.5 C-53.13 202.52 -56.94 202.55 -60.76 202.59 C-64.44 202.64 -68.12 202.66 -71.8 202.67 C-73.2 202.68 -74.6 202.69 -76 202.71 C-85.02 202.85 -91.66 202.64 -98.73 196.54 C-99.17 195.99 -99.62 195.43 -100.08 194.85 C-100.54 194.3 -101 193.74 -101.48 193.17 C-104.75 188.15 -105 183.45 -104.99 177.59 C-105 176.72 -105.01 175.86 -105.01 174.96 C-105.03 172.11 -105.04 169.25 -105.04 166.4 C-105.04 164.4 -105.05 162.41 -105.06 160.42 C-105.07 156.25 -105.07 152.07 -105.07 147.9 C-105.07 142.56 -105.1 137.23 -105.13 131.89 C-105.16 127.78 -105.16 123.66 -105.16 119.55 C-105.16 117.58 -105.17 115.62 -105.19 113.65 C-105.21 110.89 -105.2 108.14 -105.19 105.38 C-105.2 104.58 -105.21 103.77 -105.22 102.94 C-105.15 96.42 -103.25 91.24 -98.96 86.27 C-98.12 85.6 -98.12 85.6 -97.26 84.92 C-96.43 84.22 -96.43 84.22 -95.58 83.52 C-91.2 80.66 -87.44 80.04 -82.26 80.06 C-80.98 80.06 -79.7 80.06 -78.38 80.06 C-76.99 80.07 -75.6 80.08 -74.21 80.1 C-72.79 80.1 -71.36 80.1 -69.93 80.1 C-66.18 80.11 -62.44 80.13 -58.69 80.15 C-54.86 80.17 -51.04 80.18 -47.21 80.19 C-39.71 80.21 -32.2 80.25 -24.7 80.29 C-24.71 79.51 -24.72 78.72 -24.73 77.91 C-24.81 70.5 -24.87 63.09 -24.91 55.67 C-24.93 51.86 -24.96 48.05 -25 44.24 C-25.05 40.55 -25.07 36.87 -25.08 33.19 C-25.09 31.79 -25.1 30.39 -25.13 28.99 C-25.26 19.97 -25.06 13.33 -18.96 6.27 C-18.4 5.82 -17.84 5.38 -17.26 4.92 C-16.71 4.45 -16.15 3.99 -15.58 3.52 C-10.56 0.24 -5.86 -0.01 0 0 Z M17.3 42.29 C17.27 46.82 17.25 51.34 17.22 56.01 C17.19 58.89 17.17 61.77 17.14 64.65 C17.09 69.21 17.05 73.78 17.03 78.34 C17.01 82.03 16.98 85.71 16.93 89.39 C16.91 90.79 16.91 92.19 16.91 93.59 C16.89 102.88 16.33 109.15 10.49 116.6 C3.16 122.26 -4.48 121.76 -13.39 121.8 C-14.81 121.82 -16.24 121.84 -17.66 121.86 C-21.39 121.9 -25.12 121.93 -28.85 121.96 C-33.34 122 -37.82 122.05 -42.31 122.11 C-49.11 122.18 -55.9 122.23 -62.7 122.29 C-62.7 134.83 -62.7 147.37 -62.7 160.29 C-58.18 160.32 -53.65 160.34 -48.98 160.37 C-46.1 160.39 -43.22 160.42 -40.34 160.45 C-35.78 160.5 -31.21 160.54 -26.65 160.56 C-22.97 160.58 -19.28 160.61 -15.6 160.66 C-14.2 160.67 -12.8 160.68 -11.4 160.68 C-2.11 160.69 4.15 161.26 11.61 167.1 C17.26 174.43 16.77 182.07 16.81 190.97 C16.83 192.4 16.84 193.82 16.86 195.25 C16.91 198.98 16.94 202.71 16.97 206.44 C17 210.93 17.06 215.41 17.11 219.9 C17.19 226.7 17.24 233.49 17.3 240.29 C29.84 240.29 42.38 240.29 55.3 240.29 C55.32 235.76 55.35 231.24 55.38 226.57 C55.4 223.69 55.43 220.81 55.46 217.93 C55.51 213.37 55.55 208.8 55.57 204.24 C55.58 200.55 55.62 196.87 55.67 193.19 C55.68 191.79 55.69 190.39 55.69 188.99 C55.71 173.19 55.71 173.19 61.71 166.78 C66.69 162.32 71.17 161.05 77.74 160.97 C79.66 160.94 79.66 160.94 81.62 160.91 C83.01 160.9 84.4 160.89 85.79 160.88 C87.21 160.86 88.64 160.84 90.07 160.82 C93.82 160.77 97.56 160.73 101.31 160.69 C105.81 160.64 110.31 160.58 114.81 160.52 C121.64 160.43 128.47 160.36 135.3 160.29 C135.3 147.75 135.3 135.21 135.3 122.29 C130.77 122.26 126.24 122.24 121.58 122.21 C118.7 122.19 115.82 122.16 112.94 122.13 C108.37 122.08 103.81 122.04 99.24 122.02 C95.56 122 91.88 121.97 88.2 121.92 C86.8 121.91 85.4 121.9 84 121.9 C68.2 121.88 68.2 121.88 61.79 115.88 C57.32 110.89 56.06 106.42 55.98 99.85 C55.96 98.57 55.94 97.29 55.92 95.97 C55.91 94.58 55.9 93.19 55.88 91.8 C55.86 90.37 55.85 88.95 55.82 87.52 C55.77 83.77 55.73 80.03 55.7 76.28 C55.65 71.78 55.59 67.28 55.53 62.78 C55.44 55.95 55.37 49.12 55.3 42.29 C42.76 42.29 30.22 42.29 17.3 42.29 Z " fill="#000000" transform="translate(603.702392578125,178.70947265625)"/>
</svg>
