<svg width="42" height="43" viewBox="0 0 42 43" fill="none" xmlns="http://www.w3.org/2000/svg">
<g id="vuesax/bold/heart-remove">
<g id="heart-remove">
<path id="Vector" d="M36.2075 24.86C36.19 24.86 36.19 24.8425 36.19 24.8425V24.825C34.65 23.215 32.4975 22.2 30.1 22.2C25.4625 22.2 21.7 25.9625 21.7 30.6C21.7 32.7525 22.5225 34.7125 23.8525 36.2C25.3925 37.915 27.615 39 30.1 39C34.7375 39 38.5 35.2375 38.5 30.6C38.5 28.3775 37.625 26.365 36.2075 24.86ZM33.2675 33.8725C33.0225 34.1175 32.6725 34.2575 32.34 34.2575C32.0075 34.2575 31.675 34.1175 31.4125 33.8725L30.1175 32.5775L28.7875 33.925C28.525 34.17 28.1925 34.31 27.86 34.31C27.685 34.31 27.5275 34.275 27.37 34.205C27.2125 34.1525 27.055 34.0475 26.9325 33.925C26.4075 33.4 26.4075 32.5775 26.9325 32.07L28.2625 30.7225L26.985 29.4275C26.46 28.92 26.46 28.08 26.985 27.5725C27.4925 27.065 28.315 27.065 28.84 27.5725L30.1175 28.8675L31.36 27.625C31.885 27.1175 32.7075 27.1175 33.215 27.625C33.5125 27.9225 33.635 28.3075 33.5825 28.6925C33.565 28.99 33.4425 29.27 33.215 29.48L31.9725 30.7225L33.2675 32.0175C33.7925 32.525 33.7925 33.3475 33.2675 33.8725Z" fill="white"/>
<path id="Vector_2" d="M38.5 15.7775C38.5 17.86 38.1675 19.785 37.59 21.57C37.485 21.9375 37.0475 22.0425 36.7325 21.815C34.825 20.3975 32.4975 19.645 30.1 19.645C24.0275 19.645 19.075 24.5975 19.075 30.67C19.075 32.56 19.565 34.415 20.4925 36.06C20.7725 36.55 20.44 37.18 19.915 36.9875C15.6975 35.5525 7.175 30.32 4.41 21.57C3.8325 19.785 3.5 17.86 3.5 15.7775C3.5 10.37 7.8575 5.995 13.23 5.995C16.3975 5.995 19.2325 7.53499 21 9.89749C22.7675 7.53499 25.6025 5.995 28.77 5.995C34.1425 5.995 38.5 10.37 38.5 15.7775Z" fill="white"/>
</g>
</g>
</svg>
