<?xml version="1.0" encoding="UTF-8"?>
<!-- Generator: visioncortex VTracer 0.6.3 -->
<svg version="1.1" xmlns="http://www.w3.org/2000/svg" width="1280" height="1280">
<path d="M0 0 C40.26 0 80.52 0 122 0 C122 1.65 122 3.3 122 5 C122.7 5.1 123.39 5.2 124.11 5.3 C127.28 5.77 130.45 6.26 133.62 6.75 C134.72 6.91 135.81 7.06 136.94 7.23 C142.88 8.16 147.45 8.94 152 13 C152 13.66 152 14.32 152 15 C153.17 15.23 154.34 15.46 155.54 15.7 C157.09 16.03 158.64 16.36 160.19 16.69 C160.96 16.84 161.73 16.99 162.52 17.14 C167.8 18.3 170.32 19.87 174 24 C175.89 25.05 175.89 25.05 177.81 25.56 C188.62 29.22 188.62 29.22 191.94 33.5 C194.16 36.19 195.39 36.74 198.56 38 C202.7 39.66 203.8 41.1 206 45 C207.69 45.72 209.39 46.43 211.11 47.07 C213.97 48.48 215.83 50.63 217.93 52.99 C219.8 54.8 221.65 56.24 223.75 57.77 C228.08 60.97 231.85 64.55 235.62 68.38 C236.25 69 236.88 69.62 237.53 70.26 C241.29 74.03 244.59 77.93 247.68 82.26 C249.12 84.25 249.12 84.25 251.75 86.62 C254 89 254 89 254.94 92.06 C255.75 95.26 255.75 95.26 258.88 96.81 C262.67 99.47 263.36 101.64 265 105.83 C266.4 108.86 268.6 110.72 271 113 C273.36 116.94 274.45 120.48 275.08 124.97 C275.96 127.34 275.96 127.34 278.95 129.25 C282.6 132.12 283.27 135.44 284 139.88 C284.79 144.61 285.51 147.76 288.96 151.22 C293.3 155.86 293.69 161.47 294.62 167.56 C295.78 174.79 296.71 179.95 301 186 C303.07 192.48 303.55 199.33 304.12 206.06 C304.21 207.02 304.3 207.98 304.39 208.97 C304.6 211.32 304.8 213.66 305 216 C306.16 216.01 306.16 216.01 307.35 216.02 C314.75 216.1 322.15 216.19 329.54 216.29 C333.34 216.34 337.15 216.38 340.95 216.42 C386.9 216.9 386.9 216.9 395 225 C396.9 225.52 398.82 225.97 400.75 226.38 C406.49 227.74 410.93 229.03 414.44 234.06 C416 236.33 416 236.33 419.44 237.38 C423.66 239.3 424.56 241.15 427 245 C428.99 246.35 430.99 247.69 433 249 C434.78 251.67 435 252.74 435 256 C435.76 256.25 436.53 256.5 437.31 256.75 C442.56 259.19 443.8 263.78 445.96 268.82 C447.27 271.56 449.07 273.68 451 276 C452.87 279.93 453.5 283.64 454.04 287.95 C454.16 288.92 454.16 288.92 454.29 289.92 C454.55 291.99 454.81 294.06 455.06 296.12 C455.32 298.2 455.58 300.28 455.85 302.35 C456.09 304.23 456.32 306.11 456.55 307.98 C456.92 311.04 456.92 311.04 458 314 C458.1 316.41 458.15 318.8 458.15 321.21 C458.16 321.95 458.16 322.69 458.16 323.45 C458.18 325.94 458.18 328.42 458.19 330.9 C458.2 332.68 458.21 334.46 458.21 336.24 C458.23 340.08 458.25 343.91 458.26 347.75 C458.28 353.82 458.31 359.88 458.34 365.95 C458.4 378.84 458.45 391.73 458.5 404.62 C458.56 418.52 458.61 432.42 458.68 446.31 C458.71 452.34 458.73 458.37 458.75 464.4 C458.76 468.15 458.78 471.91 458.8 475.67 C458.81 477.41 458.81 479.15 458.82 480.89 C458.84 492.97 458.84 492.97 460 505 C461.1 505.01 462.19 505.02 463.32 505.03 C473.71 505.13 484.09 505.23 494.48 505.34 C499.82 505.39 505.15 505.45 510.49 505.5 C515.65 505.55 520.81 505.6 525.98 505.65 C527.93 505.67 529.89 505.69 531.85 505.71 C564.42 506 564.42 506 572 510 C573.04 511.64 574.04 513.31 575 515 C576.31 515.82 577.64 516.58 579 517.31 C583.09 519.66 584.02 521.73 585.29 526.15 C586.37 528.97 588.65 530.19 591 532 C593.51 537.42 593.29 542.79 593.27 548.64 C593.28 550.22 593.28 550.22 593.29 551.85 C593.3 555.34 593.3 558.84 593.3 562.33 C593.3 564.77 593.31 567.2 593.31 569.64 C593.32 574.75 593.32 579.85 593.32 584.96 C593.31 591.49 593.33 598.02 593.35 604.55 C593.36 609.58 593.37 614.61 593.36 619.64 C593.36 622.05 593.37 624.45 593.38 626.86 C593.39 630.23 593.38 633.6 593.37 636.98 C593.38 638.46 593.38 638.46 593.4 639.97 C593.35 645.83 593.02 651.82 590 657 C588.68 657.69 587.35 658.36 586 659 C585.28 660.98 584.62 662.99 584 665 C581.42 669.87 578.66 672.12 574 674.77 C571.72 676.08 571.72 676.08 569.06 678.69 C562.82 683.4 555.01 683.3 547.43 683.3 C546.06 683.32 546.06 683.32 544.67 683.33 C541.69 683.35 538.71 683.37 535.73 683.38 C533.65 683.4 531.57 683.41 529.49 683.43 C524.02 683.48 518.56 683.51 513.1 683.54 C504.34 683.59 495.59 683.66 486.83 683.73 C483.78 683.75 480.72 683.77 477.67 683.79 C475.8 683.8 473.92 683.81 472.05 683.83 C471.21 683.83 470.36 683.83 469.49 683.83 C468.31 683.84 468.31 683.84 467.11 683.86 C466.43 683.86 465.76 683.86 465.06 683.87 C462.49 683.99 462.49 683.99 458 685 C458.33 704.8 458.66 724.6 459 745 C463.9 746.96 467.48 747.29 472.61 747.29 C473.47 747.29 474.32 747.3 475.2 747.31 C477.06 747.32 478.91 747.33 480.77 747.34 C483.71 747.34 486.64 747.36 489.58 747.39 C495.83 747.44 502.07 747.47 508.31 747.5 C515.54 747.54 522.77 747.58 529.99 747.64 C532.88 747.66 535.77 747.66 538.65 747.67 C540.44 747.69 542.22 747.7 544 747.71 C544.8 747.71 545.59 747.71 546.41 747.71 C553.89 747.79 559.94 748.81 565.96 753.61 C568.48 755.33 571.12 756.33 573.94 757.5 C581.51 761.14 584.2 766.88 588 774 C588.71 775.06 589.42 776.12 590.16 777.22 C592.54 780.82 593.13 783.36 593.14 787.57 C593.15 788.98 593.15 788.98 593.16 790.41 C593.16 791.44 593.16 792.47 593.16 793.53 C593.17 794.61 593.17 795.69 593.18 796.81 C593.19 800.4 593.2 803.99 593.2 807.58 C593.21 810.07 593.21 812.57 593.22 815.06 C593.23 819.62 593.24 824.18 593.24 828.74 C593.24 834.78 593.26 840.82 593.28 846.86 C593.31 853.34 593.32 859.82 593.32 866.3 C593.33 868.77 593.33 871.24 593.35 873.72 C593.36 877.17 593.36 880.63 593.36 884.09 C593.37 885.11 593.37 886.13 593.38 887.18 C593.35 892.53 593.07 896.4 590 901 C589.36 901.43 588.72 901.87 588.06 902.31 C585.69 904.25 585.24 905.56 584.12 908.38 C582.19 913.08 580.08 915.02 576 918 C575.41 918.66 574.82 919.33 574.22 920.01 C571.44 922.5 569.09 923.11 565.5 924.06 C561.23 925.2 558.49 926.36 555 929 C550.62 930.21 546.23 930.14 541.72 930.14 C540.9 930.15 540.08 930.15 539.24 930.15 C537.46 930.16 535.69 930.17 533.91 930.17 C531.1 930.18 528.29 930.19 525.48 930.21 C517.48 930.26 509.49 930.31 501.49 930.33 C496.6 930.34 491.7 930.37 486.81 930.41 C484.95 930.42 483.09 930.42 481.22 930.42 C478.62 930.42 476.01 930.44 473.4 930.47 C472.64 930.46 471.87 930.46 471.09 930.45 C465.95 930.54 462.83 931.55 459 935 C458.11 937.34 458.11 937.34 458.22 939.95 C458.2 940.93 458.19 941.91 458.17 942.92 C458.18 943.98 458.19 945.03 458.2 946.12 C458.19 947.75 458.19 947.75 458.19 949.42 C458.18 951.72 458.19 954.03 458.22 956.33 C458.25 959.86 458.22 963.37 458.18 966.89 C458.18 969.14 458.19 971.38 458.2 973.62 C458.19 974.67 458.18 975.72 458.17 976.8 C458.19 977.79 458.2 978.77 458.22 979.79 C458.23 980.66 458.23 981.52 458.24 982.41 C459.4 986.35 461.6 988.73 465 991 C467.91 991.58 469.97 991.78 472.86 991.71 C473.63 991.71 474.39 991.72 475.18 991.72 C477.7 991.73 480.22 991.7 482.74 991.66 C484.51 991.67 486.28 991.67 488.05 991.68 C492.71 991.69 497.37 991.67 502.03 991.64 C509.45 991.6 516.87 991.58 524.29 991.6 C526.86 991.6 529.42 991.58 531.99 991.55 C542.64 991.51 551.78 992.99 562 996 C563.89 996.46 565.79 996.92 567.69 997.38 C572.45 998.83 574.09 1001.04 577 1005 C578.01 1005.62 579.02 1006.24 580.06 1006.88 C583.46 1009.34 584.34 1011.3 585.99 1015.04 C587.46 1017.89 589.69 1019.81 592 1022 C592.95 1024.84 593.13 1026.61 593.14 1029.56 C593.15 1030.96 593.15 1030.96 593.16 1032.39 C593.16 1033.42 593.16 1034.44 593.16 1035.49 C593.17 1036.57 593.17 1037.65 593.18 1038.77 C593.19 1042.35 593.2 1045.93 593.2 1049.51 C593.21 1052 593.21 1054.49 593.22 1056.97 C593.23 1062.2 593.24 1067.42 593.24 1072.64 C593.24 1078 593.26 1083.35 593.28 1088.71 C593.31 1095.18 593.32 1101.65 593.32 1108.11 C593.33 1110.58 593.33 1113.04 593.35 1115.5 C593.36 1118.96 593.36 1122.41 593.36 1125.86 C593.37 1126.87 593.37 1127.89 593.38 1128.93 C593.34 1137.27 592.02 1142.98 586 1149 C585.22 1150.63 584.48 1152.28 583.75 1153.94 C581.26 1159.16 578.29 1161.74 573 1164 C572.28 1164.14 571.56 1164.29 570.82 1164.43 C570.22 1164.62 569.62 1164.81 569 1165 C568.67 1165.99 568.34 1166.98 568 1168 C562.2 1171.85 556.24 1172.58 549.46 1172.51 C548.55 1172.52 547.65 1172.53 546.71 1172.54 C543.74 1172.55 540.77 1172.55 537.8 1172.54 C535.73 1172.55 533.65 1172.56 531.57 1172.57 C526.12 1172.61 520.67 1172.62 515.22 1172.62 C506.48 1172.63 497.75 1172.67 489.02 1172.71 C485.98 1172.73 482.94 1172.73 479.89 1172.72 C478.02 1172.73 476.15 1172.74 474.28 1172.74 C473.44 1172.74 472.6 1172.74 471.74 1172.73 C470.95 1172.74 470.16 1172.74 469.35 1172.75 C468.34 1172.75 468.34 1172.75 467.3 1172.75 C464.13 1173.09 461.07 1174.12 458 1175 C458 1194.8 458 1214.6 458 1235 C463.5 1236.57 467.55 1237.29 473.08 1237.25 C473.86 1237.26 474.65 1237.26 475.46 1237.26 C478.07 1237.27 480.68 1237.27 483.3 1237.26 C485.18 1237.26 487.06 1237.27 488.93 1237.27 C494.03 1237.28 499.12 1237.27 504.21 1237.27 C509.54 1237.26 514.87 1237.27 520.2 1237.27 C529.14 1237.28 538.08 1237.27 547.02 1237.26 C557.37 1237.25 567.72 1237.25 578.07 1237.26 C586.95 1237.27 595.83 1237.27 604.71 1237.27 C610.02 1237.27 615.32 1237.27 620.63 1237.27 C625.61 1237.28 630.6 1237.27 635.58 1237.26 C637.41 1237.26 639.24 1237.26 641.08 1237.27 C643.57 1237.27 646.06 1237.26 648.56 1237.25 C649.29 1237.26 650.02 1237.26 650.78 1237.27 C654.84 1237.35 654.84 1237.35 658 1235 C658.3 1232.7 658.3 1232.7 658.25 1229.99 C658.26 1228.39 658.26 1228.39 658.26 1226.76 C658.26 1225.57 658.25 1224.38 658.25 1223.16 C658.25 1221.28 658.25 1221.28 658.26 1219.36 C658.26 1215.85 658.26 1212.34 658.25 1208.82 C658.24 1205.01 658.25 1201.2 658.25 1197.39 C658.26 1190.71 658.26 1184.02 658.25 1177.33 C658.24 1167.39 658.24 1157.44 658.25 1147.5 C658.25 1130.77 658.25 1114.04 658.24 1097.31 C658.23 1080.72 658.23 1064.14 658.23 1047.56 C658.23 1046.53 658.23 1045.5 658.23 1044.44 C658.23 1040.25 658.23 1036.07 658.23 1031.89 C658.23 992.61 658.22 953.34 658.2 914.06 C658.19 879.17 658.18 844.28 658.19 809.4 C658.19 807.16 658.19 804.92 658.19 802.68 C658.19 801.02 658.19 801.02 658.19 799.33 C658.19 793.76 658.19 788.19 658.19 782.62 C658.19 780.97 658.19 780.97 658.19 779.29 C658.19 750.14 658.18 721 658.18 691.85 C658.18 690.3 658.18 690.3 658.17 688.71 C658.17 684.54 658.17 680.37 658.17 676.2 C658.17 661.69 658.17 647.19 658.17 632.69 C658.17 613.99 658.16 595.28 658.15 576.58 C658.15 566.69 658.15 556.8 658.15 546.92 C658.15 540.3 658.14 533.69 658.14 527.08 C658.14 523.32 658.13 519.56 658.14 515.79 C660.08 492.12 660.08 492.12 655 470 C654.38 469.42 653.76 468.85 653.12 468.25 C649.57 464.49 647.62 459.87 646 455 C644.23 453.95 644.23 453.95 642.12 453.12 C638.17 451.3 638.17 451.3 636.56 448.44 C634.57 445.33 632.49 444.61 629 443.62 C616.37 441.02 603.48 440.72 590.63 440.73 C587.88 440.73 585.14 440.71 582.39 440.7 C574.6 440.65 566.8 440.63 559.01 440.62 C554.2 440.61 549.39 440.59 544.59 440.55 C542.77 440.54 540.96 440.54 539.14 440.55 C521.24 440.6 521.24 440.6 514 436 C512.95 435.42 511.9 434.85 510.82 434.25 C509.93 433.7 509.04 433.14 508.12 432.56 C507.22 432.01 506.32 431.45 505.38 430.88 C501.7 427.98 499.77 424.61 499 420 C498.41 413.92 498.85 408.33 502 403 C506.55 397.53 512.45 395.32 519 393 C519.71 392.66 520.41 392.32 521.14 391.96 C524.85 390.71 528.36 390.7 532.24 390.71 C533.06 390.7 533.87 390.7 534.72 390.69 C537.41 390.67 540.11 390.67 542.81 390.66 C544.7 390.66 546.58 390.65 548.47 390.64 C552.43 390.63 556.39 390.63 560.35 390.63 C565.39 390.63 570.43 390.6 575.47 390.57 C579.37 390.55 583.28 390.54 587.18 390.54 C589.03 390.54 590.89 390.53 592.75 390.52 C602.76 390.44 611.53 390.82 621.1 394.05 C625.49 395.49 629.93 396.02 634.5 396.56 C641.49 397.39 647.29 398.15 652.38 403.5 C654.88 405.89 655.93 406.48 659.06 407.5 C663.06 408.82 664.43 410.63 667 414 C668.22 414.81 669.48 415.58 670.75 416.31 C677.8 420.52 682.79 425.76 686.07 433.28 C686.97 435.26 686.97 435.26 689.5 436.75 C693.63 440.47 694.52 445.76 696 451 C697.65 451.33 699.3 451.66 701 452 C701 719.96 701 987.92 701 1264 C699.35 1264.33 697.7 1264.66 696 1265 C694.93 1266.96 693.93 1268.97 693 1271 C690.63 1273.15 689.06 1273.98 686 1275 C685.67 1276.65 685.34 1278.3 685 1280 C273.16 1280 -138.68 1280 -563 1280 C-563.33 1278.35 -563.66 1276.7 -564 1275 C-565.96 1273.93 -567.97 1272.93 -570 1272 C-572.15 1269.63 -572.98 1268.06 -574 1265 C-575.65 1264.67 -577.3 1264.34 -579 1264 C-579 996.04 -579 728.08 -579 452 C-577.35 451.67 -575.7 451.34 -574 451 C-573.77 450.18 -573.54 449.36 -573.3 448.52 C-571.44 442.36 -570.35 438.79 -565 435 C-564.2 433.63 -563.46 432.23 -562.75 430.81 C-558.7 423.06 -552.29 417.64 -545 413 C-544.24 412.15 -543.47 411.31 -542.69 410.44 C-540.01 408.01 -538.78 407.47 -535.44 406.5 C-531.16 405.26 -529.62 403.65 -527 400 C-523.59 398.36 -520.34 397.6 -516.61 397.04 C-515.59 396.87 -514.57 396.71 -513.52 396.55 C-511.4 396.23 -509.28 395.91 -507.17 395.59 C-506.14 395.43 -505.11 395.26 -504.05 395.1 C-503.13 394.96 -502.21 394.82 -501.26 394.68 C-498.18 394.11 -498.18 394.11 -496 393.29 C-488.55 390.68 -481.55 390.58 -473.71 390.63 C-472.3 390.63 -470.88 390.62 -469.47 390.62 C-466.44 390.61 -463.42 390.61 -460.4 390.62 C-455.61 390.63 -450.83 390.62 -446.05 390.6 C-434.18 390.57 -422.31 390.56 -410.44 390.56 C-401.2 390.57 -391.96 390.56 -382.71 390.52 C-377.96 390.51 -373.2 390.51 -368.45 390.52 C-365.5 390.53 -362.54 390.52 -359.59 390.5 C-357.57 390.5 -355.55 390.51 -353.53 390.53 C-352.32 390.52 -351.12 390.51 -349.88 390.5 C-348.84 390.5 -347.79 390.5 -346.71 390.5 C-343.28 389.87 -342.1 388.73 -340 386 C-339.4 382.78 -339.4 382.78 -339.5 379.13 C-339.5 378.44 -339.49 377.76 -339.48 377.06 C-339.48 375.57 -339.48 374.09 -339.48 372.61 C-339.5 370.25 -339.48 367.9 -339.47 365.54 C-339.44 361.38 -339.44 357.21 -339.44 353.05 C-339.44 346.41 -339.42 339.78 -339.38 333.14 C-339.37 330.84 -339.38 328.54 -339.39 326.23 C-339.38 317.77 -338.47 310.14 -336 302 C-335.49 300.06 -334.99 298.13 -334.5 296.19 C-334.13 294.72 -334.13 294.72 -333.75 293.23 C-332.61 288.3 -331.72 283.33 -330.84 278.35 C-329.78 274.12 -328.3 271.17 -325.06 268.25 C-322.49 265.44 -321.44 262.56 -320.12 259.02 C-318.74 256.54 -317.52 256.2 -315 255 C-313.67 253.24 -313.67 253.24 -312.62 251.19 C-310.23 247.11 -307.74 244.88 -304 242 C-303.18 241.13 -302.35 240.27 -301.5 239.38 C-299 237 -299 237 -295.94 235.5 C-292.87 234.23 -292.87 234.23 -291.32 231.57 C-288.23 228.15 -285.36 227.53 -281 226.44 C-275.98 225.15 -272.5 224 -269 220 C-258.11 215.6 -244.87 216.82 -233.29 216.68 C-231.83 216.66 -230.37 216.64 -228.91 216.62 C-225.11 216.57 -221.31 216.52 -217.51 216.47 C-213.62 216.42 -209.72 216.36 -205.83 216.31 C-198.22 216.2 -190.61 216.1 -183 216 C-182.95 215.37 -182.89 214.74 -182.84 214.08 C-182.59 211.19 -182.34 208.3 -182.09 205.41 C-182 204.41 -181.92 203.42 -181.83 202.39 C-180.4 186.23 -180.4 186.23 -175.99 180.3 C-173.45 176.09 -173.04 172.45 -172.5 167.62 C-171.79 161.29 -170.89 155.26 -167 150 C-166.01 149.67 -165.02 149.34 -164 149 C-163.04 145.49 -162.35 142.01 -161.71 138.43 C-160.64 133.13 -159.15 130.69 -155 127 C-153.95 125.11 -153.95 125.11 -153.44 123.19 C-151.04 116.09 -148.32 111.32 -143 106 C-142.29 104.65 -141.63 103.27 -141 101.88 C-139.27 98.12 -137.56 97.1 -134 95 C-133.28 93.3 -132.57 91.6 -131.93 89.88 C-130.49 86.98 -128.23 85.14 -125.89 82.95 C-123.79 80.78 -122.22 78.51 -120.56 76 C-117.74 71.82 -114.72 68.7 -110.83 65.51 C-108.83 63.91 -108.83 63.91 -106.56 61.5 C-103.61 58.62 -100.42 56.2 -97.14 53.71 C-94.81 51.92 -94.81 51.92 -92.31 49.19 C-90 47 -90 47 -86.94 46.06 C-83.76 45.25 -83.76 45.25 -82.25 42.19 C-79.45 38.22 -76.71 37.18 -72.37 35.22 C-69.78 34.06 -69.78 34.06 -67.62 31.44 C-64.08 28.15 -60.37 27.41 -55.8 26.04 C-52.29 24.74 -50.51 22.72 -48 20 C-43.02 17.35 -37.64 16.47 -32.1 15.72 C-31.41 15.48 -30.71 15.25 -30 15 C-29.61 14.07 -29.61 14.07 -29.21 13.12 C-27.56 10.23 -25.44 9.66 -22.37 8.63 C-18.13 7.5 -13.84 6.89 -9.5 6.31 C-8.58 6.18 -7.66 6.05 -6.72 5.92 C-4.48 5.61 -2.24 5.3 0 5 C0 3.35 0 1.7 0 0 Z M13 49 C9.55 49.94 9.55 49.94 5.88 50.56 C4.55 50.8 3.23 51.05 1.91 51.29 C0.62 51.53 -0.67 51.76 -2 52 C-4.21 52.43 -6.42 52.89 -8.62 53.38 C-9.55 53.57 -10.47 53.76 -11.41 53.96 C-14.21 54.88 -14.21 54.88 -16.37 57.48 C-19.65 60.62 -22.08 61.05 -26.5 61.94 C-32.45 63.11 -32.45 63.11 -36.81 67 C-39.62 70.85 -42.25 71.44 -46.63 73 C-49.85 74.36 -51.73 76.4 -54 79 C-56.5 81.17 -58.35 82.13 -61.5 83.31 C-65.61 85.3 -66.57 87.23 -69 91 C-69.99 91.47 -70.98 91.95 -72 92.44 C-75.61 94.32 -76.19 95.88 -77.94 99.38 C-79 101 -79 101 -81.94 102.44 C-85.77 104.39 -86.72 106.51 -88.78 110.16 C-90 112 -90 112 -92.56 113.44 C-95.92 115.59 -96.52 118.17 -97.96 121.79 C-99.39 124.84 -101.55 126.73 -104 129 C-105.92 131.81 -107.15 134.38 -108.38 137.56 C-110 141 -110 141 -112.48 142.76 C-116.56 146.39 -116.67 150.99 -117.71 156.18 C-118.53 159.32 -119.69 160.92 -121.97 163.21 C-126.26 167.83 -126.65 173.33 -127.56 179.38 C-128.7 186.64 -129.8 192.68 -133.89 198.89 C-136.5 203.86 -136.2 209.67 -136.35 215.17 C-136.38 215.95 -136.4 216.74 -136.42 217.55 C-136.5 220.09 -136.56 222.64 -136.62 225.19 C-136.65 226.06 -136.67 226.92 -136.69 227.82 C-136.97 239.01 -137.08 250.18 -136.69 261.38 C-136.65 262.43 -136.62 263.49 -136.58 264.59 C-136.18 273.73 -135.22 280.37 -130 288 C-129.06 291.45 -129.06 291.45 -128.44 295.12 C-128.2 296.45 -127.95 297.77 -127.71 299.09 C-127.47 300.38 -127.24 301.67 -127 303 C-126.57 305.21 -126.11 307.42 -125.62 309.62 C-125.43 310.55 -125.24 311.47 -125.04 312.41 C-124.12 315.21 -124.12 315.21 -121.52 317.37 C-118.38 320.65 -117.95 323.08 -117.06 327.5 C-115.88 333.46 -115.88 333.46 -112 337.88 C-108.83 340.12 -108.41 340.87 -107.06 344.31 C-105.32 348.73 -102.9 351.52 -99.66 354.95 C-97.86 357.18 -96.96 359.21 -95.94 361.88 C-95.11 364.14 -95.11 364.14 -94 366 C-90.95 367.21 -90.95 367.21 -88 368 C-86.75 370.94 -86.75 370.94 -86 374 C-84.25 377.2 -84.25 377.2 -81.06 378.31 C-77.3 380.38 -76.88 382.25 -75 386 C-71.25 388.34 -71.25 388.34 -67 389 C-66.88 389.89 -66.75 390.77 -66.62 391.69 C-64.46 396.11 -61.95 396.77 -57.59 398.71 C-55.11 399.94 -53.44 401.19 -51.44 403.06 C-47.65 406.55 -42.31 410 -37 410 C-36.78 411.14 -36.78 411.14 -36.56 412.31 C-34.14 416.49 -30.49 416.8 -26 418 C-24.37 418.46 -22.74 418.94 -21.12 419.44 C-20.05 419.74 -20.05 419.74 -18.95 420.06 C-17 421 -17 421 -15.57 423 C-13.5 425.63 -11.99 425.86 -8.75 426.56 C-7.69 426.8 -6.62 427.04 -5.53 427.29 C-3.09 427.78 -0.64 428.24 1.81 428.68 C8.55 429.89 14.18 431 19.88 434.91 C24.62 437.34 30.3 437.13 35.53 437.15 C36.78 437.15 38.03 437.16 39.32 437.16 C40.67 437.17 42.02 437.17 43.37 437.17 C44.77 437.17 46.17 437.17 47.58 437.18 C50.51 437.18 53.44 437.19 56.38 437.19 C60.11 437.19 63.85 437.2 67.59 437.22 C70.49 437.23 73.38 437.23 76.28 437.23 C77.66 437.23 79.03 437.23 80.41 437.24 C93.9 437.45 93.9 437.45 106.25 432.62 C112.23 429.39 118.68 428.6 125.34 427.7 C131.2 426.78 134.55 425.17 139.09 421.39 C143.1 418.47 147.93 418.12 152.71 417.15 C156.69 415.76 157.03 414.58 159 411 C161.67 409.41 161.67 409.41 164.75 408.06 C169.3 405.94 172.66 403.8 176.28 400.37 C178.32 398.75 180.32 397.94 182.75 397 C187.19 395.21 187.93 393.31 190 389 C191.84 387.94 191.84 387.94 194 387 C198.22 385.17 199.05 383.17 201 379 C201.97 378.55 202.94 378.09 203.94 377.62 C207.8 375.58 208.26 373.71 209.93 369.84 C211 368 211 368 214.06 366.5 C217.37 365.22 217.37 365.22 218.38 361.44 C218.59 360.73 218.81 360.03 219.03 359.3 C220.24 356.43 221.93 354.44 223.94 352.06 C227.21 348.19 229.29 344.71 230.92 339.91 C232 338 232 338 234.49 336.7 C238.08 334.27 238.1 331.98 238.94 327.81 C239.93 322.91 240.8 320 244 316.15 C247.62 311.63 248.26 307.38 249 301.75 C250.2 294.14 251.72 288.21 255.73 281.57 C258.37 276.23 258.18 270.04 258.35 264.17 C258.38 263.43 258.4 262.69 258.42 261.93 C258.5 259.54 258.56 257.14 258.62 254.75 C258.65 253.93 258.67 253.11 258.69 252.27 C258.97 241.42 259.07 230.6 258.69 219.75 C258.65 218.68 258.62 217.61 258.58 216.51 C258.25 208.92 257.81 201.3 253.62 194.75 C249.58 187.22 248.76 178.45 247.4 170.11 C246.74 166.65 246.22 165.2 243.56 162.78 C240.44 159.4 239.96 156.97 239.06 152.5 C237.91 146.59 237.91 146.59 234.06 142.25 C230.04 139.29 229.11 136.11 227.22 131.59 C225.7 128.36 223.64 126.37 221 124 C219.26 121.43 218.09 119.29 217.19 116.31 C216.8 115.55 216.4 114.79 216 114 C215.01 113.69 214.02 113.38 213 113.06 C212.01 112.71 211.02 112.36 210 112 C208.75 109.06 208.75 109.06 208 106 C206.25 102.8 206.25 102.8 203.06 101.69 C199.3 99.62 198.88 97.75 197 94 C193.25 91.66 193.25 91.66 189 91 C188.88 90.11 188.75 89.23 188.62 88.31 C186.44 83.87 183.85 83.18 179.45 81.22 C176.35 79.68 174.44 77.44 172 75 C169.76 73.88 167.47 72.93 165.15 71.97 C161.02 70.11 158.49 67.73 156 64 C152.96 63.1 149.96 62.41 146.85 61.8 C142.93 60.91 140.66 59.88 137.79 57.02 C133.17 52.74 127.67 52.35 121.62 51.44 C114.36 50.3 108.32 49.2 102.11 45.11 C97.57 42.73 92.42 42.87 87.4 42.85 C85.47 42.85 85.47 42.85 83.49 42.84 C82.09 42.83 80.69 42.83 79.29 42.83 C77.84 42.83 76.39 42.83 74.94 42.82 C71.91 42.82 68.88 42.81 65.84 42.81 C61.98 42.81 58.11 42.8 54.24 42.78 C51.25 42.77 48.26 42.77 45.26 42.77 C43.84 42.77 42.42 42.77 40.99 42.76 C30.29 42.7 22.03 42.82 13 49 Z M-261 269 C-263.12 269.98 -265.27 270.9 -267.44 271.75 C-272.78 274.1 -275.59 275.97 -278.07 281.27 C-279 283 -279 283 -282 285 C-282 285.66 -282 286.32 -282 287 C-282.66 287 -283.32 287 -284 287 C-289.7 299.43 -289.3 313.97 -289.26 327.39 C-289.26 328.98 -289.27 330.58 -289.27 332.17 C-289.28 336.52 -289.28 340.87 -289.28 345.22 C-289.27 349.96 -289.28 354.71 -289.29 359.45 C-289.3 367.75 -289.31 376.06 -289.31 384.36 C-289.3 396.71 -289.32 409.06 -289.33 421.4 C-289.35 446.02 -289.36 470.63 -289.37 495.25 C-289.37 496.52 -289.37 497.79 -289.37 499.11 C-289.37 500.38 -289.37 501.66 -289.37 502.97 C-289.37 517.12 -289.38 531.27 -289.38 545.42 C-289.4 588.14 -289.42 630.86 -289.42 673.58 C-289.42 674.96 -289.42 676.34 -289.42 677.72 C-289.42 683.95 -289.42 690.18 -289.42 696.4 C-289.43 699.18 -289.43 701.96 -289.43 704.73 C-289.43 706.12 -289.43 707.51 -289.43 708.9 C-289.43 752.89 -289.45 796.89 -289.49 840.88 C-289.51 873.7 -289.54 906.53 -289.55 939.35 C-289.55 940.01 -289.55 940.67 -289.55 941.36 C-289.55 956.5 -289.55 971.64 -289.55 986.78 C-289.55 991.96 -289.55 997.14 -289.55 1002.32 C-289.55 1003.6 -289.55 1004.87 -289.55 1006.19 C-289.55 1026.75 -289.57 1047.31 -289.59 1067.88 C-289.62 1088.51 -289.62 1109.15 -289.61 1129.79 C-289.6 1142.07 -289.6 1154.34 -289.63 1166.62 C-289.65 1174.8 -289.64 1182.99 -289.63 1191.17 C-289.62 1195.85 -289.62 1200.52 -289.64 1205.19 C-289.65 1209.43 -289.65 1213.68 -289.63 1217.92 C-289.62 1219.45 -289.63 1220.98 -289.64 1222.52 C-289.66 1224.59 -289.64 1226.65 -289.62 1228.72 C-289.62 1229.87 -289.62 1231.02 -289.62 1232.2 C-289.27 1235.2 -289.27 1235.2 -286.63 1236.87 C-283.7 1238.13 -281.67 1238.38 -278.49 1238.38 C-277.4 1238.39 -276.3 1238.4 -275.17 1238.41 C-273.98 1238.4 -272.79 1238.39 -271.56 1238.39 C-270.3 1238.39 -269.04 1238.4 -267.74 1238.4 C-264.28 1238.42 -260.83 1238.41 -257.37 1238.4 C-253.76 1238.4 -250.14 1238.4 -246.52 1238.41 C-240.45 1238.41 -234.37 1238.41 -228.3 1238.39 C-221.28 1238.37 -214.26 1238.38 -207.24 1238.4 C-201.21 1238.41 -195.18 1238.41 -189.15 1238.4 C-185.55 1238.4 -181.95 1238.4 -178.35 1238.41 C-174.33 1238.42 -170.32 1238.4 -166.31 1238.39 C-165.11 1238.39 -163.92 1238.4 -162.69 1238.41 C-161.05 1238.39 -161.05 1238.39 -159.38 1238.38 C-157.96 1238.38 -157.96 1238.38 -156.51 1238.38 C-153.49 1237.92 -152.13 1237.18 -150 1235 C-149.41 1233.02 -149.41 1233.02 -149.5 1230.78 C-149.49 1229.49 -149.49 1229.49 -149.47 1228.18 C-149.48 1227.24 -149.49 1226.3 -149.5 1225.33 C-149.5 1224.34 -149.49 1223.35 -149.48 1222.32 C-149.48 1220.17 -149.48 1218.01 -149.48 1215.85 C-149.5 1212.43 -149.48 1209.02 -149.47 1205.6 C-149.44 1199.57 -149.44 1193.54 -149.44 1187.51 C-149.44 1177.88 -149.42 1168.25 -149.38 1158.62 C-149.37 1155.26 -149.38 1151.89 -149.39 1148.53 C-149.38 1146.46 -149.38 1144.39 -149.37 1142.32 C-149.38 1141.39 -149.38 1140.46 -149.39 1139.5 C-149.33 1130.98 -147.42 1124.86 -141.31 1118.62 C-138.08 1115.79 -138.08 1115.79 -137 1112 C-130.35 1109.69 -123.82 1108.99 -116.94 1110.81 C-115 1112 -115 1112 -114 1115 C-113.05 1115.58 -112.1 1116.16 -111.11 1116.76 C-105.31 1120.93 -104.16 1128.24 -103 1135 C-102.17 1142.79 -102.28 1150.62 -102.29 1158.44 C-102.28 1160.66 -102.26 1162.88 -102.25 1165.09 C-102.21 1170.88 -102.2 1176.67 -102.19 1182.45 C-102.18 1188.38 -102.15 1194.31 -102.11 1200.23 C-102.05 1211.82 -102.01 1223.41 -102 1235 C-95.49 1238.56 -89.52 1238.42 -82.21 1238.37 C-80.94 1238.38 -79.66 1238.38 -78.35 1238.38 C-74.87 1238.39 -71.38 1238.38 -67.9 1238.37 C-64.26 1238.36 -60.61 1238.36 -56.96 1238.36 C-50.85 1238.37 -44.73 1238.35 -38.61 1238.34 C-31.54 1238.31 -24.46 1238.31 -17.38 1238.32 C-10.57 1238.32 -3.76 1238.32 3.05 1238.31 C5.95 1238.3 8.84 1238.3 11.74 1238.3 C15.78 1238.31 19.82 1238.29 23.86 1238.27 C25.67 1238.28 25.67 1238.28 27.52 1238.28 C28.61 1238.28 29.71 1238.27 30.83 1238.26 C31.79 1238.26 32.74 1238.26 33.73 1238.25 C36.2 1238.22 36.2 1238.22 38 1236 C38.3 1233.64 38.3 1233.64 38.25 1230.85 C38.26 1229.75 38.26 1228.66 38.27 1227.53 C38.26 1226.31 38.26 1225.09 38.25 1223.84 C38.26 1222.56 38.26 1221.27 38.26 1219.95 C38.27 1216.38 38.27 1212.8 38.26 1209.22 C38.26 1205.37 38.26 1201.52 38.27 1197.67 C38.28 1190.12 38.28 1182.57 38.27 1175.02 C38.27 1168.88 38.27 1162.74 38.27 1156.61 C38.27 1155.3 38.27 1155.3 38.27 1153.96 C38.27 1152.19 38.27 1150.42 38.27 1148.65 C38.28 1132.02 38.27 1115.38 38.26 1098.75 C38.25 1084.47 38.25 1070.2 38.26 1055.93 C38.27 1039.36 38.28 1022.79 38.27 1006.23 C38.27 1004.46 38.27 1002.7 38.27 1000.93 C38.27 1000.06 38.27 999.19 38.27 998.29 C38.26 992.17 38.27 986.04 38.27 979.91 C38.28 972.44 38.28 964.97 38.27 957.5 C38.26 953.69 38.26 949.87 38.27 946.06 C38.27 941.93 38.26 937.8 38.25 933.67 C38.26 932.46 38.26 931.25 38.27 930.01 C38.26 928.9 38.26 927.79 38.25 926.65 C38.25 925.7 38.25 924.75 38.25 923.76 C37.96 920.61 37.1 917.96 36 915 C19.19 914.79 2.38 914.63 -14.44 914.53 C-22.24 914.49 -30.05 914.42 -37.85 914.32 C-44.66 914.23 -51.47 914.17 -58.27 914.15 C-61.88 914.14 -65.48 914.11 -69.08 914.05 C-73.11 913.98 -77.13 913.97 -81.16 913.98 C-82.35 913.95 -83.53 913.91 -84.75 913.88 C-90.75 913.95 -94.39 914.55 -98.74 918.85 C-102.77 924.21 -103.1 928.87 -102.94 935.4 C-102.94 936.51 -102.95 937.61 -102.95 938.75 C-102.96 942.39 -102.91 946.02 -102.86 949.66 C-102.86 952.2 -102.86 954.75 -102.86 957.3 C-102.87 963.32 -102.84 969.33 -102.8 975.35 C-102.71 986.73 -102.68 998.11 -102.68 1009.48 C-102.67 1013.2 -102.64 1016.91 -102.6 1020.62 C-102.53 1033.36 -103.3 1044.79 -107 1057 C-107.25 1058.18 -107.25 1058.18 -107.5 1059.39 C-107.66 1059.92 -107.83 1060.45 -108 1061 C-110.11 1061.91 -110.11 1061.91 -112.75 1062.5 C-116.26 1063.4 -117.93 1063.94 -120.81 1066.25 C-123 1068 -123 1068 -125.5 1067.94 C-128.25 1066.91 -130.5 1065.55 -133 1064 C-134.2 1063.53 -135.39 1063.05 -136.62 1062.56 C-139.98 1061.01 -141.22 1060.16 -143 1057 C-143.33 1056.01 -143.66 1055.02 -144 1054 C-144.47 1053.53 -144.95 1053.05 -145.44 1052.56 C-148.65 1049.35 -149.25 1046.35 -149.26 1041.91 C-149.27 1040.88 -149.27 1039.86 -149.28 1038.8 C-149.28 1037.67 -149.27 1036.55 -149.27 1035.4 C-149.28 1034.21 -149.28 1033.03 -149.29 1031.8 C-149.3 1028.55 -149.3 1025.3 -149.31 1022.05 C-149.31 1018.65 -149.33 1015.24 -149.35 1011.83 C-149.39 1001.69 -149.43 991.54 -149.45 981.4 C-149.46 973.53 -149.49 965.65 -149.53 957.78 C-149.55 954.39 -149.56 951 -149.56 947.61 C-149.56 943.82 -149.58 940.04 -149.6 936.25 C-149.59 935.14 -149.59 934.03 -149.59 932.88 C-149.64 926.63 -150 920.62 -153 915 C-155.6 913.44 -155.6 913.44 -159 913 C-168.89 910.89 -168.89 910.89 -171.81 906.5 C-172.18 905.88 -172.54 905.26 -172.92 904.62 C-173.99 902.74 -173.99 902.74 -176.62 901.62 C-180.47 898.99 -180.84 895.35 -182 891 C-182.26 890.16 -182.51 889.31 -182.78 888.45 C-185.51 878.51 -185.42 868.74 -185.34 858.5 C-185.31 855.48 -185.32 852.46 -185.32 849.45 C-185.32 847.52 -185.31 845.59 -185.3 843.66 C-185.3 842.76 -185.3 841.86 -185.3 840.94 C-185.25 836.47 -184.98 833.09 -183 829 C-182.32 825.82 -181.71 822.64 -181.14 819.44 C-179.91 812.82 -179.91 812.82 -178 810 C-176.23 809.01 -174.47 808.01 -172.67 807.07 C-170.29 805.54 -169.35 803.44 -168 801 C-162.83 797.31 -155.43 797.87 -149.35 797.87 C-148.61 797.87 -147.87 797.87 -147.11 797.87 C-144.63 797.86 -142.15 797.86 -139.67 797.87 C-137.87 797.86 -136.07 797.86 -134.27 797.86 C-129.33 797.85 -124.4 797.85 -119.46 797.85 C-114.13 797.85 -108.81 797.85 -103.48 797.84 C-93.04 797.84 -82.61 797.83 -72.18 797.83 C-63.7 797.83 -55.22 797.83 -46.73 797.83 C-22.69 797.82 1.35 797.81 25.39 797.81 C27.33 797.81 27.33 797.81 29.31 797.81 C30.61 797.81 31.91 797.81 33.25 797.81 C54.28 797.82 75.32 797.81 96.35 797.79 C117.95 797.78 139.54 797.77 161.14 797.77 C173.27 797.77 185.39 797.77 197.52 797.76 C207.84 797.75 218.16 797.75 228.49 797.75 C233.75 797.76 239.02 797.76 244.29 797.75 C249.11 797.74 253.93 797.74 258.75 797.75 C260.5 797.75 262.24 797.75 263.98 797.74 C285.14 797.68 285.14 797.68 290.31 801.88 C290.87 802.58 291.43 803.28 292 804 C294.78 807.11 294.78 807.11 298.52 808.74 C301 810 301 810 302.07 812.69 C302.38 814.33 302.38 814.33 302.69 816 C302.92 817.16 303.14 818.32 303.38 819.52 C303.58 820.67 303.79 821.82 304 823 C304.37 824.92 304.75 826.83 305.12 828.75 C305.35 829.95 305.35 829.95 305.57 831.17 C305.83 833.01 305.83 833.01 307 834 C307.3 839.92 307.31 845.85 307.35 851.78 C307.37 853.77 307.39 855.76 307.43 857.75 C307.64 868.52 307.31 878.7 304.73 889.2 C304.42 890.45 304.42 890.45 304.11 891.72 C302.88 896.2 301.72 898.99 298 902 C297.15 902.85 296.31 903.69 295.44 904.56 C294.63 905.37 293.83 906.17 293 907 C292.26 907.84 292.26 907.84 291.5 908.69 C287.07 912.56 280.59 912.98 275 914 C272.01 921.47 271.57 927.91 271.61 935.91 C271.61 937.19 271.6 938.47 271.6 939.78 C271.58 943.32 271.59 946.85 271.59 950.38 C271.6 954.19 271.59 958.01 271.58 961.83 C271.56 969.29 271.56 976.76 271.56 984.22 C271.57 990.29 271.56 996.35 271.56 1002.42 C271.56 1003.28 271.56 1004.15 271.56 1005.04 C271.56 1006.79 271.55 1008.55 271.55 1010.3 C271.54 1026.74 271.54 1043.18 271.56 1059.62 C271.57 1074.68 271.55 1089.73 271.53 1104.78 C271.5 1120.23 271.49 1135.69 271.5 1151.15 C271.51 1159.82 271.5 1168.5 271.49 1177.18 C271.47 1184.56 271.47 1191.94 271.49 1199.32 C271.5 1203.09 271.5 1206.85 271.48 1210.62 C271.47 1214.7 271.48 1218.78 271.5 1222.86 C271.48 1224.65 271.48 1224.65 271.47 1226.49 C271.48 1227.58 271.49 1228.66 271.5 1229.78 C271.5 1230.73 271.5 1231.67 271.5 1232.64 C271.8 1235.14 271.8 1235.14 273.87 1236.8 C276.55 1238.31 278.33 1238.38 281.39 1238.38 C282.48 1238.39 283.58 1238.4 284.7 1238.41 C285.9 1238.4 287.09 1238.39 288.32 1238.39 C289.59 1238.39 290.85 1238.4 292.15 1238.4 C295.61 1238.42 299.07 1238.41 302.52 1238.4 C306.14 1238.4 309.77 1238.4 313.39 1238.41 C319.47 1238.41 325.54 1238.41 331.62 1238.39 C338.65 1238.37 345.68 1238.38 352.71 1238.4 C358.74 1238.41 364.78 1238.41 370.81 1238.4 C374.42 1238.4 378.02 1238.4 381.62 1238.41 C385.64 1238.42 389.66 1238.4 393.68 1238.39 C394.87 1238.39 396.07 1238.4 397.3 1238.41 C398.94 1238.39 398.94 1238.39 400.61 1238.38 C401.56 1238.38 402.51 1238.38 403.49 1238.38 C406.59 1237.91 407.78 1237.21 410 1235 C410.6 1232.11 410.6 1232.11 410.5 1228.72 C410.5 1228.08 410.51 1227.44 410.52 1226.77 C410.53 1224.6 410.51 1222.43 410.5 1220.25 C410.5 1218.68 410.51 1217.1 410.51 1215.53 C410.53 1211.17 410.52 1206.82 410.5 1202.46 C410.49 1197.73 410.5 1193.01 410.51 1188.28 C410.52 1179.98 410.52 1171.69 410.5 1163.39 C410.48 1151.05 410.49 1138.72 410.5 1126.38 C410.51 1105.62 410.5 1084.87 410.48 1064.11 C410.47 1043.54 410.46 1022.97 410.46 1002.4 C410.46 1001.12 410.46 999.84 410.46 998.53 C410.46 993.34 410.46 988.15 410.46 982.96 C410.46 946.73 410.45 910.5 410.43 874.26 C410.43 873.58 410.43 872.9 410.43 872.19 C410.42 861.09 410.42 850 410.41 838.9 C410.38 794.92 410.37 750.95 410.37 706.97 C410.37 705.58 410.37 704.19 410.37 702.8 C410.37 700.03 410.37 697.25 410.37 694.48 C410.37 688.26 410.37 682.04 410.37 675.81 C410.37 674.44 410.37 673.06 410.37 671.68 C410.37 634.84 410.36 598 410.35 561.16 C410.35 559.87 410.35 558.59 410.35 557.26 C410.35 552.09 410.35 546.91 410.34 541.74 C410.34 523.75 410.33 505.75 410.33 487.76 C410.33 464.56 410.32 441.36 410.31 418.16 C410.29 405.9 410.29 393.63 410.29 381.36 C410.29 373.16 410.29 364.96 410.28 356.76 C410.27 352.09 410.27 347.43 410.27 342.76 C410.28 338.5 410.27 334.24 410.26 329.99 C410.26 328.46 410.26 326.94 410.26 325.42 C410.29 317.32 409.98 309.31 409.18 301.24 C409.12 300.48 409.05 299.73 408.98 298.95 C408.37 293.47 406.96 290.42 402.9 286.79 C400.7 284.71 399.47 282.54 397.94 279.94 C394.16 274.33 389.22 272.16 383.21 269.57 C380 268 380 268 377.95 265.87 C374.12 262.2 368.4 262.88 363.35 262.89 C362.05 262.89 360.75 262.89 359.41 262.89 C358.01 262.89 356.6 262.9 355.2 262.9 C353.75 262.9 352.3 262.91 350.85 262.91 C347.05 262.91 343.25 262.92 339.46 262.93 C335.58 262.94 331.69 262.95 327.81 262.95 C320.21 262.96 312.6 262.98 305 263 C303.54 267.88 302.74 272.15 302.56 277.25 C301.69 292.49 301.69 292.49 297.01 298.59 C293.75 304.12 293.52 310.21 292.75 316.5 C291.87 322.62 290.73 325.95 286.39 330.34 C283.59 333.69 283.35 338.02 282.66 342.21 C281.89 346.09 281.06 348.3 277.98 350.68 C274.79 353.16 274.19 354.11 273.38 357.94 C272.04 363.2 270.09 367.1 266 370.81 C263.94 373.07 263.19 374.75 262.06 377.56 C260.35 381.7 258.88 382.77 255 385 C254.1 386.87 253.21 388.74 252.35 390.62 C249.45 395.72 245 399.76 241 404 C239.8 405.37 238.62 406.74 237.44 408.12 C231.77 414.62 225.86 420.64 218.84 425.66 C217.1 426.93 215.49 428.27 213.88 429.69 C211 432 211 432 207.81 433.5 C204.84 434.75 204.84 434.75 203.69 437.44 C201.43 440.87 198.92 441.59 195.16 443.01 C192.88 444.06 191.57 445.06 190 447 C190 447.66 190 448.32 190 449 C189.24 449.25 188.47 449.5 187.69 449.75 C186.47 450.16 185.25 450.57 184 451 C182.66 451.42 182.66 451.42 181.29 451.85 C180.33 452.17 179.37 452.48 178.38 452.81 C177.45 453.11 176.53 453.4 175.59 453.71 C172.82 454.84 172.82 454.84 171.17 457.51 C168.15 460.97 165.27 461.26 160.88 462.06 C158.15 462.57 155.67 463.18 153 464 C152.52 464.97 152.52 464.97 152.03 465.96 C151 468 151 468 149.17 469 C142.83 470.92 136.59 471.92 130.02 472.64 C124.75 473.34 121.16 474.75 116.81 477.84 C104.12 485.95 79.57 482.19 65.39 482.19 C61.41 482.19 57.42 482.21 53.44 482.22 C41.97 482.25 30.53 482.2 19.1 481.24 C18.28 481.18 17.47 481.12 16.62 481.05 C9.77 480.37 4.68 477.78 -1 474 C-3.43 473.39 -3.43 473.39 -6.15 473 C-7.15 472.84 -8.16 472.67 -9.2 472.5 C-10.24 472.34 -11.29 472.17 -12.38 472 C-14.45 471.67 -16.52 471.34 -18.59 471 C-19.5 470.86 -20.42 470.71 -21.37 470.56 C-24.1 469.98 -26.48 469.21 -29 468 C-29.27 467.34 -29.54 466.69 -29.82 466.01 C-30.95 463.58 -30.95 463.58 -34.59 462.77 C-36.04 462.43 -37.48 462.12 -38.94 461.81 C-40.38 461.49 -41.83 461.16 -43.28 460.83 C-44.51 460.56 -45.73 460.28 -47 460 C-47.99 459.67 -48.98 459.34 -50 459 C-50.29 458.36 -50.59 457.72 -50.89 457.07 C-52.39 454.28 -53.81 453.97 -56.75 452.94 C-57.64 452.6 -58.54 452.27 -59.46 451.93 C-60.72 451.47 -60.72 451.47 -62 451 C-67.52 448.65 -67.52 448.65 -69.81 445.56 C-72.12 442.86 -73.35 442.28 -76.56 441 C-80.7 439.34 -81.8 437.9 -84 434 C-85.69 433.28 -87.39 432.57 -89.11 431.93 C-92.07 430.47 -93.98 428.18 -96.21 425.8 C-97.91 424.09 -99.59 422.8 -101.56 421.44 C-110.35 415.06 -118.67 406.52 -124.84 397.59 C-126.13 395.73 -126.13 395.73 -128.69 393.44 C-131 391 -131 391 -132.5 387.38 C-133.64 383.88 -133.64 383.88 -136.38 382.69 C-140.04 380.33 -140.96 377.3 -142.75 373.41 C-143.94 370.79 -143.94 370.79 -146.56 368.62 C-149.86 365.07 -150.71 361.35 -152.01 356.74 C-152.99 354.02 -153.71 352.72 -156 351 C-156.66 351 -157.32 351 -158 351 C-158.27 349.89 -158.53 348.78 -158.8 347.64 C-159.16 346.18 -159.52 344.71 -159.88 343.25 C-160.05 342.52 -160.22 341.79 -160.4 341.04 C-162 334.43 -162 334.43 -166 329.06 C-170.4 324.53 -170.54 318.73 -171.31 312.75 C-172.2 306.46 -173.17 301.4 -176.8 296.05 C-180.54 289.67 -180.48 281.2 -181.06 274 C-181.22 272.12 -181.37 270.25 -181.54 268.38 C-181.63 267.15 -181.63 267.15 -181.73 265.9 C-181.81 263.99 -181.81 263.99 -183 263 C-185.05 262.9 -187.1 262.86 -189.15 262.85 C-191.13 262.85 -191.13 262.85 -193.15 262.84 C-194.6 262.83 -196.05 262.83 -197.51 262.83 C-198.99 262.83 -200.48 262.83 -201.96 262.82 C-205.08 262.82 -208.2 262.81 -211.32 262.81 C-215.3 262.81 -219.29 262.8 -223.27 262.78 C-226.34 262.77 -229.41 262.77 -232.48 262.77 C-233.95 262.77 -235.41 262.77 -236.88 262.76 C-238.95 262.75 -241.01 262.75 -243.07 262.76 C-244.24 262.76 -245.41 262.75 -246.62 262.75 C-252.93 263.21 -256.67 264.49 -261 269 Z M-514.65 446.64 C-515.66 447.87 -516.65 449.11 -517.6 450.38 C-519 452 -519 452 -522.12 453.38 C-525.91 455.52 -526.4 457.71 -527.93 461.65 C-529.36 464.79 -531.37 467.01 -533.73 469.49 C-539.45 476.28 -537.14 494.08 -537.13 502.49 C-537.13 503.76 -537.14 505.04 -537.14 506.35 C-537.14 509.86 -537.14 513.37 -537.14 516.88 C-537.14 520.71 -537.15 524.54 -537.15 528.37 C-537.16 535.95 -537.16 543.53 -537.16 551.11 C-537.16 560.19 -537.17 569.28 -537.17 578.36 C-537.19 600.3 -537.2 622.24 -537.2 644.18 C-537.2 654.56 -537.21 664.93 -537.21 675.31 C-537.22 710.83 -537.23 746.35 -537.24 781.88 C-537.24 784.1 -537.24 786.33 -537.24 788.56 C-537.24 790.79 -537.24 793.02 -537.24 795.26 C-537.24 799.73 -537.24 804.21 -537.24 808.69 C-537.24 809.8 -537.24 810.91 -537.24 812.06 C-537.24 848.12 -537.26 884.18 -537.28 920.24 C-537.31 958.37 -537.32 996.5 -537.32 1034.63 C-537.32 1038.81 -537.32 1042.99 -537.32 1047.17 C-537.32 1048.2 -537.32 1049.23 -537.32 1050.29 C-537.32 1066.88 -537.34 1083.48 -537.35 1100.07 C-537.36 1116.73 -537.37 1133.38 -537.36 1150.03 C-537.36 1159.94 -537.36 1169.84 -537.38 1179.75 C-537.38 1186.35 -537.38 1192.96 -537.37 1199.56 C-537.37 1203.33 -537.37 1207.1 -537.38 1210.87 C-537.39 1214.92 -537.38 1218.97 -537.37 1223.02 C-537.38 1224.21 -537.39 1225.39 -537.39 1226.61 C-537.39 1227.68 -537.38 1228.76 -537.37 1229.86 C-537.37 1230.79 -537.37 1231.72 -537.37 1232.67 C-537.17 1235.05 -537.17 1235.05 -535.68 1236.8 C-532.89 1238.79 -529.76 1238.41 -526.46 1238.38 C-525.68 1238.39 -524.91 1238.39 -524.11 1238.4 C-521.51 1238.41 -518.9 1238.4 -516.3 1238.39 C-514.43 1238.39 -512.57 1238.4 -510.7 1238.4 C-505.63 1238.42 -500.56 1238.41 -495.49 1238.4 C-490.19 1238.4 -484.89 1238.4 -479.59 1238.41 C-470.68 1238.41 -461.78 1238.41 -452.87 1238.39 C-442.57 1238.37 -432.27 1238.38 -421.97 1238.4 C-413.14 1238.41 -404.3 1238.41 -395.46 1238.4 C-390.18 1238.4 -384.9 1238.4 -379.62 1238.41 C-374.66 1238.42 -369.69 1238.41 -364.73 1238.39 C-362.9 1238.39 -361.08 1238.39 -359.26 1238.4 C-356.77 1238.41 -354.28 1238.4 -351.79 1238.38 C-351.07 1238.39 -350.35 1238.39 -349.6 1238.4 C-345.26 1238.35 -342.42 1237.74 -339 1235 C-338.24 1232.32 -338.24 1232.32 -338.35 1229.2 C-338.33 1227.41 -338.33 1227.41 -338.31 1225.59 C-338.32 1224.3 -338.33 1223.01 -338.34 1221.69 C-338.33 1220.35 -338.33 1219.02 -338.32 1217.69 C-338.31 1214.89 -338.32 1212.1 -338.35 1209.3 C-338.38 1205.72 -338.36 1202.14 -338.33 1198.56 C-338.31 1195.81 -338.32 1193.05 -338.33 1190.3 C-338.34 1188.34 -338.32 1186.37 -338.31 1184.41 C-338.32 1183.22 -338.34 1182.03 -338.35 1180.8 C-338.36 1179.75 -338.36 1178.7 -338.37 1177.62 C-338.78 1174.87 -338.78 1174.87 -340.98 1173.16 C-345.07 1171.59 -348.65 1171.58 -352.99 1171.62 C-353.89 1171.61 -354.79 1171.6 -355.71 1171.6 C-357.65 1171.59 -359.6 1171.59 -361.54 1171.59 C-364.62 1171.59 -367.69 1171.58 -370.77 1171.56 C-377.3 1171.52 -383.84 1171.51 -390.38 1171.5 C-397.94 1171.49 -405.51 1171.47 -413.08 1171.42 C-416.1 1171.41 -419.13 1171.41 -422.16 1171.42 C-424.02 1171.41 -425.88 1171.4 -427.75 1171.38 C-429 1171.39 -429 1171.39 -430.28 1171.4 C-438.12 1171.32 -442.9 1168.94 -449 1164 C-450.46 1163.33 -451.92 1162.67 -453.38 1162 C-459.55 1158.7 -461.87 1153 -465 1147 C-465.77 1145.82 -466.56 1144.65 -467.38 1143.5 C-469.79 1139.79 -470.12 1136.67 -470.14 1132.3 C-470.15 1131.36 -470.15 1130.42 -470.16 1129.45 C-470.16 1127.91 -470.16 1127.91 -470.16 1126.34 C-470.17 1124.72 -470.17 1124.72 -470.18 1123.06 C-470.19 1119.47 -470.2 1115.88 -470.2 1112.29 C-470.21 1109.79 -470.21 1107.3 -470.22 1104.81 C-470.23 1100.25 -470.24 1095.69 -470.24 1091.13 C-470.24 1085.09 -470.26 1079.05 -470.28 1073.01 C-470.31 1066.53 -470.32 1060.05 -470.32 1053.56 C-470.33 1051.09 -470.33 1048.62 -470.35 1046.15 C-470.36 1042.69 -470.36 1039.24 -470.36 1035.79 C-470.37 1034.76 -470.37 1033.74 -470.38 1032.69 C-470.33 1023.97 -470.33 1023.97 -467 1020 C-466.36 1019.59 -465.72 1019.17 -465.06 1018.75 C-462.71 1016.76 -462.24 1015.4 -461.12 1012.56 C-459.27 1008.07 -457.26 1006.44 -453 1004 C-452.32 1003.15 -451.64 1002.31 -450.94 1001.44 C-442.07 994.08 -427.8 995.63 -416.93 995.74 C-413.94 995.77 -410.96 995.77 -407.97 995.77 C-399.49 995.77 -391.02 995.79 -382.54 995.87 C-377.33 995.91 -372.13 995.91 -366.92 995.89 C-364.94 995.89 -362.96 995.91 -360.98 995.94 C-358.23 995.98 -355.47 995.97 -352.71 995.95 C-351.5 995.99 -351.5 995.99 -350.25 996.03 C-346.85 995.96 -344.83 995.84 -342.37 993.36 C-339.77 989.46 -338.37 986.03 -338.35 981.29 C-338.33 979.72 -338.33 979.72 -338.31 978.12 C-338.32 977.01 -338.33 975.9 -338.34 974.77 C-338.33 973.61 -338.33 972.45 -338.32 971.26 C-338.32 968.83 -338.33 966.4 -338.35 963.97 C-338.38 960.25 -338.35 956.53 -338.32 952.8 C-338.32 950.43 -338.33 948.07 -338.34 945.7 C-338.33 944.59 -338.32 943.48 -338.31 942.33 C-338.32 941.29 -338.34 940.26 -338.35 939.19 C-338.36 938.28 -338.36 937.38 -338.37 936.44 C-338.85 933.82 -338.85 933.82 -341.03 931.71 C-344.78 929.55 -347.93 929.44 -352.14 929.49 C-352.94 929.48 -353.75 929.47 -354.58 929.46 C-357.23 929.44 -359.89 929.45 -362.55 929.46 C-364.4 929.45 -366.26 929.44 -368.11 929.43 C-372.99 929.39 -377.88 929.38 -382.76 929.38 C-390.56 929.37 -398.36 929.33 -406.16 929.29 C-408.87 929.27 -411.59 929.27 -414.3 929.28 C-415.98 929.27 -417.66 929.26 -419.35 929.26 C-420.46 929.26 -420.46 929.26 -421.61 929.27 C-426.94 929.23 -431.84 928.33 -437 927 C-437 926.34 -437 925.68 -437 925 C-438.55 924.55 -438.55 924.55 -440.14 924.08 C-441.51 923.66 -442.88 923.24 -444.25 922.81 C-444.93 922.62 -445.61 922.42 -446.32 922.22 C-451.03 920.73 -453.25 919.06 -456 915 C-456.85 914.22 -457.69 913.43 -458.56 912.62 C-461.35 909.62 -462.39 906.75 -464 903 C-465.63 901.3 -467.29 899.62 -469 898 C-469.95 895.14 -470.13 893.36 -470.14 890.39 C-470.15 889.44 -470.15 888.5 -470.16 887.52 C-470.16 885.97 -470.16 885.97 -470.16 884.38 C-470.17 882.74 -470.17 882.74 -470.18 881.07 C-470.19 877.45 -470.2 873.82 -470.2 870.2 C-470.21 867.68 -470.21 865.17 -470.22 862.65 C-470.23 858.05 -470.24 853.45 -470.24 848.85 C-470.24 842.08 -470.26 835.31 -470.29 828.55 C-470.31 822.68 -470.32 816.82 -470.32 810.95 C-470.33 808.46 -470.33 805.96 -470.35 803.47 C-470.36 799.98 -470.36 796.49 -470.36 793.01 C-470.37 791.98 -470.37 790.95 -470.38 789.88 C-470.35 783.3 -469.42 779 -465.19 773.75 C-462.99 771.2 -462.99 771.2 -461.9 768.71 C-458.23 761.28 -453.5 758.66 -446.14 755.47 C-443.08 754.27 -443.08 754.27 -441.56 752.48 C-436.89 748.05 -428.03 748.71 -421.96 748.71 C-421.11 748.71 -420.26 748.7 -419.38 748.69 C-417.54 748.68 -415.71 748.67 -413.87 748.66 C-410.97 748.66 -408.06 748.64 -405.16 748.61 C-397.95 748.56 -390.75 748.52 -383.54 748.48 C-377.44 748.45 -371.33 748.41 -365.22 748.36 C-362.36 748.34 -359.5 748.34 -356.64 748.33 C-354.89 748.31 -353.14 748.3 -351.39 748.29 C-350.2 748.29 -350.2 748.29 -348.98 748.29 C-345.18 748.25 -342.22 748.14 -339 746 C-338.93 738.08 -338.88 730.16 -338.84 722.24 C-338.83 718.57 -338.81 714.89 -338.77 711.21 C-338.74 707.67 -338.72 704.12 -338.72 700.57 C-338.71 699.22 -338.7 697.86 -338.68 696.51 C-338.66 694.61 -338.66 692.72 -338.66 690.83 C-338.65 689.75 -338.65 688.67 -338.64 687.56 C-338.76 686.71 -338.88 685.87 -339 685 C-342.9 682.4 -346.19 682.71 -350.72 682.71 C-352.06 682.7 -352.06 682.7 -353.42 682.69 C-355.36 682.68 -357.3 682.67 -359.23 682.66 C-362.31 682.66 -365.38 682.64 -368.46 682.61 C-374.99 682.56 -381.53 682.53 -388.06 682.5 C-395.61 682.46 -403.16 682.42 -410.72 682.36 C-413.73 682.34 -416.75 682.34 -419.76 682.33 C-421.63 682.31 -423.51 682.3 -425.38 682.29 C-426.2 682.29 -427.03 682.29 -427.89 682.29 C-434.81 682.22 -441.42 681.19 -448 679 C-448.67 677.67 -449.33 676.33 -450 675 C-452.06 673.22 -453.96 672.02 -456.44 670.88 C-459.75 668.45 -460.96 665.74 -462.8 662.13 C-463.95 659.84 -463.95 659.84 -466.19 657.94 C-471.14 652.65 -470.29 643.76 -470.26 636.98 C-470.26 635.91 -470.27 634.83 -470.27 633.72 C-470.28 630.19 -470.27 626.65 -470.27 623.11 C-470.27 620.65 -470.27 618.18 -470.27 615.72 C-470.27 610.56 -470.27 605.4 -470.26 600.25 C-470.25 593.64 -470.26 587.02 -470.27 580.41 C-470.28 575.33 -470.27 570.24 -470.27 565.16 C-470.27 562.72 -470.27 560.28 -470.27 557.84 C-470.28 554.44 -470.27 551.03 -470.26 547.63 C-470.26 546.62 -470.27 545.62 -470.27 544.58 C-470.21 534.45 -470.21 534.45 -466.6 530.45 C-466.09 530.01 -465.58 529.57 -465.06 529.12 C-462.56 526.79 -461.9 525.74 -460.56 522.38 C-458.95 518.89 -458.6 518.47 -455.44 516.81 C-451.93 515.41 -451.93 515.41 -451.06 512.94 C-449.55 510.18 -447.44 509.54 -444.55 508.59 C-433.7 506.09 -421.74 506.82 -410.65 506.74 C-407.83 506.72 -405.01 506.69 -402.18 506.66 C-395.18 506.59 -388.19 506.53 -381.19 506.47 C-375.24 506.42 -369.28 506.37 -363.33 506.31 C-360.55 506.28 -357.76 506.26 -354.98 506.24 C-353.29 506.22 -351.59 506.21 -349.9 506.19 C-349.12 506.19 -348.35 506.18 -347.55 506.18 C-343.65 506.21 -343.65 506.21 -340 505 C-339.02 501.45 -338.86 498.02 -338.81 494.36 C-338.79 493.25 -338.78 492.14 -338.76 491 C-338.71 485.97 -338.67 480.94 -338.65 475.92 C-338.63 473.26 -338.61 470.61 -338.57 467.95 C-338.51 464.12 -338.49 460.29 -338.48 456.46 C-338.44 454.68 -338.44 454.68 -338.41 452.86 C-338.41 451.76 -338.41 450.65 -338.42 449.52 C-338.4 448.06 -338.4 448.06 -338.39 446.57 C-339.25 442.94 -340.93 442.03 -344 440 C-346.82 439.41 -346.82 439.41 -349.87 439.51 C-351.05 439.5 -352.22 439.49 -353.43 439.48 C-355.36 439.5 -355.36 439.5 -357.32 439.51 C-358.69 439.51 -360.06 439.51 -361.43 439.5 C-365.15 439.49 -368.87 439.51 -372.59 439.53 C-376.5 439.55 -380.41 439.54 -384.32 439.54 C-390.9 439.54 -397.48 439.56 -404.06 439.59 C-411.62 439.62 -419.18 439.63 -426.75 439.63 C-434.84 439.63 -442.93 439.64 -451.03 439.66 C-453.33 439.66 -455.64 439.67 -457.95 439.67 C-488.06 437.41 -488.06 437.41 -514.65 446.64 Z M-426 554 C-426.2 556.58 -426.27 559.05 -426.26 561.63 C-426.26 562.42 -426.27 563.21 -426.27 564.02 C-426.28 566.63 -426.27 569.23 -426.27 571.84 C-426.27 573.65 -426.27 575.46 -426.27 577.27 C-426.27 581.06 -426.27 584.85 -426.26 588.65 C-426.25 593.52 -426.26 598.39 -426.27 603.26 C-426.28 606.99 -426.27 610.73 -426.27 614.46 C-426.27 616.26 -426.27 618.05 -426.27 619.85 C-426.28 622.36 -426.27 624.86 -426.26 627.37 C-426.26 628.12 -426.27 628.86 -426.27 629.63 C-426.37 633.77 -426.37 633.77 -424 637 C-421.4 637.2 -418.9 637.27 -416.29 637.26 C-415.5 637.26 -414.7 637.27 -413.88 637.27 C-411.25 637.28 -408.61 637.27 -405.97 637.27 C-404.14 637.27 -402.32 637.27 -400.49 637.27 C-396.65 637.27 -392.82 637.27 -388.98 637.26 C-384.06 637.25 -379.14 637.26 -374.22 637.27 C-370.44 637.28 -366.66 637.27 -362.89 637.27 C-361.07 637.27 -359.26 637.27 -357.44 637.27 C-354.91 637.28 -352.37 637.27 -349.84 637.26 C-349.08 637.26 -348.33 637.27 -347.55 637.27 C-343.82 637.24 -342.19 637.13 -339 635 C-338.69 632.41 -338.58 630.07 -338.6 627.48 C-338.59 626.31 -338.59 626.31 -338.58 625.13 C-338.56 622.55 -338.56 619.98 -338.57 617.41 C-338.56 615.63 -338.56 613.84 -338.55 612.06 C-338.54 608.32 -338.54 604.58 -338.55 600.83 C-338.57 596.03 -338.55 591.23 -338.52 586.43 C-338.5 582.75 -338.5 579.07 -338.5 575.38 C-338.5 573.61 -338.5 571.84 -338.49 570.07 C-338.47 567.6 -338.48 565.13 -338.5 562.65 C-338.49 561.92 -338.48 561.18 -338.47 560.43 C-338.51 557.39 -338.63 555.47 -340.54 553.04 C-343.97 551.59 -347.19 551.59 -350.86 551.63 C-351.65 551.62 -352.43 551.62 -353.24 551.62 C-355.84 551.61 -358.44 551.62 -361.04 551.64 C-362.84 551.64 -364.65 551.64 -366.46 551.64 C-370.24 551.64 -374.02 551.65 -377.8 551.66 C-382.65 551.69 -387.51 551.69 -392.36 551.68 C-396.09 551.68 -399.81 551.68 -403.54 551.69 C-405.33 551.7 -407.12 551.7 -408.91 551.7 C-411.41 551.7 -413.9 551.71 -416.4 551.73 C-417.14 551.72 -417.89 551.72 -418.66 551.72 C-422.78 551.63 -422.78 551.63 -426 554 Z M458 555 C458 581.4 458 607.8 458 635 C462.78 636.91 466.16 637.29 471.16 637.26 C471.96 637.26 472.77 637.27 473.6 637.27 C476.26 637.28 478.92 637.27 481.57 637.27 C483.42 637.27 485.27 637.27 487.12 637.27 C490.99 637.27 494.86 637.27 498.73 637.26 C503.7 637.25 508.66 637.26 513.63 637.27 C517.44 637.28 521.26 637.27 525.07 637.27 C526.91 637.27 528.74 637.27 530.57 637.27 C533.12 637.28 535.68 637.27 538.23 637.26 C538.99 637.26 539.76 637.27 540.54 637.27 C544.73 637.38 544.73 637.38 548 635 C548.2 632.42 548.27 629.95 548.26 627.37 C548.26 626.58 548.27 625.79 548.27 624.98 C548.28 622.37 548.27 619.77 548.27 617.16 C548.27 615.35 548.27 613.54 548.27 611.73 C548.27 607.94 548.27 604.15 548.26 600.35 C548.25 595.48 548.26 590.61 548.27 585.74 C548.28 582.01 548.27 578.27 548.27 574.54 C548.27 572.74 548.27 570.95 548.27 569.15 C548.28 566.64 548.27 564.14 548.26 561.63 C548.26 560.88 548.27 560.14 548.27 559.37 C548.37 555.23 548.37 555.23 546 552 C543.45 551.8 541 551.72 538.45 551.73 C537.67 551.72 536.89 551.72 536.09 551.71 C533.5 551.7 530.92 551.7 528.33 551.7 C526.54 551.7 524.74 551.69 522.94 551.69 C519.17 551.68 515.4 551.68 511.63 551.68 C506.8 551.69 501.98 551.67 497.15 551.65 C493.44 551.64 489.73 551.63 486.01 551.64 C484.24 551.64 482.46 551.63 480.68 551.62 C478.19 551.61 475.69 551.62 473.2 551.63 C472.47 551.62 471.74 551.61 470.99 551.6 C465.58 551.66 463.38 552.69 458 555 Z M-424 794 C-425.6 799.6 -426.25 802.93 -426.26 808.52 C-426.26 809.24 -426.27 809.96 -426.27 810.69 C-426.28 813.04 -426.27 815.39 -426.27 817.73 C-426.27 819.37 -426.27 821.01 -426.27 822.65 C-426.27 826.07 -426.27 829.5 -426.26 832.92 C-426.25 837.31 -426.26 841.7 -426.27 846.09 C-426.28 849.47 -426.27 852.85 -426.27 856.23 C-426.27 857.85 -426.27 859.47 -426.27 861.09 C-426.28 863.35 -426.27 865.6 -426.26 867.86 C-426.26 869.15 -426.26 870.43 -426.25 871.76 C-426 875.74 -426 875.74 -424 879 C-419.6 880.22 -415.15 880.14 -410.61 880.18 C-409.53 880.19 -409.53 880.19 -408.44 880.2 C-406.09 880.22 -403.75 880.23 -401.4 880.24 C-400.2 880.24 -400.2 880.24 -398.96 880.25 C-394.71 880.27 -390.46 880.29 -386.21 880.3 C-381.82 880.31 -377.43 880.34 -373.04 880.38 C-369.66 880.41 -366.28 880.41 -362.9 880.42 C-361.28 880.42 -359.67 880.43 -358.05 880.45 C-355.79 880.48 -353.53 880.48 -351.27 880.47 C-349.98 880.48 -348.69 880.48 -347.37 880.49 C-343.31 879.9 -341.68 879.1 -339 876 C-338.25 872.73 -338.25 872.73 -338.37 868.99 C-338.36 868.29 -338.35 867.59 -338.35 866.87 C-338.33 864.57 -338.35 862.26 -338.37 859.96 C-338.37 858.35 -338.37 856.74 -338.36 855.13 C-338.36 851.75 -338.38 848.38 -338.4 845 C-338.44 840.7 -338.43 836.39 -338.41 832.09 C-338.4 828.76 -338.41 825.43 -338.43 822.11 C-338.43 820.52 -338.43 818.93 -338.42 817.35 C-338.42 815.12 -338.44 812.89 -338.47 810.66 C-338.47 809.39 -338.48 808.13 -338.49 806.83 C-338.96 801.96 -338.96 801.96 -343 794 C-369.73 794 -396.46 794 -424 794 Z M462.69 795.59 C458.94 800.92 457.63 805.67 457.55 812.14 C457.54 812.82 457.52 813.49 457.51 814.19 C457.48 816.4 457.47 818.61 457.46 820.82 C457.45 822.37 457.44 823.92 457.42 825.46 C457.4 828.7 457.39 831.93 457.39 835.16 C457.38 839.3 457.33 843.43 457.27 847.57 C457.23 850.76 457.22 853.95 457.22 857.15 C457.21 858.67 457.2 860.2 457.17 861.72 C456.88 869.61 456.88 869.61 459.02 877.05 C464.52 882.22 474.8 880.65 481.84 880.56 C483.5 880.55 485.15 880.55 486.81 880.55 C490.27 880.55 493.73 880.52 497.19 880.49 C501.61 880.44 506.03 880.43 510.45 880.42 C513.87 880.42 517.28 880.4 520.69 880.38 C522.32 880.38 523.95 880.37 525.58 880.36 C527.87 880.36 530.15 880.33 532.43 880.31 C534.38 880.29 534.38 880.29 536.36 880.27 C540.19 879.99 543.41 879.36 547 878 C548.17 874.48 548.13 871.69 548.15 867.98 C548.15 867.27 548.15 866.56 548.16 865.82 C548.16 863.47 548.17 861.12 548.17 858.77 C548.17 857.13 548.17 855.49 548.18 853.85 C548.18 850.41 548.19 846.98 548.19 843.54 C548.19 839.15 548.2 834.76 548.22 830.36 C548.23 826.98 548.23 823.59 548.23 820.21 C548.23 818.59 548.23 816.97 548.24 815.35 C548.25 813.08 548.25 810.81 548.24 808.54 C548.24 807.25 548.25 805.96 548.25 804.63 C547.98 800.75 547.2 797.68 546 794 C535.51 793.91 525.02 793.84 514.52 793.79 C509.65 793.77 504.78 793.74 499.91 793.7 C495.21 793.65 490.51 793.63 485.81 793.62 C484.01 793.61 482.22 793.6 480.42 793.58 C477.91 793.55 475.4 793.54 472.89 793.55 C472.15 793.53 471.4 793.52 470.64 793.5 C467.41 793.53 465.38 793.74 462.69 795.59 Z M-138 845 C-138.61 847.14 -138.61 847.14 -138.53 849.53 C-138.54 850.4 -138.54 851.28 -138.55 852.18 C-138.53 853.09 -138.52 854 -138.5 854.94 C-138.52 855.84 -138.53 856.75 -138.55 857.69 C-138.54 858.56 -138.54 859.44 -138.53 860.34 C-138.53 861.14 -138.52 861.94 -138.52 862.76 C-137.79 865.91 -136.52 867 -134 869 C-130.92 869.6 -130.92 869.6 -127.43 869.5 C-126.44 869.51 -126.44 869.51 -125.42 869.52 C-123.19 869.54 -120.97 869.52 -118.74 869.51 C-117.13 869.51 -115.52 869.52 -113.91 869.53 C-109.48 869.54 -105.05 869.54 -100.62 869.52 C-95.85 869.51 -91.07 869.53 -86.3 869.54 C-76.94 869.56 -67.59 869.55 -58.23 869.54 C-50.63 869.53 -43.03 869.53 -35.43 869.54 C-33.8 869.54 -33.8 869.54 -32.15 869.54 C-29.96 869.54 -27.76 869.54 -25.56 869.54 C-4.97 869.55 15.63 869.54 36.23 869.52 C53.92 869.5 71.61 869.5 89.29 869.52 C109.82 869.54 130.34 869.55 150.86 869.54 C153.05 869.54 155.24 869.54 157.43 869.54 C158.5 869.53 159.58 869.53 160.69 869.53 C168.28 869.53 175.88 869.54 183.47 869.55 C192.73 869.56 201.98 869.55 211.23 869.53 C215.95 869.52 220.68 869.52 225.4 869.53 C229.72 869.54 234.04 869.54 238.36 869.51 C239.93 869.51 241.49 869.51 243.06 869.52 C245.18 869.53 247.31 869.52 249.43 869.5 C250.61 869.5 251.79 869.5 253.01 869.5 C256.62 868.9 257.79 867.87 260 865 C260.61 862.75 260.61 862.75 260.53 860.34 C260.54 859.46 260.54 858.59 260.55 857.69 C260.53 856.78 260.52 855.87 260.5 854.94 C260.52 854.03 260.53 853.12 260.55 852.18 C260.54 851.3 260.54 850.43 260.53 849.53 C260.52 848.33 260.52 848.33 260.52 847.11 C260.17 844.89 260.17 844.89 258.38 843.39 C255.24 841.56 253.06 841.62 249.43 841.62 C248.77 841.62 248.1 841.61 247.42 841.61 C245.19 841.6 242.97 841.61 240.74 841.62 C239.13 841.62 237.52 841.61 235.91 841.6 C231.48 841.59 227.05 841.6 222.62 841.61 C217.85 841.61 213.07 841.6 208.3 841.6 C198.94 841.58 189.59 841.59 180.23 841.59 C172.63 841.6 165.03 841.6 157.43 841.6 C156.34 841.6 155.26 841.6 154.15 841.6 C151.96 841.6 149.76 841.6 147.56 841.59 C126.97 841.59 106.37 841.6 85.77 841.61 C68.08 841.63 50.39 841.62 32.71 841.61 C12.18 841.59 -8.34 841.59 -28.86 841.6 C-31.05 841.6 -33.24 841.6 -35.43 841.6 C-36.5 841.6 -37.58 841.6 -38.69 841.6 C-46.28 841.6 -53.88 841.6 -61.47 841.59 C-70.73 841.58 -79.98 841.58 -89.23 841.6 C-93.95 841.61 -98.68 841.61 -103.4 841.6 C-107.72 841.59 -112.04 841.6 -116.36 841.61 C-117.93 841.62 -119.49 841.62 -121.06 841.61 C-123.18 841.6 -125.31 841.61 -127.43 841.62 C-129.2 841.62 -129.2 841.62 -131.01 841.62 C-134.29 842.04 -135.67 842.69 -138 845 Z M86 915 C84.5 919.02 83.75 922.36 83.75 926.65 C83.74 927.76 83.74 928.87 83.73 930.01 C83.74 931.22 83.74 932.42 83.75 933.67 C83.74 934.96 83.74 936.25 83.74 937.58 C83.73 941.15 83.73 944.72 83.74 948.3 C83.74 952.15 83.74 956.01 83.73 959.87 C83.72 967.42 83.72 974.97 83.73 982.52 C83.73 988.66 83.73 994.79 83.73 1000.93 C83.73 1001.8 83.73 1002.67 83.73 1003.57 C83.73 1005.35 83.73 1007.12 83.73 1008.89 C83.72 1025.52 83.73 1042.14 83.74 1058.77 C83.75 1073.04 83.75 1087.32 83.74 1101.6 C83.73 1118.17 83.72 1134.74 83.73 1151.31 C83.73 1153.08 83.73 1154.84 83.73 1156.61 C83.73 1157.48 83.73 1158.34 83.73 1159.24 C83.74 1165.37 83.73 1171.5 83.73 1177.64 C83.72 1185.1 83.72 1192.57 83.73 1200.03 C83.74 1203.85 83.74 1207.66 83.73 1211.47 C83.73 1215.59 83.74 1219.72 83.75 1223.84 C83.74 1225.06 83.74 1226.27 83.73 1227.53 C83.74 1228.62 83.74 1229.72 83.75 1230.85 C83.75 1231.8 83.75 1232.76 83.75 1233.74 C83.78 1236.2 83.78 1236.2 86 1238 C88.37 1238.31 88.37 1238.31 91.17 1238.26 C92.26 1238.27 93.36 1238.27 94.48 1238.28 C95.69 1238.28 96.9 1238.28 98.14 1238.27 C99.41 1238.28 100.67 1238.28 101.98 1238.29 C105.46 1238.3 108.94 1238.3 112.42 1238.3 C115.33 1238.3 118.24 1238.31 121.15 1238.31 C128.01 1238.32 134.87 1238.32 141.74 1238.32 C148.81 1238.31 155.88 1238.32 162.95 1238.34 C169.03 1238.36 175.1 1238.37 181.18 1238.36 C184.81 1238.36 188.43 1238.36 192.06 1238.38 C196.11 1238.39 200.16 1238.38 204.21 1238.37 C206.01 1238.38 206.01 1238.38 207.84 1238.4 C208.95 1238.39 210.06 1238.38 211.2 1238.37 C212.16 1238.37 213.11 1238.37 214.1 1238.37 C217.83 1237.89 220.6 1236.6 224 1235 C224.18 1195.53 224.32 1156.07 224.41 1116.6 C224.42 1111.94 224.43 1107.28 224.44 1102.62 C224.44 1101.23 224.44 1101.23 224.45 1099.81 C224.48 1084.79 224.54 1069.77 224.62 1054.75 C224.69 1039.34 224.74 1023.93 224.75 1008.52 C224.76 999.01 224.8 989.5 224.86 979.99 C224.91 973.47 224.92 966.94 224.91 960.42 C224.9 956.66 224.91 952.9 224.95 949.14 C225 945.05 224.98 940.97 224.96 936.89 C225 935.11 225 935.11 225.03 933.3 C224.93 925.93 223.36 922.01 218.29 916.62 C213.71 913.38 208.58 913.83 203.16 913.98 C201.89 913.98 200.62 913.98 199.31 913.97 C195.85 913.97 192.4 914.02 188.94 914.09 C185.32 914.14 181.69 914.15 178.07 914.16 C171.22 914.19 164.37 914.26 157.52 914.35 C149.72 914.45 141.92 914.5 134.12 914.55 C118.08 914.64 102.04 914.8 86 915 Z M-424 1041 C-426.46 1044.69 -426.28 1047.48 -426.26 1051.74 C-426.26 1052.53 -426.27 1053.32 -426.27 1054.13 C-426.28 1056.73 -426.27 1059.34 -426.27 1061.94 C-426.27 1063.75 -426.27 1065.56 -426.27 1067.36 C-426.27 1071.15 -426.27 1074.94 -426.26 1078.72 C-426.25 1083.58 -426.26 1088.45 -426.27 1093.31 C-426.28 1097.04 -426.27 1100.77 -426.27 1104.5 C-426.27 1106.29 -426.27 1108.09 -426.27 1109.88 C-426.28 1112.38 -426.27 1114.88 -426.26 1117.39 C-426.26 1118.13 -426.27 1118.88 -426.27 1119.64 C-426.37 1123.78 -426.37 1123.78 -424 1127 C-421.43 1127.2 -418.97 1127.27 -416.4 1127.26 C-415.62 1127.26 -414.83 1127.27 -414.03 1127.27 C-411.43 1127.28 -408.83 1127.27 -406.23 1127.27 C-404.42 1127.27 -402.62 1127.27 -400.82 1127.27 C-397.03 1127.27 -393.25 1127.27 -389.46 1127.26 C-384.61 1127.25 -379.76 1127.26 -374.91 1127.27 C-371.18 1127.28 -367.45 1127.27 -363.73 1127.27 C-361.94 1127.27 -360.15 1127.27 -358.36 1127.27 C-355.86 1127.28 -353.36 1127.27 -350.86 1127.26 C-350.12 1127.26 -349.38 1127.27 -348.62 1127.27 C-344.92 1127.24 -342.14 1127.05 -339 1125 C-338.88 1114.49 -338.8 1103.98 -338.74 1093.47 C-338.71 1088.59 -338.68 1083.71 -338.62 1078.83 C-338.57 1074.13 -338.54 1069.42 -338.53 1064.71 C-338.52 1062.91 -338.5 1061.12 -338.47 1059.32 C-338.44 1056.8 -338.43 1054.29 -338.43 1051.78 C-338.41 1051.03 -338.4 1050.28 -338.38 1049.51 C-338.34 1047.2 -338.34 1047.2 -339 1044 C-342.72 1040.42 -346.97 1040.57 -351.88 1040.61 C-352.66 1040.61 -353.44 1040.6 -354.24 1040.6 C-356.8 1040.58 -359.36 1040.59 -361.92 1040.6 C-363.7 1040.6 -365.48 1040.6 -367.26 1040.59 C-370.99 1040.59 -374.72 1040.59 -378.45 1040.61 C-383.23 1040.63 -388.02 1040.62 -392.8 1040.6 C-396.48 1040.59 -400.15 1040.59 -403.83 1040.6 C-405.6 1040.6 -407.36 1040.6 -409.13 1040.59 C-411.59 1040.58 -414.05 1040.6 -416.51 1040.61 C-417.24 1040.61 -417.97 1040.6 -418.73 1040.59 C-420.96 1040.59 -420.96 1040.59 -424 1041 Z M458 1045 C458 1071.4 458 1097.8 458 1125 C463.17 1126.72 466.9 1127.29 472.18 1127.26 C472.97 1127.26 473.77 1127.27 474.59 1127.27 C477.21 1127.28 479.83 1127.27 482.45 1127.27 C484.28 1127.27 486.1 1127.27 487.93 1127.27 C491.74 1127.27 495.56 1127.27 499.38 1127.26 C504.28 1127.25 509.17 1127.26 514.07 1127.27 C517.84 1127.28 521.6 1127.27 525.36 1127.27 C527.17 1127.27 528.98 1127.27 530.79 1127.27 C533.3 1127.28 535.82 1127.27 538.34 1127.26 C539.47 1127.26 539.47 1127.26 540.61 1127.27 C544.76 1127.37 544.76 1127.37 548 1125 C548.2 1122.43 548.27 1119.96 548.26 1117.39 C548.26 1116.6 548.27 1115.81 548.27 1115 C548.28 1112.4 548.27 1109.8 548.27 1107.19 C548.27 1105.39 548.27 1103.58 548.27 1101.77 C548.27 1097.98 548.27 1094.2 548.26 1090.41 C548.25 1085.55 548.26 1080.69 548.27 1075.83 C548.28 1072.1 548.27 1068.36 548.27 1064.63 C548.27 1062.84 548.27 1061.05 548.27 1059.26 C548.28 1056.75 548.27 1054.25 548.26 1051.74 C548.26 1051 548.27 1050.26 548.27 1049.49 C548.24 1045.78 548.12 1044.18 546 1041 C543.44 1040.69 541.12 1040.58 538.56 1040.6 C537.79 1040.59 537.02 1040.58 536.23 1040.58 C533.68 1040.56 531.13 1040.56 528.59 1040.57 C526.81 1040.56 525.04 1040.56 523.27 1040.55 C519.55 1040.54 515.83 1040.54 512.11 1040.55 C507.35 1040.57 502.6 1040.55 497.85 1040.52 C494.18 1040.5 490.52 1040.5 486.86 1040.5 C485.1 1040.5 483.35 1040.5 481.6 1040.49 C479.14 1040.47 476.68 1040.48 474.22 1040.5 C473.5 1040.49 472.79 1040.48 472.05 1040.47 C465.96 1040.56 464.07 1041.96 458 1045 Z " fill="#000000" transform="translate(579,0)"/>
<path d="M0 0 C1.46 -0.01 1.46 -0.01 2.95 -0.03 C4 -0.03 5.05 -0.04 6.13 -0.04 C7.22 -0.05 8.3 -0.05 9.42 -0.06 C11.71 -0.07 14.01 -0.08 16.31 -0.08 C19.81 -0.09 23.3 -0.12 26.8 -0.15 C29.04 -0.16 31.27 -0.16 33.5 -0.17 C34.54 -0.18 35.58 -0.19 36.66 -0.2 C44.74 -0.18 50.57 1.15 57.08 6.16 C59.03 6.86 60.99 7.52 62.96 8.16 C69.2 10.64 71.38 13.77 74.19 19.74 C75.08 22.16 75.08 22.16 75.08 24.16 C75.74 24.16 76.4 24.16 77.08 24.16 C77.74 25.39 78.38 26.62 79.02 27.85 C79.56 28.88 79.56 28.88 80.11 29.92 C82.13 34.57 82.22 39.13 82.27 44.14 C82.28 45.16 82.28 45.16 82.3 46.2 C82.31 47.68 82.33 49.15 82.34 50.62 C82.36 52.95 82.39 55.28 82.42 57.61 C82.49 63.38 82.55 69.16 82.61 74.93 C82.66 79.83 82.71 84.72 82.77 89.61 C82.8 91.91 82.82 94.21 82.84 96.5 C82.86 97.9 82.88 99.3 82.89 100.7 C82.91 101.93 82.92 103.15 82.93 104.42 C82.77 107.07 82.77 107.07 84.08 108.16 C86.18 108.27 88.29 108.32 90.39 108.33 C91.38 108.34 91.38 108.34 92.38 108.35 C93.82 108.37 95.26 108.38 96.69 108.39 C98.97 108.41 101.25 108.43 103.53 108.46 C110.01 108.53 116.5 108.59 122.98 108.64 C126.94 108.67 130.9 108.71 134.87 108.76 C136.37 108.77 137.88 108.79 139.38 108.8 C159.47 108.91 159.47 108.91 168.08 115.16 C169.48 115.82 169.48 115.82 170.91 116.49 C178.98 120.43 181.96 124.51 184.8 132.76 C186.14 136.32 187.96 139.02 190.08 142.16 C191.06 145.16 191.22 147.93 191.24 151.08 C191.25 152.05 191.26 153.03 191.27 154.03 C191.28 155.6 191.28 155.6 191.29 157.21 C191.29 158.29 191.3 159.38 191.3 160.5 C191.31 162.79 191.32 165.09 191.32 167.39 C191.33 170.88 191.36 174.38 191.4 177.88 C191.4 180.11 191.41 182.35 191.41 184.58 C191.42 185.62 191.44 186.66 191.45 187.73 C191.42 195.76 190.15 201.73 185.08 208.16 C184.43 209.79 183.83 211.44 183.27 213.1 C180.39 220.48 174.99 223.41 168.23 226.95 C166.06 228.08 166.06 228.08 164.37 229.68 C156.62 234.69 146.02 233.49 137.15 233.54 C135.61 233.56 134.08 233.57 132.55 233.59 C128.55 233.64 124.54 233.67 120.54 233.7 C114.1 233.76 107.66 233.82 101.23 233.89 C98.98 233.91 96.73 233.93 94.49 233.95 C93.12 233.96 91.75 233.97 90.39 233.99 C89.19 234 87.99 234.01 86.76 234.02 C84.16 233.86 84.16 233.86 83.08 235.16 C82.97 237.29 82.94 239.41 82.93 241.54 C82.92 242.21 82.92 242.88 82.91 243.56 C82.9 245.02 82.89 246.47 82.88 247.92 C82.87 250.23 82.85 252.54 82.83 254.85 C82.77 261.42 82.72 267.99 82.68 274.55 C82.66 278.57 82.63 282.58 82.58 286.6 C82.57 288.12 82.56 289.65 82.55 291.17 C82.53 301.97 82.46 311.7 75.08 320.16 C74.25 321.67 73.44 323.19 72.65 324.72 C68.95 331.45 64.49 333.52 57.52 336.15 C54.36 337.46 51.87 339.19 49.08 341.16 C46.14 342.14 44.17 342.3 41.1 342.34 C40.08 342.35 39.07 342.36 38.02 342.38 C36.37 342.39 36.37 342.39 34.7 342.4 C33.57 342.41 32.43 342.42 31.27 342.42 C28.87 342.44 26.48 342.45 24.08 342.46 C20.43 342.47 16.78 342.52 13.12 342.56 C10.79 342.57 8.46 342.58 6.13 342.59 C5.05 342.6 3.96 342.62 2.84 342.64 C-3.92 342.62 -8.11 341.65 -13.92 338.16 C-15.43 337.48 -16.95 336.81 -18.48 336.16 C-19.23 335.82 -19.98 335.48 -20.75 335.13 C-22.1 334.53 -23.46 333.95 -24.83 333.41 C-30.17 330.97 -32.02 326.97 -34.57 321.84 C-35.92 318.99 -35.92 318.99 -38.17 315.97 C-43.19 307.91 -42.24 298.26 -42.3 289.1 C-42.31 287.55 -42.33 285.99 -42.35 284.44 C-42.39 280.36 -42.43 276.29 -42.46 272.22 C-42.51 265.68 -42.58 259.14 -42.65 252.6 C-42.67 250.31 -42.69 248.03 -42.7 245.74 C-42.72 244.35 -42.73 242.96 -42.74 241.57 C-42.75 240.36 -42.76 239.14 -42.77 237.89 C-42.61 235.25 -42.61 235.25 -43.92 234.16 C-46.02 234.05 -48.12 234 -50.22 233.99 C-50.88 233.98 -51.54 233.97 -52.22 233.97 C-53.65 233.95 -55.09 233.94 -56.53 233.93 C-58.81 233.91 -61.08 233.89 -63.36 233.87 C-69.85 233.8 -76.33 233.74 -82.81 233.68 C-86.78 233.65 -90.74 233.61 -94.7 233.56 C-96.21 233.55 -97.71 233.54 -99.22 233.53 C-120.14 233.41 -120.14 233.41 -126.92 228.16 C-126.92 227.5 -126.92 226.84 -126.92 226.16 C-128.19 225.79 -128.19 225.79 -129.48 225.41 C-131.18 224.79 -131.18 224.79 -132.92 224.16 C-134.07 223.75 -135.23 223.34 -136.42 222.91 C-141.24 220.12 -142.61 214.62 -144.46 209.67 C-145.93 206.14 -147.79 203.32 -149.92 200.16 C-150.89 197.16 -151.05 194.39 -151.08 191.24 C-151.09 189.78 -151.09 189.78 -151.11 188.29 C-151.11 187.24 -151.12 186.19 -151.12 185.11 C-151.13 184.03 -151.13 182.94 -151.14 181.83 C-151.15 179.53 -151.15 177.23 -151.16 174.94 C-151.17 171.44 -151.2 167.94 -151.23 164.44 C-151.24 162.21 -151.24 159.97 -151.25 157.74 C-151.26 156.18 -151.26 156.18 -151.28 154.59 C-151.26 146.51 -149.93 140.67 -144.92 134.16 C-144.25 132.23 -143.6 130.29 -142.98 128.35 C-139.97 120.82 -134.92 118.58 -127.92 115.16 C-126.87 114.4 -125.81 113.63 -124.73 112.85 C-116.48 107.9 -106.28 108.84 -96.98 108.78 C-95.45 108.77 -93.92 108.75 -92.38 108.73 C-88.38 108.69 -84.38 108.65 -80.37 108.62 C-73.93 108.57 -67.5 108.5 -61.06 108.43 C-58.81 108.41 -56.57 108.39 -54.32 108.38 C-52.95 108.36 -51.59 108.35 -50.22 108.33 C-48.43 108.32 -48.43 108.32 -46.6 108.31 C-44 108.46 -44 108.46 -42.92 107.16 C-42.81 105.04 -42.77 102.91 -42.76 100.78 C-42.75 100.11 -42.75 99.45 -42.74 98.76 C-42.73 97.31 -42.72 95.85 -42.72 94.4 C-42.71 92.09 -42.69 89.78 -42.66 87.47 C-42.6 80.9 -42.55 74.34 -42.52 67.77 C-42.49 63.75 -42.46 59.74 -42.41 55.72 C-42.4 54.2 -42.39 52.68 -42.39 51.15 C-42.37 41.01 -42.26 30.95 -35.98 22.47 C-33.98 19.73 -32.72 17.68 -31.42 14.47 C-28.85 9.73 -23.19 8.4 -18.42 6.62 C-14.9 5.15 -12.08 3.29 -8.92 1.16 C-5.91 0.18 -3.15 0.03 0 0 Z M5.08 53.16 C3.6 56.12 3.93 58.79 3.91 62.1 C3.9 63.17 3.9 63.17 3.89 64.26 C3.88 65.82 3.86 67.37 3.85 68.93 C3.84 71.4 3.81 73.86 3.79 76.33 C3.72 83.35 3.66 90.38 3.61 97.4 C3.57 101.69 3.53 105.99 3.49 110.28 C3.47 111.91 3.46 113.54 3.45 115.17 C3.33 138.27 3.33 138.27 -0.85 143.66 C-1.54 144.16 -2.22 144.65 -2.92 145.16 C-3.41 145.66 -3.91 146.15 -4.42 146.66 C-4.91 147.16 -5.41 147.65 -5.92 148.16 C-6.66 149.18 -6.66 149.18 -7.42 150.22 C-14.82 155.96 -26.87 154.44 -35.85 154.44 C-38.31 154.43 -40.77 154.45 -43.23 154.46 C-50.21 154.51 -57.19 154.54 -64.18 154.54 C-68.47 154.55 -72.76 154.57 -77.05 154.61 C-78.68 154.62 -80.31 154.62 -81.94 154.61 C-84.21 154.61 -86.48 154.62 -88.75 154.65 C-90.04 154.65 -91.33 154.65 -92.66 154.66 C-96.48 155.25 -97.57 156.17 -99.92 159.16 C-103.78 164.67 -103.83 170.68 -102.92 177.16 C-101.42 181.06 -99.79 185.23 -95.92 187.16 C-93.61 187.27 -91.29 187.32 -88.98 187.33 C-88.27 187.34 -87.55 187.35 -86.82 187.35 C-85.26 187.37 -83.71 187.38 -82.15 187.39 C-79.68 187.41 -77.21 187.43 -74.75 187.46 C-67.72 187.53 -60.7 187.59 -53.68 187.64 C-49.39 187.67 -45.09 187.71 -40.8 187.76 C-39.17 187.77 -37.54 187.79 -35.91 187.8 C-12.81 187.92 -12.81 187.92 -7.42 192.1 C-6.92 192.78 -6.43 193.46 -5.92 194.16 C-5.42 194.66 -4.93 195.15 -4.42 195.66 C-3.92 196.16 -3.43 196.65 -2.92 197.16 C-1.9 197.9 -1.9 197.9 -0.85 198.66 C4.88 206.07 3.37 218.11 3.36 227.09 C3.36 229.55 3.37 232.01 3.39 234.47 C3.43 241.45 3.46 248.44 3.46 255.42 C3.47 259.71 3.49 264 3.53 268.3 C3.54 269.93 3.54 271.56 3.54 273.18 C3.53 275.46 3.55 277.73 3.57 280 C3.57 281.29 3.57 282.58 3.58 283.91 C4.17 287.71 5.08 288.84 8.08 291.16 C13.98 294.27 20.61 293.77 27.08 293.16 C30.26 292.17 32.27 291.03 35.08 289.16 C36.56 286.2 36.23 283.53 36.26 280.22 C36.27 279.15 36.27 279.15 36.28 278.06 C36.29 276.51 36.3 274.95 36.31 273.4 C36.33 270.93 36.35 268.46 36.38 265.99 C36.45 258.97 36.51 251.95 36.56 244.92 C36.59 240.63 36.63 236.34 36.68 232.04 C36.7 230.41 36.71 228.78 36.72 227.15 C36.84 203.87 36.84 203.87 41.46 198.29 C42.32 197.58 43.19 196.88 44.08 196.16 C44.72 195.27 45.36 194.39 46.02 193.47 C49.99 189.03 55.42 188.85 61.08 188.16 C63.62 188.07 66.16 188.03 68.7 188.02 C69.43 188.02 70.15 188.01 70.9 188.01 C72.46 188 74.03 188 75.59 187.99 C78.07 187.99 80.54 187.97 83.02 187.95 C90.05 187.9 97.09 187.85 104.12 187.84 C108.44 187.83 112.75 187.8 117.06 187.75 C118.7 187.74 120.34 187.74 121.98 187.74 C124.28 187.74 126.56 187.72 128.86 187.69 C130.16 187.69 131.46 187.68 132.8 187.67 C136.64 187.07 137.73 186.17 140.08 183.16 C143.94 177.65 143.99 171.64 143.08 165.16 C141.58 161.26 139.95 157.1 136.08 155.16 C133.77 155.05 131.46 155 129.15 154.99 C128.43 154.98 127.72 154.97 126.98 154.97 C125.43 154.95 123.87 154.94 122.32 154.93 C119.85 154.91 117.38 154.89 114.91 154.87 C107.89 154.8 100.87 154.74 93.85 154.68 C89.55 154.65 85.26 154.61 80.96 154.56 C79.33 154.55 77.7 154.54 76.07 154.53 C52.98 154.4 52.98 154.4 47.58 150.22 C46.84 149.2 46.84 149.2 46.08 148.16 C45.34 147.42 45.34 147.42 44.58 146.66 C43.84 145.92 43.84 145.92 43.08 145.16 C42.4 144.67 41.72 144.17 41.02 143.66 C35.28 136.26 36.8 124.21 36.81 115.23 C36.81 112.77 36.8 110.31 36.78 107.85 C36.73 100.87 36.71 93.89 36.7 86.9 C36.7 82.61 36.67 78.32 36.64 74.03 C36.63 72.4 36.62 70.77 36.63 69.14 C36.64 66.87 36.62 64.6 36.6 62.33 C36.59 61.04 36.59 59.74 36.59 58.42 C36 54.61 35.09 53.48 32.08 51.16 C23.64 46.71 12.81 48.01 5.08 53.16 Z " fill="#000000" transform="translate(619.9169921875,68.8388671875)"/>
<path d="M0 0 C0.7 -0 1.41 -0.01 2.13 -0.01 C4.48 -0.02 6.84 -0.02 9.19 -0.02 C10.88 -0.03 12.57 -0.03 14.26 -0.04 C18.85 -0.05 23.44 -0.06 28.03 -0.06 C30.9 -0.06 33.77 -0.07 36.64 -0.07 C45.62 -0.08 54.6 -0.09 63.58 -0.1 C73.94 -0.1 84.3 -0.12 94.66 -0.15 C102.67 -0.17 110.68 -0.18 118.7 -0.18 C123.48 -0.18 128.26 -0.19 133.04 -0.21 C137.55 -0.22 142.05 -0.23 146.55 -0.22 C148.2 -0.22 149.85 -0.22 151.49 -0.23 C169.75 -0.33 169.75 -0.33 176.02 3.14 C176.35 4.13 176.68 5.12 177.02 6.14 C179.18 7.02 179.18 7.02 181.77 7.58 C186.01 8.74 188.89 9.91 192.02 13.14 C192.35 13.82 192.68 14.5 193.02 15.2 C193.91 17.38 193.91 17.38 196.46 18.45 C200.31 20.99 201.45 24.83 202.52 29.18 C202.93 31.27 203.3 33.35 203.64 35.45 C204.35 40.44 204.35 40.44 206.02 45.14 C206.12 48.01 206.17 50.85 206.16 53.72 C206.17 54.61 206.17 55.49 206.17 56.41 C206.18 59.36 206.19 62.3 206.19 65.25 C206.19 67.3 206.19 69.34 206.2 71.39 C206.2 75.68 206.2 79.97 206.2 84.27 C206.2 89.77 206.22 95.27 206.23 100.77 C206.25 104.99 206.25 109.22 206.25 113.45 C206.25 115.48 206.25 117.5 206.26 119.53 C206.27 122.37 206.27 125.21 206.26 128.05 C206.27 128.88 206.27 129.72 206.28 130.58 C206.25 135.19 205.7 138.79 204.02 143.14 C203.56 145.64 203.12 148.14 202.71 150.64 C201.64 156.48 200.48 160.12 196.02 164.14 C195.36 164.82 194.7 165.5 194.02 166.2 C193.36 166.84 192.7 167.48 192.02 168.14 C191.32 168.97 190.62 169.79 189.89 170.64 C186.58 173.52 183.53 174.72 179.42 176.15 C176.99 177.02 176.99 177.02 175.15 178.63 C170.23 182.12 164.53 182.39 158.68 182.41 C157.62 182.41 157.62 182.41 156.54 182.42 C154.19 182.43 151.85 182.43 149.5 182.43 C147.81 182.44 146.12 182.44 144.43 182.45 C139.86 182.47 135.28 182.47 130.7 182.47 C127.84 182.48 124.98 182.48 122.12 182.49 C112.12 182.5 102.12 182.51 92.13 182.51 C82.82 182.51 73.52 182.53 64.22 182.56 C56.22 182.59 48.22 182.6 40.22 182.6 C35.45 182.6 30.67 182.6 25.9 182.62 C21.41 182.64 16.92 182.64 12.43 182.63 C10.79 182.63 9.14 182.63 7.5 182.64 C-3.85 182.72 -12.2 181.16 -21.98 175.14 C-23.5 174.53 -25.02 173.93 -26.54 173.33 C-31.04 171.39 -32.8 169.5 -34.98 165.14 C-34.98 164.48 -34.98 163.82 -34.98 163.14 C-36.13 162.8 -36.13 162.8 -37.29 162.45 C-40.64 160.82 -41.32 159.44 -42.98 156.14 C-46.02 144.47 -45.27 131.89 -45.25 119.93 C-45.25 117.8 -45.25 115.66 -45.25 113.52 C-45.26 109.07 -45.25 104.61 -45.24 100.15 C-45.23 94.48 -45.24 88.81 -45.25 83.14 C-45.26 78.74 -45.25 74.33 -45.25 69.92 C-45.25 67.83 -45.25 65.75 -45.25 63.66 C-45.31 30.01 -45.31 30.01 -39.98 21.14 C-38.81 20.46 -38.81 20.46 -37.61 19.77 C-34.74 17.99 -34.38 17.17 -32.92 14.27 C-30.07 9.32 -26.12 8.12 -20.93 6.23 C-18.4 5.3 -16.27 4.28 -13.98 2.89 C-9.21 0.11 -5.51 0.01 0 0 Z M4.02 49.14 C1.21 54.77 0.64 56.53 0.63 62.44 C0.63 63.15 0.62 63.85 0.61 64.58 C0.6 66.89 0.61 69.21 0.62 71.52 C0.62 73.14 0.62 74.75 0.61 76.37 C0.61 79.75 0.61 83.13 0.63 86.51 C0.64 90.83 0.63 95.16 0.62 99.49 C0.61 102.82 0.61 106.16 0.62 109.49 C0.62 111.09 0.62 112.68 0.61 114.28 C0.6 116.51 0.61 118.74 0.63 120.97 C0.63 122.23 0.64 123.5 0.64 124.81 C1.06 128.52 1.7 130.23 4.02 133.14 C6.83 133.88 6.83 133.88 10.11 133.74 C11.39 133.75 12.66 133.76 13.97 133.76 C15.39 133.74 16.81 133.73 18.22 133.71 C19.71 133.71 21.2 133.71 22.68 133.71 C26.73 133.71 30.77 133.68 34.81 133.65 C39.04 133.62 43.26 133.61 47.49 133.61 C55.49 133.59 63.49 133.55 71.49 133.5 C80.59 133.44 89.7 133.42 98.81 133.39 C117.55 133.34 136.28 133.25 155.02 133.14 C157.52 128.43 158.4 125.31 158.41 119.95 C158.41 119.25 158.42 118.56 158.42 117.84 C158.44 115.57 158.43 113.29 158.42 111.02 C158.42 109.42 158.42 107.83 158.43 106.24 C158.43 102.91 158.42 99.58 158.41 96.26 C158.39 92 158.4 87.74 158.42 83.49 C158.43 80.2 158.43 76.92 158.42 73.63 C158.42 72.06 158.42 70.49 158.43 68.93 C158.44 66.73 158.42 64.53 158.41 62.34 C158.4 60.46 158.4 60.46 158.4 58.55 C158.15 54.54 158.15 54.54 155.02 49.14 C105.19 49.14 55.36 49.14 4.02 49.14 Z " fill="#000000" transform="translate(400.9814758300781,548.8595581054688)"/>
<path d="M0 0 C1.06 -0 1.06 -0 2.14 -0.01 C4.49 -0.02 6.85 -0.02 9.21 -0.02 C10.9 -0.03 12.59 -0.03 14.28 -0.04 C18.88 -0.05 23.47 -0.06 28.06 -0.06 C30.93 -0.06 33.8 -0.07 36.68 -0.07 C45.66 -0.08 54.65 -0.09 63.64 -0.1 C74 -0.1 84.37 -0.12 94.74 -0.15 C102.76 -0.17 110.77 -0.18 118.79 -0.18 C123.58 -0.18 128.37 -0.19 133.15 -0.21 C137.66 -0.22 142.16 -0.23 146.66 -0.22 C148.31 -0.22 149.96 -0.22 151.61 -0.23 C161.61 -0.29 169.63 -0.25 177.88 6.14 C179.85 6.91 181.83 7.63 183.82 8.33 C189.1 10.44 191.36 12.27 193.87 17.31 C194.86 19.41 194.86 19.41 197.51 21.02 C201.69 24.76 202.61 30.4 203.16 35.86 C203.27 38.8 203.29 41.73 203.27 44.67 C203.28 46.33 203.28 46.33 203.29 48.03 C203.3 51.66 203.29 55.29 203.28 58.92 C203.29 61.46 203.29 64 203.29 66.54 C203.3 71.85 203.29 77.17 203.28 82.48 C203.26 88.6 203.26 94.71 203.28 100.83 C203.3 106.75 203.3 112.66 203.29 118.58 C203.28 121.08 203.29 123.59 203.29 126.09 C203.3 129.6 203.29 133.1 203.27 136.61 C203.28 137.63 203.29 138.65 203.29 139.71 C203.23 146.17 202.5 152.16 199.88 158.14 C197.57 160.2 197.57 160.2 194.88 162.14 C193.94 163.62 193.02 165.12 192.13 166.64 C188.88 171.74 185.42 173.14 179.88 175.14 C178.5 175.81 177.12 176.49 175.76 177.2 C169.48 180.46 164.75 182.51 157.57 182.52 C156.87 182.53 156.17 182.53 155.45 182.54 C153.11 182.55 150.78 182.54 148.44 182.53 C146.76 182.53 145.08 182.54 143.4 182.54 C138.85 182.56 134.29 182.55 129.74 182.54 C124.97 182.54 120.19 182.54 115.42 182.55 C107.4 182.55 99.38 182.55 91.36 182.53 C82.11 182.52 72.85 182.52 63.6 182.54 C55.64 182.55 47.68 182.55 39.72 182.54 C34.97 182.54 30.22 182.54 25.48 182.55 C21.01 182.56 16.54 182.55 12.08 182.53 C10.44 182.53 8.81 182.53 7.17 182.54 C-4.15 182.58 -12.48 181.76 -22.12 175.14 C-23.65 174.5 -25.19 173.87 -26.74 173.27 C-31.1 171.42 -32.68 169.23 -35.12 165.14 C-35.96 164.67 -36.81 164.19 -37.68 163.7 C-41.47 161.27 -42.57 157.33 -43.62 153.1 C-44.03 151.01 -44.4 148.93 -44.74 146.83 C-45.45 141.84 -45.45 141.84 -47.12 137.14 C-47.22 134.31 -47.27 131.5 -47.28 128.67 C-47.28 127.8 -47.29 126.92 -47.29 126.02 C-47.31 123.1 -47.31 120.19 -47.32 117.28 C-47.32 115.25 -47.33 113.22 -47.34 111.19 C-47.35 106.93 -47.35 102.66 -47.36 98.4 C-47.36 92.96 -47.38 87.53 -47.41 82.09 C-47.43 77.89 -47.44 73.69 -47.44 69.5 C-47.44 67.5 -47.45 65.49 -47.46 63.49 C-47.53 52.57 -47.25 42.68 -44.12 32.14 C-43.64 30.29 -43.16 28.43 -42.68 26.58 C-41.06 21.34 -38.63 19.15 -34.12 16.14 C-33.72 15.36 -33.33 14.57 -32.93 13.77 C-30.7 10.54 -28.6 9.63 -25.1 8.04 C-22.65 6.93 -20.42 5.53 -18.12 4.14 C-11.89 0.77 -7.05 0.02 0 0 Z M3.88 49.14 C1.09 54.74 0.51 56.47 0.5 62.34 C0.49 63.03 0.49 63.72 0.48 64.44 C0.47 66.71 0.48 68.99 0.49 71.27 C0.48 72.86 0.48 74.45 0.48 76.04 C0.47 79.37 0.48 82.7 0.49 86.03 C0.51 90.28 0.5 94.54 0.48 98.8 C0.47 102.08 0.48 105.36 0.48 108.65 C0.49 110.22 0.48 111.79 0.48 113.36 C0.47 115.55 0.48 117.75 0.5 119.95 C0.5 121.19 0.5 122.44 0.5 123.73 C0.75 127.74 0.75 127.74 3.88 133.14 C53.71 133.14 103.54 133.14 154.88 133.14 C157.68 127.54 158.26 125.81 158.27 119.95 C158.28 119.25 158.28 118.56 158.29 117.84 C158.3 115.57 158.29 113.29 158.28 111.02 C158.29 109.42 158.29 107.83 158.29 106.24 C158.3 102.91 158.29 99.58 158.28 96.26 C158.26 92 158.27 87.74 158.29 83.49 C158.3 80.2 158.29 76.92 158.29 73.63 C158.28 72.06 158.29 70.49 158.29 68.93 C158.3 66.73 158.29 64.53 158.27 62.34 C158.27 60.46 158.27 60.46 158.27 58.55 C158.02 54.54 158.02 54.54 154.88 49.14 C105.05 49.14 55.22 49.14 3.88 49.14 Z " fill="#000000" transform="translate(720.1151885986328,548.8595581054688)"/>
<path d="M0 0 C0.69 -0.02 1.37 -0.04 2.08 -0.06 C7.17 -0.1 10.73 0.72 15.19 3.25 C16.96 5.66 16.96 5.66 18.12 8.31 C18.53 9.19 18.93 10.07 19.34 10.97 C20.19 13.25 20.19 13.25 20.19 15.25 C21.18 15.58 22.17 15.91 23.19 16.25 C25.72 23.88 25.53 31.75 25.5 39.7 C25.5 41.94 25.52 44.19 25.55 46.43 C25.55 47.87 25.55 49.32 25.55 50.76 C25.55 52.06 25.56 53.35 25.56 54.68 C25.16 58.53 24.1 60.92 22.19 64.25 C21.53 65.79 20.89 67.33 20.25 68.88 C16.83 76.57 9.95 81.24 2.19 84.25 C-5.35 84.39 -10.46 79.88 -16.12 75.44 C-18.25 72.68 -19.48 69.79 -20.79 66.57 C-21.75 64.19 -21.75 64.19 -23.35 62.08 C-25.17 58.55 -25.23 55.52 -25.18 51.64 C-25.18 50.91 -25.18 50.19 -25.18 49.44 C-25.17 47.91 -25.17 46.37 -25.15 44.84 C-25.13 42.52 -25.13 40.2 -25.13 37.88 C-25.1 18.66 -25.1 18.66 -21.3 14.66 C-20.81 14.19 -20.32 13.73 -19.81 13.25 C-18.75 11.09 -18.75 11.09 -17.88 8.75 C-16.38 5.26 -15.34 3.01 -11.81 1.25 C-7.96 -0.04 -4.02 0.03 0 0 Z " fill="#000000" transform="translate(714.8125,1036.75)"/>
<path d="M0 0 C0.69 -0.02 1.37 -0.04 2.08 -0.06 C7.17 -0.1 10.73 0.72 15.19 3.25 C16.96 5.66 16.96 5.66 18.12 8.31 C18.53 9.19 18.93 10.07 19.34 10.97 C20.19 13.25 20.19 13.25 20.19 15.25 C21.18 15.58 22.17 15.91 23.19 16.25 C25.72 23.88 25.53 31.75 25.5 39.7 C25.5 41.94 25.52 44.19 25.55 46.43 C25.55 47.87 25.55 49.32 25.55 50.76 C25.55 52.06 25.56 53.35 25.56 54.68 C25.16 58.53 24.1 60.92 22.19 64.25 C21.53 65.79 20.89 67.33 20.25 68.88 C16.83 76.57 9.95 81.24 2.19 84.25 C-5.35 84.39 -10.46 79.88 -16.12 75.44 C-18.25 72.68 -19.48 69.79 -20.79 66.57 C-21.75 64.19 -21.75 64.19 -23.35 62.08 C-25.17 58.55 -25.23 55.52 -25.18 51.64 C-25.18 50.91 -25.18 50.19 -25.18 49.44 C-25.17 47.91 -25.17 46.37 -25.15 44.84 C-25.13 42.52 -25.13 40.2 -25.13 37.88 C-25.1 18.66 -25.1 18.66 -21.3 14.66 C-20.81 14.19 -20.32 13.73 -19.81 13.25 C-18.75 11.09 -18.75 11.09 -17.88 8.75 C-16.38 5.26 -15.34 3.01 -11.81 1.25 C-7.96 -0.04 -4.02 0.03 0 0 Z " fill="#000000" transform="translate(564.8125,1036.75)"/>
</svg>
