<svg width="35" height="38" viewBox="0 0 35 38" fill="none" xmlns="http://www.w3.org/2000/svg">
<g id="ic:round-medication" clip-path="url(#clip0_1_74)">
<path id="Vector" d="M18.7069 0.5H3.11782C2.26042 0.5 1.55891 1.19859 1.55891 2.05242C1.55891 2.90625 2.26042 3.60484 3.11782 3.60484H18.7069C19.5643 3.60484 20.2658 2.90625 20.2658 2.05242C20.2658 1.19859 19.5643 0.5 18.7069 0.5ZM18.7069 5.15726H3.11782C1.40302 5.15726 0 6.55444 0 8.2621V25.3387C0 27.0464 1.40302 28.4435 3.11782 28.4435H18.7069C20.4217 28.4435 21.8247 27.0464 21.8247 25.3387V8.2621C21.8247 6.55444 20.4217 5.15726 18.7069 5.15726ZM14.8096 19.129H13.2507V20.6815C13.2507 21.97 12.2063 23.0101 10.9124 23.0101C9.61846 23.0101 8.57399 21.97 8.57399 20.6815V19.129H7.01509C5.72119 19.129 4.67672 18.0889 4.67672 16.8004C4.67672 15.5119 5.72119 14.4718 7.01509 14.4718H8.57399V12.9194C8.57399 11.6308 9.61846 10.5907 10.9124 10.5907C12.2063 10.5907 13.2507 11.6308 13.2507 12.9194V14.4718H14.8096C16.1035 14.4718 17.148 15.5119 17.148 16.8004C17.148 18.0889 16.1035 19.129 14.8096 19.129Z" fill="#F7F7F7"/>
<path id="Union" fill-rule="evenodd" clip-rule="evenodd" d="M11.1772 25.2198C8.35509 26.616 7.20595 30.0289 8.61062 32.8425C10.0152 35.656 13.4414 36.805 16.2634 35.4089L29.8637 28.6804C32.6858 27.2843 33.8349 23.8714 32.4303 21.0578C31.0257 18.2443 27.5995 17.0953 24.7775 18.4914L11.1772 25.2198ZM11.2236 31.5493C10.5374 30.1747 11.0987 28.5075 12.4774 27.8254L17.9091 25.1382L20.394 30.1165L14.9631 32.8033C13.5842 33.4855 11.9099 32.924 11.2236 31.5493ZM23.1322 28.7619L20.6472 23.7836L26.0777 21.097C27.4567 20.4148 29.131 20.9763 29.8173 22.351C30.5035 23.7256 29.9422 25.3928 28.5634 26.0749L23.1322 28.7619Z" fill="#F7F7F7"/>
</g>
<defs>
<clipPath id="clip0_1_74">
<rect width="35" height="37.2581" fill="white" transform="translate(0 0.5)"/>
</clipPath>
</defs>
</svg>
