<?xml version="1.0" encoding="UTF-8"?>
<!-- Generator: visioncortex VTracer 0.6.3 -->
<svg version="1.1" xmlns="http://www.w3.org/2000/svg" width="1280" height="1280">
<path d="M0 0 C3.17 0.96 3.17 0.96 6.72 1.37 C9.81 1.82 12.1 2.5 14.93 3.74 C18.22 5.13 21.43 6.29 24.87 7.24 C35.07 10.19 44.74 14.95 54.12 19.87 C55.14 20.39 56.16 20.91 57.2 21.45 C63.87 24.95 70.17 28.75 76.38 33.01 C78.83 34.67 81.32 36.22 83.87 37.74 C85.48 38.79 85.48 38.79 87.12 39.87 C87.12 40.53 87.12 41.19 87.12 41.87 C87.84 42.11 88.55 42.36 89.29 42.62 C92.44 44.01 94.76 45.71 97.43 47.87 C98.32 48.57 99.2 49.27 100.11 49.99 C101.11 50.92 101.11 50.92 102.12 51.87 C102.12 52.53 102.12 53.19 102.12 53.87 C103.11 54.2 104.1 54.53 105.12 54.87 C105.12 55.53 105.12 56.19 105.12 56.87 C105.71 57.14 106.31 57.4 106.92 57.68 C109.13 58.87 110.59 60.07 112.36 61.84 C112.93 62.41 113.5 62.98 114.09 63.57 C114.68 64.16 115.27 64.75 115.87 65.37 C116.47 65.96 117.08 66.56 117.7 67.17 C118.26 67.74 118.83 68.31 119.42 68.9 C119.94 69.42 120.46 69.94 120.99 70.48 C122.12 71.87 122.12 71.87 122.12 73.87 C123.11 74.2 124.1 74.53 125.12 74.87 C125.12 75.53 125.12 76.19 125.12 76.87 C125.78 76.87 126.44 76.87 127.12 76.87 C128.92 78.96 130.59 81.05 132.25 83.24 C132.71 83.85 133.18 84.45 133.66 85.07 C137.12 89.61 137.12 89.61 137.12 91.87 C137.78 91.87 138.44 91.87 139.12 91.87 C140.64 93.96 140.64 93.96 142.37 96.8 C144.57 100.37 146.79 103.87 149.18 107.3 C152.16 111.71 154.43 116.38 156.75 121.15 C158.12 124.01 158.12 124.01 160.25 126.99 C162.35 130.21 163.65 133.42 165 137.01 C165.94 139.4 166.95 141.7 168.02 144.03 C170.28 149.08 172.07 154.24 173.81 159.49 C174.12 160.39 174.42 161.3 174.74 162.23 C176.38 167.14 177.52 171.73 178.12 176.87 C178.78 178.54 179.45 180.2 180.12 181.87 C181.78 187.66 182.43 193.39 182.78 199.39 C183.04 202.69 183.04 202.69 183.59 205.18 C185.46 214.55 185.42 223.81 185.38 233.32 C185.37 236.16 185.38 239.01 185.39 241.85 C185.4 251.27 185.08 260.39 183.59 269.7 C183.1 272.99 182.89 276.23 182.75 279.55 C182.27 287.12 180.73 294.37 179.18 301.78 C178.14 306.71 177.23 311.65 176.37 316.62 C176.18 317.72 176.18 317.72 175.98 318.84 C175.69 320.51 175.41 322.19 175.12 323.87 C175.71 324.16 176.31 324.44 176.92 324.74 C179.83 326.23 182.47 327.94 185.12 329.87 C185.12 330.53 185.12 331.19 185.12 331.87 C185.78 331.87 186.44 331.87 187.12 331.87 C187.12 332.53 187.12 333.19 187.12 333.87 C188.11 334.2 189.1 334.53 190.12 334.87 C190.12 335.53 190.12 336.19 190.12 336.87 C190.78 336.87 191.44 336.87 192.12 336.87 C204.51 352.84 206.89 370.48 204.89 390.18 C203.17 403.54 198.51 416.07 192.12 427.87 C191.46 427.87 190.8 427.87 190.12 427.87 C189.97 428.72 189.97 428.72 189.82 429.6 C188.46 434.01 185.01 437.35 182.12 440.87 C181.27 441.93 181.27 441.93 180.39 443.01 C179.02 444.67 177.58 446.28 176.12 447.87 C175.46 447.87 174.8 447.87 174.12 447.87 C174.12 448.53 174.12 449.19 174.12 449.87 C159.07 463.67 140.19 471.87 120.2 475.09 C117.02 475.89 115.96 476.22 114.12 478.87 C113.26 480.69 112.48 482.55 111.75 484.43 C108.13 493.36 103.75 501.66 98.93 509.99 C98.49 510.76 98.05 511.54 97.6 512.33 C97.18 513.05 96.76 513.76 96.33 514.5 C95.95 515.15 95.57 515.8 95.19 516.47 C94.84 516.93 94.48 517.39 94.12 517.87 C93.46 517.87 92.8 517.87 92.12 517.87 C91.81 518.65 91.5 519.43 91.18 520.24 C90.12 522.87 90.12 522.87 89.12 524.87 C88.46 524.87 87.8 524.87 87.12 524.87 C86.81 525.49 86.5 526.1 86.18 526.74 C85.5 528.12 84.81 529.49 84.12 530.87 C83.46 530.87 82.8 530.87 82.12 530.87 C81.72 531.73 81.72 531.73 81.31 532.62 C80.09 534.92 78.82 536.89 77.12 538.87 C76.46 538.87 75.8 538.87 75.12 538.87 C74.74 539.78 74.74 539.78 74.34 540.71 C72.99 543.1 71.81 543.94 69.54 545.45 C67.32 547.3 66.27 548.34 65.49 551.15 C65.28 553.97 65.28 556.73 65.36 559.56 C65.36 560.63 65.37 561.69 65.37 562.79 C65.38 565.1 65.4 567.41 65.44 569.72 C65.5 573.4 65.52 577.07 65.52 580.74 C65.54 589.87 65.63 599 65.73 608.13 C65.81 615.84 65.86 623.54 65.86 631.24 C65.87 634.84 65.94 638.43 66 642.02 C66.1 655.84 64.41 666 57.12 677.87 C56.46 677.87 55.8 677.87 55.12 677.87 C55.04 678.4 54.97 678.94 54.89 679.5 C53.82 682.79 51.96 685.06 49.87 687.8 C49.1 688.82 48.33 689.84 47.54 690.89 C45.22 693.75 42.77 696.31 40.12 698.87 C39.36 699.65 38.59 700.43 37.81 701.24 C26.73 712.06 14.57 720.86 -0.16 725.9 C-2.63 726.78 -4.98 727.8 -7.38 728.87 C-22.39 734.97 -39.19 736.1 -55.19 736.12 C-56.26 736.12 -56.26 736.12 -57.35 736.12 C-75.16 736.11 -92.45 734.2 -108.88 726.87 C-110.59 726.3 -112.3 725.74 -114 725.18 C-127.27 720.39 -140.1 710.94 -149.88 700.87 C-150.66 700.1 -151.45 699.34 -152.25 698.55 C-153.12 697.67 -153.99 696.78 -154.88 695.87 C-155.38 695.36 -155.88 694.86 -156.4 694.34 C-160.52 689.94 -163.8 685.13 -167 680.05 C-167.41 679.42 -167.82 678.78 -168.24 678.12 C-174.07 668.69 -177.65 660.64 -177.43 649.43 C-177.43 647.81 -177.43 647.81 -177.42 646.15 C-177.42 643.81 -177.4 641.48 -177.38 639.15 C-177.34 635.45 -177.33 631.76 -177.34 628.06 C-177.34 617.56 -177.27 607.07 -177.2 596.57 C-177.16 590.13 -177.15 583.69 -177.16 577.25 C-177.15 573.61 -177.11 569.98 -177.06 566.34 C-177.06 564.11 -177.07 561.88 -177.07 559.66 C-177.05 558.65 -177.02 557.64 -177 556.6 C-176.99 551.36 -176.99 551.36 -179.49 546.94 C-181.38 545.3 -181.38 545.3 -183.38 544 C-183.87 543.62 -184.37 543.25 -184.88 542.87 C-184.88 542.21 -184.88 541.55 -184.88 540.87 C-185.54 540.87 -186.2 540.87 -186.88 540.87 C-188.32 539.3 -189.68 537.66 -191 535.99 C-192.22 534.47 -192.22 534.47 -193.45 532.92 C-194.25 531.91 -195.05 530.91 -195.88 529.87 C-196.55 529.07 -197.21 528.26 -197.9 527.44 C-207.63 515.66 -216.4 502.66 -221.9 488.37 C-224.14 481.67 -224.14 481.67 -227.88 475.87 C-229.53 475.57 -231.18 475.28 -232.84 475.02 C-255.87 471.3 -278.75 459.94 -293.88 441.87 C-293.88 441.21 -293.88 440.55 -293.88 439.87 C-294.54 439.87 -295.2 439.87 -295.88 439.87 C-296.37 437.89 -296.37 437.89 -296.88 435.87 C-297.54 435.87 -298.2 435.87 -298.88 435.87 C-298.88 434.88 -298.88 433.89 -298.88 432.87 C-299.54 432.87 -300.2 432.87 -300.88 432.87 C-305.43 424.78 -309.53 417.01 -312.19 408.06 C-312.68 405.91 -312.68 405.91 -313.88 404.87 C-318.13 387.93 -320.01 368.2 -312.88 351.87 C-312.59 351.14 -312.3 350.41 -312 349.66 C-308.53 341.79 -302.3 334.54 -295.88 328.87 C-295.22 328.87 -294.56 328.87 -293.88 328.87 C-293.88 328.21 -293.88 327.55 -293.88 326.87 C-291.32 324.57 -290.4 323.87 -286.88 323.87 C-286.88 323.21 -286.88 322.55 -286.88 321.87 C-285.26 321.09 -283.63 320.32 -282 319.55 C-280.65 318.91 -280.65 318.91 -279.26 318.25 C-269.93 314.43 -261.98 313.44 -251.88 313.62 C-250.04 313.62 -250.04 313.62 -248.16 313.63 C-239.19 313.71 -239.19 313.71 -236.88 314.87 C-236.91 314.12 -236.93 313.38 -236.96 312.61 C-237.06 309.19 -237.13 305.78 -237.19 302.37 C-237.23 301.19 -237.28 300.02 -237.32 298.81 C-237.42 291.49 -236.84 286.45 -231.88 280.87 C-227.2 276.19 -223.14 273.62 -216.47 273.61 C-215.38 273.6 -214.28 273.6 -213.15 273.59 C-211.95 273.59 -210.75 273.59 -209.51 273.6 C-207.57 273.59 -205.62 273.58 -203.68 273.57 C-201.59 273.56 -199.5 273.56 -197.41 273.56 C-193.04 273.56 -188.67 273.54 -184.3 273.52 C-173.44 273.47 -162.59 273.44 -151.73 273.42 C-143.3 273.4 -134.88 273.38 -126.45 273.34 C-122.12 273.32 -117.79 273.31 -113.46 273.31 C-110.11 273.31 -106.76 273.29 -103.41 273.27 C-102.23 273.27 -101.05 273.28 -99.83 273.28 C-84.53 273.15 -70.67 269.66 -59.01 259.57 C-56.88 257.87 -56.88 257.87 -53.88 256.87 C-52.83 255.02 -52.83 255.02 -51.88 252.87 C-50.38 250.62 -50.38 250.62 -48.88 248.87 C-48.22 248.87 -47.56 248.87 -46.88 248.87 C-46.57 248.08 -46.26 247.3 -45.94 246.49 C-44.88 243.87 -44.88 243.87 -43.88 241.87 C-43.22 241.87 -42.56 241.87 -41.88 241.87 C-41.79 241.2 -41.7 240.52 -41.61 239.83 C-39.35 230.61 -33.76 221.17 -25.88 215.87 C-20.89 212.86 -15.52 213.15 -9.88 213.87 C-6.81 215.11 -4.38 216.71 -1.88 218.87 C-1.22 219.44 -0.55 220.01 0.13 220.6 C2.61 223.43 3.97 226.51 5.43 229.93 C8.08 235.87 11.09 241.29 14.74 246.7 C16.12 248.87 16.12 248.87 17.12 251.87 C17.78 251.87 18.44 251.87 19.12 251.87 C20.75 253.24 20.75 253.24 22.12 254.87 C22.12 255.53 22.12 256.19 22.12 256.87 C22.78 256.87 23.44 256.87 24.12 256.87 C24.12 257.53 24.12 258.19 24.12 258.87 C24.74 259.18 25.36 259.49 26 259.8 C27.37 260.49 28.75 261.18 30.12 261.87 C30.12 262.53 30.12 263.19 30.12 263.87 C30.7 263.99 31.28 264.12 31.88 264.25 C34.14 264.87 35.98 265.72 38.06 266.8 C48.34 272.03 57.95 273.15 69.41 273.11 C71.76 273.12 74.1 273.14 76.45 273.15 C80.11 273.17 83.76 273.18 87.42 273.17 C90.98 273.17 94.54 273.2 98.1 273.23 C99.18 273.22 100.27 273.21 101.39 273.2 C109.69 273.31 114.12 275.62 120.43 280.74 C125.88 287.6 125.5 294.39 125.31 302.8 C125.3 303.97 125.28 305.13 125.27 306.32 C125.23 309.17 125.18 312.02 125.12 314.87 C125.78 314.54 126.44 314.21 127.12 313.87 C129.12 313.83 131.12 313.82 133.12 313.87 C134.94 306.3 136.09 298.7 137.18 290.99 C137.53 288.58 137.87 286.16 138.22 283.75 C138.44 282.16 138.44 282.16 138.67 280.54 C139.12 277.87 139.12 277.87 140.12 274.87 C140.33 271.95 140.49 269.04 140.62 266.12 C140.69 264.54 140.76 262.96 140.84 261.38 C140.87 260.68 140.9 259.99 140.93 259.27 C141.08 257.34 141.34 255.42 141.63 253.51 C142.11 249.96 142.25 246.59 142.25 243.02 C142.26 241.12 142.26 241.12 142.26 239.19 C142.25 237.89 142.25 236.58 142.25 235.24 C142.25 233.93 142.25 232.62 142.26 231.27 C142.26 230.01 142.26 228.75 142.25 227.45 C142.25 226.31 142.25 225.16 142.25 223.99 C142.13 221.15 141.73 218.63 141.12 215.87 C140.86 212.39 140.68 208.92 140.5 205.44 C140.1 201.71 139.19 198.45 138.12 194.87 C137.64 192.43 137.18 190 136.75 187.55 C135.72 182.14 134.3 177.18 132.09 172.13 C131.13 169.88 130.36 167.64 129.62 165.3 C125 151.22 117.6 137.76 109.59 125.34 C108.12 122.87 108.12 122.87 108.12 120.87 C107.46 120.87 106.8 120.87 106.12 120.87 C106.12 119.88 106.12 118.89 106.12 117.87 C105.46 117.87 104.8 117.87 104.12 117.87 C102.61 116.19 102.61 116.19 101 113.99 C100.46 113.27 99.92 112.55 99.36 111.81 C98.12 109.87 98.12 109.87 98.12 107.87 C97.46 107.87 96.8 107.87 96.12 107.87 C94.69 106.23 93.33 104.53 92 102.8 C88.5 98.4 84.94 94.71 80.55 91.21 C80.08 90.76 79.61 90.32 79.12 89.87 C79.12 89.21 79.12 88.55 79.12 87.87 C78.25 87.47 78.25 87.47 77.37 87.05 C75.07 85.84 73.1 84.56 71.12 82.87 C71.12 82.21 71.12 81.55 71.12 80.87 C70.32 80.5 70.32 80.5 69.5 80.12 C66.54 78.56 63.82 76.83 61.12 74.87 C61.12 74.21 61.12 73.55 61.12 72.87 C60.41 72.6 59.69 72.33 58.95 72.05 C56.08 70.85 53.49 69.45 50.81 67.87 C49.93 67.35 49.04 66.84 48.13 66.3 C47.14 65.59 47.14 65.59 46.12 64.87 C46.12 64.21 46.12 63.55 46.12 62.87 C45.55 62.75 44.99 62.62 44.4 62.5 C41.96 61.82 39.87 60.88 37.59 59.76 C36.73 59.34 35.86 58.91 34.96 58.48 C34.05 58.03 33.13 57.58 32.18 57.12 C24.28 53.3 16.42 49.75 8.12 46.87 C7.46 46.64 6.81 46.4 6.13 46.16 C-41.3 29.78 -93.83 34.28 -139.12 54.77 C-141.88 55.87 -141.88 55.87 -144.88 55.87 C-144.88 56.53 -144.88 57.19 -144.88 57.87 C-146.48 58.71 -148.08 59.54 -149.69 60.37 C-150.58 60.83 -151.48 61.3 -152.4 61.77 C-154.88 62.87 -154.88 62.87 -157.88 62.87 C-157.88 63.53 -157.88 64.19 -157.88 64.87 C-159.98 66.34 -162.06 67.68 -164.25 68.99 C-164.86 69.36 -165.46 69.74 -166.08 70.12 C-170.61 72.87 -170.61 72.87 -172.88 72.87 C-172.88 73.53 -172.88 74.19 -172.88 74.87 C-174.28 75.83 -175.69 76.79 -177.13 77.7 C-180.14 79.7 -182.83 82.07 -185.57 84.43 C-186.48 85.22 -186.48 85.22 -187.41 86.02 C-197.37 94.7 -207.86 104.15 -214.5 115.69 C-215.18 116.77 -215.18 116.77 -215.88 117.87 C-216.54 117.87 -217.2 117.87 -217.88 117.87 C-218.15 118.58 -218.42 119.3 -218.69 120.04 C-219.9 122.91 -221.29 125.5 -222.88 128.18 C-223.39 129.06 -223.91 129.95 -224.44 130.86 C-224.92 131.52 -225.39 132.18 -225.88 132.87 C-226.54 132.87 -227.2 132.87 -227.88 132.87 C-228 133.43 -228.12 133.99 -228.25 134.57 C-228.93 137.06 -229.87 139.27 -230.94 141.62 C-231.48 142.82 -231.48 142.82 -232.04 144.04 C-232.32 144.64 -232.59 145.25 -232.88 145.87 C-233.54 145.87 -234.2 145.87 -234.88 145.87 C-234.99 146.56 -235.1 147.25 -235.21 147.97 C-235.98 151.3 -237.22 154.13 -238.63 157.24 C-250.7 184.83 -254.3 212.67 -253.81 242.46 C-253.55 261.37 -253.55 261.37 -257.88 267.87 C-258.54 267.87 -259.2 267.87 -259.88 267.87 C-260.21 268.86 -260.54 269.85 -260.88 270.87 C-267.06 274.83 -271.42 276.36 -278.88 275.87 C-285.6 274.25 -289.61 271.15 -293.57 265.43 C-296.59 259.53 -297.19 254.44 -297.18 247.94 C-297.19 247.08 -297.19 246.22 -297.2 245.33 C-297.21 242.55 -297.2 239.77 -297.19 236.99 C-297.19 236.05 -297.19 235.1 -297.19 234.13 C-297.13 215.42 -296.18 197.24 -290.85 179.19 C-289.87 175.83 -289.11 172.47 -288.38 169.05 C-287.3 164.27 -285.84 159.91 -283.91 155.41 C-282.74 152.54 -281.81 149.63 -280.88 146.68 C-279.34 141.95 -277.45 138.1 -274.88 133.87 C-274.16 132.18 -273.44 130.49 -272.73 128.79 C-271.28 125.52 -269.58 122.39 -267.88 119.24 C-267.54 118.6 -267.19 117.96 -266.84 117.3 C-265.86 115.48 -264.88 113.67 -263.88 111.87 C-263.34 110.89 -262.81 109.91 -262.25 108.91 C-261.8 108.23 -261.35 107.56 -260.88 106.87 C-260.22 106.87 -259.56 106.87 -258.88 106.87 C-258.78 106.33 -258.69 105.78 -258.59 105.23 C-257.67 102.17 -256.15 99.81 -254.44 97.12 C-253.82 96.13 -253.21 95.15 -252.57 94.13 C-252.01 93.39 -251.45 92.64 -250.88 91.87 C-250.22 91.87 -249.56 91.87 -248.88 91.87 C-248.51 90.79 -248.51 90.79 -248.13 89.7 C-246.74 86.55 -245.03 84.23 -242.88 81.55 C-241.83 80.23 -241.83 80.23 -240.75 78.88 C-240.14 78.22 -239.52 77.55 -238.88 76.87 C-238.22 76.87 -237.56 76.87 -236.88 76.87 C-236.52 76.02 -236.52 76.02 -236.15 75.15 C-234.63 72.41 -232.81 70.54 -230.6 68.32 C-229.76 67.48 -228.91 66.63 -228.05 65.76 C-227.17 64.89 -226.29 64.02 -225.38 63.12 C-224.5 62.23 -223.62 61.34 -222.71 60.43 C-221.87 59.59 -221.03 58.75 -220.16 57.88 C-219.39 57.11 -218.61 56.34 -217.82 55.55 C-215.88 53.87 -215.88 53.87 -213.88 53.87 C-213.88 53.21 -213.88 52.55 -213.88 51.87 C-211.79 50.07 -209.7 48.4 -207.5 46.74 C-206.9 46.27 -206.3 45.81 -205.68 45.32 C-201.14 41.87 -201.14 41.87 -198.88 41.87 C-198.88 41.21 -198.88 40.55 -198.88 39.87 C-196.79 38.35 -196.79 38.35 -193.94 36.62 C-190.38 34.42 -186.88 32.2 -183.44 29.8 C-179.04 26.83 -174.37 24.56 -169.59 22.24 C-166.74 20.87 -166.74 20.87 -163.75 18.74 C-160.45 16.59 -157.12 15.27 -153.45 13.87 C-151.08 12.95 -148.8 11.93 -146.5 10.87 C-141.11 8.44 -135.51 6.68 -129.88 4.87 C-128.38 4.35 -126.88 3.83 -125.38 3.3 C-119.96 1.5 -114.43 0.17 -108.88 -1.13 C-108.21 -1.29 -107.54 -1.45 -106.85 -1.61 C-73.34 -9.32 -33.05 -10.04 0 0 Z M-19.52 279.37 C-20.05 280.05 -20.58 280.73 -21.13 281.43 C-24.24 285.23 -27.58 288.32 -31.38 291.42 C-31.87 291.9 -32.37 292.38 -32.88 292.87 C-32.88 293.53 -32.88 294.19 -32.88 294.87 C-33.65 295.21 -33.65 295.21 -34.44 295.55 C-37.08 296.9 -37.08 296.9 -40 299.18 C-47.21 304.38 -55.07 307.45 -63.51 310.07 C-65.81 310.65 -65.81 310.65 -66.88 311.87 C-80.69 315.66 -94.74 315.34 -108.94 315.38 C-111.43 315.4 -113.92 315.41 -116.41 315.43 C-122.9 315.48 -129.4 315.51 -135.9 315.54 C-142.55 315.57 -149.2 315.61 -155.85 315.66 C-168.86 315.74 -181.87 315.81 -194.88 315.87 C-194.93 329.79 -194.96 343.7 -194.98 357.62 C-194.99 364.09 -195.01 370.55 -195.03 377.01 C-195.05 383.27 -195.06 389.52 -195.07 395.77 C-195.07 398.14 -195.08 400.51 -195.09 402.88 C-195.16 419.35 -195.08 435.7 -190.57 451.68 C-190.35 452.48 -190.13 453.27 -189.9 454.09 C-186.82 464.98 -182.05 474.73 -176.65 484.62 C-175.34 487.02 -174.08 489.41 -172.88 491.87 C-172.22 491.87 -171.56 491.87 -170.88 491.87 C-170.61 492.43 -170.34 492.99 -170.07 493.57 C-168.8 496.02 -167.39 498.31 -165.88 500.62 C-165.36 501.42 -164.85 502.22 -164.32 503.04 C-163.84 503.64 -163.37 504.25 -162.88 504.87 C-162.22 504.87 -161.56 504.87 -160.88 504.87 C-160.63 505.42 -160.38 505.98 -160.13 506.55 C-157.2 511.98 -152.87 516.29 -147.88 519.87 C-147.22 519.87 -146.56 519.87 -145.88 519.87 C-145.88 520.53 -145.88 521.19 -145.88 521.87 C-143.24 524.27 -143.24 524.27 -139.88 524.87 C-139.88 525.53 -139.88 526.19 -139.88 526.87 C-136.66 529.18 -136.66 529.18 -132.88 529.87 C-132.88 530.53 -132.88 531.19 -132.88 531.87 C-132.14 532.23 -131.4 532.59 -130.64 532.97 C-125.53 535.5 -120.5 538.07 -115.57 540.93 C-108.98 544.55 -102.05 546.74 -94.88 548.87 C-93.88 549.17 -92.88 549.47 -91.85 549.77 C-61.7 558.05 -26.08 555.54 2.12 541.87 C3.26 541.32 4.41 540.76 5.59 540.2 C12.96 536.51 19.8 532.22 26.56 527.49 C27.31 526.97 28.06 526.44 28.84 525.9 C29.53 525.41 30.22 524.92 30.93 524.41 C31.85 523.74 31.85 523.74 32.8 523.07 C33.24 522.67 33.67 522.28 34.12 521.87 C34.12 521.21 34.12 520.55 34.12 519.87 C34.68 519.62 35.23 519.37 35.81 519.12 C41.23 516.19 45.55 511.86 49.12 506.87 C49.12 506.21 49.12 505.55 49.12 504.87 C49.78 504.87 50.44 504.87 51.12 504.87 C53.41 502.23 55.29 499.26 57.25 496.37 C57.83 495.5 58.42 494.64 59.02 493.75 C78.54 464.47 83.48 434.02 83.32 399.36 C83.31 396.94 83.31 394.52 83.31 392.1 C83.3 385.79 83.28 379.48 83.26 373.17 C83.24 366.71 83.23 360.25 83.22 353.78 C83.2 341.14 83.16 328.51 83.12 315.87 C82.23 315.84 81.35 315.82 80.43 315.8 C77.09 315.71 73.76 315.61 70.42 315.51 C68.98 315.47 67.55 315.43 66.11 315.39 C39.51 314.69 39.51 314.69 28.15 308.89 C25.9 307.75 23.61 306.92 21.25 306.05 C16.28 304.11 11.99 301.41 7.57 298.45 C5.46 297.09 3.39 295.93 1.12 294.87 C1.12 294.21 1.12 293.55 1.12 292.87 C-0.09 292.46 -0.09 292.46 -1.32 292.05 C-2.16 291.66 -3.01 291.27 -3.88 290.87 C-4.21 289.88 -4.54 288.89 -4.88 287.87 C-5.54 287.87 -6.2 287.87 -6.88 287.87 C-6.88 287.21 -6.88 286.55 -6.88 285.87 C-7.54 285.87 -8.2 285.87 -8.88 285.87 C-9.28 285 -9.28 285 -9.69 284.12 C-10.93 281.77 -12.07 279.82 -13.88 277.87 C-17.76 277.42 -17.76 277.42 -19.52 279.37 Z M-271.69 364.31 C-275.67 369.52 -275.27 375.64 -274.88 381.87 C-274.82 382.77 -274.77 383.68 -274.71 384.62 C-273.13 398.46 -265.5 411.8 -254.77 420.6 C-252.98 422.05 -252.98 422.05 -250.88 421.87 C-250.88 422.53 -250.88 423.19 -250.88 423.87 C-249.49 424.69 -248.09 425.5 -246.69 426.3 C-245.91 426.76 -245.14 427.21 -244.34 427.68 C-241.82 428.89 -239.61 429.37 -236.88 429.87 C-236.69 420.96 -236.55 412.05 -236.46 403.14 C-236.42 399 -236.37 394.86 -236.28 390.72 C-236.19 386.73 -236.14 382.74 -236.12 378.74 C-236.11 377.22 -236.08 375.7 -236.03 374.17 C-235.48 365.99 -235.48 365.99 -238.59 358.82 C-249.52 351.67 -263.31 355.15 -271.69 364.31 Z M125.12 360.87 C123.96 366.04 124.19 371.18 124.34 376.45 C124.35 377.99 124.37 379.53 124.37 381.07 C124.4 385.11 124.48 389.15 124.57 393.2 C124.65 397.33 124.69 401.45 124.73 405.58 C124.82 413.68 124.95 421.77 125.12 429.87 C126.56 429.4 127.99 428.93 129.43 428.46 C130.23 428.2 131.03 427.94 131.85 427.68 C134.54 426.72 136.83 425.57 139.12 423.87 C139.12 423.21 139.12 422.55 139.12 421.87 C139.68 421.62 140.23 421.37 140.81 421.12 C150.2 416.04 154.74 407.2 159.12 397.87 C159.47 397.23 159.83 396.58 160.19 395.92 C163.35 388.95 164.02 379.43 163.12 371.87 C161.76 368.47 160.15 365.9 158.12 362.87 C157.46 362.87 156.8 362.87 156.12 362.87 C156.12 362.21 156.12 361.55 156.12 360.87 C149.82 356.2 144.4 355.29 136.65 355.2 C131.88 356.1 128.32 357.03 125.12 360.87 Z M-134.88 577.87 C-135 587.23 -135.08 596.59 -135.14 605.95 C-135.16 610.3 -135.2 614.65 -135.26 619 C-135.31 623.2 -135.34 627.4 -135.35 631.6 C-135.36 633.2 -135.38 634.8 -135.41 636.4 C-135.55 645.2 -135.57 652.59 -129.88 659.87 C-129.22 659.87 -128.56 659.87 -127.88 659.87 C-127.67 660.55 -127.47 661.23 -127.25 661.93 C-124.14 668.59 -119 672.98 -112.88 676.87 C-112.22 676.87 -111.56 676.87 -110.88 676.87 C-110.88 677.53 -110.88 678.19 -110.88 678.87 C-107.97 680.91 -106.48 681.87 -102.88 681.87 C-102.88 682.53 -102.88 683.19 -102.88 683.87 C-100.34 684.83 -97.8 685.79 -95.25 686.74 C-94.54 687.01 -93.83 687.28 -93.09 687.56 C-68.04 696.98 -38.76 697.04 -14.19 685.93 C-9.62 683.76 -5.2 681.48 -0.88 678.87 C-0.88 678.21 -0.88 677.55 -0.88 676.87 C-0.2 676.66 0.48 676.45 1.18 676.24 C7.84 673.12 12.24 667.99 16.12 661.87 C16.12 661.21 16.12 660.55 16.12 659.87 C16.78 659.87 17.44 659.87 18.12 659.87 C24.33 651.93 23.77 643.56 23.61 634.02 C23.6 632.4 23.59 630.77 23.59 629.15 C23.57 624.9 23.52 620.66 23.46 616.41 C23.41 612.07 23.39 607.72 23.37 603.38 C23.31 594.87 23.23 586.37 23.12 577.87 C22.35 578.18 21.57 578.49 20.77 578.81 C19.08 579.48 17.39 580.16 15.69 580.83 C11.93 582.33 8.19 583.84 4.5 585.49 C1.45 586.73 -1.5 587.61 -4.7 588.34 C-6.17 588.7 -7.64 589.1 -9.09 589.55 C-40.37 599.09 -80.59 598.53 -111.07 586.54 C-113.09 585.76 -113.09 585.76 -116.13 584.99 C-120.64 583.64 -124.88 581.84 -129.21 579.99 C-131.91 578.82 -131.91 578.82 -134.88 577.87 Z " fill="#000000" transform="translate(535.87890625,45.1328125)"/>
<path d="M0 0 C1.91 0.82 1.91 0.82 4.59 2.32 C4.59 2.98 4.59 3.64 4.59 4.32 C5.58 4.65 6.57 4.98 7.59 5.32 C7.59 5.98 7.59 6.64 7.59 7.32 C8.25 7.32 8.91 7.32 9.59 7.32 C12.4 12.9 13.03 17.25 12.98 23.45 C12.99 24.78 12.99 24.78 13 26.14 C13.01 29.06 13 31.97 12.99 34.89 C12.99 36.92 13 38.96 13 40.99 C13.01 45.25 13 49.51 12.98 53.77 C12.97 59.23 12.98 64.68 13 70.13 C13.01 74.33 13 78.53 13 82.73 C12.99 84.74 13 86.75 13 88.76 C13.01 91.57 13 94.38 12.98 97.2 C12.99 98.02 12.99 98.84 13 99.69 C12.94 104.96 11.97 108.61 9.59 113.32 C8.93 113.32 8.27 113.32 7.59 113.32 C7.26 114.31 6.93 115.3 6.59 116.32 C5.93 116.32 5.27 116.32 4.59 116.32 C4.59 116.98 4.59 117.64 4.59 118.32 C-2.04 121.94 -9.4 122.79 -16.73 120.64 C-18.66 119.82 -18.66 119.82 -21.41 118.32 C-21.41 117.66 -21.41 117 -21.41 116.32 C-22.4 115.99 -23.39 115.66 -24.41 115.32 C-24.41 114.66 -24.41 114 -24.41 113.32 C-25.07 113.32 -25.73 113.32 -26.41 113.32 C-30.03 106.78 -29.76 100.74 -29.59 93.39 C-29.58 92.23 -29.57 91.07 -29.55 89.87 C-29.52 87.02 -29.47 84.17 -29.41 81.32 C-33.09 81.41 -36.78 81.52 -40.47 81.64 C-41.51 81.66 -42.55 81.68 -43.62 81.71 C-49.64 81.92 -54.04 82.55 -59.41 85.32 C-60.89 85.82 -60.89 85.82 -62.41 86.32 C-63.55 88.11 -63.55 88.11 -64.41 90.32 C-64.92 91.43 -64.92 91.43 -65.45 92.56 C-66.57 95.8 -66.66 98.41 -66.66 101.84 C-66.67 103.16 -66.67 104.48 -66.68 105.84 C-66.67 107.29 -66.67 108.75 -66.67 110.2 C-66.67 111.74 -66.67 113.28 -66.68 114.82 C-66.68 118.99 -66.68 123.17 -66.67 127.35 C-66.67 131.73 -66.67 136.12 -66.68 140.5 C-66.68 147.88 -66.68 155.26 -66.67 162.64 C-66.66 171.14 -66.66 179.63 -66.67 188.12 C-66.68 195.43 -66.68 202.74 -66.68 210.06 C-66.67 214.41 -66.67 218.77 -66.68 223.13 C-66.68 227.24 -66.68 231.35 -66.67 235.46 C-66.67 236.96 -66.67 238.45 -66.67 239.94 C-66.69 247.97 -66.38 255.87 -65.52 263.85 C-65.4 264.94 -65.4 264.94 -65.28 266.05 C-64.42 273.35 -62.52 280.28 -60.41 287.32 C-59.45 290.66 -58.49 294.01 -57.58 297.36 C-55.14 305.92 -51.53 313.46 -47.41 321.32 C-46.38 323.43 -45.36 325.53 -44.34 327.64 C-42.07 332.22 -39.48 336.42 -36.51 340.58 C-35.41 342.32 -35.41 342.32 -35.41 344.32 C-34.75 344.32 -34.09 344.32 -33.41 344.32 C-31.96 346.06 -30.6 347.86 -29.28 349.7 C-28.56 350.7 -27.83 351.69 -27.09 352.72 C-25.41 355.32 -25.41 355.32 -25.41 357.32 C-24.42 357.65 -23.43 357.98 -22.41 358.32 C-22.41 358.98 -22.41 359.64 -22.41 360.32 C-21.75 360.32 -21.09 360.32 -20.41 360.32 C-18.86 361.93 -18.86 361.93 -17.09 364.07 C-14.42 367.24 -11.67 369.76 -8.41 372.32 C-8.41 372.98 -8.41 373.64 -8.41 374.32 C-7.42 374.65 -6.43 374.98 -5.41 375.32 C-5.41 375.98 -5.41 376.64 -5.41 377.32 C-4.42 377.63 -4.42 377.63 -3.41 377.95 C0.67 379.82 4.28 382.3 7.59 385.32 C7.59 385.98 7.59 386.64 7.59 387.32 C8.19 387.45 8.8 387.57 9.41 387.69 C12.16 388.49 14 390.1 16.27 391.79 C20.38 394.5 24.86 396.53 29.29 398.68 C32.16 400.11 34.86 401.66 37.59 403.32 C43.03 405.93 48.64 407.63 54.4 409.35 C56.98 410.14 59.5 410.98 62.03 411.89 C95.66 423.09 138.74 421.91 171.47 408.2 C173.59 407.32 173.59 407.32 176.53 406.39 C181.37 404.71 185.96 402.51 190.59 400.32 C191.43 399.93 192.27 399.54 193.14 399.13 C198.77 396.42 203.96 393.26 209.15 389.78 C211.37 388.46 213.07 387.77 215.59 387.32 C215.59 386.66 215.59 386 215.59 385.32 C217.48 383.74 219.36 382.27 221.34 380.82 C221.88 380.42 222.42 380.02 222.98 379.6 C225.74 377.56 228.45 375.73 231.59 374.32 C231.59 373.66 231.59 373 231.59 372.32 C232.25 372.32 232.91 372.32 233.59 372.32 C233.59 371.66 233.59 371 233.59 370.32 C235.09 368.89 235.09 368.89 237.03 367.32 C239.75 365.18 239.75 365.18 241.59 362.32 C242.25 362.32 242.91 362.32 243.59 362.32 C243.59 361.66 243.59 361 243.59 360.32 C244.25 360.32 244.91 360.32 245.59 360.32 C245.83 359.79 246.07 359.26 246.31 358.71 C247.97 355.63 250 352.87 252.09 350.07 C252.5 349.52 252.9 348.97 253.32 348.39 C254.36 347 255.47 345.66 256.59 344.32 C257.25 344.32 257.91 344.32 258.59 344.32 C258.71 343.72 258.84 343.12 258.96 342.5 C259.76 339.75 261.37 337.92 263.06 335.65 C265.77 331.54 267.8 327.06 269.95 322.63 C271.38 319.76 272.92 317.06 274.59 314.32 C277.2 308.89 278.89 303.28 280.62 297.52 C281.41 294.93 282.26 292.38 283.16 289.82 C288.77 272.96 289.9 255.42 289.87 237.78 C289.87 236.22 289.88 234.66 289.88 233.1 C289.9 228.93 289.9 224.76 289.9 220.59 C289.89 217.09 289.9 213.6 289.9 210.1 C289.91 201.85 289.92 193.61 289.91 185.36 C289.9 176.87 289.92 168.38 289.94 159.89 C289.95 152.57 289.96 145.25 289.96 137.93 C289.96 133.57 289.96 129.21 289.97 124.85 C289.98 120.77 289.98 116.68 289.97 112.59 C289.97 111.09 289.97 109.6 289.98 108.1 C289.99 106.05 289.98 104.01 289.97 101.96 C289.97 100.82 289.97 99.67 289.97 98.5 C289.54 94.88 288.35 92.49 286.59 89.32 C286.26 88.33 285.93 87.34 285.59 86.32 C283.86 85.16 283.86 85.16 281.59 84.32 C280.8 83.99 280.01 83.65 279.19 83.3 C274.06 81.91 269.02 81.86 263.72 81.7 C262.11 81.64 262.11 81.64 260.48 81.58 C257.85 81.49 255.22 81.4 252.59 81.32 C252.62 82.04 252.65 82.76 252.67 83.49 C252.78 86.77 252.84 90.05 252.91 93.32 C252.95 94.45 252.99 95.57 253.03 96.73 C253.14 104.05 252.3 108.65 247.59 114.32 C247 115.09 246.4 115.85 245.78 116.64 C241.09 120.25 235.62 121.95 229.67 121.67 C222.89 120.54 218.08 117.48 213.79 112.2 C210.5 107.02 210.3 102.48 210.32 96.51 C210.31 95.64 210.31 94.76 210.3 93.86 C210.29 90.96 210.29 88.07 210.29 85.18 C210.29 83.16 210.28 81.14 210.28 79.13 C210.27 74.9 210.27 70.68 210.28 66.45 C210.28 61.05 210.27 55.64 210.24 50.23 C210.23 46.07 210.23 41.91 210.23 37.74 C210.23 35.75 210.23 33.76 210.22 31.76 C210.2 28.97 210.21 26.18 210.22 23.39 C210.21 22.58 210.21 21.76 210.2 20.91 C210.25 15.66 211.23 12.03 213.59 7.32 C214.25 7.32 214.91 7.32 215.59 7.32 C215.92 6.33 216.25 5.34 216.59 4.32 C217.25 4.32 217.91 4.32 218.59 4.32 C218.59 3.66 218.59 3 218.59 2.32 C225.2 -1.47 231.13 -1.46 238.59 -0.68 C242.38 0.53 244.85 2.16 247.03 5.57 C247.22 6.15 247.4 6.73 247.59 7.32 C248.25 7.32 248.91 7.32 249.59 7.32 C253.22 13.87 252.94 19.91 252.78 27.26 C252.77 28.42 252.75 29.58 252.74 30.78 C252.71 33.63 252.66 36.48 252.59 39.32 C253.39 39.3 254.18 39.27 255 39.24 C292.76 38.17 292.76 38.17 307.59 50.32 C307.59 50.98 307.59 51.64 307.59 52.32 C308.27 52.49 308.95 52.65 309.66 52.82 C313.94 55.01 316.79 58.44 319.59 62.32 C319.59 62.98 319.59 63.64 319.59 64.32 C320.25 64.32 320.91 64.32 321.59 64.32 C331.6 76.53 333.35 92.29 333.21 107.4 C333.21 109.04 333.22 110.68 333.23 112.32 C333.24 116.73 333.22 121.14 333.2 125.55 C333.18 130.2 333.19 134.86 333.19 139.51 C333.19 147.32 333.17 155.14 333.14 162.95 C333.1 171.93 333.09 180.91 333.1 189.89 C333.1 198.59 333.09 207.29 333.07 215.99 C333.06 219.66 333.06 223.33 333.06 227 C333.07 273.68 333.07 273.68 326.59 295.32 C326.26 295.65 325.93 295.98 325.59 296.32 C325.49 297.29 325.39 298.26 325.28 299.26 C324.75 303.35 323.28 306.83 321.68 310.61 C320.58 313.36 319.71 316.12 318.84 318.95 C315.27 329.88 309.4 340.01 303.85 350.04 C302.35 352.77 300.95 355.53 299.59 358.32 C298.93 358.32 298.27 358.32 297.59 358.32 C297.36 359.01 297.12 359.69 296.88 360.4 C295.33 363.93 293.29 366.99 291.09 370.14 C290.69 370.73 290.29 371.33 289.87 371.95 C288.83 373.45 287.72 374.89 286.59 376.32 C285.93 376.32 285.27 376.32 284.59 376.32 C284.39 377 284.18 377.69 283.97 378.39 C282.16 382.24 279.69 385.4 276.59 388.32 C275.93 388.32 275.27 388.32 274.59 388.32 C274.38 388.87 274.16 389.41 273.94 389.96 C272.13 393.14 269.68 395.53 267.09 398.07 C266.59 398.58 266.1 399.09 265.58 399.61 C261.85 403.32 261.85 403.32 259.59 403.32 C259.59 403.98 259.59 404.64 259.59 405.32 C257.48 407.27 257.48 407.27 254.72 409.45 C253.81 410.17 252.91 410.9 251.98 411.64 C249.59 413.32 249.59 413.32 247.59 413.32 C247.59 413.98 247.59 414.64 247.59 415.32 C245.19 417.14 242.79 418.84 240.28 420.51 C239.19 421.25 239.19 421.25 238.07 422.01 C216.33 436.64 216.33 436.64 204 441.36 C201.77 442.25 199.71 443.26 197.59 444.39 C193.9 446.29 190.17 447.42 186.18 448.54 C183.5 449.35 180.98 450.36 178.41 451.45 C174.46 453.08 170.85 453.82 166.59 454.32 C164.92 454.98 163.26 455.65 161.59 456.32 C155.97 457.9 150.37 458.64 144.56 459.08 C142 459.29 139.46 459.55 136.91 459.84 C136.1 459.93 135.29 460.02 134.46 460.11 C133.54 460.22 133.54 460.22 132.59 460.32 C132.59 460.94 132.6 461.55 132.6 462.19 C132.66 498.64 132.72 535.09 132.75 571.54 C132.75 575.92 132.75 580.3 132.76 584.68 C132.76 585.56 132.76 586.43 132.76 587.33 C132.77 601.43 132.8 615.53 132.83 629.64 C132.85 644.12 132.87 658.6 132.88 673.09 C132.88 682.02 132.89 690.94 132.92 699.87 C132.93 706 132.94 712.14 132.93 718.27 C132.93 721.8 132.94 725.33 132.95 728.87 C133.06 755.91 129.73 781.59 111.59 803.32 C110.93 803.32 110.27 803.32 109.59 803.32 C109.19 804.19 109.19 804.19 108.78 805.07 C107.56 807.38 106.29 809.34 104.59 811.32 C103.93 811.32 103.27 811.32 102.59 811.32 C102.59 811.98 102.59 812.64 102.59 813.32 C100.61 815.01 98.62 816.58 96.53 818.14 C95.97 818.56 95.41 818.99 94.83 819.43 C93.09 820.74 91.34 822.03 89.59 823.32 C89.03 823.75 88.48 824.18 87.9 824.62 C83.53 827.88 78.98 830.25 74.03 832.51 C73.3 832.85 72.57 833.2 71.82 833.55 C53.91 841.85 35.99 841.75 16.62 841.66 C13.92 841.66 11.22 841.66 8.52 841.67 C2.73 841.67 -3.05 841.66 -8.84 841.64 C-17.21 841.62 -25.58 841.61 -33.94 841.61 C-47.52 841.6 -61.1 841.58 -74.68 841.55 C-87.86 841.52 -101.04 841.5 -114.22 841.49 C-115.44 841.49 -115.44 841.49 -116.69 841.49 C-120.77 841.48 -124.86 841.48 -128.94 841.48 C-162.76 841.44 -196.59 841.39 -230.41 841.32 C-230.63 842.24 -230.63 842.24 -230.86 843.17 C-232.88 851.11 -236.19 858.33 -240.41 865.32 C-241.07 865.32 -241.73 865.32 -242.41 865.32 C-242.78 866.13 -242.78 866.13 -243.16 866.95 C-244.71 869.91 -246.44 872.62 -248.41 875.32 C-249.07 875.32 -249.73 875.32 -250.41 875.32 C-250.62 875.88 -250.83 876.45 -251.04 877.02 C-252.88 880.12 -255.39 882.01 -258.22 884.14 C-258.79 884.57 -259.36 885.01 -259.95 885.46 C-278.3 899.07 -299.39 904.21 -322.01 900.95 C-344.38 896.76 -362.98 884.07 -376.3 865.71 C-380.01 860.19 -382.62 854.76 -384.68 848.44 C-385.22 846.37 -385.22 846.37 -386.41 845.32 C-391.63 828.8 -392.2 806.69 -384.41 790.89 C-384.1 790.35 -383.79 789.82 -383.47 789.27 C-382.26 787.14 -382.26 787.14 -381.04 784 C-373.94 767.22 -358.57 753.11 -342.04 745.84 C-340.17 745.17 -338.28 744.53 -336.38 743.95 C-334.43 743.5 -334.43 743.5 -333.41 742.32 C-316.88 737.1 -294.77 736.53 -278.97 744.32 C-278.36 744.67 -277.75 745.01 -277.12 745.37 C-275.18 746.5 -275.18 746.5 -272.03 747.64 C-251.74 757.08 -239.86 774.37 -231.18 794.12 C-230.41 796.32 -230.41 796.32 -230.41 799.32 C-164.74 799.32 -99.07 799.32 -31.41 799.32 C-32.45 785.75 -34.65 773.34 -38.41 760.32 C-38.87 758.61 -38.87 758.61 -39.34 756.85 C-40.99 750.82 -42.74 745.07 -45.43 739.43 C-46.42 737.3 -47.22 735.15 -48.03 732.95 C-54.39 716.97 -63.63 702.14 -74.03 688.51 C-76.41 685.32 -76.41 685.32 -76.41 683.32 C-77.07 683.32 -77.73 683.32 -78.41 683.32 C-80.1 681.46 -80.1 681.46 -81.97 679.01 C-82.9 677.81 -82.9 677.81 -83.85 676.59 C-85.41 674.32 -85.41 674.32 -86.41 671.32 C-87.4 670.99 -88.39 670.66 -89.41 670.32 C-89.41 669.66 -89.41 669 -89.41 668.32 C-90.07 668.32 -90.73 668.32 -91.41 668.32 C-91.41 667.66 -91.41 667 -91.41 666.32 C-92.4 665.99 -93.39 665.66 -94.41 665.32 C-94.41 664.66 -94.41 664 -94.41 663.32 C-95.07 663.32 -95.73 663.32 -96.41 663.32 C-96.41 662.66 -96.41 662 -96.41 661.32 C-97.4 660.99 -98.39 660.66 -99.41 660.32 C-99.41 659.66 -99.41 659 -99.41 658.32 C-99.98 658.06 -100.55 657.79 -101.14 657.51 C-103.49 656.28 -105.53 654.9 -107.66 653.32 C-108.72 652.55 -108.72 652.55 -109.8 651.76 C-110.33 651.29 -110.86 650.81 -111.41 650.32 C-111.41 649.66 -111.41 649 -111.41 648.32 C-111.99 648.04 -112.58 647.76 -113.19 647.47 C-115.24 646.41 -117.06 645.26 -118.95 643.93 C-119.6 643.47 -120.26 643.01 -120.94 642.54 C-121.63 642.06 -122.32 641.57 -123.03 641.07 C-129.03 636.91 -135.06 632.94 -141.41 629.32 C-142.15 628.89 -142.89 628.45 -143.66 628 C-148.23 625.36 -152.84 623.24 -157.77 621.35 C-160.51 620.28 -163.2 619.12 -165.91 617.95 C-189.35 608.24 -213.73 603.05 -239.07 602.09 C-240.02 602.06 -240.96 602.02 -241.93 601.98 C-243.73 601.92 -245.54 601.87 -247.34 601.84 C-252.74 601.68 -256.57 600.77 -261.41 598.32 C-261.41 597.66 -261.41 597 -261.41 596.32 C-262.4 595.99 -263.39 595.66 -264.41 595.32 C-264.41 594.66 -264.41 594 -264.41 593.32 C-265.07 593.32 -265.73 593.32 -266.41 593.32 C-270.18 586.72 -270.33 580.78 -269.41 573.32 C-268.18 570.21 -266.63 567.81 -264.41 565.32 C-263.8 564.57 -263.8 564.57 -263.18 563.8 C-256.64 558.34 -249.4 558.9 -241.28 559.01 C-240.13 559.01 -238.99 559.01 -237.8 559 C-230.84 559.05 -224.19 559.65 -217.34 560.86 C-214.39 561.33 -211.51 561.55 -208.53 561.7 C-202.53 562.14 -197.01 563.64 -191.24 565.28 C-186.31 566.62 -181.35 567.63 -176.33 568.61 C-173.71 569.25 -171.76 570.06 -169.41 571.32 C-168.31 571.63 -167.22 571.94 -166.09 572.26 C-162.36 573.34 -158.98 574.79 -155.41 576.32 C-154.05 576.75 -152.7 577.17 -151.34 577.57 C-145.89 579.33 -140.91 581.98 -135.84 584.61 C-133.56 585.75 -131.24 586.82 -128.89 587.81 C-118.43 592.35 -108.75 598.84 -99.41 605.32 C-98.79 605.75 -98.16 606.18 -97.53 606.62 C-95.56 607.97 -93.61 609.33 -91.66 610.7 C-90.72 611.34 -90.72 611.34 -89.77 612 C-88.28 613.06 -86.84 614.18 -85.41 615.32 C-85.41 615.98 -85.41 616.64 -85.41 617.32 C-84.83 617.59 -84.25 617.86 -83.66 618.14 C-81.35 619.35 -79.39 620.63 -77.41 622.32 C-77.41 622.98 -77.41 623.64 -77.41 624.32 C-76.85 624.57 -76.29 624.82 -75.72 625.07 C-72.98 626.55 -70.73 628.26 -68.41 630.32 C-68.41 630.98 -68.41 631.64 -68.41 632.32 C-67.83 632.57 -67.25 632.82 -66.66 633.07 C-64.08 634.51 -62.35 636.11 -60.41 638.32 C-60.41 638.98 -60.41 639.64 -60.41 640.32 C-59.75 640.32 -59.09 640.32 -58.41 640.32 C-56.9 641.79 -56.9 641.79 -55.28 643.7 C-54.47 644.64 -54.47 644.64 -53.65 645.6 C-52.41 647.32 -52.41 647.32 -52.41 649.32 C-51.75 649.32 -51.09 649.32 -50.41 649.32 C-48.59 651.41 -46.9 653.5 -45.22 655.7 C-44.73 656.33 -44.24 656.97 -43.74 657.62 C-32.41 672.36 -32.41 672.36 -32.41 675.32 C-31.75 675.32 -31.09 675.32 -30.41 675.32 C-29.84 676.33 -29.26 677.34 -28.68 678.38 C-26.91 681.48 -25.07 684.52 -23.21 687.56 C-16.91 697.87 -11.24 708.32 -7.31 719.79 C-5.9 723.74 -4.14 727.51 -2.41 731.32 C-0.72 735.25 0.45 739.21 1.59 743.32 C2.09 744.95 2.59 746.57 3.09 748.2 C4.25 752.04 5.24 755.88 6.06 759.8 C6.46 761.69 6.88 763.56 7.31 765.44 C9.84 776.59 11.79 787.85 11.59 799.32 C15.87 799.21 20.14 799.08 24.41 798.95 C25.6 798.92 26.8 798.89 28.03 798.86 C38.96 798.5 48.42 797.56 58.09 792.26 C65.44 788.38 65.44 788.38 68.59 787.32 C68.59 786.66 68.59 786 68.59 785.32 C70.09 783.89 70.09 783.89 72.03 782.32 C74.75 780.18 74.75 780.18 76.59 777.32 C77.25 777.32 77.91 777.32 78.59 777.32 C78.87 776.6 79.15 775.88 79.44 775.14 C80.55 772.44 81.77 769.86 83.09 767.26 C83.52 766.43 83.94 765.59 84.38 764.73 C85.1 763.29 85.84 761.87 86.6 760.45 C90.11 752.93 89.89 744.31 89.87 736.19 C89.88 734.41 89.88 734.41 89.89 732.6 C89.9 729.34 89.91 726.08 89.91 722.82 C89.91 719.29 89.93 715.76 89.94 712.23 C89.97 706.13 89.98 700.03 89.99 693.93 C90.01 685.11 90.03 676.29 90.06 667.47 C90.1 653.15 90.14 638.84 90.17 624.52 C90.2 610.62 90.24 596.72 90.28 582.82 C90.28 581.96 90.28 581.11 90.28 580.22 C90.3 575.92 90.31 571.62 90.32 567.31 C90.42 531.65 90.51 495.99 90.59 460.32 C89.15 460.16 87.71 460 86.27 459.84 C85.46 459.74 84.66 459.65 83.83 459.56 C81.38 459.3 78.93 459.15 76.47 459.01 C70.56 458.49 65 456.98 59.3 455.36 C55.98 454.43 52.65 453.61 49.28 452.82 C44.7 451.69 40.44 450.2 36.1 448.36 C33.4 447.24 30.67 446.28 27.91 445.32 C23.44 443.72 19.66 441.75 15.59 439.32 C13.96 438.65 12.33 437.98 10.69 437.31 C6.73 435.44 3.02 433.1 -0.73 430.85 C-3.38 429.23 -3.38 429.23 -6.41 428.32 C-6.41 427.66 -6.41 427 -6.41 426.32 C-7.09 426.09 -7.78 425.85 -8.48 425.61 C-12.01 424.06 -15.07 422.02 -18.22 419.82 C-18.82 419.42 -19.41 419.02 -20.03 418.6 C-21.53 417.56 -22.97 416.45 -24.41 415.32 C-24.41 414.66 -24.41 414 -24.41 413.32 C-25.43 413.01 -25.43 413.01 -26.47 412.7 C-30.32 410.9 -33.48 408.42 -36.41 405.32 C-36.41 404.66 -36.41 404 -36.41 403.32 C-36.95 403.11 -37.49 402.89 -38.05 402.67 C-41.22 400.86 -43.61 398.41 -46.16 395.82 C-46.66 395.33 -47.17 394.83 -47.69 394.31 C-51.41 390.58 -51.41 390.58 -51.41 388.32 C-52.4 387.99 -53.39 387.66 -54.41 387.32 C-54.41 386.66 -54.41 386 -54.41 385.32 C-55.07 385.32 -55.73 385.32 -56.41 385.32 C-58.99 382.54 -61.15 379.37 -63.41 376.32 C-64.37 375.05 -65.34 373.77 -66.31 372.49 C-67.32 371.15 -68.33 369.8 -69.34 368.45 C-69.84 367.79 -70.34 367.14 -70.85 366.47 C-74.41 361.67 -74.41 361.67 -74.41 358.32 C-75.07 358.32 -75.73 358.32 -76.41 358.32 C-76.99 357.13 -76.99 357.13 -77.58 355.91 C-80.26 350.46 -83.01 345.36 -86.41 340.32 C-90.61 333.05 -93.28 325.31 -95.98 317.39 C-97.11 314.11 -98.37 310.9 -99.72 307.7 C-101.28 303.92 -101.93 300.4 -102.41 296.32 C-103.07 294.65 -103.73 292.99 -104.41 291.32 C-110.03 269.24 -109.88 246.91 -109.88 224.29 C-109.87 220.58 -109.88 216.88 -109.89 213.17 C-109.91 204.42 -109.91 195.66 -109.91 186.91 C-109.9 177.93 -109.92 168.95 -109.96 159.97 C-109.99 152.2 -110 144.44 -110 136.67 C-110 132.06 -110 127.44 -110.03 122.83 C-110.05 118.49 -110.05 114.16 -110.03 109.82 C-110.02 108.24 -110.03 106.67 -110.04 105.09 C-110.16 90.85 -107.76 75.73 -98.41 64.32 C-97.75 64.32 -97.09 64.32 -96.41 64.32 C-96.24 63.64 -96.08 62.96 -95.91 62.26 C-93.72 57.97 -90.29 55.13 -86.41 52.32 C-85.75 52.32 -85.09 52.32 -84.41 52.32 C-84.41 51.66 -84.41 51 -84.41 50.32 C-68.51 37.3 -48.64 38.69 -29.41 39.32 C-29.43 38.61 -29.45 37.89 -29.47 37.16 C-29.55 33.88 -29.61 30.6 -29.66 27.32 C-29.69 26.2 -29.72 25.07 -29.76 23.91 C-29.85 16.45 -29.29 10.39 -23.96 4.81 C-17 -1.28 -8.96 -2.52 0 0 Z M-324.41 784.32 C-325.14 784.65 -325.87 784.97 -326.62 785.31 C-330.08 786.93 -332.9 788.37 -335.41 791.32 C-335.41 791.98 -335.41 792.64 -335.41 793.32 C-336.07 793.32 -336.73 793.32 -337.41 793.32 C-345.3 803.33 -348.68 813.64 -347.41 826.32 C-345.84 833.54 -342.45 841.83 -337.41 847.32 C-336.75 847.32 -336.09 847.32 -335.41 847.32 C-335.41 847.98 -335.41 848.64 -335.41 849.32 C-325.23 857.26 -315.3 860.43 -302.41 859.32 C-295.19 857.77 -286.9 854.36 -281.41 849.32 C-281.41 848.66 -281.41 848 -281.41 847.32 C-280.75 847.32 -280.09 847.32 -279.41 847.32 C-271.05 836.55 -268.29 826.87 -269.41 813.32 C-270.69 805.89 -274.83 799.22 -279.41 793.32 C-280.07 793.32 -280.73 793.32 -281.41 793.32 C-281.9 791.84 -281.9 791.84 -282.41 790.32 C-283.07 790.32 -283.73 790.32 -284.41 790.32 C-284.41 789.66 -284.41 789 -284.41 788.32 C-296.78 780.82 -310.74 778.12 -324.41 784.32 Z " fill="#000000" transform="translate(908.40625,119.67578125)"/>
<path d="M0 0 C1.16 -0.02 2.32 -0.05 3.52 -0.07 C11.73 -0.1 17.01 0.98 23.5 6.25 C27.34 11.09 28.6 15.23 28.56 21.38 C28.57 22.55 28.58 23.73 28.59 24.94 C28.15 28.67 27.05 31.14 25.19 34.38 C24.53 34.38 23.87 34.38 23.19 34.38 C22.86 35.37 22.53 36.36 22.19 37.38 C21.53 37.38 20.87 37.38 20.19 37.38 C20.19 38.03 20.19 38.7 20.19 39.38 C14.48 42.26 9.84 42.83 3.5 42.94 C1.63 43 -0.24 43.07 -2.11 43.14 C-3.06 43.17 -4.01 43.21 -4.98 43.24 C-25.55 43.19 -25.55 43.19 -43.81 49.38 C-44.99 49.62 -46.16 49.87 -47.38 50.12 C-58.92 52.61 -70.04 56.59 -80.81 61.38 C-81.7 61.75 -82.59 62.13 -83.5 62.52 C-91.95 66.2 -99.77 70.83 -107.71 75.48 C-113.49 78.84 -113.49 78.84 -116.81 79.38 C-116.81 80.03 -116.81 80.69 -116.81 81.38 C-118.61 82.79 -118.61 82.79 -121.12 84.44 C-126.21 87.88 -130.89 91.67 -135.56 95.65 C-137.81 97.38 -137.81 97.38 -139.81 97.38 C-139.81 98.03 -139.81 98.69 -139.81 99.38 C-140.47 99.38 -141.13 99.38 -141.81 99.38 C-142.31 100.86 -142.31 100.86 -142.81 102.38 C-143.47 102.38 -144.13 102.38 -144.81 102.38 C-144.81 103.03 -144.81 103.69 -144.81 104.38 C-145.47 104.38 -146.13 104.38 -146.81 104.38 C-147.31 105.86 -147.31 105.86 -147.81 107.38 C-148.47 107.38 -149.13 107.38 -149.81 107.38 C-149.81 108.03 -149.81 108.69 -149.81 109.38 C-150.47 109.38 -151.13 109.38 -151.81 109.38 C-152.31 110.86 -152.31 110.86 -152.81 112.38 C-153.47 112.38 -154.13 112.38 -154.81 112.38 C-154.81 113.03 -154.81 113.69 -154.81 114.38 C-155.47 114.38 -156.13 114.38 -156.81 114.38 C-157.04 114.9 -157.27 115.43 -157.51 115.98 C-159.24 119.16 -161.45 121.92 -163.69 124.75 C-166.27 128.02 -168.78 131.27 -171.01 134.79 C-171.6 135.64 -172.2 136.5 -172.81 137.38 C-173.47 137.38 -174.13 137.38 -174.81 137.38 C-174.92 137.94 -175.03 138.51 -175.15 139.09 C-175.9 141.68 -177.01 143.59 -178.44 145.88 C-178.97 146.75 -179.51 147.63 -180.06 148.53 C-180.64 149.47 -181.22 150.41 -181.81 151.38 C-185.68 157.71 -189.26 163.88 -191.86 170.84 C-192.88 173.56 -194.03 176.21 -195.19 178.88 C-200.95 192.78 -204.83 206.67 -207.43 221.48 C-207.81 223.38 -207.81 223.38 -208.81 226.38 C-211.49 243.95 -211.16 261.77 -211.22 279.5 C-211.23 283.76 -211.26 288.03 -211.29 292.29 C-211.33 300.33 -211.37 308.37 -211.4 316.4 C-211.45 327.29 -211.51 338.18 -211.57 349.06 C-211.66 366.17 -211.74 383.27 -211.81 400.38 C-179.47 400.38 -147.13 400.38 -113.81 400.38 C-113.93 379.3 -113.93 379.3 -114.08 358.22 C-114.09 355.57 -114.1 352.93 -114.11 350.28 C-114.11 349.6 -114.12 348.92 -114.13 348.21 C-114.28 334.39 -114.28 334.39 -110.81 328.38 C-110.15 328.38 -109.49 328.38 -108.81 328.38 C-108.48 327.38 -108.15 326.39 -107.81 325.38 C-107.15 325.38 -106.49 325.38 -105.81 325.38 C-105.81 324.71 -105.81 324.06 -105.81 323.38 C-99.21 319.6 -93.27 319.45 -85.81 320.38 C-82.69 321.57 -80.16 322.98 -77.81 325.38 C-77.48 326.37 -77.15 327.36 -76.81 328.38 C-76.15 328.38 -75.49 328.38 -74.81 328.38 C-49.6 387.21 -71.81 456.37 -71.81 520.38 C99.13 520.38 270.07 520.38 446.19 520.38 C446.19 459.33 446.19 398.28 446.19 335.38 C447.67 331.91 447.67 331.91 449.19 328.38 C449.85 328.38 450.51 328.38 451.19 328.38 C451.52 327.38 451.85 326.39 452.19 325.38 C452.85 325.38 453.51 325.38 454.19 325.38 C454.19 324.71 454.19 324.06 454.19 323.38 C461.04 319.41 467.45 319.52 475.19 320.38 C481.1 322.23 484.31 326.19 487.16 331.53 C489.27 337.37 488.79 343.57 488.68 349.69 C488.67 350.98 488.67 352.27 488.66 353.6 C488.63 358.38 488.56 363.16 488.5 367.94 C488.4 378.64 488.29 389.35 488.19 400.38 C520.53 400.38 552.87 400.38 586.19 400.38 C586.03 379.34 586.03 379.34 585.83 358.31 C585.82 355.67 585.81 353.02 585.8 350.38 C585.78 349.36 585.78 349.36 585.77 348.32 C585.53 332.22 585.53 332.22 591.64 325.87 C597.81 320.43 602.62 319.88 610.69 319.98 C615.52 320.52 618.61 322.17 622.19 325.38 C622.94 325.98 622.94 325.98 623.71 326.61 C628.15 331.92 628.63 337.55 628.58 344.17 C628.58 345.47 628.58 345.47 628.59 346.79 C628.61 349.66 628.6 352.54 628.59 355.41 C628.6 357.48 628.6 359.55 628.61 361.61 C628.63 367.22 628.63 372.82 628.62 378.43 C628.62 383.11 628.63 387.79 628.63 392.47 C628.65 403.52 628.64 414.57 628.63 425.61 C628.62 437 628.64 448.39 628.66 459.79 C628.69 469.57 628.69 479.36 628.69 489.14 C628.68 494.98 628.68 500.82 628.7 506.67 C628.72 512.16 628.71 517.65 628.69 523.15 C628.69 525.16 628.69 527.18 628.7 529.19 C628.72 531.94 628.71 534.7 628.69 537.45 C628.7 538.24 628.71 539.04 628.72 539.85 C628.63 546.82 626.27 551.84 621.88 557.19 C614.48 563.2 607.24 562.8 598.07 562.76 C596.62 562.76 595.16 562.76 593.71 562.77 C589.7 562.78 585.69 562.78 581.68 562.77 C577.33 562.76 572.97 562.77 568.61 562.78 C560.97 562.79 553.33 562.79 545.69 562.79 C534.33 562.78 522.97 562.79 511.61 562.8 C491.32 562.82 471.03 562.82 450.75 562.81 C432.99 562.81 415.24 562.81 397.48 562.82 C395.1 562.82 392.72 562.82 390.34 562.82 C386.76 562.82 383.17 562.82 379.58 562.82 C346.24 562.83 312.89 562.84 279.55 562.83 C278.29 562.83 277.03 562.83 275.74 562.83 C265.52 562.83 255.31 562.82 245.1 562.82 C205.25 562.81 165.41 562.82 125.57 562.84 C80.82 562.87 36.08 562.88 -8.67 562.87 C-13.43 562.87 -18.2 562.87 -22.97 562.87 C-24.15 562.87 -25.32 562.87 -26.53 562.87 C-44.27 562.87 -62.02 562.88 -79.76 562.89 C-99.94 562.9 -120.11 562.91 -140.29 562.89 C-151.58 562.88 -162.88 562.88 -174.17 562.9 C-181.71 562.91 -189.25 562.9 -196.79 562.89 C-201.09 562.88 -205.39 562.88 -209.69 562.89 C-213.6 562.91 -217.51 562.9 -221.42 562.88 C-222.83 562.88 -224.24 562.88 -225.64 562.89 C-235.12 562.96 -241.15 562.21 -248.62 556.06 C-254.29 549.1 -254.24 542.67 -254.19 534 C-254.19 532.76 -254.19 531.51 -254.2 530.23 C-254.21 526.78 -254.2 523.33 -254.19 519.88 C-254.18 516.16 -254.19 512.44 -254.2 508.71 C-254.21 501.42 -254.2 494.13 -254.19 486.84 C-254.17 478.34 -254.17 469.84 -254.18 461.34 C-254.18 446.17 -254.17 431 -254.15 415.82 C-254.13 401.12 -254.12 386.41 -254.13 371.71 C-254.13 355.68 -254.13 339.66 -254.12 323.64 C-254.12 321.93 -254.12 320.21 -254.12 318.5 C-254.12 317.66 -254.12 316.82 -254.12 315.95 C-254.11 310.04 -254.11 304.12 -254.12 298.21 C-254.12 290.99 -254.11 283.77 -254.1 276.55 C-254.09 272.87 -254.09 269.19 -254.09 265.51 C-254.1 261.51 -254.09 257.51 -254.07 253.51 C-254.08 252.36 -254.08 251.21 -254.08 250.03 C-254.05 243.32 -253.44 236.94 -252.28 230.33 C-251.81 227.38 -251.59 224.48 -251.44 221.5 C-250.99 215.49 -249.5 209.96 -247.85 204.18 C-246.85 200.51 -246.06 196.85 -245.31 193.12 C-243.76 185.63 -241.27 178.76 -238.25 171.75 C-237.18 169.24 -236.35 166.91 -235.56 164.31 C-233.8 158.86 -231.15 153.88 -228.53 148.8 C-227.39 146.53 -226.32 144.21 -225.32 141.86 C-220.79 131.4 -214.29 121.72 -207.81 112.38 C-207.39 111.75 -206.96 111.13 -206.52 110.49 C-205.17 108.53 -203.8 106.58 -202.44 104.62 C-202.01 104 -201.58 103.38 -201.14 102.74 C-200.08 101.25 -198.95 99.81 -197.81 98.38 C-197.15 98.38 -196.49 98.38 -195.81 98.38 C-195.59 97.65 -195.36 96.93 -195.12 96.19 C-193.56 92.84 -191.48 90.9 -188.81 88.38 C-188.48 87.72 -188.15 87.06 -187.81 86.38 C-187.15 86.38 -186.49 86.38 -185.81 86.38 C-185.55 85.79 -185.28 85.2 -185.01 84.59 C-183.77 82.29 -182.46 80.77 -180.62 78.92 C-180.01 78.3 -179.39 77.68 -178.76 77.05 C-178.12 76.41 -177.47 75.78 -176.81 75.12 C-175.85 74.15 -175.85 74.15 -174.87 73.16 C-174.25 72.54 -173.63 71.93 -173 71.3 C-172.44 70.74 -171.87 70.17 -171.29 69.6 C-169.81 68.38 -169.81 68.38 -167.81 68.38 C-167.81 67.72 -167.81 67.06 -167.81 66.38 C-165.83 65.02 -163.82 63.69 -161.81 62.38 C-161.07 61.63 -160.33 60.89 -159.56 60.12 C-158.99 59.55 -158.41 58.97 -157.81 58.38 C-157.15 58.38 -156.49 58.38 -155.81 58.38 C-155.81 57.72 -155.81 57.05 -155.81 56.38 C-154.41 55.11 -154.41 55.11 -152.44 53.69 C-151.34 52.89 -151.34 52.89 -150.22 52.08 C-149.03 51.24 -149.03 51.24 -147.81 50.38 C-147 49.8 -146.19 49.22 -145.36 48.62 C-137.71 43.21 -129.86 38.17 -121.81 33.38 C-120.94 32.85 -120.07 32.33 -119.17 31.79 C-114.66 29.19 -110.07 27.2 -105.21 25.34 C-103.01 24.45 -100.92 23.47 -98.81 22.38 C-91.14 18.45 -83.14 15.78 -74.89 13.31 C-72.39 12.55 -69.91 11.74 -67.44 10.88 C-61 8.7 -54.4 7.06 -47.81 5.38 C-46.97 5.16 -46.13 4.94 -45.27 4.71 C-40.24 3.48 -35.29 3.03 -30.13 2.67 C-26.97 2.39 -23.91 1.91 -20.79 1.37 C-13.83 0.28 -7.03 0.01 0 0 Z M-211.81 442.38 C-211.81 468.12 -211.81 493.86 -211.81 520.38 C-179.47 520.38 -147.13 520.38 -113.81 520.38 C-113.81 494.63 -113.81 468.89 -113.81 442.38 C-146.15 442.38 -178.49 442.38 -211.81 442.38 Z M488.19 442.38 C488.19 468.12 488.19 493.86 488.19 520.38 C520.53 520.38 552.87 520.38 586.19 520.38 C586.19 494.63 586.19 468.89 586.19 442.38 C553.85 442.38 521.51 442.38 488.19 442.38 Z " fill="#000000" transform="translate(292.8125,678.625)"/>
</svg>
