<?xml version="1.0" encoding="UTF-8"?>
<!-- Generator: visioncortex VTracer 0.6.3 -->
<svg version="1.1" xmlns="http://www.w3.org/2000/svg" width="1280" height="1280">
<path d="M0 0 C3.17 -0.03 6.33 -0.05 9.5 -0.06 C10.39 -0.07 11.27 -0.08 12.19 -0.09 C26.79 -0.14 26.79 -0.14 33 4 C34.33 4.35 35.66 4.69 37 5 C44.17 7.76 50.79 11.25 56 17 C56.87 17.83 57.73 18.65 58.62 19.5 C60.72 21.71 61.71 23.32 63 26 C63.99 26.66 64.98 27.32 66 28 C66 28.66 66 29.32 66 30 C66.66 30 67.32 30 68 30 C71.35 36.91 74.46 43.45 76 51 C76.33 51.99 76.66 52.98 77 54 C77.23 57.98 77.19 61.96 77.19 65.94 C77.2 67.04 77.21 68.13 77.22 69.26 C77.23 70.32 77.23 71.38 77.23 72.46 C77.23 73.43 77.24 74.4 77.24 75.39 C76.99 78.11 76.33 79.65 75 82 C74.44 84.03 73.92 86.07 73.44 88.12 C72.1 93.81 72.1 93.81 71 96 C70.34 96 69.68 96 69 96 C68.94 96.72 68.88 97.44 68.81 98.19 C67.75 101.87 65.75 103.38 63 106 C61.99 107.66 60.99 109.33 60 111 C57.51 113.89 55.83 115.45 52 116 C52 116.66 52 117.32 52 118 C36.63 130.72 18.11 131.59 -1 130 C-15.02 127.72 -27.41 119.21 -37 109 C-37.66 108.01 -38.32 107.02 -39 106 C-39.66 105.67 -40.32 105.34 -41 105 C-42.6 101.94 -44.02 98.82 -45.46 95.69 C-46.77 92.71 -46.77 92.71 -50 92 C-51.92 92.5 -51.92 92.5 -53.88 93.38 C-56.91 94.6 -59.75 95.49 -63 96 C-63 96.66 -63 97.32 -63 98 C-64.72 99.26 -64.72 99.26 -67.06 100.69 C-77.08 107.21 -84.84 116.7 -89 128 C-89.77 129.76 -89.77 129.76 -90.56 131.56 C-93.86 140.41 -93.15 150.71 -93.16 160.03 C-93.16 161.18 -93.17 162.33 -93.17 163.52 C-93.19 167.34 -93.2 171.16 -93.21 174.97 C-93.21 177.72 -93.22 180.47 -93.24 183.23 C-93.26 189.13 -93.28 195.03 -93.29 200.94 C-93.31 209.48 -93.34 218.01 -93.37 226.55 C-93.42 240.4 -93.46 254.25 -93.5 268.11 C-93.54 281.56 -93.58 295.01 -93.63 308.46 C-93.63 309.29 -93.63 310.12 -93.64 310.97 C-93.65 315.14 -93.66 319.3 -93.68 323.47 C-93.79 357.98 -93.9 392.49 -94 427 C-73.21 427.33 -52.42 427.66 -31 428 C-30.62 453.06 -30.62 453.06 -30.52 460.94 C-30.49 463.01 -30.45 465.09 -30.41 467.16 C-30.4 468.23 -30.39 469.29 -30.38 470.39 C-30.27 476 -29.77 480.68 -28 486 C-27.65 489.86 -27.5 493.7 -27.34 497.57 C-27.03 500.72 -26.56 502.34 -25 505 C-24.62 506.99 -24.3 508.99 -24 511 C-23.7 512.75 -23.39 514.5 -23.06 516.25 C-22.91 517.1 -22.76 517.95 -22.6 518.83 C-22.14 521.19 -22.14 521.19 -20 523 C-19.86 523.89 -19.72 524.78 -19.58 525.7 C-18.9 529.55 -17.5 532.35 -15.69 535.81 C-13.6 539.85 -11.55 543.88 -9.75 548.06 C-8.39 551.21 -6.78 554.07 -5 557 C-5 557.66 -5 558.32 -5 559 C-4.34 559 -3.68 559 -3 559 C-2.67 560.32 -2.34 561.64 -2 563 C-1.34 563 -0.68 563 0 563 C0.51 563.96 0.51 563.96 1.02 564.93 C1.47 565.76 1.92 566.59 2.38 567.44 C2.82 568.26 3.26 569.08 3.71 569.93 C4.83 572.13 4.83 572.13 7 573 C7 573.66 7 574.32 7 575 C7.66 575 8.32 575 9 575 C9.66 576.65 10.32 578.3 11 580 C11.66 580 12.32 580 13 580 C14.62 581.64 14.62 581.64 16.44 583.81 C18.97 586.82 18.97 586.82 21.72 589.64 C23 591 23 591 23 593 C23.56 593.27 24.11 593.54 24.69 593.81 C29.14 596.1 32.47 598.47 36 602 C36.66 602 37.32 602 38 602 C38 602.99 38 603.98 38 605 C39.65 605.66 41.3 606.32 43 607 C43 607.66 43 608.32 43 609 C45.31 609.66 47.62 610.32 50 611 C50 611.66 50 612.32 50 613 C51.25 613.65 52.5 614.3 53.75 614.94 C54.45 615.3 55.14 615.66 55.86 616.03 C57.96 617.07 57.96 617.07 60.2 617.5 C61.09 617.75 61.09 617.75 62 618 C62.33 618.66 62.66 619.32 63 620 C64.98 620.71 66.99 621.37 69 622 C70.88 622.77 72.76 623.57 74.62 624.38 C84.98 629.08 84.98 629.08 96 631 C96.68 631.29 97.36 631.58 98.06 631.88 C103.5 633.96 109.3 634.8 115.06 635.56 C118 636 118 636 119 637 C120.95 637.21 122.91 637.37 124.88 637.5 C128.19 637.72 130.84 637.95 134 639 C136.44 639.08 138.85 639.12 141.29 639.1 C142 639.1 142.71 639.09 143.43 639.09 C145.68 639.09 147.94 639.08 150.19 639.06 C151.72 639.06 153.24 639.05 154.77 639.05 C158.51 639.04 162.26 639.02 166 639 C166 638.67 166 638.34 166 638 C172.27 637.67 178.54 637.34 185 637 C185.33 636.34 185.66 635.68 186 635 C188.03 634.62 188.03 634.62 190.5 634.44 C193.55 634.42 193.55 634.42 196 633 C197.68 632.77 199.37 632.59 201.06 632.44 C201.98 632.35 202.9 632.27 203.85 632.18 C204.56 632.12 205.27 632.06 206 632 C206 631.34 206 630.68 206 630 C208.64 629.67 211.28 629.34 214 629 C214 628.67 214 628.34 214 628 C216.31 627.67 218.62 627.34 221 627 C221 626.34 221 625.68 221 625 C221.91 624.88 222.81 624.75 223.75 624.62 C226.64 624.07 228.45 623.36 231 622 C231.68 621.86 232.36 621.71 233.06 621.56 C235.07 621.15 235.07 621.15 236.31 619.62 C238.81 617.22 241.83 616.32 245 615 C245.66 614.34 246.32 613.68 247 613 C249.63 612.88 249.63 612.88 252 613 C252 612.01 252 611.02 252 610 C253.94 608.2 255.39 607.13 258 606.56 C260.78 605.78 262.02 604.05 264 602 C266.25 600.75 266.25 600.75 268 600 C268 599.34 268 598.68 268 598 C269.65 596.59 269.65 596.59 271.94 594.94 C277.1 591.05 281.53 586.64 286 582 C288 580 288 580 290 579.12 C292.52 577.71 292.9 576.64 294 574 C296.77 568.23 296.77 568.23 299 566 C299.68 564.61 299.68 564.61 300.38 563.19 C302 560 302 560 304.12 557.38 C305.98 555.03 306.35 553.81 307 551 C308.44 549.25 308.44 549.25 310 548 C310.66 548 311.32 548 312 548 C311.92 546.93 311.83 545.86 311.75 544.75 C312 541 312 541 313.91 539.12 C316.42 536.57 316.93 534.7 317.75 531.25 C317.99 530.27 318.23 529.28 318.48 528.27 C318.65 527.52 318.82 526.77 319 526 C319.66 526 320.32 526 321 526 C321.06 525.36 321.12 524.72 321.18 524.07 C321.27 523.24 321.35 522.41 321.44 521.56 C321.52 520.74 321.6 519.92 321.68 519.07 C322 517 322 517 323 516 C323.23 514.65 323.41 513.3 323.56 511.94 C323.71 510.64 323.85 509.34 324 508 C324.66 508 325.32 508 326 508 C326.33 504.37 326.66 500.74 327 497 C327.33 497 327.66 497 328 497 C328.33 489.74 328.66 482.48 329 475 C329.33 475 329.66 475 330 475 C330.01 474.43 330.02 473.85 330.03 473.26 C330.14 467.31 330.25 461.35 330.37 455.4 C330.42 453.18 330.46 450.95 330.5 448.73 C330.55 445.54 330.62 442.35 330.68 439.16 C330.7 438.16 330.72 437.16 330.73 436.13 C330.75 435.21 330.77 434.28 330.79 433.34 C330.82 432.11 330.82 432.11 330.84 430.87 C331 429 331 429 332 428 C335.1 427.84 338.18 427.74 341.29 427.68 C342.11 427.66 342.93 427.65 343.78 427.63 C346.88 427.56 349.97 427.5 353.06 427.44 C359.97 427.29 366.88 427.15 374 427 C373.67 407.53 373.34 388.06 373 368 C372.67 368 372.34 368 372 368 C372 366.83 372 365.66 371.99 364.45 C371.94 336.61 371.86 308.78 371.77 280.94 C371.76 277.51 371.75 274.08 371.74 270.66 C371.73 269.63 371.73 269.63 371.73 268.59 C371.7 257.54 371.67 246.5 371.65 235.46 C371.63 224.13 371.59 212.79 371.55 201.46 C371.53 195.09 371.51 188.73 371.5 182.36 C371.5 176.37 371.48 170.38 371.45 164.38 C371.44 162.19 371.43 159.99 371.43 157.79 C371.44 154.79 371.42 151.78 371.4 148.78 C371.4 147.91 371.41 147.05 371.41 146.16 C371.35 140.27 370.09 135.48 368 130 C367.56 128.67 367.12 127.33 366.69 126 C365.17 121.96 362.89 118.59 360.4 115.08 C359.07 113.11 358.01 111.15 357 109 C356.34 109 355.68 109 355 109 C353.38 107.63 353.38 107.63 352 106 C352 105.34 352 104.68 352 104 C351.1 103.6 351.1 103.6 350.19 103.19 C348 102 348 102 346.8 100.65 C344.21 98.28 341.19 96.9 338.06 95.38 C337.44 95.06 336.82 94.75 336.18 94.43 C333.17 92.94 330.32 91.61 327 91 C326.73 91.97 326.46 92.94 326.19 93.94 C325.8 94.95 325.4 95.96 325 97 C323.51 97.5 323.51 97.5 322 98 C321.92 98.72 321.83 99.44 321.75 100.19 C320.84 103.59 319.4 105.45 317 108 C316.34 108 315.68 108 315 108 C314.63 109.14 314.63 109.14 314.25 110.31 C312.88 113.26 311.76 114.36 309 116 C308.34 116 307.68 116 307 116 C307 116.66 307 117.32 307 118 C305.39 119.29 305.39 119.29 303.25 120.62 C302.55 121.07 301.86 121.52 301.14 121.98 C299 123 299 123 295 123 C295 123.66 295 124.32 295 125 C281.6 131.41 263.22 132.65 249 128 C245.91 126.82 242.96 125.47 240 124 C238.84 123.43 238.84 123.43 237.66 122.85 C235.77 121.91 233.88 120.96 232 120 C232 119.34 232 118.68 232 118 C231.42 117.9 230.85 117.79 230.25 117.69 C227.64 116.89 226.03 115.81 224 114 C224 113.34 224 112.68 224 112 C223.22 111.79 222.43 111.59 221.62 111.38 C219 110 219 110 217.69 106.88 C217.35 105.45 217.35 105.45 217 104 C216.34 104 215.68 104 215 104 C215 103.34 215 102.68 215 102 C214.34 102 213.68 102 213 102 C211.5 98.63 211 96.8 211 93 C210.34 93 209.68 93 209 93 C208.18 90.79 207.37 88.59 206.56 86.38 C206.11 85.15 205.66 83.92 205.19 82.65 C201.58 71.59 202.5 59.41 204 48 C204.66 48 205.32 48 206 48 C206.33 45.69 206.66 43.38 207 41 C207.66 41 208.32 41 209 41 C209 39.02 209 37.04 209 35 C209.66 34.67 210.32 34.34 211 34 C212.05 32.02 213.05 30.03 214 28 C214.99 28 215.98 28 217 28 C217.25 27.46 217.5 26.93 217.75 26.38 C221.24 19.75 224.66 15.78 231 12 C231.8 11.3 232.61 10.6 233.44 9.88 C236.35 7.74 238.44 7.33 242 7 C242 6.34 242 5.68 242 5 C242.8 4.86 243.61 4.71 244.44 4.56 C246.92 4.26 246.92 4.26 248 3 C250.81 2.72 253.62 2.55 256.43 2.38 C259.16 2.24 259.16 2.24 261 0 C263.43 -0.27 263.43 -0.27 266.31 -0.25 C267.26 -0.26 268.2 -0.26 269.18 -0.27 C272.14 0.01 274.28 0.82 277 2 C278.03 2.14 279.06 2.29 280.12 2.44 C285.18 3.17 290.19 4.26 295 6 C295.33 6.66 295.66 7.32 296 8 C296.99 8 297.98 8 299 8 C299.33 8.66 299.66 9.32 300 10 C300.99 10.33 301.98 10.66 303 11 C303 11.66 303 12.32 303 13 C304.32 13 305.64 13 307 13 C307 13.66 307 14.32 307 15 C307.99 15.33 308.98 15.66 310 16 C310 16.99 310 17.98 310 19 C310.99 18.67 311.98 18.34 313 18 C315.25 20.69 316.88 22.65 318 26 C318.76 26.72 319.53 27.44 320.31 28.19 C323.84 31.87 326.41 36.09 327.44 41.14 C327.88 43.35 327.88 43.35 330.75 44.69 C333.8 46.04 333.8 46.04 336.35 46.44 C339.32 47.07 341.84 48.1 344.62 49.31 C349.56 51.43 354.53 53.3 359.62 55.01 C362.11 56.04 363.91 57.33 366 59 C367.32 59.7 368.65 60.37 370 61 C370 61.66 370 62.32 370 63 C370.52 63.23 371.04 63.46 371.57 63.7 C376.25 65.89 379.5 68.12 383 72 C383.78 72.76 384.55 73.53 385.36 74.32 C387.94 76.94 390.29 79.65 392.62 82.5 C393.38 83.42 394.14 84.34 394.91 85.28 C396.83 87.78 398.43 90.28 400 93 C400.38 93.55 400.75 94.11 401.14 94.68 C409.62 107.18 413.59 121.25 416 136 C416.26 137.22 416.26 137.22 416.52 138.47 C417.2 143.48 417.15 148.44 417.15 153.5 C417.16 155.24 417.16 155.24 417.16 157.02 C417.18 160.25 417.18 163.47 417.19 166.69 C417.19 170.17 417.2 173.65 417.21 177.13 C417.23 183.15 417.25 189.18 417.26 195.2 C417.28 203.91 417.3 212.62 417.33 221.33 C417.37 235.47 417.41 249.6 417.45 263.74 C417.45 264.58 417.45 265.43 417.45 266.3 C417.47 273.16 417.49 280.03 417.51 286.89 C417.52 292.9 417.54 298.91 417.55 304.92 C417.55 305.76 417.56 306.61 417.56 307.48 C417.59 321.57 417.63 335.66 417.68 349.74 C417.7 358.44 417.73 367.13 417.74 375.83 C417.76 381.78 417.77 387.73 417.79 393.68 C417.8 397.11 417.81 400.55 417.82 403.99 C417.82 407.7 417.83 411.42 417.85 415.14 C417.85 416.24 417.85 417.33 417.85 418.47 C417.85 419.45 417.86 420.44 417.86 421.46 C417.87 422.75 417.87 422.75 417.87 424.06 C417.79 426.01 417.79 426.01 419 427 C421.96 427.16 424.89 427.26 427.85 427.32 C429.18 427.35 429.18 427.35 430.53 427.38 C433.38 427.44 436.22 427.5 439.06 427.56 C440.99 427.61 442.91 427.65 444.83 427.69 C449.55 427.8 454.28 427.9 459 428 C459.02 438.12 459.04 448.24 459.05 458.35 C459.06 463.05 459.06 467.75 459.08 472.45 C459.09 476.98 459.09 481.51 459.09 486.05 C459.1 487.78 459.1 489.51 459.11 491.24 C459.11 493.66 459.11 496.08 459.11 498.5 C459.12 499.22 459.12 499.94 459.12 500.68 C459.12 503.73 458.98 506.07 458 509 C457.73 512.26 457.56 515.51 457.38 518.77 C457.01 521.93 456.18 524.07 455 527 C454.23 530.62 453.71 534.28 453.14 537.94 C452.55 541.56 452.07 543.9 450 547 C449.15 550.34 448.47 553.69 447.78 557.07 C447 560 447 560 445 562 C444.43 563.96 444.43 563.96 444.06 566.19 C443.19 570.46 441.82 574.04 440 578 C439.67 578.99 439.34 579.98 439 581 C438.34 581 437.68 581 437 581 C436.91 582.01 436.82 583.01 436.73 584.05 C436.13 588.22 434.39 591.57 432.31 595.19 C431.59 596.5 430.86 597.81 430.14 599.12 C429.78 599.77 429.42 600.42 429.04 601.09 C426.55 605.65 424.3 610.34 422 615 C421.33 616.33 420.67 617.67 420 619 C419.34 619 418.68 619 418 619 C417.67 620.32 417.34 621.64 417 623 C416.34 623 415.68 623 415 623 C414.79 623.8 414.59 624.61 414.38 625.44 C412.59 630.05 410.14 634.16 407 638 C406.34 638 405.68 638 405 638 C404.34 639.98 403.68 641.96 403 644 C402.34 644 401.68 644 401 644 C400.75 644.54 400.5 645.07 400.25 645.62 C398.69 648.58 396.97 651.3 395 654 C394.34 654 393.68 654 393 654 C392.73 654.58 392.46 655.15 392.19 655.75 C390.97 658.06 389.7 660.02 388 662 C387.34 662 386.68 662 386 662 C385.77 662.56 385.54 663.11 385.3 663.68 C383.65 666.62 381.6 668.68 379.23 671.07 C378.52 671.79 378.52 671.79 377.8 672.52 C376.27 674.06 374.73 675.59 373.19 677.12 C372.67 677.64 372.15 678.16 371.61 678.7 C364.88 685.42 358.09 691.8 350.33 697.33 C348.01 698.9 348.01 698.9 346.3 700.73 C345 702 345 702 343 702 C343 702.66 343 703.32 343 704 C341.02 704.66 339.04 705.32 337 706 C337 706.66 337 707.32 337 708 C335.1 709.51 335.1 709.51 332.62 711.12 C331.81 711.66 331 712.2 330.16 712.76 C328 714 328 714 326 714 C325.67 714.66 325.34 715.32 325 716 C324.01 716 323.02 716 322 716 C322 716.66 322 717.32 322 718 C309.09 728.58 292.06 735.05 277 742 C276.14 742.41 275.28 742.81 274.39 743.23 C269.78 745.37 265.17 746.95 260.26 748.29 C258.02 748.99 256.08 749.91 254 751 C248.92 753.2 243.62 754.55 238.29 756.04 C237.08 756.37 235.87 756.71 234.62 757.06 C233.4 757.4 232.18 757.75 230.91 758.1 C228.13 758.71 228.13 758.71 227 760 C226.88 761.8 226.83 763.6 226.81 765.41 C226.79 766.56 226.78 767.72 226.76 768.91 C226.74 770.79 226.74 770.79 226.72 772.71 C226.69 774.67 226.66 776.63 226.63 778.59 C226.59 782.04 226.54 785.49 226.5 788.94 C226.45 793.05 226.4 797.16 226.34 801.27 C226.3 803.83 226.27 806.39 226.24 808.96 C226.22 810.11 226.21 811.27 226.19 812.46 C226.17 814 226.17 814 226.15 815.56 C226 818 226 818 225 820 C224.84 822.96 224.72 825.91 224.62 828.88 C224.02 842.86 220.26 855.48 214 868 C213.34 868 212.68 868 212 868 C211.94 868.7 211.87 869.41 211.81 870.13 C210.76 873.86 208.67 876.13 206.06 878.88 C205.57 879.4 205.08 879.93 204.57 880.47 C196 889.38 186.92 894.17 175 897 C174.34 897.33 173.68 897.66 173 898 C171.13 898.07 169.25 898.08 167.38 898.06 C166.37 898.05 165.37 898.04 164.34 898.04 C163.18 898.02 163.18 898.02 162 898 C162.08 905.62 162.18 913.23 162.29 920.85 C162.34 924.38 162.38 927.92 162.42 931.46 C162.47 935.54 162.53 939.62 162.59 943.7 C162.6 945.58 162.6 945.58 162.62 947.49 C162.75 955.18 163.55 962.45 165 970 C165.33 972 165.67 974 166 976 C166.6 979.09 167.22 982.17 167.84 985.25 C168.42 988.09 168.99 990.93 169.5 993.78 C170.71 1000.42 172.79 1006.63 175 1013 C175.69 1015.1 176.38 1017.21 177.06 1019.31 C178.51 1023.66 180.12 1027.82 182 1032 C182.27 1032.72 182.55 1033.45 182.83 1034.19 C184.68 1038.63 186.95 1042.86 189.17 1047.12 C191.04 1050.79 192.25 1053.92 193 1058 C193.66 1058.33 194.32 1058.66 195 1059 C195.89 1060.85 196.78 1062.69 197.66 1064.54 C199.78 1068.42 202.44 1071.86 205.1 1075.39 C207 1078 207 1078 208.46 1080.48 C210.27 1083.44 212.35 1086.02 214.56 1088.69 C215.35 1089.64 216.13 1090.59 216.94 1091.57 C218.93 1093.98 218.93 1093.98 221 1096 C221.63 1098.13 221.63 1098.13 222 1100 C222.66 1100 223.32 1100 224 1100 C225.35 1101.65 226.68 1103.32 228 1105 C228.99 1105.66 229.98 1106.32 231 1107 C232.19 1109.13 232.19 1109.13 233 1111 C233.66 1111 234.32 1111 235 1111 C236.69 1112.98 238.35 1114.98 240 1117 C240.66 1117.33 241.32 1117.66 242 1118 C242 1118.66 242 1119.32 242 1120 C242.99 1120.33 243.98 1120.66 245 1121 C245 1121.66 245 1122.32 245 1123 C247.19 1124.46 249.44 1125.72 251.79 1126.91 C254.81 1128.5 256.75 1129.58 258.5 1132.56 C260.62 1136 263.32 1136.57 267 1138 C267.33 1138.66 267.66 1139.32 268 1140 C268.99 1140.33 269.98 1140.66 271 1141 C271.33 1141.66 271.66 1142.32 272 1143 C273.97 1144.06 275.98 1145.04 278 1146 C279.79 1146.89 281.58 1147.79 283.38 1148.69 C284.25 1149.12 285.12 1149.56 286.02 1150.01 C287 1150.5 287 1150.5 288 1151 C288 1151.66 288 1152.32 288 1153 C288.57 1153.18 289.14 1153.36 289.72 1153.55 C294.6 1155.14 299.31 1156.93 304 1159 C310.22 1161.75 316.17 1164.26 322.86 1165.54 C325.11 1166.02 327.21 1166.69 329.38 1167.44 C348.85 1174.07 367.62 1174.27 388 1174.12 C390.43 1174.11 392.86 1174.11 395.3 1174.1 C401.2 1174.08 407.1 1174.04 413 1174 C413 1173.67 413 1173.34 413 1173 C413.99 1172.95 414.97 1172.9 415.99 1172.85 C417.27 1172.78 418.55 1172.7 419.88 1172.62 C421.79 1172.52 421.79 1172.52 423.74 1172.41 C427.08 1172.33 427.08 1172.33 429 1170 C431.66 1169.43 434.29 1169.26 437 1169 C437 1168.67 437 1168.34 437 1168 C437.57 1167.88 438.14 1167.76 438.72 1167.63 C443.54 1166.59 448.27 1165.41 453 1164 C453 1163.67 453 1163.34 453 1163 C454.05 1162.71 455.1 1162.42 456.19 1162.12 C460.48 1160.86 464.41 1159.26 468.5 1157.44 C471.41 1156.24 473.91 1155.47 477 1155 C477 1154.34 477 1153.68 477 1153 C477.69 1152.73 478.37 1152.47 479.08 1152.2 C479.98 1151.84 480.88 1151.49 481.81 1151.12 C482.71 1150.78 483.6 1150.43 484.52 1150.07 C487.18 1149.01 487.18 1149.01 490 1147 C490.66 1147.33 491.32 1147.66 492 1148 C492.33 1147.01 492.66 1146.02 493 1145 C494.64 1143.96 496.31 1142.97 498 1142 C503.04 1138.48 507.66 1134.61 512.14 1130.42 C514 1129 514 1129 516.17 1128.49 C517.08 1128.25 517.08 1128.25 518 1128 C518.33 1127.01 518.66 1126.02 519 1125 C519.99 1125 520.98 1125 522 1125 C522 1124.34 522 1123.68 522 1123 C522.62 1122.71 523.24 1122.42 523.88 1122.12 C526.13 1121.06 526.13 1121.06 528 1119 C529.04 1118.12 530.08 1117.25 531.12 1116.38 C533.95 1113.95 536.69 1111.46 539.38 1108.88 C540.04 1108.23 540.71 1107.59 541.4 1106.93 C543.1 1104.88 543.5 1103.57 544 1101 C545.44 1099.25 545.44 1099.25 547 1098 C547.66 1098 548.32 1098 549 1098 C549.33 1096.68 549.66 1095.36 550 1094 C550.66 1094 551.32 1094 552 1094 C552 1093.01 552 1092.02 552 1091 C553.1 1089.86 554.22 1088.73 555.37 1087.64 C561.15 1081.82 565.68 1075.48 569 1068 C569.66 1068 570.32 1068 571 1068 C571.12 1067.22 571.25 1066.43 571.38 1065.62 C572 1063 572 1063 574 1061 C574.33 1060.01 574.66 1059.02 575 1058 C575.66 1058 576.32 1058 577 1058 C577.1 1057.26 577.21 1056.52 577.31 1055.75 C578.06 1052.76 579.16 1051.42 581 1049 C582.13 1046.06 582.95 1043.29 583.5 1040.19 C583.66 1039.47 583.83 1038.74 584 1038 C584.66 1037.67 585.32 1037.34 586 1037 C588.01 1032.11 589.65 1027.12 591.25 1022.08 C592 1020 592 1020 593.03 1017.98 C594.01 1015.98 594.5 1014.17 595 1012 C595.49 1010.58 595.99 1009.16 596.5 1007.75 C597.57 1004.64 598.24 1001.77 598.56 998.5 C598.71 997.35 598.85 996.19 599 995 C599.66 994.67 600.32 994.34 601 994 C601.43 991.48 601.43 991.48 601.56 988.56 C601.91 983.19 601.91 983.19 603 981 C603.28 977.43 603.45 973.86 603.62 970.29 C604 967 604 967 606 964 C606.2 961.48 606.27 959.06 606.26 956.54 C606.27 955.77 606.27 955 606.27 954.21 C606.28 951.61 606.28 949 606.28 946.4 C606.28 944.53 606.29 942.65 606.3 940.78 C606.31 935.61 606.32 930.44 606.32 925.27 C606.32 919.7 606.34 914.13 606.35 908.56 C606.37 898.91 606.39 889.26 606.4 879.6 C606.41 865.65 606.44 851.69 606.46 837.73 C606.51 815.09 606.55 792.45 606.58 769.8 C606.61 747.8 606.64 725.8 606.68 703.8 C606.68 702.79 606.68 702.79 606.69 701.75 C606.7 694.94 606.71 688.14 606.72 681.33 C606.83 624.22 606.92 567.11 607 510 C607.33 510 607.66 510 608 510 C608.33 502.41 608.66 494.82 609 487 C609.66 486.67 610.32 486.34 611 486 C611.43 483.02 611.43 483.02 611.56 479.56 C611.91 473.19 611.91 473.19 613 471 C613.14 469.82 613.29 468.65 613.44 467.44 C613.62 466.3 613.81 465.17 614 464 C614.66 463.67 615.32 463.34 616 463 C616.26 461.01 616.51 459.01 616.66 457.01 C617 455 617 455 619 452 C619.63 449.89 619.63 449.89 620 448 C620.33 448 620.66 448 621 448 C621.33 445.69 621.66 443.38 622 441 C622.66 441 623.32 441 624 441 C624 439.02 624 437.04 624 435 C624.66 435.33 625.32 435.66 626 436 C626.33 435.34 626.66 434.68 627 434 C626.34 433.67 625.68 433.34 625 433 C625.66 433 626.32 433 627 433 C627.33 432.01 627.66 431.02 628 430 C629 428 630 426 631 424 C631.47 422.85 631.95 421.69 632.44 420.5 C633.99 417.02 635.81 414.11 638 411 C638.66 410.01 639.32 409.02 640 408 C640.52 407.34 641.03 406.68 641.56 406 C643.18 403.96 643.18 403.96 644 401 C644.66 400.67 645.32 400.34 646 400 C646.93 398.3 647.86 396.61 648.79 394.91 C650.76 391.81 653.35 389.53 656 387 C656.66 386.01 657.32 385.02 658 384 C658.33 384.33 658.66 384.66 659 385 C659.33 384.34 659.66 383.68 660 383 C660.66 383 661.32 383 662 383 C662.27 382.36 662.54 381.72 662.81 381.06 C664 379 664 379 667 378 C667.33 377.34 667.66 376.68 668 376 C669 374 669 374 672 373 C672.33 372.01 672.66 371.02 673 370 C673.66 370 674.32 370 675 370 C675 369.34 675 368.68 675 368 C675.66 367.34 676.32 366.68 677 366 C677.68 365.26 678.36 364.51 679.06 363.75 C682.03 360.76 685.47 358.59 689.01 356.33 C691.11 355.02 691.11 355.02 693 353 C694.32 353 695.64 353 697 353 C697.19 352.4 697.37 351.8 697.56 351.19 C700.04 347.41 704.23 346.5 708.44 345.31 C708.95 345.21 709.47 345.11 710 345 C710 344.34 710 343.68 710 343 C710.64 342.88 711.28 342.75 711.94 342.62 C712.62 342.42 713.3 342.21 714 342 C714.33 341.34 714.66 340.68 715 340 C716.65 340 718.3 340 720 340 C720 339.34 720 338.68 720 338 C721.98 337.67 723.96 337.34 726 337 C726 336.34 726 335.68 726 335 C727.98 334.67 729.96 334.34 732 334 C732 333.67 732 333.34 732 333 C733.13 332.88 734.27 332.75 735.44 332.62 C736.61 332.42 737.79 332.21 739 332 C739.33 331.34 739.66 330.68 740 330 C742.07 329.59 742.07 329.59 744.56 329.38 C745.8 329.26 745.8 329.26 747.07 329.15 C747.7 329.1 748.34 329.05 749 329 C749 328.67 749 328.34 749 328 C749.78 327.95 750.56 327.9 751.37 327.85 C752.38 327.78 753.39 327.7 754.44 327.62 C755.45 327.56 756.46 327.49 757.5 327.41 C758.32 327.28 759.15 327.14 760 327 C760.33 326.34 760.66 325.68 761 325 C768.59 324.67 776.18 324.34 784 324 C784 323.67 784 323.34 784 323 C785.44 322.97 786.87 322.95 788.31 322.94 C789.51 322.92 789.51 322.92 790.74 322.9 C793 323 793 323 796 324 C797.87 324.05 799.75 324.04 801.62 324 C808.93 323.95 815.21 324.22 822 327 C823.96 327.26 825.93 327.51 827.89 327.73 C833.49 328.45 838.7 330.17 843.93 332.22 C846.1 333.04 848.29 333.74 850.5 334.44 C854.11 335.63 857.41 337.08 860.77 338.84 C862.45 339.71 864.15 340.56 865.85 341.38 C871.5 344.12 876.75 347.03 881.9 350.62 C883.98 351.99 886.07 353.07 888.31 354.12 C891.49 355.64 893.63 357.35 896 360 C896.66 360.33 897.32 360.66 898 361 C898 361.66 898 362.32 898 363 C898.66 363.21 899.32 363.41 900 363.62 C904.08 365.49 907.69 367.96 911 371 C911.33 371.99 911.66 372.98 912 374 C912.66 374.33 913.32 374.66 914 375 C914.66 375.33 915.32 375.66 916 376 C916.33 376.99 916.66 377.98 917 379 C918.66 380.34 920.33 381.67 922 383 C922 383.66 922 384.32 922 385 C922.66 385 923.32 385 924 385 C924.66 386.65 925.32 388.3 926 390 C926.66 390 927.32 390 928 390 C929.55 391.91 929.55 391.91 931.31 394.5 C931.94 395.42 932.56 396.33 933.2 397.27 C935.11 400.17 936.94 403.1 938.74 406.07 C940.11 408.17 941.63 410.1 943.19 412.06 C945.95 415.63 946.94 418.65 948 423 C948.66 423.33 949.32 423.66 950 424 C951.24 426.4 952.39 428.79 953.5 431.25 C953.81 431.92 954.12 432.59 954.43 433.28 C956.05 436.82 957.59 440.37 959 444 C959.45 445.13 959.91 446.27 960.38 447.44 C962.64 453.51 964.3 459.76 966 466 C966.29 467.05 966.59 468.1 966.89 469.18 C968.42 474.92 969.39 480.4 969.69 486.33 C969.91 489.07 969.91 489.07 970.99 491.8 C972.69 497.65 972.36 503.77 972.41 509.81 C972.43 511.14 972.45 512.48 972.47 513.81 C972.52 517.31 972.56 520.8 972.6 524.29 C972.64 527.87 972.69 531.44 972.74 535.01 C972.84 542.01 972.92 549 973 556 C974.73 556.48 976.47 556.95 978.2 557.43 C979.16 557.7 980.13 557.96 981.12 558.23 C987.03 559.81 992.96 561.07 999 562 C999 562.66 999 563.32 999 564 C999.52 564.17 1000.04 564.34 1000.58 564.52 C1003.06 565.33 1005.53 566.17 1008 567 C1009.49 567.49 1009.49 567.49 1011.01 567.98 C1012 568.32 1012.98 568.65 1014 569 C1014.93 569.31 1015.86 569.62 1016.81 569.94 C1017.53 570.29 1018.26 570.64 1019 571 C1019.33 571.99 1019.66 572.98 1020 574 C1021.05 574.06 1022.1 574.12 1023.19 574.19 C1027.79 575.17 1028.76 576.68 1032 580 C1034.59 581.38 1037.21 582.61 1039.89 583.79 C1042 585 1042 585 1043 588 C1044.66 589.01 1046.33 590.01 1048 591 C1048 591.66 1048 592.32 1048 593 C1048.97 593.29 1049.94 593.58 1050.94 593.88 C1054 595 1054 595 1055 597 C1056.02 597.74 1056.02 597.74 1057.06 598.5 C1058.02 599.24 1058.02 599.24 1059 600 C1059 600.66 1059 601.32 1059 602 C1059.66 602 1060.32 602 1061 602 C1061.27 602.97 1061.54 603.94 1061.81 604.94 C1062.2 605.95 1062.6 606.96 1063 608 C1063.99 608.33 1064.98 608.66 1066 609 C1071.22 615.07 1082 627.69 1082 636 C1082.99 636.33 1083.98 636.66 1085 637 C1085.56 638.82 1085.56 638.82 1086 641 C1086.63 642.33 1087.3 643.64 1088 644.94 C1089.58 647.99 1090.38 650.61 1091 654 C1091.71 655.36 1091.71 655.36 1092.44 656.75 C1094.01 660.03 1094.75 662.88 1095.46 666.42 C1096.09 669.44 1096.82 672.44 1097.56 675.44 C1097.81 676.45 1098.06 677.46 1098.32 678.5 C1098.9 680.97 1098.9 680.97 1100 683 C1100.1 684.49 1100.14 685.98 1100.15 687.48 C1100.15 688.41 1100.16 689.33 1100.16 690.29 C1100.17 691.3 1100.17 692.3 1100.17 693.34 C1100.17 694.37 1100.17 695.4 1100.18 696.46 C1100.18 698.64 1100.19 700.83 1100.19 703.01 C1100.19 706.35 1100.21 709.7 1100.22 713.04 C1100.23 715.16 1100.23 717.28 1100.23 719.4 C1100.24 720.9 1100.24 720.9 1100.25 722.43 C1100.25 723.37 1100.25 724.3 1100.24 725.26 C1100.24 726.08 1100.25 726.9 1100.25 727.75 C1099.97 730.24 1099.19 731.81 1098 734 C1097.63 735.91 1097.32 737.83 1097.06 739.75 C1096.39 744.11 1095.48 747.93 1093.79 751.98 C1092.53 755.21 1091.66 758.56 1090.75 761.9 C1090 764 1090 764 1088 766 C1087.29 767.65 1086.62 769.32 1086 771 C1085.34 771 1084.68 771 1084 771 C1084 772.65 1084 774.3 1084 776 C1083.34 776 1082.68 776 1082 776 C1081.67 777.65 1081.34 779.3 1081 781 C1080.34 781 1079.68 781 1079 781 C1078.86 781.78 1078.71 782.57 1078.56 783.38 C1078 786 1078 786 1077 788 C1076.34 788 1075.68 788 1075 788 C1074.79 788.85 1074.59 789.69 1074.38 790.56 C1072.9 794.25 1071.16 796.36 1068.52 799.25 C1067.08 800.91 1065.91 802.58 1064.75 804.44 C1064.17 805.28 1063.6 806.13 1063 807 C1062.34 807 1061.68 807 1061 807 C1061 807.66 1061 808.32 1061 809 C1059.62 810.62 1059.62 810.62 1058 812 C1057.34 812 1056.68 812 1056 812 C1056 812.66 1056 813.32 1056 814 C1051.23 818.92 1045.54 822.99 1040 827 C1039.3 827.53 1038.59 828.06 1037.87 828.61 C1027 836.61 1014.82 842.83 1002 847 C1000.66 847.51 999.33 848.04 998 848.56 C990.47 851.37 983.02 853.25 975 853.79 C972.93 853.89 972.93 853.89 971 855 C968.2 855.12 965.42 855.19 962.62 855.2 C961.77 855.21 960.92 855.21 960.05 855.22 C958.25 855.23 956.44 855.24 954.64 855.24 C951.93 855.25 949.23 855.28 946.53 855.31 C935.72 855.38 925.51 854.73 915 852 C914.67 851.67 914.34 851.34 914 851 C911.92 850.56 909.84 850.11 907.77 849.68 C902.74 848.45 897.88 846.7 893 845 C893 844.34 893 843.68 893 843 C891.86 843.06 891.86 843.06 890.69 843.12 C888 843 888 843 885 841 C884.34 841 883.68 841 883 841 C883 840.34 883 839.68 883 839 C882.28 838.71 881.56 838.42 880.81 838.12 C878.21 837.08 875.6 836.04 873 835 C873 834.34 873 833.68 873 833 C872.24 832.9 871.47 832.79 870.69 832.69 C867.68 831.92 867.09 831.17 865 829 C863.02 827.95 861.03 826.95 859 826 C859 825.34 859 824.68 859 824 C858.2 823.73 857.39 823.46 856.56 823.19 C855.72 822.8 854.87 822.4 854 822 C853.67 821.01 853.34 820.02 853 819 C851.67 818.66 850.33 818.33 849 818 C847.3 816.44 847.3 816.44 845.75 814.56 C845.23 813.95 844.71 813.33 844.17 812.69 C843 811 843 811 843 809 C842.28 808.79 841.56 808.59 840.81 808.38 C837.03 806.52 835.48 804.4 833 801 C833 800.34 833 799.68 833 799 C832.34 798.67 831.68 798.34 831 798 C826.61 792.27 823.1 785.85 819.52 779.6 C818.41 777.7 817.22 775.83 816 774 C815.66 772.67 815.33 771.33 815 770 C814.22 768.34 813.41 766.69 812.56 765.06 C810.85 761.76 809.34 758.47 808 755 C807.67 754.22 807.34 753.43 807 752.62 C804.66 746.48 803.42 740.28 802.38 733.81 C802.24 733.02 802.11 732.23 801.97 731.41 C801.38 727.84 801 724.64 801 721 C800.51 719.2 800.51 719.2 800.02 717.36 C798.77 712.62 798.7 708.07 798.75 703.19 C798.74 702.34 798.73 701.5 798.73 700.63 C798.73 699.41 798.73 699.41 798.73 698.17 C798.74 697.44 798.74 696.71 798.74 695.96 C799 694 799 694 801 691 C801.28 688.29 801.46 685.65 801.56 682.94 C801.88 675.24 801.88 675.24 803 673 C803.17 671.65 803.32 670.29 803.44 668.94 C803.62 667.64 803.81 666.34 804 665 C804.66 664.67 805.32 664.34 806 664 C806.37 661.67 806.7 659.34 807 657 C807.94 653.12 807.94 653.12 809 650 C809.66 649.67 810.32 649.34 811 649 C812.39 645.39 813.33 641.81 814 638 C814.99 638 815.98 638 817 638 C817.15 636.89 817.15 636.89 817.31 635.75 C818.06 632.74 819.14 631.44 821 629 C821.71 627.3 821.71 627.3 822.44 625.56 C823.95 622.12 825.56 619.82 828 617 C829.54 614.98 831.05 612.93 832.54 610.86 C833.04 610.16 833.54 609.47 834.06 608.75 C834.82 607.69 834.82 607.69 835.6 606.61 C836.06 606.08 836.52 605.55 837 605 C837.66 605 838.32 605 839 605 C839.33 604.34 839.66 603.68 840 603 C840.66 603 841.32 603 842 603 C842 602.34 842 601.68 842 601 C843 600 844 599 845 598 C845 597.34 845 596.68 845 596 C846.32 595.67 847.64 595.34 849 595 C848.34 594.34 847.68 593.68 847 593 C847.73 592.75 848.46 592.5 849.22 592.25 C852.25 590.89 854.1 589.33 856.5 587.06 C859.51 584.23 862.44 582.08 866 580 C866.66 579.34 867.32 578.68 868 578 C869.32 578 870.64 578 872 578 C872.4 577.04 872.4 577.04 872.81 576.06 C874.53 573.08 876.82 573.06 880 572 C880.99 572.5 880.99 572.5 882 573 C882.33 572.01 882.66 571.02 883 570 C884.71 569.12 884.71 569.12 886.81 568.44 C888.96 567.73 890.96 567.02 892.98 566.01 C895.13 564.93 897.27 564.18 899.56 563.44 C900.33 563.19 901.09 562.94 901.88 562.68 C902.93 562.35 902.93 562.35 904 562 C904.99 561.67 905.98 561.34 907 561 C909.98 560.21 912.98 559.59 916 559 C916 558.67 916 558.34 916 558 C919.63 558 923.26 558 927 558 C926.99 557.24 926.97 556.48 926.96 555.7 C926.84 548.57 926.73 541.43 926.61 534.3 C926.55 530.63 926.49 526.96 926.43 523.29 C926.37 519.75 926.31 516.21 926.25 512.67 C926.22 510.66 926.19 508.65 926.15 506.64 C926.13 505.42 926.11 504.2 926.09 502.94 C926.07 501.86 926.06 500.79 926.04 499.68 C926.01 497.78 926 495.89 926 494 C925.56 492.22 925.07 490.45 924.56 488.69 C923.47 484.8 922.66 480.99 922 477 C921.36 475.32 920.7 473.65 920 472 C919.77 471.06 919.77 471.06 919.53 470.09 C919.01 468.03 918.33 466.11 917.56 464.12 C916.68 461.84 915.86 459.57 915.12 457.23 C913.81 453.44 912.24 449.83 910.56 446.19 C910.26 445.51 909.96 444.83 909.65 444.13 C908.85 442.38 907.93 440.68 907 439 C906.01 438.67 905.02 438.34 904 438 C904 437.01 904 436.02 904 435 C903.34 434.67 902.68 434.34 902 434 C901.3 432.35 900.64 430.68 900 429 C899.34 428.01 898.68 427.02 898 426 C898 425.01 898 424.02 898 423 C897.01 423 896.02 423 895 423 C894.67 421.68 894.34 420.36 894 419 C893.34 419 892.68 419 892 419 C889.31 415.89 886.85 412.69 885 409 C884.34 409 883.68 409 883 409 C883 408.34 883 407.68 883 407 C882.01 407 881.02 407 880 407 C880 406.01 880 405.02 880 404 C879.04 403.57 879.04 403.57 878.06 403.12 C876 402 876 402 875 400 C873.33 399.08 871.66 398.16 869.99 397.25 C867.9 395.94 866.33 394.47 864.56 392.75 C858.64 387.37 851.2 384.33 844 381 C843.09 380.57 842.18 380.15 841.25 379.71 C839.18 378.77 837.1 377.87 835 377 C834.34 376.73 833.68 376.45 833 376.17 C828.7 374.46 824.42 373.33 819.88 372.43 C818 372 818 372 816 371 C814.19 370.8 812.38 370.63 810.56 370.5 C807.44 370.27 804.99 370 802 369 C798.61 368.77 795.21 368.81 791.81 368.81 C790.83 368.81 789.85 368.81 788.84 368.81 C774.28 368.49 774.28 368.49 761 373 C759.07 373.49 757.13 373.98 755.19 374.43 C752.97 375.01 750.93 375.77 748.81 376.62 C745.76 377.82 743.32 378.31 740 378 C739.67 378.99 739.34 379.98 739 381 C737.68 381.39 736.34 381.71 735 382 C730 384.14 725.77 387.17 721.37 390.32 C719.63 391.55 717.86 392.73 716.06 393.88 C701.94 403.67 689.69 415.61 681.08 430.53 C680.72 431.02 680.37 431.5 680 432 C679.34 432 678.68 432 678 432 C677.73 432.93 677.46 433.86 677.19 434.81 C676.03 437.92 675.28 438.81 673 441 C671.81 443.6 671.81 443.6 671 446 C670.34 446 669.68 446 669 446 C668.88 446.72 668.75 447.44 668.62 448.19 C668 450.99 667.11 453.36 666 456 C661.94 466.45 658.24 477 656 488 C655.67 488.66 655.34 489.32 655 490 C654.79 492.27 654.63 494.54 654.5 496.81 C654.1 503.55 654.1 503.55 653.49 506.24 C652.87 509.74 652.86 513.16 652.87 516.7 C652.86 517.86 652.86 517.86 652.86 519.04 C652.85 521.64 652.85 524.24 652.86 526.83 C652.85 528.71 652.85 530.59 652.84 532.46 C652.83 537.63 652.83 542.79 652.83 547.96 C652.82 553.53 652.82 559.09 652.81 564.66 C652.79 574.31 652.78 583.96 652.77 593.61 C652.76 607.57 652.74 621.53 652.71 635.48 C652.67 658.14 652.64 680.79 652.61 703.44 C652.61 704.12 652.61 704.8 652.6 705.5 C652.58 721.32 652.56 737.14 652.54 752.96 C652.54 753.64 652.54 754.32 652.54 755.02 C652.54 758.45 652.53 761.88 652.53 765.32 C652.53 765.99 652.53 766.67 652.53 767.37 C652.52 768.74 652.52 770.11 652.52 771.48 C652.49 794.73 652.46 817.98 652.42 841.23 C652.39 855.16 652.37 869.08 652.36 883.01 C652.36 892.55 652.34 902.09 652.32 911.62 C652.31 917.13 652.3 922.64 652.3 928.15 C652.3 933.19 652.29 938.22 652.28 943.26 C652.27 945.09 652.27 946.91 652.28 948.74 C652.28 951.22 652.27 953.69 652.26 956.17 C652.26 956.88 652.27 957.6 652.27 958.33 C652.23 962.6 651.49 966.01 650 970 C649.77 972.01 649.6 974.04 649.5 976.06 C648.36 993.43 648.36 993.43 645 1000 C644.59 1002.09 644.59 1002.09 644.44 1004.19 C644 1008 644 1008 643 1009 C642.72 1010.77 642.48 1012.54 642.25 1014.31 C641.36 1019.92 639.67 1024.6 637.37 1029.77 C635.31 1034.64 633.73 1039.63 632.11 1044.65 C631.17 1047.49 630.15 1050.24 629 1053 C628.34 1053 627.68 1053 627 1053 C627 1054.65 627 1056.3 627 1058 C626.34 1058 625.68 1058 625 1058 C624.71 1059.22 624.42 1060.43 624.12 1061.69 C623.32 1064.92 622.34 1067.94 621 1071 C620.34 1071 619.68 1071 619 1071 C618.86 1071.78 618.71 1072.57 618.56 1073.38 C618 1076 618 1076 617 1078 C616.34 1078 615.68 1078 615 1078 C614.67 1079.65 614.34 1081.3 614 1083 C613.34 1083 612.68 1083 612 1083 C611.91 1083.7 611.81 1084.4 611.71 1085.12 C610.86 1088.56 609.39 1091.09 607.56 1094.12 C606.95 1095.16 606.33 1096.19 605.69 1097.26 C604.5 1099.19 603.26 1101.11 602 1103 C601.34 1103 600.68 1103 600 1103 C599.81 1103.78 599.63 1104.57 599.44 1105.38 C597.43 1110.43 594.49 1114.83 591 1119 C590.34 1119 589.68 1119 589 1119 C588.75 1119.6 588.5 1120.2 588.25 1120.81 C587 1123 587 1123 585.06 1124.44 C582.86 1125.9 582.86 1125.9 581.62 1128.31 C576.33 1137.09 567.62 1145.15 560 1152 C559.34 1152 558.68 1152 558 1152 C558 1152.66 558 1153.32 558 1154 C557.34 1154 556.68 1154 556 1154 C555.67 1154.99 555.34 1155.98 555 1157 C549.63 1161 549.63 1161 547 1161 C546.67 1161.99 546.34 1162.98 546 1164 C544.05 1165.7 542.13 1167.27 540.06 1168.81 C539.48 1169.26 538.89 1169.7 538.28 1170.16 C534.12 1173.27 529.84 1176.05 525.33 1178.64 C522.96 1180.02 520.71 1181.52 518.44 1183.06 C514.1 1185.99 509.62 1188.55 505 1191 C504.28 1191.38 503.57 1191.77 502.83 1192.16 C499.24 1194.04 496.08 1195.49 492 1196 C492 1196.66 492 1197.32 492 1198 C491.32 1198.27 490.64 1198.54 489.94 1198.81 C487.8 1199.68 485.68 1200.58 483.56 1201.5 C480.4 1202.83 477.25 1203.92 474 1205 C472.4 1205.71 472.4 1205.71 470.77 1206.43 C467.14 1208.01 463.46 1209.07 459.62 1210.06 C458.97 1210.23 458.32 1210.4 457.65 1210.58 C453.99 1211.52 450.32 1212.39 446.62 1213.19 C443.21 1213.61 443.21 1213.61 442 1215 C439.55 1215.29 437.1 1215.45 434.64 1215.62 C431.98 1215.89 431.98 1215.89 429.55 1217 C426.59 1218.16 424.05 1218.38 420.88 1218.56 C417.62 1218.76 415.1 1218.97 412 1220 C410.25 1220.09 408.5 1220.13 406.75 1220.13 C405.68 1220.13 404.61 1220.14 403.5 1220.14 C402.35 1220.14 401.19 1220.13 400 1220.13 C398.22 1220.13 398.22 1220.13 396.4 1220.14 C393.89 1220.14 391.38 1220.13 388.87 1220.13 C385.02 1220.13 381.16 1220.13 377.31 1220.14 C374.87 1220.14 372.44 1220.13 370 1220.13 C368.84 1220.13 367.69 1220.14 366.5 1220.14 C365.42 1220.14 364.35 1220.13 363.25 1220.13 C362.31 1220.13 361.36 1220.13 360.39 1220.13 C358 1220 358 1220 355 1219 C351.76 1218.54 348.52 1218.14 345.27 1217.75 C340.1 1217.1 340.1 1217.1 339 1216 C337.55 1215.84 336.09 1215.72 334.62 1215.62 C326.66 1214.9 319.24 1212.58 311.81 1209.68 C308.93 1208.6 305.96 1207.84 303 1207 C300.89 1206.35 298.79 1205.68 296.69 1205 C295.66 1204.67 294.63 1204.34 293.57 1204 C291 1203 291 1203 289 1201 C287.43 1200.49 285.85 1200.04 284.25 1199.62 C279.86 1198.38 276.73 1196.66 273 1194 C271.38 1193.29 269.76 1192.58 268.12 1191.91 C265.33 1190.71 262.61 1189.4 259.88 1188.06 C258.88 1187.58 257.89 1187.1 256.87 1186.6 C253.95 1184.97 251.59 1183.1 249 1181 C246.95 1179.72 244.89 1178.47 242.81 1177.25 C237.5 1174.07 232.68 1170.54 227.93 1166.57 C226.08 1164.95 226.08 1164.95 224 1164 C224 1163.34 224 1162.68 224 1162 C223.01 1161.67 222.02 1161.34 221 1161 C220.67 1160.34 220.34 1159.68 220 1159 C218.89 1158.35 218.89 1158.35 217.75 1157.69 C214.67 1155.79 212.52 1153.59 210 1151 C208.9 1150.09 207.8 1149.2 206.69 1148.31 C205.36 1147.17 205.36 1147.17 204 1146 C204 1145.34 204 1144.68 204 1144 C203.34 1144 202.68 1144 202 1144 C202 1143.34 202 1142.68 202 1142 C200.35 1141.34 198.7 1140.68 197 1140 C197 1139.01 197 1138.02 197 1137 C196.34 1137 195.68 1137 195 1137 C193.67 1135.43 193.67 1135.43 192.19 1133.31 C190.38 1130.82 188.69 1128.69 186.5 1126.5 C183.82 1123.82 181.65 1120.98 179.42 1117.92 C178.25 1116.34 177.01 1114.82 175.75 1113.31 C174 1111 174 1111 172.94 1108.25 C172.63 1107.51 172.32 1106.77 172 1106 C171.01 1105.67 170.02 1105.34 169 1105 C167.81 1101.94 167.81 1101.94 167 1099 C166.34 1099 165.68 1099 165 1099 C164.71 1098.24 164.42 1097.47 164.12 1096.69 C162.83 1093.6 161.37 1091.37 159 1089 C158.19 1086.69 157.54 1084.35 156.88 1082 C156.44 1081.01 156.44 1081.01 156 1080 C155.01 1079.67 154.02 1079.34 153 1079 C152.67 1077.35 152.34 1075.7 152 1074 C151.34 1074 150.68 1074 150 1074 C149.88 1073.28 149.75 1072.56 149.62 1071.81 C149.01 1069.04 148.12 1066.6 147 1064 C146.34 1064 145.68 1064 145 1064 C144.92 1063.17 144.83 1062.35 144.75 1061.5 C143.68 1056.53 141.36 1052.41 138.87 1048.01 C138 1046 138 1046 138 1042 C137.34 1041.67 136.68 1041.34 136 1041 C135.51 1039.43 135.04 1037.85 134.62 1036.26 C133.9 1033.65 133.02 1031.12 132.12 1028.56 C130.04 1022.38 128.47 1016.14 126.94 1009.81 C126.17 1006.67 125.3 1003.59 124.38 1000.5 C122.91 995.28 122.27 990.04 121.73 984.66 C121.3 980.51 120.33 976.94 119 973 C118.06 966.05 117.88 959.03 118.06 952.02 C118.09 949.79 118.09 949.79 117 947 C116.91 945.42 116.88 943.84 116.89 942.25 C116.89 941.29 116.89 940.33 116.89 939.34 C116.89 938.31 116.9 937.27 116.9 936.21 C116.9 934.62 116.9 934.62 116.91 932.99 C116.91 929.6 116.92 926.21 116.94 922.81 C116.94 920.51 116.95 918.21 116.95 915.92 C116.96 910.28 116.98 904.64 117 899 C116.31 898.95 115.63 898.9 114.92 898.85 C114.02 898.78 113.12 898.7 112.19 898.62 C110.85 898.52 110.85 898.52 109.48 898.41 C107 898 107 898 104 896 C102.66 895.68 101.3 895.41 99.94 895.19 C86.66 892.44 76.57 884.06 69.14 873.09 C68 871 68 871 68 868 C67.01 868 66.02 868 65 868 C64.73 867.13 64.73 867.13 64.45 866.24 C63.28 862.6 62.09 859.18 60.38 855.75 C59.02 853.04 58.56 850.95 58 848 C57.52 846.12 57.02 844.25 56.5 842.38 C56.24 841.43 55.98 840.49 55.72 839.52 C55.19 837.67 54.61 835.83 54 834 C53.85 832.23 53.75 830.45 53.68 828.68 C53.62 827.13 53.62 827.13 53.56 825.56 C53.52 824.49 53.48 823.42 53.44 822.31 C53.39 821.23 53.35 820.15 53.31 819.03 C53.2 816.35 53.1 813.68 53 811 C52.67 811 52.34 811 52 811 C52 793.51 52 776.02 52 758 C49.69 757.67 47.38 757.34 45 757 C42.65 756.38 40.32 755.71 38 755 C36.77 754.64 36.77 754.64 35.51 754.27 C31.25 753.02 27.12 751.69 23 750 C21.92 749.57 21.92 749.57 20.82 749.14 C9.78 744.78 -1.38 740.31 -12 735 C-12 734.34 -12 733.68 -12 733 C-12.72 732.88 -13.44 732.75 -14.19 732.62 C-16.96 732.01 -19.4 731.12 -22 730 C-22 729.34 -22 728.68 -22 728 C-22.7 727.91 -23.4 727.81 -24.12 727.71 C-27.56 726.86 -30.09 725.39 -33.12 723.56 C-34.68 722.64 -34.68 722.64 -36.26 721.69 C-38.19 720.5 -40.11 719.26 -42 718 C-42 717.34 -42 716.68 -42 716 C-43.32 716 -44.64 716 -46 716 C-46 715.34 -46 714.68 -46 714 C-46.7 713.75 -47.4 713.5 -48.12 713.25 C-51.4 711.83 -54.14 710.13 -57 708 C-57 707.34 -57 706.68 -57 706 C-58.98 705.34 -60.96 704.68 -63 704 C-63 703.34 -63 702.68 -63 702 C-64.08 701.64 -64.08 701.64 -65.19 701.27 C-68.4 699.82 -70.39 698.05 -72.94 695.62 C-75.73 693.03 -78.39 690.58 -81.62 688.56 C-82.8 687.79 -82.8 687.79 -84 687 C-84 686.34 -84 685.68 -84 685 C-84.66 685 -85.32 685 -86 685 C-88.63 682.62 -88.63 682.62 -91 680 C-91 679.34 -91 678.68 -91 678 C-91.99 677.67 -92.98 677.34 -94 677 C-94 676.34 -94 675.68 -94 675 C-94.6 674.73 -95.2 674.46 -95.81 674.19 C-98 673 -99.41 671.9 -101 670 C-101 669.34 -101 668.68 -101 668 C-101.66 668 -102.32 668 -103 668 C-107.59 663.88 -110.35 659.49 -113 654 C-113.66 654 -114.32 654 -115 654 C-115.27 653.2 -115.54 652.39 -115.81 651.56 C-116.2 650.72 -116.6 649.87 -117 649 C-117.99 648.67 -118.98 648.34 -120 648 C-120.69 645.94 -120.69 645.94 -121 644 C-121.66 644 -122.32 644 -123 644 C-123.66 642.02 -124.32 640.04 -125 638 C-125.99 638 -126.98 638 -128 638 C-128.65 636.36 -128.65 636.36 -129.31 634.69 C-130.52 631.85 -131.71 630.09 -134 628 C-134.67 626.67 -135.33 625.33 -136 624 C-136.66 623.67 -137.32 623.34 -138 623 C-138.12 621.87 -138.25 620.73 -138.38 619.56 C-138.58 618.39 -138.79 617.21 -139 616 C-140.32 615.3 -141.65 614.63 -143 614 C-143.75 610.88 -143.75 610.88 -144 608 C-144.66 608 -145.32 608 -146 608 C-147.4 605.19 -148.81 602.39 -150.21 599.58 C-151.42 597.15 -152.65 594.72 -153.89 592.3 C-154.2 591.68 -154.51 591.07 -154.83 590.44 C-155.71 588.7 -156.6 586.96 -157.48 585.23 C-158.91 582.18 -159.96 579.19 -161 576 C-162.48 572.49 -164.02 569.02 -165.56 565.54 C-166.97 562.06 -168 558.61 -169 555 C-169.5 553.8 -169.99 552.61 -170.5 551.38 C-172.29 546.76 -172.8 542.04 -173.47 537.15 C-173.92 534.45 -174.54 532.17 -175.5 529.62 C-177.47 524.3 -177.93 518.76 -178.57 513.16 C-178.81 510.11 -178.81 510.11 -180 508 C-179.34 508 -178.68 508 -178 508 C-178.33 507.49 -178.65 506.99 -178.99 506.46 C-180.34 503.16 -180.26 500.08 -180.23 496.57 C-180.23 495.83 -180.23 495.09 -180.23 494.32 C-180.23 491.88 -180.21 489.43 -180.2 486.98 C-180.19 485.29 -180.19 483.59 -180.19 481.89 C-180.18 477.42 -180.16 472.96 -180.14 468.49 C-180.11 463.13 -180.1 457.78 -180.09 452.42 C-180.07 444.28 -180.03 436.14 -180 428 C-159.7 427.5 -159.7 427.5 -139 427 C-138.99 423.3 -138.98 419.6 -138.98 415.79 C-138.9 381.89 -138.82 347.98 -138.72 314.08 C-138.71 309.64 -138.69 305.2 -138.68 300.75 C-138.68 299.87 -138.68 298.99 -138.68 298.08 C-138.64 283.75 -138.6 269.42 -138.57 255.09 C-138.54 240.4 -138.5 225.7 -138.46 211.01 C-138.43 201.94 -138.41 192.87 -138.39 183.8 C-138.38 177.58 -138.36 171.36 -138.34 165.15 C-138.33 161.56 -138.32 157.97 -138.32 154.38 C-138.31 150.49 -138.3 146.61 -138.28 142.72 C-138.28 141.58 -138.28 140.44 -138.28 139.26 C-138.28 138.22 -138.27 137.19 -138.26 136.11 C-138.26 135.22 -138.26 134.32 -138.25 133.39 C-137.98 130.82 -137.21 129.26 -136 127 C-135.83 124.33 -135.83 124.33 -136 122 C-135.34 121.67 -134.68 121.34 -134 121 C-133.74 119.01 -133.48 117.01 -133.27 115.01 C-132.95 112.64 -132.4 110.95 -131 109 C-130.01 108.67 -129.02 108.34 -128 108 C-128.04 107.07 -128.08 106.14 -128.12 105.19 C-128 102 -128 102 -126 99 C-125.35 97.71 -124.75 96.39 -124.19 95.06 C-122.81 92.66 -121.28 91.52 -119 90 C-119.33 89.34 -119.66 88.68 -120 88 C-119.34 88 -118.68 88 -118 88 C-117.34 85.69 -116.68 83.38 -116 81 C-115.34 81.66 -114.68 82.32 -114 83 C-113.38 82.17 -112.76 81.35 -112.12 80.5 C-111.42 79.67 -110.72 78.85 -110 78 C-109.34 78 -108.68 78 -108 78 C-106.79 75.67 -105.83 73.5 -105 71 C-104.34 71 -103.68 71 -103 71 C-102.5 69.52 -102.5 69.52 -102 68 C-99.75 66.5 -99.75 66.5 -97 65 C-93.35 62.89 -89.95 60.57 -86.55 58.09 C-85 57 -85 57 -83 56 C-83 55.67 -83 55.34 -83 55 C-81.35 55 -79.7 55 -78 55 C-78 54.34 -78 53.68 -78 53 C-76.35 53 -74.7 53 -73 53 C-72.67 52.01 -72.34 51.02 -72 50 C-70.02 49.67 -68.04 49.34 -66 49 C-66 48.67 -66 48.34 -66 48 C-65.45 47.89 -64.91 47.78 -64.35 47.67 C-58.74 46.49 -53.39 44.91 -48 43 C-48 41.35 -48 39.7 -48 38 C-47.34 38 -46.68 38 -46 38 C-46 36.35 -46 34.7 -46 33 C-45.34 33 -44.68 33 -44 33 C-43.55 31.87 -43.09 30.73 -42.62 29.56 C-41 26 -41 26 -39 25 C-38.01 23.52 -38.01 23.52 -37 22 C-35.92 21.03 -34.82 20.1 -33.69 19.19 C-31.3 17.21 -29.39 15.31 -27.56 12.81 C-24.24 9.17 -21.67 8.45 -17 7 C-15.72 6.36 -14.45 5.7 -13.2 5 C-9.96 3.53 -6.64 3.14 -3.14 2.56 C-2.44 2.38 -1.73 2.19 -1 2 C-0.67 1.34 -0.34 0.68 0 0 Z M-1 49 C-2.22 51.06 -2.22 51.06 -3 53 C-3.66 53 -4.32 53 -5 53 C-8.89 58 -8.71 63.25 -8.48 69.32 C-7.79 74.63 -6 77.54 -2 81 C-1.49 81.45 -0.99 81.9 -0.46 82.36 C4.7 86.05 10.93 85.84 17 85 C21.48 82.8 24.62 79.65 28 76 C29.14 74.95 29.14 74.95 30.31 73.88 C32.98 69.33 32.79 65.13 32 60 C30.78 56.34 29.4 53.03 27 50 C24.52 48.75 24.52 48.75 22 48 C20.66 47.35 19.32 46.69 18 46 C18 45.67 18 45.34 18 45 C11.03 44.54 4.67 44.4 -1 49 Z M252 51 C250.01 53.87 248.91 56.64 248 60 C247.81 60.67 247.61 61.35 247.41 62.04 C246.2 67.8 248.1 72.14 251 77 C252.96 79.31 254.32 80.66 257 82 C257.33 82.66 257.66 83.32 258 84 C261.68 85.03 265.26 85.16 269.06 85.19 C270.08 85.2 271.11 85.22 272.16 85.23 C277.64 84.79 280.42 82.04 284 78 C288.34 71.86 287.61 64.36 286.61 57.2 C286.31 56.11 286.31 56.11 286 55 C284.07 53.91 284.07 53.91 282 53 C281.71 52.38 281.42 51.76 281.12 51.12 C279.42 47.91 277.33 46.27 274 45 C265.48 43.55 258.42 45.09 252 51 Z M254 46 C254 46.66 254 47.32 254 48 C254.66 47.67 255.32 47.34 256 47 C255.34 46.67 254.68 46.34 254 46 Z M-6 49 C-6 49.66 -6 50.32 -6 51 C-5.34 50.67 -4.68 50.34 -4 50 C-4.66 49.67 -5.32 49.34 -6 49 Z M324 93 C325 95 325 95 325 95 Z M64 98 C64 98.66 64 99.32 64 100 C63.01 100.5 63.01 100.5 62 101 C62.99 101.33 63.98 101.66 65 102 C65.66 100.68 66.32 99.36 67 98 C66.01 98 65.02 98 64 98 Z M317 100 C318.49 100.99 318.49 100.99 320 102 C320 101.34 320 100.68 320 100 C319.01 100 318.02 100 317 100 Z M59 108 C60 110 60 110 60 110 Z M54 110 C54 110.99 54 111.98 54 113 C54.99 112.67 55.98 112.34 57 112 C56.67 111.34 56.34 110.68 56 110 C55.34 110 54.68 110 54 110 Z M309 110 C309 110.99 309 111.98 309 113 C309.99 112.67 310.98 112.34 312 112 C312 111.34 312 110.68 312 110 C311.01 110 310.02 110 309 110 Z M-85 113 C-84.34 113.66 -83.68 114.32 -83 115 C-83 114.34 -83 113.68 -83 113 C-83.66 113 -84.32 113 -85 113 Z M48 115 C48.66 115.66 49.32 116.32 50 117 C50 116.34 50 115.68 50 115 C49.34 115 48.68 115 48 115 Z M44 118 C44 118.99 44 119.98 44 121 C44.99 120.67 45.98 120.34 47 120 C46.67 119.34 46.34 118.68 46 118 C45.34 118 44.68 118 44 118 Z M724 383 C724 383.99 724 384.98 724 386 C724.99 385.67 725.98 385.34 727 385 C727 384.34 727 383.68 727 383 C726.01 383 725.02 383 724 383 Z M709 393 C709 393.66 709 394.32 709 395 C708.34 395 707.68 395 707 395 C707 395.99 707 396.98 707 398 C709 397.21 709 397.21 711 396 C711.33 395.01 711.66 394.02 712 393 C711.01 393 710.02 393 709 393 Z M684 418 C684 418.66 684 419.32 684 420 C683.34 420 682.68 420 682 420 C682 420.99 682 421.98 682 423 C684 422.21 684 422.21 686 421 C686.33 420.01 686.66 419.02 687 418 C686.01 418 685.02 418 684 418 Z M944 418 C945 420 945 420 945 420 Z M677 428 C678 430 678 430 678 430 Z M679 428 C680 430 680 430 680 430 Z M672 435 C673.49 435.99 673.49 435.99 675 437 C675 436.34 675 435.68 675 435 C674.01 435 673.02 435 672 435 Z M-134 470 C-134 470.33 -134 470.66 -134 471 C-115.19 471 -96.38 471 -77 471 C-77 470.67 -77 470.34 -77 470 C-95.81 470 -114.62 470 -134 470 Z M374 472 C373.66 474.39 373.66 474.39 373.66 477.17 C373.63 478.22 373.6 479.27 373.57 480.36 C373.55 481.48 373.52 482.6 373.5 483.75 C372.78 507.5 372.78 507.5 369 515 C368.66 517.05 368.66 517.05 368.56 519.19 C368.1 524.11 366.73 528.39 365 533 C364.75 533.67 364.5 534.34 364.24 535.03 C363.75 536.34 363.26 537.64 362.76 538.95 C361.92 541.23 361.1 543.51 360.31 545.81 C360.06 546.54 359.81 547.27 359.55 548.02 C358.87 550.14 358.87 550.14 359 553 C358.34 553 357.68 553 357 553 C357 554.65 357 556.3 357 558 C356.34 558 355.68 558 355 558 C354.63 558.96 354.63 558.96 354.25 559.94 C351.08 567.71 347.62 574.83 342.79 581.73 C340.46 585.02 340.46 585.02 340 589 C339.34 589 338.68 589 338 589 C336.63 590.72 336.63 590.72 335.38 592.88 C334.93 593.59 334.48 594.31 334.02 595.05 C332.84 596.93 332.84 596.93 333 599 C332.34 599 331.68 599 331 599 C329.42 600.45 329.42 600.45 327.88 602.31 C327.34 602.93 326.8 603.54 326.24 604.18 C324.72 606.05 324.72 606.05 325 609 C324.34 609 323.68 609 323 609 C321.57 610.42 321.57 610.42 320.06 612.31 C313.67 619.81 306.84 627.02 298.78 632.73 C297.02 633.99 295.39 635.34 293.75 636.75 C291.51 638.58 289.64 639.88 287 641 C287 641.66 287 642.32 287 643 C286.46 643.27 285.92 643.53 285.36 643.8 C282.62 645.19 279.94 646.65 277.25 648.12 C276.27 648.66 275.28 649.2 274.27 649.76 C273.52 650.17 272.77 650.58 272 651 C272 651.66 272 652.32 272 653 C271.17 653.25 270.33 653.5 269.48 653.76 C265.58 655.15 262.04 656.91 258.38 658.81 C251.7 662.21 244.98 665.28 238 668 C237.12 668.35 236.25 668.69 235.34 669.05 C228.89 671.51 222.33 673.33 215.65 675.05 C212.46 675.88 209.29 676.77 206.12 677.69 C202.1 678.8 198.24 679.43 194.07 679.69 C191.92 679.92 191.92 679.92 189.77 680.99 C186.03 682.35 182.51 682.42 178.56 682.56 C177.08 682.62 175.61 682.69 174.13 682.75 C173.48 682.78 172.83 682.8 172.16 682.83 C169.87 682.98 169.87 682.98 167.1 683.5 C161.92 684.33 156.74 684.19 151.5 684.19 C150.31 684.19 149.12 684.19 147.9 684.19 C140.13 684.13 132.43 683.82 124.69 683.12 C123.79 683.05 122.9 682.97 121.98 682.89 C117.37 682.42 113.38 681.58 109 680 C107.07 679.62 105.13 679.29 103.19 679 C95.91 677.84 88.96 676.58 82.12 673.78 C79.13 672.68 76.06 671.87 73 671 C70.45 670.18 67.91 669.35 65.38 668.5 C64.73 668.29 64.09 668.07 63.43 667.86 C58.28 666.14 53.29 664.16 48.31 662 C47.55 661.67 46.78 661.34 45.99 661 C44 660 44 660 42 658 C39.37 656.85 36.73 655.91 34 655 C33.67 654.34 33.34 653.68 33 653 C31.27 652.26 31.27 652.26 29.5 651.5 C26 650 26 650 25 648 C23.44 647.18 21.85 646.42 20.25 645.69 C16.01 643.64 13.21 641.48 10 638 C7.3 636.2 5.08 635.03 2 634 C2 633.34 2 632.68 2 632 C0.35 631.34 -1.3 630.68 -3 630 C-3 629.34 -3 628.68 -3 628 C-3.99 628 -4.98 628 -6 628 C-6.25 627.44 -6.5 626.89 -6.75 626.31 C-8.67 622.77 -11.16 619.84 -14 617 C-14.99 617 -15.98 617 -17 617 C-17.33 616.01 -17.66 615.02 -18 614 C-18.66 614 -19.32 614 -20 614 C-20 613.01 -20 612.02 -20 611 C-21.14 609.82 -22.29 608.66 -23.5 607.54 C-25.86 605.12 -27.73 602.34 -29.67 599.57 C-30.11 599.05 -30.55 598.54 -31 598 C-31.66 598 -32.32 598 -33 598 C-33.06 597.09 -33.12 596.18 -33.19 595.25 C-34.19 591.24 -35.56 590.18 -39 588 C-39.66 588 -40.32 588 -41 588 C-40.5 586.51 -40.5 586.51 -40 585 C-40.87 582.83 -40.87 582.83 -42.25 580.62 C-42.72 579.83 -43.18 579.04 -43.66 578.23 C-44.1 577.49 -44.54 576.76 -45 576 C-45.56 574.99 -46.11 573.98 -46.69 572.94 C-47.12 572.3 -47.55 571.66 -48 571 C-48.66 571 -49.32 571 -50 571 C-50.16 570.04 -50.16 570.04 -50.33 569.07 C-50.49 568.24 -50.65 567.41 -50.81 566.56 C-50.96 565.74 -51.11 564.92 -51.27 564.07 C-51.63 563.04 -51.63 563.04 -52 562 C-53.48 561.5 -53.48 561.5 -55 561 C-55.59 559.25 -55.59 559.25 -55.94 557 C-56.57 553.7 -57.37 550.9 -58.81 547.88 C-63.39 538.1 -66.37 527.44 -69 517 C-69.18 516.33 -69.37 515.65 -69.55 514.96 C-71.7 506.42 -73 496.8 -73 488 C-73.11 486.04 -73.24 484.08 -73.38 482.12 C-73.48 480.55 -73.48 480.55 -73.59 478.95 C-73.98 476.13 -74.68 474.47 -76 472 C-83.66 471.85 -91.32 471.7 -98.97 471.56 C-102.53 471.49 -106.09 471.42 -109.64 471.35 C-113.73 471.27 -117.81 471.19 -121.9 471.12 C-123.82 471.08 -123.82 471.08 -125.78 471.04 C-127.55 471.01 -127.55 471.01 -129.36 470.98 C-130.4 470.96 -131.44 470.94 -132.52 470.92 C-135 470.83 -135 470.83 -137 472 C-136.91 476.18 -136.8 480.36 -136.68 484.54 C-136.64 485.96 -136.61 487.38 -136.58 488.81 C-136.53 490.85 -136.47 492.9 -136.41 494.95 C-136.37 496.8 -136.37 496.8 -136.32 498.68 C-136.01 501.87 -135.3 504.1 -134 507 C-133.69 509.51 -133.69 509.51 -133.56 512.12 C-133.11 518.03 -131.68 523.35 -130 529 C-129.5 530.9 -129 532.79 -128.5 534.69 C-127.44 538.57 -126.21 542.3 -124.75 546.04 C-123.37 549.65 -122.2 553.33 -121 557 C-120.44 558.69 -119.88 560.38 -119.31 562.06 C-118.88 563.38 -118.44 564.69 -118 566 C-117.34 566 -116.68 566 -116 566 C-115.91 566.66 -115.82 567.33 -115.72 568.01 C-114.79 571.88 -113.17 575.24 -111.44 578.81 C-111.11 579.51 -110.78 580.2 -110.44 580.91 C-109.63 582.61 -108.82 584.31 -108 586 C-107.34 586 -106.68 586 -106 586 C-105.34 587.98 -104.68 589.96 -104 592 C-103.34 592 -102.68 592 -102 592 C-101.93 592.69 -101.85 593.38 -101.77 594.09 C-100.79 597.79 -98.85 600.46 -96.62 603.5 C-92.2 609.66 -92.2 609.66 -90.34 612.91 C-89.9 613.6 -89.45 614.29 -89 615 C-88.34 615 -87.68 615 -87 615 C-86.73 615.56 -86.46 616.11 -86.19 616.69 C-83.91 621.12 -81.59 624.53 -78 628 C-77.67 628.66 -77.34 629.32 -77 630 C-76.34 630 -75.68 630 -75 630 C-74.8 630.53 -74.59 631.07 -74.38 631.62 C-72.43 634.99 -69.74 637.39 -66.94 640.06 C-61.13 645.6 -61.13 645.6 -60 649 C-57.36 650.81 -55.05 651.98 -52 653 C-52 653.66 -52 654.32 -52 655 C-51.4 655.26 -50.8 655.52 -50.18 655.79 C-47.85 657.08 -46.74 658.28 -45.12 660.38 C-42.36 663.73 -39.8 665.89 -36 668 C-35.01 668 -34.02 668 -33 668 C-33 668.99 -33 669.98 -33 671 C-32.03 671.29 -31.06 671.58 -30.06 671.88 C-27 673 -27 673 -26 675 C-24.51 675.99 -24.51 675.99 -23 677 C-22.67 677.66 -22.34 678.32 -22 679 C-21.01 679.33 -20.02 679.66 -19 680 C-17.32 681.03 -15.65 682.1 -14 683.19 C-10.08 685.71 -6.13 688.15 -2.06 690.44 C-1.19 690.93 -0.31 691.42 0.59 691.93 C3.17 693.27 3.17 693.27 7 693 C7.33 693.99 7.66 694.98 8 696 C10.24 697.07 10.24 697.07 13 698 C16.29 699.57 19.57 701.16 22.84 702.76 C25.87 703.95 27.79 704.28 31 704 C31 704.66 31 705.32 31 706 C34.58 707 34.58 707 38 706 C38.33 706.99 38.66 707.98 39 709 C42.3 710.2 42.3 710.2 46 711 C47.39 711.34 47.39 711.34 48.81 711.69 C51.04 712.22 51.04 712.22 53 711 C53.33 711.99 53.66 712.98 54 714 C54.64 714.12 55.28 714.24 55.94 714.37 C61.05 715.36 65.99 716.57 71 718 C77.12 719.35 83.29 720.43 89.46 721.54 C91.21 721.86 92.96 722.2 94.7 722.56 C96.94 723.06 96.94 723.06 99 723 C100.42 723.32 101.83 723.65 103.24 723.99 C109.86 725.33 116.37 725.25 123.1 725.2 C125.08 725.19 125.08 725.19 127.09 725.19 C130.56 725.18 134.03 725.16 137.5 725.14 C141.05 725.12 144.61 725.11 148.16 725.1 C155.11 725.08 162.05 725.04 169 725 C169 724.67 169 724.34 169 724 C170.28 723.95 171.55 723.9 172.87 723.85 C174.54 723.78 176.21 723.7 177.88 723.62 C178.72 723.59 179.56 723.56 180.43 723.53 C181.23 723.49 182.04 723.45 182.87 723.41 C183.61 723.38 184.35 723.35 185.12 723.32 C187.24 723.15 187.24 723.15 189 721 C191.57 720.62 191.57 720.62 194.56 720.44 C198.09 720.5 198.09 720.5 201 719 C203.55 718.72 206.1 718.55 208.65 718.38 C211.19 718.21 211.19 718.21 213 716 C215.28 715.66 215.28 715.66 217.94 715.5 C221.62 715.28 222.82 715.12 226 713 C227.67 712.66 229.33 712.33 231 712 C232.35 711.37 233.68 710.7 235 710 C237.33 709.22 239.56 708.62 241.94 708.06 C244.85 707.35 247.39 706.52 250 705 C250 704.34 250 703.68 250 703 C250.95 703.04 251.9 703.08 252.88 703.12 C256.1 703.35 256.1 703.35 258 701 C258.76 700.88 259.53 700.75 260.31 700.62 C263.67 699.84 265.36 698.16 268 696 C270.31 695.25 270.31 695.25 272 695 C272 694.34 272 693.68 272 693 C272.52 692.88 273.03 692.75 273.56 692.62 C279.82 691.34 279.82 691.34 285 688 C285.66 688 286.32 688 287 688 C289.67 685.67 289.67 685.67 292 683 C292 682.34 292 681.68 292 681 C292.99 681.33 293.98 681.66 295 682 C295.34 681.04 295.34 681.04 295.69 680.06 C296.12 679.38 296.55 678.7 297 678 C298.66 677.63 300.33 677.3 302 677 C305.51 674.94 308.53 672.57 311.56 669.88 C313.66 668.02 314.97 667.01 317.62 666 C320.49 664.79 321.8 663.02 323.67 660.59 C325.07 658.92 326.55 657.62 328.25 656.25 C331.02 654.29 331.02 654.29 332 652 C332.58 651.9 333.15 651.79 333.75 651.69 C337.09 650.67 338.73 648.58 341 646 C341.33 645.01 341.66 644.02 342 643 C343.32 642.31 344.66 641.65 346 641 C348.18 639.17 348.18 639.17 350.25 637.06 C350.96 636.37 351.66 635.68 352.39 634.97 C354.32 633.04 354.32 633.04 354 630 C356.37 627.36 358.81 625.15 361.62 623 C364.2 620.83 365.36 618.93 367 616 C367.82 614.82 368.66 613.66 369.5 612.5 C371 610.43 372.37 608.39 373.69 606.19 C375 604 375 604 377 602 C377 600.68 377 599.36 377 598 C377.61 597.77 378.22 597.54 378.84 597.3 C381.59 595.65 382.2 594.15 383.5 591.25 C384.94 588.17 386.36 585.29 388.31 582.5 C390.19 580.23 390.19 580.23 390 578 C390.66 578 391.32 578 392 578 C392.25 577.05 392.5 576.1 392.75 575.12 C394.73 568.18 397.54 561.45 401.03 555.13 C402.69 551.49 403.34 547.57 404.22 543.68 C405 541 405 541 407 539 C407.4 536.68 407.74 534.34 408 532 C408.33 532 408.66 532 409 532 C409.05 531.32 409.1 530.65 409.15 529.95 C409.22 529.06 409.3 528.17 409.38 527.25 C409.44 526.37 409.51 525.49 409.59 524.58 C410 522 410 522 411 520.02 C412.26 517.47 412.38 515.33 412.56 512.5 C412.91 507.34 412.91 507.34 413.5 505.12 C414.03 502.86 414.21 500.77 414.32 498.45 C414.38 497.19 414.38 497.19 414.44 495.89 C414.5 494.59 414.5 494.59 414.56 493.25 C414.61 492.36 414.65 491.47 414.69 490.56 C414.8 488.37 414.9 486.19 415 484 C415.33 484 415.66 484 416 484 C416.33 480.04 416.66 476.08 417 472 C413.14 469.43 409.94 469.71 405.46 469.73 C404.63 469.73 403.8 469.73 402.94 469.73 C401.17 469.73 399.41 469.73 397.65 469.74 C394.94 469.75 392.24 469.74 389.54 469.73 C387.83 469.73 386.11 469.73 384.4 469.73 C383.19 469.73 383.19 469.73 381.94 469.72 C377.5 469.58 377.5 469.58 374 472 Z M-136 505 C-135 507 -135 507 -135 507 Z M347 568 C347 568.99 347 569.98 347 571 C347.99 570.67 348.98 570.34 350 570 C350 569.34 350 568.68 350 568 C349.01 568 348.02 568 347 568 Z M339 580 C340.49 580.99 340.49 580.99 342 582 C342 581.34 342 580.68 342 580 C341.01 580 340.02 580 339 580 Z M334 588 C334 588.99 334 589.98 334 591 C334.99 590.67 335.98 590.34 337 590 C337 589.34 337 588.68 337 588 C336.01 588 335.02 588 334 588 Z M329 595 C330 597 330 597 330 597 Z M921 604 C919.34 604.55 917.67 605.09 916 605.62 C912.96 606.65 909.97 607.76 907 609 C905.33 609.67 903.67 610.33 902 611 C902 611.66 902 612.32 902 613 C901.15 613.25 900.31 613.5 899.44 613.75 C892.9 616.13 888.8 619.08 884 624 C882.49 625.18 880.97 626.35 879.44 627.5 C876.09 630.06 873.44 632.52 871 636 C870.42 636.72 869.85 637.44 869.25 638.19 C867.81 639.91 867.81 639.91 868 642 C867.34 642 866.68 642 866 642 C862.66 644.73 861.48 646.71 861 651 C860.34 651 859.68 651 859 651 C858.75 651.66 858.49 652.33 858.23 653.01 C857.89 653.89 857.54 654.78 857.19 655.69 C856.68 656.99 856.68 656.99 856.17 658.32 C855 661 855 661 853.52 663.4 C848.23 672.43 846.42 682.89 845.36 693.15 C845 696 845 696 844 697 C843.87 699.72 843.81 702.4 843.81 705.12 C843.8 705.87 843.79 706.62 843.78 707.39 C843.76 712.29 844.53 716.29 846 721 C846.32 723.53 846.49 726.03 846.66 728.57 C847.04 731.31 847.92 733.46 849 736 C849.61 737.91 850.22 739.83 850.81 741.75 C852.65 747.28 854.94 752.06 858 757 C858.6 757.99 859.19 758.98 859.8 760 C862.29 764.08 862.29 764.08 865 768 C865.66 768 866.32 768 867 768 C867.99 770.48 867.99 770.48 869 773 C869.66 773 870.32 773 871 773 C871.99 775.48 871.99 775.48 873 778 C873.66 778 874.32 778 875 778 C875.04 778.58 875.08 779.15 875.12 779.75 C876.44 783.13 878.98 784.15 882 786 C882.99 786.99 882.99 786.99 884 788 C884.99 788 885.98 788 887 788 C887 788.99 887 789.98 887 791 C888.01 791.57 889.03 792.15 890.07 792.74 C892.54 794.15 895 795.59 897.43 797.07 C903.16 800.51 908.42 803.6 915.12 804.64 C918 805.19 920.39 806.7 923 808 C929 809.78 934.75 810.28 940.97 810.2 C941.78 810.19 942.59 810.19 943.42 810.19 C945.97 810.18 948.52 810.15 951.06 810.12 C952.8 810.11 954.55 810.11 956.29 810.1 C960.52 810.08 964.76 810.04 969 810 C969 809.67 969 809.34 969 809 C969.56 808.89 970.11 808.78 970.69 808.67 C975.36 807.7 979.72 806.47 984.16 804.72 C986.74 803.71 989.37 802.88 992 802 C993.67 801.35 995.34 800.68 997 800 C997 799.34 997 798.68 997 798 C997.57 797.88 998.14 797.76 998.73 797.64 C1005.87 795.63 1011.63 790.92 1017 786 C1018.33 784.83 1019.66 783.66 1021 782.5 C1021.67 781.91 1022.33 781.32 1023.02 780.72 C1024.29 779.62 1025.58 778.53 1026.89 777.47 C1031.09 774.04 1034.12 770.62 1037 766 C1037 765.01 1037 764.02 1037 763 C1037.99 762.67 1038.98 762.34 1040 762 C1040 761.01 1040 760.02 1040 759 C1040.66 758.67 1041.32 758.34 1042 758 C1042 756.35 1042 754.7 1042 753 C1042.6 752.84 1043.2 752.67 1043.81 752.5 C1048.65 749.18 1049.54 741.37 1051 736 C1051.37 734.69 1051.75 733.37 1052.12 732.06 C1052.41 731.05 1052.7 730.04 1053 729 C1053.33 729 1053.66 729 1054 729 C1054.33 723.06 1054.66 717.12 1055 711 C1055.33 711 1055.66 711 1056 711 C1056.03 709.23 1056.05 707.46 1056.06 705.69 C1056.08 704.21 1056.08 704.21 1056.1 702.7 C1056.12 699.9 1056.12 699.9 1055 697 C1054.85 694.58 1054.73 692.17 1054.62 689.75 C1054.34 684.18 1053.54 679.96 1051 675 C1051 673.68 1051 672.36 1051 671 C1050.34 671 1049.68 671 1049 671 C1048.87 669.26 1048.87 669.26 1048.74 667.48 C1048.15 662.84 1046.48 659.35 1044.19 655.31 C1043.67 654.36 1043.67 654.36 1043.15 653.38 C1040.61 648.77 1037.74 644.74 1034 641 C1033.26 640.2 1033.26 640.2 1032.5 639.38 C1031.09 637.77 1031.09 637.77 1029 638 C1028.85 637.1 1028.85 637.1 1028.69 636.19 C1027.88 633.63 1026.99 632.77 1025 631 C1024.07 630.04 1024.07 630.04 1023.12 629.06 C1019.16 624.76 1019.16 624.76 1014 623 C1013.75 622.4 1013.51 621.8 1013.25 621.18 C1008.48 612.85 992.87 607.03 983.97 604.4 C981.88 603.87 979.79 603.36 977.69 602.88 C970.22 601.11 970.22 601.11 968 600 C965.6 599.86 963.23 599.79 960.82 599.76 C960.1 599.75 959.38 599.75 958.64 599.74 C957.11 599.72 955.57 599.71 954.04 599.7 C952.49 599.69 950.94 599.67 949.4 599.64 C939.17 599.45 930.69 600.34 921 604 Z M319 608 C319.33 608.99 319.66 609.98 320 611 C320.66 610.67 321.32 610.34 322 610 C322 609.34 322 608.68 322 608 C321.01 608 320.02 608 319 608 Z M419 610 C419 610.99 419 611.98 419 613 C419.99 612.67 420.98 612.34 422 612 C422 611.34 422 610.68 422 610 C421.01 610 420.02 610 419 610 Z M314 613 C314.33 613.99 314.66 614.98 315 616 C315.66 615.34 316.32 614.68 317 614 C316.01 613.67 315.02 613.34 314 613 Z M414 618 C414 618.99 414 619.98 414 621 C414.99 620.67 415.98 620.34 417 620 C417 619.34 417 618.68 417 618 C416.01 618 415.02 618 414 618 Z M884 618 C884 618.66 884 619.32 884 620 C883.34 620 882.68 620 882 620 C882.33 620.99 882.66 621.98 883 623 C883.99 622.01 884.98 621.02 886 620 C885.34 619.34 884.68 618.68 884 618 Z M879 623 C879 623.99 879 624.98 879 626 C879.99 625.67 880.98 625.34 882 625 C881.67 624.34 881.34 623.68 881 623 C880.34 623 879.68 623 879 623 Z M409 625 C410.49 625.99 410.49 625.99 412 627 C412 626.34 412 625.68 412 625 C411.01 625 410.02 625 409 625 Z M404 633 C404 633.99 404 634.98 404 636 C404.99 635.67 405.98 635.34 407 635 C407 634.34 407 633.68 407 633 C406.01 633 405.02 633 404 633 Z M867 635 C867.33 635.99 867.66 636.98 868 638 C868.66 637.67 869.32 637.34 870 637 C870 636.34 870 635.68 870 635 C869.01 635 868.02 635 867 635 Z M865 638 C864.01 639.49 864.01 639.49 863 641 C863.99 641 864.98 641 866 641 C866 640.01 866 639.02 866 638 C865.67 638 865.34 638 865 638 Z M282 640 C282.33 640.99 282.66 641.98 283 643 C283.66 642.67 284.32 642.34 285 642 C285 641.34 285 640.68 285 640 C284.01 640 283.02 640 282 640 Z M399 640 C399.33 640.99 399.66 641.98 400 643 C400.66 642.67 401.32 642.34 402 642 C402 641.34 402 640.68 402 640 C401.01 640 400.02 640 399 640 Z M280 643 C279.67 643.99 279.34 644.98 279 646 C279.99 645.67 280.98 645.34 282 645 C281.34 644.34 280.68 643.68 280 643 Z M397 643 C397 643.99 397 644.98 397 646 C397.99 645.67 398.98 645.34 400 645 C399.67 644.34 399.34 643.68 399 643 C398.34 643 397.68 643 397 643 Z M392 650 C392.33 650.99 392.66 651.98 393 653 C393.66 652.67 394.32 652.34 395 652 C395 651.34 395 650.68 395 650 C394.01 650 393.02 650 392 650 Z M389 653 C389.33 653.99 389.66 654.98 390 656 C390.66 655.34 391.32 654.68 392 654 C391.01 653.67 390.02 653.34 389 653 Z M388 655 C389 657 389 657 389 657 Z M45 658 C46 660 46 660 46 660 Z M88 673 C89 675 89 675 89 675 Z M342 699 C342 699.66 342 700.32 342 701 C342.66 700.67 343.32 700.34 344 700 C343.34 699.67 342.68 699.34 342 699 Z M324 710 C324 710.99 324 711.98 324 713 C324.66 712.67 325.32 712.34 326 712 C325.34 711.34 324.68 710.68 324 710 Z M97 768 C96.95 774.54 96.91 781.09 96.89 787.63 C96.88 789.85 96.87 792.07 96.85 794.29 C96.06 822.34 96.06 822.34 106 848 C106.66 848 107.32 848 108 848 C108 848.66 108 849.32 108 850 C109.21 850.46 109.21 850.46 110.44 850.94 C113 852 113 852 114 853 C115.59 853.12 117.18 853.18 118.78 853.21 C120.3 853.24 120.3 853.24 121.86 853.27 C126.54 853.32 131.23 853.37 135.91 853.41 C138.38 853.43 140.84 853.46 143.31 853.51 C146.87 853.57 150.42 853.6 153.98 853.62 C155.62 853.66 155.62 853.66 157.3 853.71 C163.65 853.69 167.28 852.99 171.89 848.49 C173.2 847.04 173.2 847.04 173 845 C173.66 845 174.32 845 175 845 C175.48 843.75 175.96 842.5 176.44 841.25 C176.7 840.55 176.97 839.86 177.25 839.14 C178.46 835.7 179.14 832.37 179.56 828.75 C179.78 826.89 179.78 826.89 180 825 C180.33 825 180.66 825 181 825 C181.84 817.96 182.14 811.05 182.1 803.96 C182.1 802.95 182.09 801.95 182.09 800.91 C182.09 797.73 182.08 794.55 182.06 791.38 C182.06 789.2 182.05 787.03 182.05 784.86 C182.04 779.58 182.02 774.29 182 769 C178.97 767.48 176.12 767.87 172.75 767.88 C171.45 767.87 170.14 767.87 168.8 767.87 C165.17 767.9 165.17 767.9 162.31 768.5 C158.28 769.11 154.38 769.14 150.31 769.13 C149.08 769.13 149.08 769.13 147.83 769.14 C146.1 769.14 144.37 769.13 142.64 769.13 C140.01 769.13 137.38 769.13 134.74 769.14 C133.06 769.14 131.37 769.13 129.69 769.13 C128.91 769.13 128.12 769.14 127.32 769.14 C124.14 769.13 121.19 769.03 118.04 768.5 C113.89 767.82 109.82 767.89 105.62 767.94 C104.38 767.94 104.38 767.94 103.11 767.95 C101.07 767.96 99.04 767.98 97 768 Z M1074 783 C1074 783.99 1074 784.98 1074 786 C1074.99 785.67 1075.98 785.34 1077 785 C1077 784.34 1077 783.68 1077 783 C1076.01 783 1075.02 783 1074 783 Z M1069 790 C1070.48 790.99 1070.48 790.99 1072 792 C1072 791.34 1072 790.68 1072 790 C1071.01 790 1070.02 790 1069 790 Z M1062 800 C1062.33 800.99 1062.66 801.98 1063 803 C1063.66 802.67 1064.32 802.34 1065 802 C1065 801.34 1065 800.68 1065 800 C1064.01 800 1063.02 800 1062 800 Z M1059 803 C1059.33 803.99 1059.66 804.98 1060 806 C1060.66 805.34 1061.32 804.68 1062 804 C1061.01 803.67 1060.02 803.34 1059 803 Z M1058 805 C1059 807 1059 807 1059 807 Z M1034 825 C1034 825.99 1034 826.98 1034 828 C1034.66 827.67 1035.32 827.34 1036 827 C1035.34 826.34 1034.68 825.68 1034 825 Z M99 835 C100 837 100 837 100 837 Z M207 870 C207.33 870.99 207.66 871.98 208 873 C208.66 872.67 209.32 872.34 210 872 C210 871.34 210 870.68 210 870 C209.01 870 208.02 870 207 870 Z M204 873 C204 873.99 204 874.98 204 876 C204.99 875.67 205.98 875.34 207 875 C206.67 874.34 206.34 873.68 206 873 C205.34 873 204.68 873 204 873 Z M614 1073 C614 1073.99 614 1074.98 614 1076 C614.99 1075.67 615.98 1075.34 617 1075 C617 1074.34 617 1073.68 617 1073 C616.01 1073 615.02 1073 614 1073 Z M604 1090 C605.49 1090.99 605.49 1090.99 607 1092 C607 1091.34 607 1090.68 607 1090 C606.01 1090 605.02 1090 604 1090 Z M599 1098 C599 1098.99 599 1099.98 599 1101 C599.99 1100.67 600.98 1100.34 602 1100 C602 1099.34 602 1098.68 602 1098 C601.01 1098 600.02 1098 599 1098 Z M594 1105 C594 1105.99 594 1106.98 594 1108 C594.99 1107.67 595.98 1107.34 597 1107 C597 1106.34 597 1105.68 597 1105 C596.01 1105 595.02 1105 594 1105 Z M589 1113 C589.33 1113.99 589.66 1114.98 590 1116 C590.66 1115.67 591.32 1115.34 592 1115 C592 1114.34 592 1113.68 592 1113 C591.01 1113 590.02 1113 589 1113 Z M584 1119 C584 1119.99 584 1120.98 584 1122 C584.66 1121.34 585.32 1120.68 586 1120 C585.34 1119.67 584.68 1119.34 584 1119 Z M579 1128 C580 1130 580 1130 580 1130 Z M553 1153 C552.67 1153.99 552.34 1154.98 552 1156 C552.99 1155.67 553.98 1155.34 555 1155 C554.34 1154.34 553.68 1153.68 553 1153 Z M543 1160 C543 1160.99 543 1161.98 543 1163 C543.66 1162.67 544.32 1162.34 545 1162 C545 1161.34 545 1160.68 545 1160 C544.34 1160 543.68 1160 543 1160 Z M539 1163 C539 1163.99 539 1164.98 539 1166 C539.99 1165.67 540.98 1165.34 542 1165 C541.67 1164.34 541.34 1163.68 541 1163 C540.34 1163 539.68 1163 539 1163 Z M529 1170 C529 1170.99 529 1171.98 529 1173 C529.66 1172.67 530.32 1172.34 531 1172 C530.34 1171.34 529.68 1170.68 529 1170 Z M531 1170 C532 1172 532 1172 532 1172 Z M318 1208 C319 1210 319 1210 319 1210 Z " fill="#000100" transform="translate(180,29)"/>
<path d="M0 0 C14.62 -0.56 26.58 0.68 40 7 C40.74 7.3 41.48 7.59 42.24 7.9 C47.19 9.92 50.37 11.96 54 16 C54.78 16.58 55.55 17.17 56.36 17.77 C65.69 25.65 72.58 39.08 75 51 C75.35 56.22 75.29 61.4 75.19 66.62 C75.17 68.02 75.16 69.42 75.15 70.82 C75.11 74.22 75.06 77.61 75 81 C74.34 81 73.68 81 73 81 C73.07 82.01 73.13 83.02 73.2 84.06 C72.97 88.53 71.87 91.11 69.81 95.06 C69.22 96.23 68.63 97.4 68.02 98.6 C63.05 106.98 63.05 106.98 59 109 C58.71 109.61 58.43 110.22 58.13 110.84 C54.82 117.16 47.14 120.73 40.75 123.18 C38.81 123.87 38.81 123.87 38 126 C36.35 126.39 34.68 126.71 33 127 C32.19 127.25 31.39 127.5 30.55 127.75 C10.22 133.89 -8.73 128.64 -27 119 C-27 118.34 -27 117.68 -27 117 C-28.11 116.63 -28.11 116.63 -29.25 116.25 C-32.23 114.9 -33.9 113.49 -36 111 C-36 110.34 -36 109.68 -36 109 C-37.48 108.5 -37.48 108.5 -39 108 C-42 103.67 -42 103.67 -42 101 C-42.66 101 -43.32 101 -44 101 C-44.25 100.41 -44.51 99.82 -44.77 99.21 C-46.96 94.15 -46.96 94.15 -49.69 89.38 C-51.4 86.27 -51.58 83.51 -52 80 C-52.36 78.54 -52.73 77.08 -53.12 75.62 C-53.41 74.43 -53.7 73.23 -54 72 C-53.51 71.5 -53.51 71.5 -53 71 C-53.16 70.01 -53.33 69.02 -53.5 68 C-54.21 63.54 -53.62 59.44 -53 55 C-52.93 54.31 -52.85 53.61 -52.78 52.89 C-52.3 48.38 -51.48 44.28 -50 40 C-49.01 39.5 -49.01 39.5 -48 39 C-46.61 35.39 -45.67 31.81 -45 28 C-44.01 28 -43.02 28 -42 28 C-41.78 27.46 -41.56 26.91 -41.33 26.35 C-39.57 23.24 -37.21 20.88 -34.69 18.38 C-34.21 17.89 -33.74 17.4 -33.25 16.89 C-30.35 13.99 -27.87 12.32 -24 11 C-23.48 10.46 -22.97 9.93 -22.44 9.38 C-21 8 -21 8 -17 8 C-16.67 7.01 -16.34 6.02 -16 5 C-14.02 4.67 -12.04 4.34 -10 4 C-10 3.67 -10 3.34 -10 3 C-6.7 2.34 -3.4 1.68 0 1 C0 0.67 0 0.34 0 0 Z M-44 29 C-43.67 29.66 -43.34 30.32 -43 31 C-42.67 30.34 -42.34 29.68 -42 29 C-42.66 29 -43.32 29 -44 29 Z M-3 51 C-4.14 52.08 -4.14 52.08 -5.31 53.19 C-8.28 58.14 -10.73 63.71 -9.43 69.54 C-7.62 73.79 -5.28 77.72 -2 81 C-1.01 81 -0.02 81 1 81 C1.33 81.99 1.66 82.98 2 84 C12.83 86 12.83 86 23 83 C27.24 78.75 27.24 78.75 28 73 C28.66 73 29.32 73 30 73 C30.03 70.23 30.05 67.46 30.06 64.69 C30.08 63.51 30.08 63.51 30.09 62.31 C30.09 61.55 30.09 60.79 30.1 60.01 C30.1 59.32 30.11 58.62 30.11 57.9 C30.07 55.78 30.07 55.78 29 53 C28.01 53 27.02 53 26 53 C25.81 52.42 25.63 51.85 25.44 51.25 C23.28 47.88 20.7 46.27 17 45 C8.51 43.63 3.05 44.9 -3 51 Z M-5 48 C-5 48.66 -5 49.32 -5 50 C-5.66 50 -6.32 50 -7 50 C-7 50.99 -7 51.98 -7 53 C-5.68 52.34 -4.36 51.68 -3 51 C-3 50.01 -3 49.02 -3 48 C-3.66 48 -4.32 48 -5 48 Z M65 98 C66 100 66 100 66 100 Z M45 116 C45 116.66 45 117.32 45 118 C45.66 117.67 46.32 117.34 47 117 C46.34 116.67 45.68 116.34 45 116 Z " fill="#000100" transform="translate(1119,669)"/>
<path d="M0 0 C0.33 0 0.66 0 1 0 C1 20.79 1 41.58 1 63 C0.67 63 0.34 63 0 63 C0 42.21 0 21.42 0 0 Z " fill="#FDFDFD" transform="translate(640,458)"/>
<path d="M0 0 C0.33 0 0.66 0 1 0 C1 16.5 1 33 1 50 C0.67 50 0.34 50 0 50 C0 33.5 0 17 0 0 Z " fill="#FDFDFD" transform="translate(150,458)"/>
<path d="M0 0 C0.33 0 0.66 0 1 0 C1 13.86 1 27.72 1 42 C0.67 42 0.34 42 0 42 C0 28.14 0 14.28 0 0 Z " fill="#000100" transform="translate(509,456)"/>
<path d="M0 0 C12.54 0 25.08 0 38 0 C38 0.33 38 0.66 38 1 C25.46 1 12.92 1 0 1 C0 0.67 0 0.34 0 0 Z " fill="#FDFDFD" transform="translate(556,500)"/>
<path d="M0 0 C0.33 0 0.66 0 1 0 C1 3.63 1 7.26 1 11 C0.67 11 0.34 11 0 11 C0 7.37 0 3.74 0 0 Z " fill="#FDFDFD" transform="translate(1195,729)"/>
<path d="M0 0 C0.33 0 0.66 0 1 0 C1 3.63 1 7.26 1 11 C0.67 11 0.34 11 0 11 C0 7.37 0 3.74 0 0 Z " fill="#FDFDFD" transform="translate(555,501)"/>
<path d="M0 0 C0.33 0 0.66 0 1 0 C1 3.3 1 6.6 1 10 C0.67 10 0.34 10 0 10 C0 6.7 0 3.4 0 0 Z " fill="#FDFDFD" transform="translate(405,849)"/>
<path d="M0 0 C0.33 0 0.66 0 1 0 C1 3.3 1 6.6 1 10 C0.67 10 0.34 10 0 10 C0 6.7 0 3.4 0 0 Z " fill="#000100" transform="translate(382,89)"/>
<path d="M0 0 C0.33 0 0.66 0 1 0 C1 2.97 1 5.94 1 9 C0.67 9 0.34 9 0 9 C0 6.03 0 3.06 0 0 Z " fill="#000100" transform="translate(552,435)"/>
<path d="M0 0 C0.33 0 0.66 0 1 0 C1 2.64 1 5.28 1 8 C0.67 8 0.34 8 0 8 C0 5.36 0 2.72 0 0 Z " fill="#FDFDFD" transform="translate(1025,735)"/>
<path d="M0 0 C0.33 0 0.66 0 1 0 C1 2.64 1 5.28 1 8 C0.67 8 0.34 8 0 8 C0 5.36 0 2.72 0 0 Z " fill="#000100" transform="translate(552,398)"/>
<path d="M0 0 C2.31 0 4.62 0 7 0 C7 0.33 7 0.66 7 1 C4.69 1 2.38 1 0 1 C0 0.67 0 0.34 0 0 Z " fill="#FDFDFD" transform="translate(562,1250)"/>
<path d="M0 0 C0.33 0 0.66 0 1 0 C1 2.31 1 4.62 1 7 C0.67 7 0.34 7 0 7 C0 4.69 0 2.38 0 0 Z " fill="#FDFDFD" transform="translate(1025,726)"/>
<path d="M0 0 C2.31 0 4.62 0 7 0 C7 0.33 7 0.66 7 1 C4.69 1 2.38 1 0 1 C0 0.67 0 0.34 0 0 Z " fill="#FDFDFD" transform="translate(1141,630)"/>
<path d="M0 0 C0.33 0 0.66 0 1 0 C1 2.31 1 4.62 1 7 C0.67 7 0.34 7 0 7 C0 4.69 0 2.38 0 0 Z " fill="#000100" transform="translate(552,410)"/>
<path d="M0 0 C1.98 0 3.96 0 6 0 C6 0.33 6 0.66 6 1 C4.02 1 2.04 1 0 1 C0 0.67 0 0.34 0 0 Z " fill="#FDFDFD" transform="translate(1114,630)"/>
<path d="M0 0 C0.99 0.33 1.98 0.66 3 1 C2.34 1 1.68 1 1 1 C0.67 1.66 0.34 2.32 0 3 C0 2.01 0 1.02 0 0 Z " fill="#000100" transform="translate(524,667)"/>
<path d="M0 0 C0.66 0.33 1.32 0.66 2 1 C1.01 1.66 0.02 2.32 -1 3 C-0.67 2.01 -0.34 1.02 0 0 Z " fill="#000100" transform="translate(529,663)"/>
<path d="M0 0 C0.33 0 0.66 0 1 0 C1 1.65 1 3.3 1 5 C0.67 5 0.34 5 0 5 C0 3.35 0 1.7 0 0 Z " fill="#FDFDFD" transform="translate(45,526)"/>
<path d="M0 0 C0.33 0 0.66 0 1 0 C1 1.65 1 3.3 1 5 C0.67 5 0.34 5 0 5 C0 3.35 0 1.7 0 0 Z " fill="#000100" transform="translate(552,448)"/>
<path d="M0 0 C4 1 4 1 4 1 Z " fill="#FDFDFD" transform="translate(515,1245)"/>
<path d="M0 0 C1 4 1 4 1 4 Z " fill="#FDFDFD" transform="translate(830,999)"/>
<path d="M0 0 C1 4 1 4 1 4 Z " fill="#000100" transform="translate(1234,730)"/>
<path d="M0 0 C1 4 1 4 1 4 Z " fill="#000100" transform="translate(552,424)"/>
<path d="M0 0 C4 1 4 1 4 1 Z " fill="#FDFDFD" transform="translate(944,400)"/>
<path d="M0 0 C3 1 3 1 3 1 Z " fill="#FDFDFD" transform="translate(612,1245)"/>
<path d="M0 0 C3 1 3 1 3 1 Z " fill="#FDFDFD" transform="translate(1124,715)"/>
<path d="M0 0 C0.99 0.5 0.99 0.5 2 1 C1.01 1.5 1.01 1.5 0 2 C0 1.34 0 0.68 0 0 Z " fill="#000100" transform="translate(531,661)"/>
<path d="" fill="#000100" transform="translate(0,0)"/>
<path d="" fill="#FDFDFD" transform="translate(0,0)"/>
<path d="" fill="#FDFDFD" transform="translate(0,0)"/>
<path d="" fill="#FDFDFD" transform="translate(0,0)"/>
<path d="M0 0 C3 1 3 1 3 1 Z " fill="#FDFDFD" transform="translate(993,400)"/>
<path d="M0 0 C3 1 3 1 3 1 Z " fill="#FDFDFD" transform="translate(190,160)"/>
<path d="M0 0 C0.99 0.5 0.99 0.5 2 1 C1.01 1.5 1.01 1.5 0 2 C0 1.34 0 0.68 0 0 Z " fill="#000100" transform="translate(67,107)"/>
<path d="M0 0 C0.99 0.49 0.99 0.49 2 1 C1.01 1.49 1.01 1.49 0 2 C0 1.34 0 0.68 0 0 Z " fill="#000100" transform="translate(148,44)"/>
<path d="M0 0 C2 1 2 1 2 1 Z " fill="#000100" transform="translate(491,1190)"/>
<path d="M0 0 C2 1 2 1 2 1 Z " fill="#000100" transform="translate(730,1119)"/>
<path d="" fill="#FDFDFD" transform="translate(0,0)"/>
<path d="M0 0 C2 1 2 1 2 1 Z " fill="#FDFDFD" transform="translate(282,925)"/>
<path d="" fill="#000100" transform="translate(0,0)"/>
<path d="M0 0 C2 1 2 1 2 1 Z " fill="#FDFDFD" transform="translate(1092,880)"/>
<path d="M0 0 C2 1 2 1 2 1 Z " fill="#000100" transform="translate(344,879)"/>
<path d="" fill="#FDFDFD" transform="translate(0,0)"/>
<path d="" fill="#000100" transform="translate(0,0)"/>
<path d="" fill="#FDFDFD" transform="translate(0,0)"/>
<path d="" fill="#000100" transform="translate(0,0)"/>
<path d="M0 0 C2 1 2 1 2 1 Z " fill="#FDFDFD" transform="translate(1134,715)"/>
<path d="M0 0 C2 1 2 1 2 1 Z " fill="#FDFDFD" transform="translate(372,710)"/>
<path d="M0 0 C2 1 2 1 2 1 Z " fill="#FDFDFD" transform="translate(287,710)"/>
<path d="M0 0 C2 1 2 1 2 1 Z " fill="#000100" transform="translate(479,704)"/>
<path d="M0 0 C2 1 2 1 2 1 Z " fill="#000100" transform="translate(517,674)"/>
<path d="" fill="#000100" transform="translate(0,0)"/>
<path d="" fill="#000100" transform="translate(0,0)"/>
<path d="" fill="#000100" transform="translate(0,0)"/>
<path d="M0 0 C2 1 2 1 2 1 Z " fill="#000100" transform="translate(1029,619)"/>
<path d="M0 0 C2 1 2 1 2 1 Z " fill="#000100" transform="translate(471,603)"/>
<path d="" fill="#FDFDFD" transform="translate(0,0)"/>
<path d="M0 0 C2 1 2 1 2 1 Z " fill="#000100" transform="translate(1176,590)"/>
<path d="" fill="#FDFDFD" transform="translate(0,0)"/>
<path d="" fill="#000100" transform="translate(0,0)"/>
<path d="" fill="#000100" transform="translate(0,0)"/>
<path d="" fill="#000100" transform="translate(0,0)"/>
<path d="" fill="#000100" transform="translate(0,0)"/>
<path d="" fill="#000100" transform="translate(0,0)"/>
<path d="" fill="#000100" transform="translate(0,0)"/>
<path d="" fill="#000100" transform="translate(0,0)"/>
<path d="" fill="#000100" transform="translate(0,0)"/>
<path d="" fill="#000100" transform="translate(0,0)"/>
<path d="" fill="#000100" transform="translate(0,0)"/>
<path d="M0 0 C2 1 2 1 2 1 Z " fill="#000100" transform="translate(845,404)"/>
<path d="" fill="#000100" transform="translate(0,0)"/>
<path d="M0 0 C2 1 2 1 2 1 Z " fill="#000100" transform="translate(79,94)"/>
<path d="M0 0 C2 1 2 1 2 1 Z " fill="#FDFDFD" transform="translate(452,75)"/>
<path d="" fill="#FDFDFD" transform="translate(0,0)"/>
<path d="" fill="#FDFDFD" transform="translate(0,0)"/>
<path d="" fill="#FDFDFD" transform="translate(0,0)"/>
<path d="" fill="#000100" transform="translate(0,0)"/>
<path d="" fill="#7C7B7A" transform="translate(0,0)"/>
<path d="" fill="#000100" transform="translate(0,0)"/>
<path d="" fill="#7C7B7A" transform="translate(0,0)"/>
<path d="" fill="#000100" transform="translate(0,0)"/>
<path d="" fill="#000100" transform="translate(0,0)"/>
<path d="" fill="#7C7B7A" transform="translate(0,0)"/>
<path d="" fill="#000100" transform="translate(0,0)"/>
<path d="" fill="#000100" transform="translate(0,0)"/>
<path d="" fill="#000100" transform="translate(0,0)"/>
<path d="" fill="#000100" transform="translate(0,0)"/>
<path d="" fill="#000100" transform="translate(0,0)"/>
<path d="" fill="#000100" transform="translate(0,0)"/>
<path d="" fill="#000100" transform="translate(0,0)"/>
<path d="" fill="#000100" transform="translate(0,0)"/>
<path d="" fill="#000100" transform="translate(0,0)"/>
<path d="" fill="#000100" transform="translate(0,0)"/>
<path d="" fill="#000100" transform="translate(0,0)"/>
<path d="" fill="#000100" transform="translate(0,0)"/>
<path d="" fill="#000100" transform="translate(0,0)"/>
<path d="" fill="#000100" transform="translate(0,0)"/>
<path d="" fill="#000100" transform="translate(0,0)"/>
<path d="" fill="#000100" transform="translate(0,0)"/>
<path d="" fill="#7C7B7A" transform="translate(0,0)"/>
<path d="" fill="#000100" transform="translate(0,0)"/>
<path d="" fill="#000100" transform="translate(0,0)"/>
<path d="" fill="#000100" transform="translate(0,0)"/>
<path d="" fill="#000100" transform="translate(0,0)"/>
<path d="" fill="#000100" transform="translate(0,0)"/>
<path d="" fill="#000100" transform="translate(0,0)"/>
<path d="" fill="#000100" transform="translate(0,0)"/>
<path d="" fill="#000100" transform="translate(0,0)"/>
<path d="" fill="#7C7B7A" transform="translate(0,0)"/>
<path d="" fill="#000100" transform="translate(0,0)"/>
<path d="" fill="#000100" transform="translate(0,0)"/>
<path d="" fill="#000100" transform="translate(0,0)"/>
<path d="" fill="#000100" transform="translate(0,0)"/>
<path d="" fill="#7C7B7A" transform="translate(0,0)"/>
<path d="" fill="#000100" transform="translate(0,0)"/>
<path d="" fill="#000100" transform="translate(0,0)"/>
<path d="" fill="#000100" transform="translate(0,0)"/>
<path d="" fill="#000100" transform="translate(0,0)"/>
<path d="" fill="#000100" transform="translate(0,0)"/>
<path d="" fill="#7C7B7A" transform="translate(0,0)"/>
<path d="" fill="#000100" transform="translate(0,0)"/>
<path d="" fill="#000100" transform="translate(0,0)"/>
<path d="" fill="#FDFDFD" transform="translate(0,0)"/>
<path d="" fill="#000100" transform="translate(0,0)"/>
<path d="" fill="#000100" transform="translate(0,0)"/>
<path d="" fill="#000100" transform="translate(0,0)"/>
<path d="" fill="#000100" transform="translate(0,0)"/>
<path d="" fill="#FDFDFD" transform="translate(0,0)"/>
<path d="" fill="#000100" transform="translate(0,0)"/>
<path d="" fill="#000100" transform="translate(0,0)"/>
<path d="" fill="#FDFDFD" transform="translate(0,0)"/>
<path d="" fill="#000100" transform="translate(0,0)"/>
<path d="" fill="#FDFDFD" transform="translate(0,0)"/>
<path d="" fill="#FDFDFD" transform="translate(0,0)"/>
<path d="" fill="#7C7B7A" transform="translate(0,0)"/>
<path d="" fill="#7C7B7A" transform="translate(0,0)"/>
<path d="" fill="#000100" transform="translate(0,0)"/>
<path d="" fill="#FDFDFD" transform="translate(0,0)"/>
<path d="" fill="#000100" transform="translate(0,0)"/>
<path d="" fill="#FDFDFD" transform="translate(0,0)"/>
<path d="" fill="#000100" transform="translate(0,0)"/>
<path d="" fill="#000100" transform="translate(0,0)"/>
<path d="" fill="#7C7B7A" transform="translate(0,0)"/>
<path d="" fill="#7C7B7A" transform="translate(0,0)"/>
<path d="" fill="#000100" transform="translate(0,0)"/>
<path d="" fill="#000100" transform="translate(0,0)"/>
<path d="" fill="#000100" transform="translate(0,0)"/>
<path d="" fill="#000100" transform="translate(0,0)"/>
<path d="" fill="#7C7B7A" transform="translate(0,0)"/>
<path d="" fill="#000100" transform="translate(0,0)"/>
<path d="" fill="#000100" transform="translate(0,0)"/>
<path d="" fill="#000100" transform="translate(0,0)"/>
<path d="" fill="#000100" transform="translate(0,0)"/>
<path d="" fill="#FDFDFD" transform="translate(0,0)"/>
<path d="" fill="#000100" transform="translate(0,0)"/>
<path d="" fill="#000100" transform="translate(0,0)"/>
<path d="" fill="#000100" transform="translate(0,0)"/>
<path d="" fill="#000100" transform="translate(0,0)"/>
<path d="" fill="#000100" transform="translate(0,0)"/>
<path d="" fill="#FDFDFD" transform="translate(0,0)"/>
<path d="" fill="#FDFDFD" transform="translate(0,0)"/>
<path d="" fill="#000100" transform="translate(0,0)"/>
<path d="" fill="#000100" transform="translate(0,0)"/>
<path d="" fill="#000100" transform="translate(0,0)"/>
<path d="" fill="#000100" transform="translate(0,0)"/>
<path d="" fill="#000100" transform="translate(0,0)"/>
<path d="" fill="#000100" transform="translate(0,0)"/>
<path d="" fill="#000100" transform="translate(0,0)"/>
<path d="" fill="#000100" transform="translate(0,0)"/>
<path d="" fill="#000100" transform="translate(0,0)"/>
<path d="" fill="#7C7B7A" transform="translate(0,0)"/>
<path d="" fill="#000100" transform="translate(0,0)"/>
<path d="" fill="#7C7B7A" transform="translate(0,0)"/>
<path d="" fill="#000100" transform="translate(0,0)"/>
<path d="" fill="#000100" transform="translate(0,0)"/>
<path d="" fill="#000100" transform="translate(0,0)"/>
<path d="" fill="#FDFDFD" transform="translate(0,0)"/>
<path d="" fill="#000100" transform="translate(0,0)"/>
<path d="" fill="#FDFDFD" transform="translate(0,0)"/>
<path d="" fill="#000100" transform="translate(0,0)"/>
<path d="" fill="#FDFDFD" transform="translate(0,0)"/>
<path d="" fill="#FDFDFD" transform="translate(0,0)"/>
<path d="" fill="#000100" transform="translate(0,0)"/>
<path d="" fill="#000100" transform="translate(0,0)"/>
<path d="" fill="#000100" transform="translate(0,0)"/>
<path d="" fill="#000100" transform="translate(0,0)"/>
<path d="" fill="#000100" transform="translate(0,0)"/>
<path d="" fill="#000100" transform="translate(0,0)"/>
<path d="" fill="#000100" transform="translate(0,0)"/>
<path d="" fill="#000100" transform="translate(0,0)"/>
<path d="" fill="#000100" transform="translate(0,0)"/>
<path d="" fill="#000100" transform="translate(0,0)"/>
<path d="" fill="#7C7B7A" transform="translate(0,0)"/>
<path d="" fill="#000100" transform="translate(0,0)"/>
<path d="" fill="#000100" transform="translate(0,0)"/>
<path d="" fill="#FDFDFD" transform="translate(0,0)"/>
<path d="" fill="#000100" transform="translate(0,0)"/>
<path d="" fill="#000100" transform="translate(0,0)"/>
<path d="" fill="#7C7B7A" transform="translate(0,0)"/>
<path d="" fill="#000100" transform="translate(0,0)"/>
<path d="" fill="#000100" transform="translate(0,0)"/>
<path d="" fill="#000100" transform="translate(0,0)"/>
<path d="" fill="#000100" transform="translate(0,0)"/>
<path d="" fill="#000100" transform="translate(0,0)"/>
<path d="" fill="#000100" transform="translate(0,0)"/>
<path d="" fill="#000100" transform="translate(0,0)"/>
<path d="" fill="#7C7B7A" transform="translate(0,0)"/>
<path d="" fill="#7C7B7A" transform="translate(0,0)"/>
<path d="" fill="#000100" transform="translate(0,0)"/>
<path d="" fill="#7C7B7A" transform="translate(0,0)"/>
<path d="" fill="#7C7B7A" transform="translate(0,0)"/>
<path d="" fill="#000100" transform="translate(0,0)"/>
<path d="" fill="#FDFDFD" transform="translate(0,0)"/>
<path d="" fill="#7C7B7A" transform="translate(0,0)"/>
<path d="" fill="#000100" transform="translate(0,0)"/>
<path d="" fill="#000100" transform="translate(0,0)"/>
<path d="" fill="#7C7B7A" transform="translate(0,0)"/>
<path d="" fill="#7C7B7A" transform="translate(0,0)"/>
<path d="" fill="#FDFDFD" transform="translate(0,0)"/>
<path d="" fill="#000100" transform="translate(0,0)"/>
<path d="" fill="#000100" transform="translate(0,0)"/>
<path d="" fill="#000100" transform="translate(0,0)"/>
<path d="" fill="#000100" transform="translate(0,0)"/>
<path d="" fill="#000100" transform="translate(0,0)"/>
<path d="" fill="#7C7B7A" transform="translate(0,0)"/>
<path d="" fill="#000100" transform="translate(0,0)"/>
<path d="" fill="#000100" transform="translate(0,0)"/>
<path d="" fill="#7C7B7A" transform="translate(0,0)"/>
<path d="" fill="#000100" transform="translate(0,0)"/>
<path d="" fill="#000100" transform="translate(0,0)"/>
<path d="" fill="#000100" transform="translate(0,0)"/>
<path d="" fill="#7C7B7A" transform="translate(0,0)"/>
<path d="" fill="#000100" transform="translate(0,0)"/>
<path d="" fill="#000100" transform="translate(0,0)"/>
<path d="" fill="#000100" transform="translate(0,0)"/>
<path d="" fill="#000100" transform="translate(0,0)"/>
<path d="" fill="#7C7B7A" transform="translate(0,0)"/>
<path d="" fill="#7C7B7A" transform="translate(0,0)"/>
<path d="" fill="#000100" transform="translate(0,0)"/>
<path d="" fill="#000100" transform="translate(0,0)"/>
<path d="" fill="#7C7B7A" transform="translate(0,0)"/>
<path d="" fill="#000100" transform="translate(0,0)"/>
<path d="" fill="#000100" transform="translate(0,0)"/>
<path d="" fill="#FDFDFD" transform="translate(0,0)"/>
<path d="" fill="#000100" transform="translate(0,0)"/>
<path d="" fill="#000100" transform="translate(0,0)"/>
<path d="" fill="#000100" transform="translate(0,0)"/>
<path d="" fill="#000100" transform="translate(0,0)"/>
<path d="" fill="#000100" transform="translate(0,0)"/>
<path d="" fill="#000100" transform="translate(0,0)"/>
<path d="" fill="#000100" transform="translate(0,0)"/>
<path d="" fill="#000100" transform="translate(0,0)"/>
<path d="" fill="#000100" transform="translate(0,0)"/>
<path d="" fill="#000100" transform="translate(0,0)"/>
<path d="" fill="#000100" transform="translate(0,0)"/>
<path d="" fill="#000100" transform="translate(0,0)"/>
<path d="" fill="#000100" transform="translate(0,0)"/>
<path d="" fill="#000100" transform="translate(0,0)"/>
<path d="" fill="#000100" transform="translate(0,0)"/>
<path d="" fill="#000100" transform="translate(0,0)"/>
<path d="" fill="#000100" transform="translate(0,0)"/>
<path d="" fill="#7C7B7A" transform="translate(0,0)"/>
<path d="" fill="#000100" transform="translate(0,0)"/>
<path d="" fill="#000100" transform="translate(0,0)"/>
<path d="" fill="#000100" transform="translate(0,0)"/>
<path d="" fill="#000100" transform="translate(0,0)"/>
<path d="" fill="#000100" transform="translate(0,0)"/>
<path d="" fill="#000100" transform="translate(0,0)"/>
<path d="" fill="#000100" transform="translate(0,0)"/>
<path d="" fill="#000100" transform="translate(0,0)"/>
<path d="" fill="#000100" transform="translate(0,0)"/>
<path d="" fill="#000100" transform="translate(0,0)"/>
<path d="" fill="#000100" transform="translate(0,0)"/>
<path d="" fill="#000100" transform="translate(0,0)"/>
<path d="" fill="#7C7B7A" transform="translate(0,0)"/>
<path d="" fill="#000100" transform="translate(0,0)"/>
<path d="" fill="#000100" transform="translate(0,0)"/>
<path d="" fill="#000100" transform="translate(0,0)"/>
<path d="" fill="#000100" transform="translate(0,0)"/>
<path d="" fill="#000100" transform="translate(0,0)"/>
<path d="" fill="#000100" transform="translate(0,0)"/>
<path d="" fill="#000100" transform="translate(0,0)"/>
<path d="" fill="#000100" transform="translate(0,0)"/>
<path d="" fill="#000100" transform="translate(0,0)"/>
<path d="" fill="#000100" transform="translate(0,0)"/>
<path d="" fill="#000100" transform="translate(0,0)"/>
<path d="" fill="#000100" transform="translate(0,0)"/>
<path d="" fill="#FDFDFD" transform="translate(0,0)"/>
<path d="" fill="#000100" transform="translate(0,0)"/>
<path d="" fill="#FDFDFD" transform="translate(0,0)"/>
<path d="" fill="#FDFDFD" transform="translate(0,0)"/>
<path d="" fill="#FDFDFD" transform="translate(0,0)"/>
<path d="" fill="#FDFDFD" transform="translate(0,0)"/>
<path d="" fill="#FDFDFD" transform="translate(0,0)"/>
<path d="" fill="#000100" transform="translate(0,0)"/>
<path d="" fill="#000100" transform="translate(0,0)"/>
<path d="" fill="#000100" transform="translate(0,0)"/>
<path d="" fill="#000100" transform="translate(0,0)"/>
<path d="" fill="#7C7B7A" transform="translate(0,0)"/>
<path d="" fill="#000100" transform="translate(0,0)"/>
<path d="" fill="#7C7B7A" transform="translate(0,0)"/>
<path d="" fill="#000100" transform="translate(0,0)"/>
<path d="" fill="#000100" transform="translate(0,0)"/>
<path d="" fill="#000100" transform="translate(0,0)"/>
<path d="" fill="#000100" transform="translate(0,0)"/>
<path d="" fill="#000100" transform="translate(0,0)"/>
<path d="" fill="#7C7B7A" transform="translate(0,0)"/>
<path d="" fill="#000100" transform="translate(0,0)"/>
<path d="" fill="#7C7B7A" transform="translate(0,0)"/>
<path d="" fill="#000100" transform="translate(0,0)"/>
<path d="" fill="#000100" transform="translate(0,0)"/>
<path d="" fill="#7C7B7A" transform="translate(0,0)"/>
<path d="" fill="#FDFDFD" transform="translate(0,0)"/>
<path d="" fill="#000100" transform="translate(0,0)"/>
<path d="" fill="#000100" transform="translate(0,0)"/>
<path d="" fill="#FDFDFD" transform="translate(0,0)"/>
<path d="" fill="#000100" transform="translate(0,0)"/>
<path d="" fill="#000100" transform="translate(0,0)"/>
<path d="" fill="#000100" transform="translate(0,0)"/>
<path d="" fill="#000100" transform="translate(0,0)"/>
<path d="" fill="#000100" transform="translate(0,0)"/>
<path d="" fill="#000100" transform="translate(0,0)"/>
<path d="" fill="#000100" transform="translate(0,0)"/>
<path d="" fill="#000100" transform="translate(0,0)"/>
<path d="" fill="#000100" transform="translate(0,0)"/>
<path d="" fill="#000100" transform="translate(0,0)"/>
<path d="" fill="#000100" transform="translate(0,0)"/>
<path d="" fill="#000100" transform="translate(0,0)"/>
<path d="" fill="#000100" transform="translate(0,0)"/>
<path d="" fill="#000100" transform="translate(0,0)"/>
<path d="" fill="#000100" transform="translate(0,0)"/>
<path d="" fill="#000100" transform="translate(0,0)"/>
<path d="" fill="#000100" transform="translate(0,0)"/>
<path d="" fill="#000100" transform="translate(0,0)"/>
<path d="" fill="#FDFDFD" transform="translate(0,0)"/>
<path d="" fill="#FDFDFD" transform="translate(0,0)"/>
<path d="" fill="#000100" transform="translate(0,0)"/>
<path d="" fill="#FDFDFD" transform="translate(0,0)"/>
<path d="" fill="#000100" transform="translate(0,0)"/>
<path d="" fill="#7C7B7A" transform="translate(0,0)"/>
<path d="" fill="#000100" transform="translate(0,0)"/>
<path d="" fill="#000100" transform="translate(0,0)"/>
<path d="" fill="#7C7B7A" transform="translate(0,0)"/>
<path d="" fill="#7C7B7A" transform="translate(0,0)"/>
<path d="" fill="#000100" transform="translate(0,0)"/>
<path d="" fill="#000100" transform="translate(0,0)"/>
<path d="" fill="#000100" transform="translate(0,0)"/>
<path d="" fill="#7C7B7A" transform="translate(0,0)"/>
<path d="" fill="#000100" transform="translate(0,0)"/>
<path d="" fill="#000100" transform="translate(0,0)"/>
<path d="" fill="#000100" transform="translate(0,0)"/>
<path d="" fill="#000100" transform="translate(0,0)"/>
<path d="" fill="#FDFDFD" transform="translate(0,0)"/>
<path d="" fill="#000100" transform="translate(0,0)"/>
<path d="" fill="#000100" transform="translate(0,0)"/>
<path d="" fill="#000100" transform="translate(0,0)"/>
<path d="" fill="#000100" transform="translate(0,0)"/>
<path d="" fill="#000100" transform="translate(0,0)"/>
<path d="" fill="#000100" transform="translate(0,0)"/>
<path d="" fill="#000100" transform="translate(0,0)"/>
<path d="" fill="#000100" transform="translate(0,0)"/>
<path d="" fill="#000100" transform="translate(0,0)"/>
<path d="" fill="#000100" transform="translate(0,0)"/>
<path d="" fill="#000100" transform="translate(0,0)"/>
<path d="" fill="#000100" transform="translate(0,0)"/>
<path d="" fill="#000100" transform="translate(0,0)"/>
<path d="" fill="#000100" transform="translate(0,0)"/>
<path d="" fill="#000100" transform="translate(0,0)"/>
<path d="" fill="#000100" transform="translate(0,0)"/>
<path d="" fill="#FDFDFD" transform="translate(0,0)"/>
<path d="" fill="#FDFDFD" transform="translate(0,0)"/>
<path d="" fill="#FDFDFD" transform="translate(0,0)"/>
<path d="" fill="#000100" transform="translate(0,0)"/>
<path d="" fill="#000100" transform="translate(0,0)"/>
<path d="" fill="#000100" transform="translate(0,0)"/>
<path d="" fill="#000100" transform="translate(0,0)"/>
<path d="" fill="#000100" transform="translate(0,0)"/>
<path d="" fill="#000100" transform="translate(0,0)"/>
<path d="" fill="#000100" transform="translate(0,0)"/>
<path d="" fill="#000100" transform="translate(0,0)"/>
<path d="" fill="#000100" transform="translate(0,0)"/>
<path d="" fill="#000100" transform="translate(0,0)"/>
<path d="" fill="#000100" transform="translate(0,0)"/>
<path d="" fill="#000100" transform="translate(0,0)"/>
<path d="" fill="#000100" transform="translate(0,0)"/>
<path d="" fill="#000100" transform="translate(0,0)"/>
<path d="" fill="#000100" transform="translate(0,0)"/>
<path d="" fill="#000100" transform="translate(0,0)"/>
<path d="" fill="#7C7B7A" transform="translate(0,0)"/>
<path d="" fill="#000100" transform="translate(0,0)"/>
<path d="" fill="#000100" transform="translate(0,0)"/>
<path d="" fill="#000100" transform="translate(0,0)"/>
</svg>
