<svg width="36" height="36" viewBox="0 0 36 36" fill="none" xmlns="http://www.w3.org/2000/svg">
<g id="ant-design:heart-filled">
<path id="Subtract" fill-rule="evenodd" clip-rule="evenodd" d="M30.4488 7.0594C31.2985 7.89045 31.978 8.87922 32.4492 9.97034C32.9379 11.1059 33.1875 12.3117 33.184 13.5528C33.184 14.7235 32.9449 15.9434 32.4703 17.1844C32.3842 17.4112 32.2895 17.6399 32.1865 17.8701C32.0648 17.7921 31.92 17.7469 31.7647 17.7469H26.7151L24.622 16.2978C24.415 16.1545 24.1517 16.1195 23.9145 16.2038C23.6773 16.2881 23.4951 16.4813 23.4249 16.723L22.6749 19.3066L20.7038 10.7653C20.6236 10.4179 20.3188 10.1685 19.9624 10.1589C19.606 10.1493 19.2881 10.3818 19.1893 10.7243L17.2402 17.4811L16.2719 14.5761C16.1654 14.2565 15.8663 14.041 15.5295 14.041C15.1926 14.041 14.8935 14.2565 14.787 14.5761L13.9007 17.235C13.7689 17.0223 13.5393 16.8801 13.2786 16.8657C12.9263 16.8462 12.6045 17.0649 12.4929 17.3996L11.668 19.8743L10.6504 14.6733C10.5856 14.3419 10.3155 14.0895 9.98044 14.0471C9.64539 14.0048 9.321 14.1822 9.17581 14.4871L7.62355 17.7469H3.75685C3.67445 17.5582 3.59753 17.3707 3.52617 17.1844C3.05156 15.9434 2.8125 14.7235 2.8125 13.5528C2.8125 12.3117 3.06211 11.1059 3.55078 9.97034C4.02074 8.87851 4.70038 7.88952 5.55117 7.0594C6.40547 6.22268 7.40039 5.56526 8.5043 5.10823C9.64687 4.63362 10.8562 4.39456 12.1043 4.39456C13.8375 4.39456 15.5285 4.86917 16.998 5.76565C17.3496 5.9801 17.6836 6.21565 18 6.47229C18.3164 6.21565 18.6504 5.9801 19.002 5.76565C20.4715 4.86917 22.1625 4.39456 23.8957 4.39456C25.1311 4.39171 26.3548 4.6343 27.4957 5.10823C28.596 5.56347 29.5985 6.22587 30.4488 7.0594ZM4.55213 19.3121C4.75741 19.6674 4.98043 20.025 5.2207 20.3836C6.37383 22.1028 7.95937 23.8957 9.92812 25.7133C13.1906 28.7262 16.4215 30.8074 16.5586 30.8918L17.3918 31.4262C17.7609 31.6617 18.2355 31.6617 18.6047 31.4262L19.4379 30.8918C19.575 30.8039 22.8023 28.7262 26.0684 25.7133C28.0371 23.8957 29.6227 22.1028 30.7758 20.3836C31.0161 20.025 31.2395 19.6674 31.4451 19.3121H26.4706C26.3114 19.3121 26.156 19.2635 26.0252 19.1729L24.625 18.2036L23.3399 22.63C23.2405 22.9722 22.9226 23.2041 22.5665 23.1941C22.2103 23.1842 21.9058 22.935 21.8257 22.5878L19.857 14.0568L18.0461 20.3346C17.9511 20.664 17.6529 20.8931 17.3102 20.9002C16.9675 20.9072 16.6601 20.6904 16.5517 20.3652L15.5295 17.2984L14.5072 20.3652C14.3956 20.7 14.0738 20.9186 13.7215 20.8991C13.4608 20.8847 13.2312 20.7425 13.0994 20.5298L12.2131 23.1887C12.1007 23.526 11.7751 23.7451 11.4204 23.7222C11.0656 23.6994 10.7708 23.4404 10.7026 23.0915L9.56961 17.3007L8.82428 18.8659C8.6945 19.1385 8.41955 19.3121 8.11769 19.3121H4.55213Z" fill="white"/>
</g>
</svg>
